<svg width="159" height="75" viewBox="0 0 159 75" fill="none" xmlns="http://www.w3.org/2000/svg">
<rect x="0.5" y="0.5" width="158" height="74" rx="4.5" fill="#FBFBFB" stroke="#C9C9C9"/>
<rect x="9" y="43" width="52" height="3" fill="#C4C4C4"/>
<rect x="18" y="49" width="43" height="3" fill="#C4C4C4"/>
<rect x="38" y="55" width="23" height="3" fill="#C4C4C4"/>
<rect x="50" y="61" width="11" height="3" fill="#C4C4C4"/>
<rect x="66" y="9" width="3" height="29" fill="#C4C4C4"/>
<rect x="90" y="26" width="3" height="12" fill="#C4C4C4"/>
<rect x="114" y="29" width="3" height="9" fill="#C4C4C4"/>
<rect x="72" y="11" width="3" height="27" fill="#C4C4C4"/>
<rect x="96" y="26" width="3" height="12" fill="#C4C4C4"/>
<rect x="120" y="29" width="3" height="9" fill="#C4C4C4"/>
<rect x="78" y="13" width="3" height="25" fill="#C4C4C4"/>
<rect x="102" y="26" width="3" height="12" fill="#C4C4C4"/>
<rect x="126" y="32" width="3" height="6" fill="#C4C4C4"/>
<rect x="84" y="16" width="3" height="22" fill="#C4C4C4"/>
<rect x="108" y="29" width="3" height="9" fill="#C4C4C4"/>
<rect x="132" y="32" width="3" height="6" fill="#C4C4C4"/>
<circle cx="67.5" cy="44.5" r="1.5" fill="#C4C4C4"/>
<circle cx="97.5" cy="50.5" r="1.5" fill="#C4C4C4"/>
<circle cx="127.5" cy="50.5" r="1.5" fill="#C4C4C4"/>
<circle cx="133.5" cy="50.5" r="1.5" fill="#C4C4C4"/>
<circle cx="115.5" cy="44.5" r="1.5" fill="#C4C4C4"/>
<circle cx="73.5" cy="50.5" r="1.5" fill="#C4C4C4"/>
<circle cx="85.5" cy="44.5" r="1.5" fill="#C4C4C4"/>
<circle cx="91.5" cy="56.5" r="1.5" fill="#C4C4C4"/>
<circle cx="109.5" cy="50.5" r="1.5" fill="#C4C4C4"/>
</svg>
