<svg width="14" height="14" viewBox="0 0 14 14" fill="none" xmlns="http://www.w3.org/2000/svg">
<rect x="5" y="1" width="4" height="1" fill="#EDEDED"/>
<rect x="4" y="2" width="6" height="1" fill="#EDEDED"/>
<rect x="3" y="3" width="8" height="1" fill="#EDEDED"/>
<rect x="2" y="4" width="10" height="1" fill="#EDEDED"/>
<rect x="1" y="5" width="12" height="1" fill="#EDEDED"/>
<rect x="1" y="6" width="12" height="1" fill="#EDEDED"/>
<rect x="1" y="7" width="12" height="1" fill="#EDEDED"/>
<rect x="1" y="8" width="12" height="1" fill="#EDEDED"/>
<rect x="2" y="9" width="10" height="1" fill="#EDEDED"/>
<rect x="3" y="10" width="8" height="1" fill="#EDEDED"/>
<rect x="4" y="11" width="6" height="1" fill="#EDEDED"/>
<rect x="5" y="12" width="4" height="1" fill="#EDEDED"/>
<rect x="7" y="5" width="1" height="1" fill="#989898"/>
<rect x="7" y="4" width="1" height="1" fill="#989898"/>
<rect x="7" y="3" width="1" height="1" fill="#989898"/>
<rect x="8" y="4" width="1" height="1" fill="#989898"/>
<rect x="8" y="5" width="1" height="1" fill="#989898"/>
<rect x="9" y="5" width="1" height="1" fill="#989898"/>
<rect x="9" y="6" width="1" height="1" fill="#989898"/>
<rect x="10" y="6" width="1" height="1" fill="#989898"/>
<rect x="8" y="6" width="1" height="1" fill="#989898"/>
<rect x="7" y="6" width="1" height="1" fill="#989898"/>
<rect x="11" y="6" width="1" height="1" fill="#989898"/>
<rect x="10" y="5" width="1" height="1" fill="#989898"/>
<rect x="9" y="4" width="1" height="1" fill="#989898"/>
<rect x="8" y="3" width="1" height="1" fill="#989898"/>
<rect x="7" y="2" width="1" height="1" fill="#989898"/>
<rect x="3" y="7" width="1" height="1" fill="#989898"/>
<rect x="4" y="7" width="1" height="1" fill="#989898"/>
<rect x="5" y="7" width="1" height="1" fill="#989898"/>
<rect x="6" y="7" width="1" height="1" fill="#989898"/>
<rect x="6" y="8" width="1" height="1" fill="#989898"/>
<rect x="5" y="8" width="1" height="1" fill="#989898"/>
<rect x="4" y="8" width="1" height="1" fill="#989898"/>
<rect x="5" y="9" width="1" height="1" fill="#989898"/>
<rect x="6" y="9" width="1" height="1" fill="#989898"/>
<rect x="6" y="10" width="1" height="1" fill="#989898"/>
<rect x="6" y="11" width="1" height="1" fill="#989898"/>
<rect x="5" y="10" width="1" height="1" fill="#989898"/>
<rect x="4" y="9" width="1" height="1" fill="#989898"/>
<rect x="3" y="8" width="1" height="1" fill="#989898"/>
<rect x="2" y="7" width="1" height="1" fill="#989898"/>
<rect x="6" y="2" width="1" height="1" fill="#4A4A4A"/>
<rect x="6" y="3" width="1" height="1" fill="#4A4A4A"/>
<rect x="6" y="4" width="1" height="1" fill="#4A4A4A"/>
<rect x="5" y="4" width="1" height="1" fill="#4A4A4A"/>
<rect x="5" y="5" width="1" height="1" fill="#4A4A4A"/>
<rect x="4" y="5" width="1" height="1" fill="#4A4A4A"/>
<rect x="6" y="5" width="1" height="1" fill="#4A4A4A"/>
<rect x="6" y="6" width="1" height="1" fill="#4A4A4A"/>
<rect x="5" y="6" width="1" height="1" fill="#4A4A4A"/>
<rect x="4" y="6" width="1" height="1" fill="#4A4A4A"/>
<rect x="3" y="6" width="1" height="1" fill="#4A4A4A"/>
<rect x="5" y="3" width="1" height="1" fill="#4A4A4A"/>
<rect x="4" y="4" width="1" height="1" fill="#4A4A4A"/>
<rect x="3" y="5" width="1" height="1" fill="#4A4A4A"/>
<rect x="2" y="6" width="1" height="1" fill="#4A4A4A"/>
<rect x="10" y="7" width="1" height="1" fill="#4A4A4A"/>
<rect x="9" y="7" width="1" height="1" fill="#4A4A4A"/>
<rect x="8" y="7" width="1" height="1" fill="#4A4A4A"/>
<rect x="7" y="7" width="1" height="1" fill="#4A4A4A"/>
<rect x="7" y="8" width="1" height="1" fill="#4A4A4A"/>
<rect x="7" y="9" width="1" height="1" fill="#4A4A4A"/>
<rect x="7" y="10" width="1" height="1" fill="#4A4A4A"/>
<rect x="8" y="9" width="1" height="1" fill="#4A4A4A"/>
<rect x="8" y="8" width="1" height="1" fill="#4A4A4A"/>
<rect x="9" y="8" width="1" height="1" fill="#4A4A4A"/>
<rect x="7" y="11" width="1" height="1" fill="#4A4A4A"/>
<rect x="8" y="10" width="1" height="1" fill="#4A4A4A"/>
<rect x="9" y="9" width="1" height="1" fill="#4A4A4A"/>
<rect x="10" y="8" width="1" height="1" fill="#4A4A4A"/>
<rect x="11" y="7" width="1" height="1" fill="#4A4A4A"/>
</svg>
