<svg width="16" height="16" viewBox="0 0 16 16" fill="none" xmlns="http://www.w3.org/2000/svg">
<g clip-path="url(#clip0_2508_158)">
<rect x="4" width="8" height="16" fill="white"/>
<rect x="2" y="2" width="12" height="12" fill="white"/>
<rect y="4" width="16" height="8" fill="white"/>
<rect x="6" y="8" width="2" height="6" fill="#C9C9C9"/>
<rect x="4" y="8" width="2" height="4" fill="#C9C9C9"/>
<rect x="2" y="8" width="2" height="2" fill="#C9C9C9"/>
<rect x="8" y="6" width="2" height="6" transform="rotate(90 8 6)" fill="#4A4A4A"/>
<rect x="8" y="4" width="2" height="4" transform="rotate(90 8 4)" fill="#4A4A4A"/>
<rect x="8" y="2" width="2" height="2" transform="rotate(90 8 2)" fill="#4A4A4A"/>
<rect x="8" y="10" width="2" height="6" transform="rotate(-90 8 10)" fill="#4A4A4A"/>
<rect x="8" y="12" width="2" height="4" transform="rotate(-90 8 12)" fill="#4A4A4A"/>
<rect x="8" y="14" width="2" height="2" transform="rotate(-90 8 14)" fill="#4A4A4A"/>
<rect x="10" y="8" width="2" height="6" transform="rotate(-180 10 8)" fill="#C9C9C9"/>
<rect x="12" y="8" width="2" height="4" transform="rotate(-180 12 8)" fill="#C9C9C9"/>
<rect x="14" y="8" width="2" height="2" transform="rotate(-180 14 8)" fill="#C9C9C9"/>
</g>
<defs>
<clipPath id="clip0_2508_158">
<rect width="16" height="16" fill="white"/>
</clipPath>
</defs>
</svg>
