<svg width="44" height="44" viewBox="0 0 44 44" fill="none" xmlns="http://www.w3.org/2000/svg">
<g clip-path="url(#clip0)">
<circle cx="22" cy="22" r="22" fill="black"/>
<path d="M21.96 27.844C21.456 27.844 21.022 27.676 20.658 27.34C20.322 27.004 20.112 26.514 20.028 25.87L18.18 11.17C18.152 11.03 18.138 10.834 18.138 10.582C18.138 9.546 18.502 8.72 19.23 8.104C19.958 7.488 20.868 7.18 21.96 7.18C23.164 7.18 24.13 7.544 24.858 8.272C25.614 9 25.908 9.98 25.74 11.212L23.85 25.87C23.794 26.514 23.584 27.004 23.22 27.34C22.884 27.676 22.464 27.844 21.96 27.844ZM21.96 37.252C20.924 37.252 20.07 36.916 19.398 36.244C18.726 35.544 18.39 34.676 18.39 33.64C18.39 32.604 18.726 31.75 19.398 31.078C20.07 30.378 20.924 30.028 21.96 30.028C22.996 30.028 23.85 30.378 24.522 31.078C25.194 31.75 25.53 32.604 25.53 33.64C25.53 34.676 25.194 35.544 24.522 36.244C23.85 36.916 22.996 37.252 21.96 37.252Z" fill="white"/>
</g>
<defs>
<clipPath id="clip0">
<rect width="44" height="44" fill="white"/>
</clipPath>
</defs>
</svg>
