<svg width="150" height="95" viewBox="0 0 150 95" fill="none" xmlns="http://www.w3.org/2000/svg">
<rect y="55" width="150" height="40" fill="white"/>
<rect x="25" y="55" width="92" height="40" fill="#ECECEC"/>
<rect x="55" y="55" width="33" height="40" fill="#CACACA"/>
<circle cx="127.5" cy="75" r="10" fill="black"/>
<rect x="71" y="55" width="2" height="40" fill="#717171"/>
<rect x="0.5" y="55.5" width="149" height="39" stroke="black"/>
<line x1="55" y1="42.5" x2="87.5" y2="42.5" stroke="black"/>
<line x1="87.5" y1="42" x2="87.5" y2="52" stroke="black"/>
<line x1="55.5" y1="42" x2="55.5" y2="52" stroke="black"/>
<path d="M58.95 33.116C60.27 33.116 61.32 33.446 62.1 34.106C62.88 34.766 63.27 35.696 63.27 36.896C63.27 38.228 62.844 39.278 61.992 40.046C61.152 40.802 59.976 41.18 58.464 41.18C57.804 41.18 57.18 41.12 56.592 41C56.016 40.88 55.53 40.706 55.134 40.478V38.984C55.566 39.248 56.088 39.458 56.7 39.614C57.324 39.758 57.918 39.83 58.482 39.83C59.43 39.83 60.192 39.608 60.768 39.164C61.356 38.708 61.65 38.006 61.65 37.058C61.65 36.218 61.392 35.576 60.876 35.132C60.36 34.676 59.544 34.448 58.428 34.448C58.092 34.448 57.708 34.478 57.276 34.538C56.844 34.598 56.496 34.658 56.232 34.718L55.44 34.214L55.926 28.148H62.37V29.588H57.276L56.97 33.314C57.174 33.278 57.45 33.236 57.798 33.188C58.146 33.14 58.53 33.116 58.95 33.116ZM73.7148 34.556C73.7148 35.936 73.5708 37.124 73.2828 38.12C72.9948 39.104 72.5388 39.86 71.9148 40.388C71.2908 40.916 70.4628 41.18 69.4308 41.18C67.9788 41.18 66.9048 40.598 66.2088 39.434C65.5248 38.258 65.1828 36.632 65.1828 34.556C65.1828 33.164 65.3208 31.976 65.5968 30.992C65.8848 30.008 66.3408 29.258 66.9648 28.742C67.5888 28.214 68.4108 27.95 69.4308 27.95C70.8708 27.95 71.9448 28.532 72.6528 29.696C73.3608 30.848 73.7148 32.468 73.7148 34.556ZM66.7668 34.556C66.7668 36.32 66.9648 37.64 67.3608 38.516C67.7688 39.392 68.4588 39.83 69.4308 39.83C70.3908 39.83 71.0748 39.398 71.4828 38.534C71.9028 37.658 72.1128 36.332 72.1128 34.556C72.1128 32.804 71.9028 31.49 71.4828 30.614C71.0748 29.738 70.3908 29.3 69.4308 29.3C68.4588 29.3 67.7688 29.738 67.3608 30.614C66.9648 31.49 66.7668 32.804 66.7668 34.556ZM78.1116 27.968C78.9996 27.968 79.6716 28.322 80.1276 29.03C80.5836 29.726 80.8116 30.71 80.8116 31.982C80.8116 33.254 80.5896 34.25 80.1456 34.97C79.7136 35.678 79.0356 36.032 78.1116 36.032C77.2596 36.032 76.6056 35.678 76.1496 34.97C75.7056 34.25 75.4836 33.254 75.4836 31.982C75.4836 30.71 75.6936 29.726 76.1136 29.03C76.5336 28.322 77.1996 27.968 78.1116 27.968ZM86.3376 28.148L79.2096 41H77.8236L84.9516 28.148H86.3376ZM78.1116 29.084C77.6556 29.084 77.3196 29.33 77.1036 29.822C76.8996 30.302 76.7976 31.022 76.7976 31.982C76.7976 32.942 76.8996 33.668 77.1036 34.16C77.3196 34.652 77.6556 34.898 78.1116 34.898C79.0356 34.898 79.4976 33.926 79.4976 31.982C79.4976 30.05 79.0356 29.084 78.1116 29.084ZM85.9776 33.116C86.8536 33.116 87.5196 33.47 87.9756 34.178C88.4436 34.874 88.6776 35.858 88.6776 37.13C88.6776 38.402 88.4556 39.398 88.0116 40.118C87.5796 40.826 86.9016 41.18 85.9776 41.18C85.1256 41.18 84.4716 40.826 84.0156 40.118C83.5716 39.398 83.3496 38.402 83.3496 37.13C83.3496 35.858 83.5596 34.874 83.9796 34.178C84.3996 33.47 85.0656 33.116 85.9776 33.116ZM85.9776 34.25C85.5216 34.25 85.1856 34.49 84.9696 34.97C84.7656 35.45 84.6636 36.17 84.6636 37.13C84.6636 38.102 84.7656 38.834 84.9696 39.326C85.1856 39.806 85.5216 40.046 85.9776 40.046C86.9016 40.046 87.3636 39.074 87.3636 37.13C87.3636 35.21 86.9016 34.25 85.9776 34.25Z" fill="black"/>
<path d="M63.36 11.638C63.36 12.562 63.276 13.474 63.108 14.374C62.952 15.262 62.658 16.072 62.226 16.804C61.806 17.524 61.206 18.1 60.426 18.532C59.658 18.964 58.668 19.18 57.456 19.18C57.216 19.18 56.934 19.162 56.61 19.126C56.298 19.102 56.04 19.06 55.836 19V17.65C56.304 17.806 56.832 17.884 57.42 17.884C58.26 17.884 58.95 17.746 59.49 17.47C60.042 17.194 60.48 16.822 60.804 16.354C61.128 15.874 61.362 15.322 61.506 14.698C61.65 14.062 61.734 13.396 61.758 12.7H61.65C61.386 13.108 61.002 13.462 60.498 13.762C60.006 14.05 59.37 14.194 58.59 14.194C57.486 14.194 56.592 13.858 55.908 13.186C55.236 12.502 54.9 11.542 54.9 10.306C54.9 9.406 55.068 8.632 55.404 7.984C55.752 7.336 56.232 6.838 56.844 6.49C57.456 6.142 58.176 5.968 59.004 5.968C59.82 5.968 60.558 6.178 61.218 6.598C61.878 7.006 62.4 7.63 62.784 8.47C63.168 9.298 63.36 10.354 63.36 11.638ZM59.004 7.3C58.26 7.3 57.648 7.546 57.168 8.038C56.7 8.53 56.466 9.28 56.466 10.288C56.466 11.116 56.664 11.77 57.06 12.25C57.468 12.718 58.092 12.952 58.932 12.952C59.508 12.952 60.006 12.838 60.426 12.61C60.846 12.37 61.17 12.07 61.398 11.71C61.638 11.35 61.758 10.978 61.758 10.594C61.758 10.078 61.656 9.568 61.452 9.064C61.248 8.56 60.942 8.14 60.534 7.804C60.126 7.468 59.616 7.3 59.004 7.3ZM69.2508 11.116C70.5708 11.116 71.6208 11.446 72.4008 12.106C73.1808 12.766 73.5708 13.696 73.5708 14.896C73.5708 16.228 73.1448 17.278 72.2928 18.046C71.4528 18.802 70.2768 19.18 68.7648 19.18C68.1048 19.18 67.4808 19.12 66.8928 19C66.3168 18.88 65.8308 18.706 65.4348 18.478V16.984C65.8668 17.248 66.3888 17.458 67.0008 17.614C67.6248 17.758 68.2188 17.83 68.7828 17.83C69.7308 17.83 70.4928 17.608 71.0688 17.164C71.6568 16.708 71.9508 16.006 71.9508 15.058C71.9508 14.218 71.6928 13.576 71.1768 13.132C70.6608 12.676 69.8448 12.448 68.7288 12.448C68.3928 12.448 68.0088 12.478 67.5768 12.538C67.1448 12.598 66.7968 12.658 66.5328 12.718L65.7408 12.214L66.2268 6.148H72.6708V7.588H67.5768L67.2708 11.314C67.4748 11.278 67.7508 11.236 68.0988 11.188C68.4468 11.14 68.8308 11.116 69.2508 11.116ZM78.1116 5.968C78.9996 5.968 79.6716 6.322 80.1276 7.03C80.5836 7.726 80.8116 8.71 80.8116 9.982C80.8116 11.254 80.5896 12.25 80.1456 12.97C79.7136 13.678 79.0356 14.032 78.1116 14.032C77.2596 14.032 76.6056 13.678 76.1496 12.97C75.7056 12.25 75.4836 11.254 75.4836 9.982C75.4836 8.71 75.6936 7.726 76.1136 7.03C76.5336 6.322 77.1996 5.968 78.1116 5.968ZM86.3376 6.148L79.2096 19H77.8236L84.9516 6.148H86.3376ZM78.1116 7.084C77.6556 7.084 77.3196 7.33 77.1036 7.822C76.8996 8.302 76.7976 9.022 76.7976 9.982C76.7976 10.942 76.8996 11.668 77.1036 12.16C77.3196 12.652 77.6556 12.898 78.1116 12.898C79.0356 12.898 79.4976 11.926 79.4976 9.982C79.4976 8.05 79.0356 7.084 78.1116 7.084ZM85.9776 11.116C86.8536 11.116 87.5196 11.47 87.9756 12.178C88.4436 12.874 88.6776 13.858 88.6776 15.13C88.6776 16.402 88.4556 17.398 88.0116 18.118C87.5796 18.826 86.9016 19.18 85.9776 19.18C85.1256 19.18 84.4716 18.826 84.0156 18.118C83.5716 17.398 83.3496 16.402 83.3496 15.13C83.3496 13.858 83.5596 12.874 83.9796 12.178C84.3996 11.47 85.0656 11.116 85.9776 11.116ZM85.9776 12.25C85.5216 12.25 85.1856 12.49 84.9696 12.97C84.7656 13.45 84.6636 14.17 84.6636 15.13C84.6636 16.102 84.7656 16.834 84.9696 17.326C85.1856 17.806 85.5216 18.046 85.9776 18.046C86.9016 18.046 87.3636 17.074 87.3636 15.13C87.3636 13.21 86.9016 12.25 85.9776 12.25Z" fill="black"/>
<path d="M130.574 25H128.954V19.006H122.366V25H120.746V12.148H122.366V17.584H128.954V12.148H130.574V25ZM137.634 12.148C139.23 12.148 140.406 12.454 141.162 13.066C141.93 13.666 142.314 14.578 142.314 15.802C142.314 16.486 142.188 17.056 141.936 17.512C141.684 17.968 141.36 18.334 140.964 18.61C140.58 18.874 140.172 19.084 139.74 19.24L143.268 25H141.378L138.264 19.69H135.708V25H134.088V12.148H137.634ZM137.544 13.552H135.708V18.322H137.634C138.678 18.322 139.44 18.118 139.92 17.71C140.4 17.29 140.64 16.678 140.64 15.874C140.64 15.034 140.388 14.44 139.884 14.092C139.38 13.732 138.6 13.552 137.544 13.552Z" fill="black"/>
<line x1="25" y1="21.5" x2="117" y2="21.5" stroke="black"/>
<line x1="116.5" y1="21" x2="116.5" y2="52" stroke="black"/>
<line x1="25.5" y1="21" x2="25.5" y2="52" stroke="black"/>
<line x1="127.5" y1="62" x2="127.5" y2="28" stroke="black"/>
</svg>
