<svg width="45" height="45" viewBox="0 0 45 45" fill="none" xmlns="http://www.w3.org/2000/svg">
<g clip-path="url(#clip0_201_2)">
<circle cx="22.5" cy="22.5" r="22.5" fill="black"/>
<path d="M22.824 15.084C21.816 15.084 21.036 14.856 20.484 14.4C19.956 13.92 19.692 13.248 19.692 12.384C19.692 11.496 19.956 10.824 20.484 10.368C21.036 9.888 21.816 9.648 22.824 9.648C24.888 9.648 25.92 10.56 25.92 12.384C25.92 14.184 24.888 15.084 22.824 15.084ZM22.824 36.288C21.936 36.288 21.252 36.036 20.772 35.532C20.316 35.004 20.088 34.272 20.088 33.336V21.024C20.088 19.032 21 18.036 22.824 18.036C23.688 18.036 24.348 18.3 24.804 18.828C25.284 19.332 25.524 20.064 25.524 21.024V33.336C25.524 34.272 25.296 35.004 24.84 35.532C24.384 36.036 23.712 36.288 22.824 36.288Z" fill="white"/>
</g>
<defs>
<clipPath id="clip0_201_2">
<rect width="45" height="45" fill="white"/>
</clipPath>
</defs>
</svg>
