<svg width="150" height="133" viewBox="0 0 150 133" fill="none" xmlns="http://www.w3.org/2000/svg">
<rect y="55" width="150" height="40" fill="white"/>
<rect x="25" y="55" width="92" height="40" fill="#ECECEC"/>
<rect x="55" y="55" width="33" height="40" fill="#CACACA"/>
<circle cx="127.5" cy="75" r="10" fill="black"/>
<rect x="71" y="55" width="2" height="40" fill="#717171"/>
<rect x="0.5" y="55.5" width="149" height="39" stroke="black"/>
<line x1="55" y1="42.5" x2="87.5" y2="42.5" stroke="black"/>
<line x1="87.5" y1="42" x2="87.5" y2="52" stroke="black"/>
<line x1="55.5" y1="42" x2="55.5" y2="52" stroke="black"/>
<path d="M58.95 33.116C60.27 33.116 61.32 33.446 62.1 34.106C62.88 34.766 63.27 35.696 63.27 36.896C63.27 38.228 62.844 39.278 61.992 40.046C61.152 40.802 59.976 41.18 58.464 41.18C57.804 41.18 57.18 41.12 56.592 41C56.016 40.88 55.53 40.706 55.134 40.478V38.984C55.566 39.248 56.088 39.458 56.7 39.614C57.324 39.758 57.918 39.83 58.482 39.83C59.43 39.83 60.192 39.608 60.768 39.164C61.356 38.708 61.65 38.006 61.65 37.058C61.65 36.218 61.392 35.576 60.876 35.132C60.36 34.676 59.544 34.448 58.428 34.448C58.092 34.448 57.708 34.478 57.276 34.538C56.844 34.598 56.496 34.658 56.232 34.718L55.44 34.214L55.926 28.148H62.37V29.588H57.276L56.97 33.314C57.174 33.278 57.45 33.236 57.798 33.188C58.146 33.14 58.53 33.116 58.95 33.116ZM73.7148 34.556C73.7148 35.936 73.5708 37.124 73.2828 38.12C72.9948 39.104 72.5388 39.86 71.9148 40.388C71.2908 40.916 70.4628 41.18 69.4308 41.18C67.9788 41.18 66.9048 40.598 66.2088 39.434C65.5248 38.258 65.1828 36.632 65.1828 34.556C65.1828 33.164 65.3208 31.976 65.5968 30.992C65.8848 30.008 66.3408 29.258 66.9648 28.742C67.5888 28.214 68.4108 27.95 69.4308 27.95C70.8708 27.95 71.9448 28.532 72.6528 29.696C73.3608 30.848 73.7148 32.468 73.7148 34.556ZM66.7668 34.556C66.7668 36.32 66.9648 37.64 67.3608 38.516C67.7688 39.392 68.4588 39.83 69.4308 39.83C70.3908 39.83 71.0748 39.398 71.4828 38.534C71.9028 37.658 72.1128 36.332 72.1128 34.556C72.1128 32.804 71.9028 31.49 71.4828 30.614C71.0748 29.738 70.3908 29.3 69.4308 29.3C68.4588 29.3 67.7688 29.738 67.3608 30.614C66.9648 31.49 66.7668 32.804 66.7668 34.556ZM78.1116 27.968C78.9996 27.968 79.6716 28.322 80.1276 29.03C80.5836 29.726 80.8116 30.71 80.8116 31.982C80.8116 33.254 80.5896 34.25 80.1456 34.97C79.7136 35.678 79.0356 36.032 78.1116 36.032C77.2596 36.032 76.6056 35.678 76.1496 34.97C75.7056 34.25 75.4836 33.254 75.4836 31.982C75.4836 30.71 75.6936 29.726 76.1136 29.03C76.5336 28.322 77.1996 27.968 78.1116 27.968ZM86.3376 28.148L79.2096 41H77.8236L84.9516 28.148H86.3376ZM78.1116 29.084C77.6556 29.084 77.3196 29.33 77.1036 29.822C76.8996 30.302 76.7976 31.022 76.7976 31.982C76.7976 32.942 76.8996 33.668 77.1036 34.16C77.3196 34.652 77.6556 34.898 78.1116 34.898C79.0356 34.898 79.4976 33.926 79.4976 31.982C79.4976 30.05 79.0356 29.084 78.1116 29.084ZM85.9776 33.116C86.8536 33.116 87.5196 33.47 87.9756 34.178C88.4436 34.874 88.6776 35.858 88.6776 37.13C88.6776 38.402 88.4556 39.398 88.0116 40.118C87.5796 40.826 86.9016 41.18 85.9776 41.18C85.1256 41.18 84.4716 40.826 84.0156 40.118C83.5716 39.398 83.3496 38.402 83.3496 37.13C83.3496 35.858 83.5596 34.874 83.9796 34.178C84.3996 33.47 85.0656 33.116 85.9776 33.116ZM85.9776 34.25C85.5216 34.25 85.1856 34.49 84.9696 34.97C84.7656 35.45 84.6636 36.17 84.6636 37.13C84.6636 38.102 84.7656 38.834 84.9696 39.326C85.1856 39.806 85.5216 40.046 85.9776 40.046C86.9016 40.046 87.3636 39.074 87.3636 37.13C87.3636 35.21 86.9016 34.25 85.9776 34.25Z" fill="black"/>
<path d="M63.36 11.638C63.36 12.562 63.276 13.474 63.108 14.374C62.952 15.262 62.658 16.072 62.226 16.804C61.806 17.524 61.206 18.1 60.426 18.532C59.658 18.964 58.668 19.18 57.456 19.18C57.216 19.18 56.934 19.162 56.61 19.126C56.298 19.102 56.04 19.06 55.836 19V17.65C56.304 17.806 56.832 17.884 57.42 17.884C58.26 17.884 58.95 17.746 59.49 17.47C60.042 17.194 60.48 16.822 60.804 16.354C61.128 15.874 61.362 15.322 61.506 14.698C61.65 14.062 61.734 13.396 61.758 12.7H61.65C61.386 13.108 61.002 13.462 60.498 13.762C60.006 14.05 59.37 14.194 58.59 14.194C57.486 14.194 56.592 13.858 55.908 13.186C55.236 12.502 54.9 11.542 54.9 10.306C54.9 9.406 55.068 8.632 55.404 7.984C55.752 7.336 56.232 6.838 56.844 6.49C57.456 6.142 58.176 5.968 59.004 5.968C59.82 5.968 60.558 6.178 61.218 6.598C61.878 7.006 62.4 7.63 62.784 8.47C63.168 9.298 63.36 10.354 63.36 11.638ZM59.004 7.3C58.26 7.3 57.648 7.546 57.168 8.038C56.7 8.53 56.466 9.28 56.466 10.288C56.466 11.116 56.664 11.77 57.06 12.25C57.468 12.718 58.092 12.952 58.932 12.952C59.508 12.952 60.006 12.838 60.426 12.61C60.846 12.37 61.17 12.07 61.398 11.71C61.638 11.35 61.758 10.978 61.758 10.594C61.758 10.078 61.656 9.568 61.452 9.064C61.248 8.56 60.942 8.14 60.534 7.804C60.126 7.468 59.616 7.3 59.004 7.3ZM69.2508 11.116C70.5708 11.116 71.6208 11.446 72.4008 12.106C73.1808 12.766 73.5708 13.696 73.5708 14.896C73.5708 16.228 73.1448 17.278 72.2928 18.046C71.4528 18.802 70.2768 19.18 68.7648 19.18C68.1048 19.18 67.4808 19.12 66.8928 19C66.3168 18.88 65.8308 18.706 65.4348 18.478V16.984C65.8668 17.248 66.3888 17.458 67.0008 17.614C67.6248 17.758 68.2188 17.83 68.7828 17.83C69.7308 17.83 70.4928 17.608 71.0688 17.164C71.6568 16.708 71.9508 16.006 71.9508 15.058C71.9508 14.218 71.6928 13.576 71.1768 13.132C70.6608 12.676 69.8448 12.448 68.7288 12.448C68.3928 12.448 68.0088 12.478 67.5768 12.538C67.1448 12.598 66.7968 12.658 66.5328 12.718L65.7408 12.214L66.2268 6.148H72.6708V7.588H67.5768L67.2708 11.314C67.4748 11.278 67.7508 11.236 68.0988 11.188C68.4468 11.14 68.8308 11.116 69.2508 11.116ZM78.1116 5.968C78.9996 5.968 79.6716 6.322 80.1276 7.03C80.5836 7.726 80.8116 8.71 80.8116 9.982C80.8116 11.254 80.5896 12.25 80.1456 12.97C79.7136 13.678 79.0356 14.032 78.1116 14.032C77.2596 14.032 76.6056 13.678 76.1496 12.97C75.7056 12.25 75.4836 11.254 75.4836 9.982C75.4836 8.71 75.6936 7.726 76.1136 7.03C76.5336 6.322 77.1996 5.968 78.1116 5.968ZM86.3376 6.148L79.2096 19H77.8236L84.9516 6.148H86.3376ZM78.1116 7.084C77.6556 7.084 77.3196 7.33 77.1036 7.822C76.8996 8.302 76.7976 9.022 76.7976 9.982C76.7976 10.942 76.8996 11.668 77.1036 12.16C77.3196 12.652 77.6556 12.898 78.1116 12.898C79.0356 12.898 79.4976 11.926 79.4976 9.982C79.4976 8.05 79.0356 7.084 78.1116 7.084ZM85.9776 11.116C86.8536 11.116 87.5196 11.47 87.9756 12.178C88.4436 12.874 88.6776 13.858 88.6776 15.13C88.6776 16.402 88.4556 17.398 88.0116 18.118C87.5796 18.826 86.9016 19.18 85.9776 19.18C85.1256 19.18 84.4716 18.826 84.0156 18.118C83.5716 17.398 83.3496 16.402 83.3496 15.13C83.3496 13.858 83.5596 12.874 83.9796 12.178C84.3996 11.47 85.0656 11.116 85.9776 11.116ZM85.9776 12.25C85.5216 12.25 85.1856 12.49 84.9696 12.97C84.7656 13.45 84.6636 14.17 84.6636 15.13C84.6636 16.102 84.7656 16.834 84.9696 17.326C85.1856 17.806 85.5216 18.046 85.9776 18.046C86.9016 18.046 87.3636 17.074 87.3636 15.13C87.3636 13.21 86.9016 12.25 85.9776 12.25Z" fill="black"/>
<path d="M130.574 25H128.954V19.006H122.366V25H120.746V12.148H122.366V17.584H128.954V12.148H130.574V25ZM137.634 12.148C139.23 12.148 140.406 12.454 141.162 13.066C141.93 13.666 142.314 14.578 142.314 15.802C142.314 16.486 142.188 17.056 141.936 17.512C141.684 17.968 141.36 18.334 140.964 18.61C140.58 18.874 140.172 19.084 139.74 19.24L143.268 25H141.378L138.264 19.69H135.708V25H134.088V12.148H137.634ZM137.544 13.552H135.708V18.322H137.634C138.678 18.322 139.44 18.118 139.92 17.71C140.4 17.29 140.64 16.678 140.64 15.874C140.64 15.034 140.388 14.44 139.884 14.092C139.38 13.732 138.6 13.552 137.544 13.552Z" fill="black"/>
<path d="M95.114 114.172C96.206 114.172 97.022 114.454 97.562 115.018C98.102 115.57 98.372 116.47 98.372 117.718V124H96.806V117.79C96.806 116.266 96.152 115.504 94.844 115.504C93.908 115.504 93.236 115.774 92.828 116.314C92.432 116.854 92.234 117.64 92.234 118.672V124H90.668V117.79C90.668 116.266 90.008 115.504 88.688 115.504C87.716 115.504 87.044 115.804 86.672 116.404C86.3 117.004 86.114 117.868 86.114 118.996V124H84.53V114.352H85.808L86.042 115.666H86.132C86.432 115.162 86.834 114.79 87.338 114.55C87.854 114.298 88.4 114.172 88.976 114.172C90.488 114.172 91.472 114.712 91.928 115.792H92.018C92.342 115.24 92.78 114.832 93.332 114.568C93.896 114.304 94.49 114.172 95.114 114.172ZM105.078 114.172C105.906 114.172 106.614 114.352 107.202 114.712C107.802 115.072 108.258 115.582 108.57 116.242C108.894 116.89 109.056 117.652 109.056 118.528V119.482H102.45C102.474 120.574 102.75 121.408 103.278 121.984C103.818 122.548 104.568 122.83 105.528 122.83C106.14 122.83 106.68 122.776 107.148 122.668C107.628 122.548 108.12 122.38 108.624 122.164V123.55C108.132 123.766 107.646 123.922 107.166 124.018C106.686 124.126 106.116 124.18 105.456 124.18C104.544 124.18 103.734 123.994 103.026 123.622C102.33 123.25 101.784 122.698 101.388 121.966C101.004 121.222 100.812 120.316 100.812 119.248C100.812 118.192 100.986 117.286 101.334 116.53C101.694 115.774 102.192 115.192 102.828 114.784C103.476 114.376 104.226 114.172 105.078 114.172ZM105.06 115.468C104.304 115.468 103.704 115.714 103.26 116.206C102.828 116.686 102.57 117.358 102.486 118.222H107.4C107.388 117.406 107.196 116.746 106.824 116.242C106.452 115.726 105.864 115.468 105.06 115.468ZM114.932 124.18C113.732 124.18 112.772 123.766 112.052 122.938C111.332 122.098 110.972 120.85 110.972 119.194C110.972 117.538 111.332 116.29 112.052 115.45C112.784 114.598 113.75 114.172 114.95 114.172C115.694 114.172 116.3 114.31 116.768 114.586C117.248 114.862 117.638 115.198 117.938 115.594H118.046C118.034 115.438 118.01 115.21 117.974 114.91C117.95 114.598 117.938 114.352 117.938 114.172V110.32H119.522V124H118.244L118.01 122.704H117.938C117.65 123.112 117.266 123.46 116.786 123.748C116.306 124.036 115.688 124.18 114.932 124.18ZM115.184 122.866C116.204 122.866 116.918 122.59 117.326 122.038C117.746 121.474 117.956 120.628 117.956 119.5V119.212C117.956 118.012 117.758 117.094 117.362 116.458C116.966 115.81 116.234 115.486 115.166 115.486C114.314 115.486 113.672 115.828 113.24 116.512C112.82 117.184 112.61 118.09 112.61 119.23C112.61 120.382 112.82 121.276 113.24 121.912C113.672 122.548 114.32 122.866 115.184 122.866ZM123.397 110.734C123.637 110.734 123.847 110.818 124.027 110.986C124.219 111.142 124.315 111.394 124.315 111.742C124.315 112.078 124.219 112.33 124.027 112.498C123.847 112.666 123.637 112.75 123.397 112.75C123.133 112.75 122.911 112.666 122.731 112.498C122.551 112.33 122.461 112.078 122.461 111.742C122.461 111.394 122.551 111.142 122.731 110.986C122.911 110.818 123.133 110.734 123.397 110.734ZM124.171 114.352V124H122.587V114.352H124.171ZM130.881 114.19C132.057 114.19 132.927 114.448 133.491 114.964C134.055 115.48 134.337 116.302 134.337 117.43V124H133.185L132.879 122.632H132.807C132.387 123.16 131.943 123.55 131.475 123.802C131.019 124.054 130.383 124.18 129.567 124.18C128.691 124.18 127.965 123.952 127.389 123.496C126.813 123.028 126.525 122.302 126.525 121.318C126.525 120.358 126.903 119.62 127.659 119.104C128.415 118.576 129.579 118.288 131.151 118.24L132.789 118.186V117.61C132.789 116.806 132.615 116.248 132.267 115.936C131.919 115.624 131.427 115.468 130.791 115.468C130.287 115.468 129.807 115.546 129.351 115.702C128.895 115.846 128.469 116.014 128.073 116.206L127.587 115.018C128.007 114.79 128.505 114.598 129.081 114.442C129.657 114.274 130.257 114.19 130.881 114.19ZM132.771 119.284L131.349 119.338C130.149 119.386 129.315 119.578 128.847 119.914C128.391 120.25 128.163 120.724 128.163 121.336C128.163 121.876 128.325 122.272 128.649 122.524C128.985 122.776 129.411 122.902 129.927 122.902C130.743 122.902 131.421 122.68 131.961 122.236C132.501 121.78 132.771 121.084 132.771 120.148V119.284ZM141.961 114.172C143.113 114.172 143.983 114.454 144.571 115.018C145.159 115.57 145.453 116.47 145.453 117.718V124H143.887V117.826C143.887 116.278 143.167 115.504 141.727 115.504C140.659 115.504 139.921 115.804 139.513 116.404C139.105 117.004 138.901 117.868 138.901 118.996V124H137.317V114.352H138.595L138.829 115.666H138.919C139.231 115.162 139.663 114.79 140.215 114.55C140.767 114.298 141.349 114.172 141.961 114.172Z" fill="black"/>
<line x1="25" y1="21.5" x2="117" y2="21.5" stroke="black"/>
<line x1="116.5" y1="21" x2="116.5" y2="52" stroke="black"/>
<line x1="25.5" y1="21" x2="25.5" y2="52" stroke="black"/>
<line x1="127.5" y1="62" x2="127.5" y2="28" stroke="black"/>
<line x1="72.5" y1="99" x2="72.5" y2="120" stroke="black"/>
<line x1="72" y1="119.5" x2="80" y2="119.5" stroke="black"/>
</svg>
