<svg xmlns="http://www.w3.org/2000/svg" xmlns:xlink="http://www.w3.org/1999/xlink" version="1.1" class="marks" width="369" height="347" viewBox="0 0 369 347"><rect width="369" height="347" fill="white"/><g fill="none" stroke-miterlimit="10" transform="translate(63,10)"><g class="mark-group role-frame root" role="graphics-object" aria-roledescription="group mark container"><g transform="translate(0,0)"><path class="background" aria-hidden="true" d="M0.5,0.5h300v300h-300Z" stroke="#ddd"/><g><g class="mark-group role-axis" aria-hidden="true"><g transform="translate(0.5,300.5)"><path class="background" aria-hidden="true" d="M0,0h0v0h0Z" pointer-events="none"/><g><g class="mark-rule role-axis-grid" pointer-events="none"><line transform="translate(0,-300)" x2="0" y2="300" stroke="#ddd" stroke-width="1" opacity="1"/><line transform="translate(30,-300)" x2="0" y2="300" stroke="#ddd" stroke-width="1" opacity="1"/><line transform="translate(60,-300)" x2="0" y2="300" stroke="#ddd" stroke-width="1" opacity="1"/><line transform="translate(90,-300)" x2="0" y2="300" stroke="#ddd" stroke-width="1" opacity="1"/><line transform="translate(120,-300)" x2="0" y2="300" stroke="#ddd" stroke-width="1" opacity="1"/><line transform="translate(150,-300)" x2="0" y2="300" stroke="#ddd" stroke-width="1" opacity="1"/><line transform="translate(180,-300)" x2="0" y2="300" stroke="#ddd" stroke-width="1" opacity="1"/><line transform="translate(210,-300)" x2="0" y2="300" stroke="#ddd" stroke-width="1" opacity="1"/><line transform="translate(240,-300)" x2="0" y2="300" stroke="#ddd" stroke-width="1" opacity="1"/><line transform="translate(270,-300)" x2="0" y2="300" stroke="#ddd" stroke-width="1" opacity="1"/><line transform="translate(300,-300)" x2="0" y2="300" stroke="#ddd" stroke-width="1" opacity="1"/></g></g><path class="foreground" aria-hidden="true" d="" pointer-events="none" display="none"/></g></g><g class="mark-group role-axis" aria-hidden="true"><g transform="translate(0.5,0.5)"><path class="background" aria-hidden="true" d="M0,0h0v0h0Z" pointer-events="none"/><g><g class="mark-rule role-axis-grid" pointer-events="none"><line transform="translate(0,300)" x2="300" y2="0" stroke="#ddd" stroke-width="1" opacity="1"/><line transform="translate(0,263)" x2="300" y2="0" stroke="#ddd" stroke-width="1" opacity="1"/><line transform="translate(0,225)" x2="300" y2="0" stroke="#ddd" stroke-width="1" opacity="1"/><line transform="translate(0,188)" x2="300" y2="0" stroke="#ddd" stroke-width="1" opacity="1"/><line transform="translate(0,150)" x2="300" y2="0" stroke="#ddd" stroke-width="1" opacity="1"/><line transform="translate(0,113)" x2="300" y2="0" stroke="#ddd" stroke-width="1" opacity="1"/><line transform="translate(0,75)" x2="300" y2="0" stroke="#ddd" stroke-width="1" opacity="1"/><line transform="translate(0,38)" x2="300" y2="0" stroke="#ddd" stroke-width="1" opacity="1"/><line transform="translate(0,0)" x2="300" y2="0" stroke="#ddd" stroke-width="1" opacity="1"/></g></g><path class="foreground" aria-hidden="true" d="" pointer-events="none" display="none"/></g></g><g class="mark-group role-axis" role="graphics-symbol" aria-roledescription="axis" aria-label="X-axis titled 'Age (years)' for a linear scale with values from 0 to 100"><g transform="translate(0.5,300.5)"><path class="background" aria-hidden="true" d="M0,0h0v0h0Z" pointer-events="none"/><g><g class="mark-rule role-axis-tick" pointer-events="none"><line transform="translate(0,0)" x2="0" y2="5" stroke="#888" stroke-width="1" opacity="1"/><line transform="translate(30,0)" x2="0" y2="5" stroke="#888" stroke-width="1" opacity="1"/><line transform="translate(60,0)" x2="0" y2="5" stroke="#888" stroke-width="1" opacity="1"/><line transform="translate(90,0)" x2="0" y2="5" stroke="#888" stroke-width="1" opacity="1"/><line transform="translate(120,0)" x2="0" y2="5" stroke="#888" stroke-width="1" opacity="1"/><line transform="translate(150,0)" x2="0" y2="5" stroke="#888" stroke-width="1" opacity="1"/><line transform="translate(180,0)" x2="0" y2="5" stroke="#888" stroke-width="1" opacity="1"/><line transform="translate(210,0)" x2="0" y2="5" stroke="#888" stroke-width="1" opacity="1"/><line transform="translate(240,0)" x2="0" y2="5" stroke="#888" stroke-width="1" opacity="1"/><line transform="translate(270,0)" x2="0" y2="5" stroke="#888" stroke-width="1" opacity="1"/><line transform="translate(300,0)" x2="0" y2="5" stroke="#888" stroke-width="1" opacity="1"/></g><g class="mark-text role-axis-label" pointer-events="none"><text text-anchor="start" transform="translate(0,15)" font-family="sans-serif" font-size="10px" fill="#000" opacity="1">0</text><text text-anchor="middle" transform="translate(30,15)" font-family="sans-serif" font-size="10px" fill="#000" opacity="1">10</text><text text-anchor="middle" transform="translate(60,15)" font-family="sans-serif" font-size="10px" fill="#000" opacity="1">20</text><text text-anchor="middle" transform="translate(90,15)" font-family="sans-serif" font-size="10px" fill="#000" opacity="1">30</text><text text-anchor="middle" transform="translate(120,15)" font-family="sans-serif" font-size="10px" fill="#000" opacity="1">40</text><text text-anchor="middle" transform="translate(150,15)" font-family="sans-serif" font-size="10px" fill="#000" opacity="1">50</text><text text-anchor="middle" transform="translate(180,15)" font-family="sans-serif" font-size="10px" fill="#000" opacity="1">60</text><text text-anchor="middle" transform="translate(210,15)" font-family="sans-serif" font-size="10px" fill="#000" opacity="1">70</text><text text-anchor="middle" transform="translate(240,15)" font-family="sans-serif" font-size="10px" fill="#000" opacity="1">80</text><text text-anchor="middle" transform="translate(270,15)" font-family="sans-serif" font-size="10px" fill="#000" opacity="1">90</text><text text-anchor="end" transform="translate(300,15)" font-family="sans-serif" font-size="10px" fill="#000" opacity="1">100</text></g><g class="mark-rule role-axis-domain" pointer-events="none"><line transform="translate(0,0)" x2="300" y2="0" stroke="#888" stroke-width="1" opacity="1"/></g><g class="mark-text role-axis-title" pointer-events="none"><text text-anchor="middle" transform="translate(150,30)" font-family="sans-serif" font-size="11px" font-weight="bold" fill="#000" opacity="1">Age (years)</text></g></g><path class="foreground" aria-hidden="true" d="" pointer-events="none" display="none"/></g></g><g class="mark-group role-axis" role="graphics-symbol" aria-roledescription="axis" aria-label="Y-axis titled 'Number of people' for a linear scale with values from 0 to 80,000"><g transform="translate(0.5,0.5)"><path class="background" aria-hidden="true" d="M0,0h0v0h0Z" pointer-events="none"/><g><g class="mark-rule role-axis-tick" pointer-events="none"><line transform="translate(0,300)" x2="-5" y2="0" stroke="#888" stroke-width="1" opacity="1"/><line transform="translate(0,263)" x2="-5" y2="0" stroke="#888" stroke-width="1" opacity="1"/><line transform="translate(0,225)" x2="-5" y2="0" stroke="#888" stroke-width="1" opacity="1"/><line transform="translate(0,188)" x2="-5" y2="0" stroke="#888" stroke-width="1" opacity="1"/><line transform="translate(0,150)" x2="-5" y2="0" stroke="#888" stroke-width="1" opacity="1"/><line transform="translate(0,113)" x2="-5" y2="0" stroke="#888" stroke-width="1" opacity="1"/><line transform="translate(0,75)" x2="-5" y2="0" stroke="#888" stroke-width="1" opacity="1"/><line transform="translate(0,38)" x2="-5" y2="0" stroke="#888" stroke-width="1" opacity="1"/><line transform="translate(0,0)" x2="-5" y2="0" stroke="#888" stroke-width="1" opacity="1"/></g><g class="mark-text role-axis-label" pointer-events="none"><text text-anchor="end" transform="translate(-7,303)" font-family="sans-serif" font-size="10px" fill="#000" opacity="1">0</text><text text-anchor="end" transform="translate(-7,265.5)" font-family="sans-serif" font-size="10px" fill="#000" opacity="1">10,000</text><text text-anchor="end" transform="translate(-7,228)" font-family="sans-serif" font-size="10px" fill="#000" opacity="1">20,000</text><text text-anchor="end" transform="translate(-7,190.5)" font-family="sans-serif" font-size="10px" fill="#000" opacity="1">30,000</text><text text-anchor="end" transform="translate(-7,153)" font-family="sans-serif" font-size="10px" fill="#000" opacity="1">40,000</text><text text-anchor="end" transform="translate(-7,115.5)" font-family="sans-serif" font-size="10px" fill="#000" opacity="1">50,000</text><text text-anchor="end" transform="translate(-7,78)" font-family="sans-serif" font-size="10px" fill="#000" opacity="1">60,000</text><text text-anchor="end" transform="translate(-7,40.5)" font-family="sans-serif" font-size="10px" fill="#000" opacity="1">70,000</text><text text-anchor="end" transform="translate(-7,3)" font-family="sans-serif" font-size="10px" fill="#000" opacity="1">80,000</text></g><g class="mark-rule role-axis-domain" pointer-events="none"><line transform="translate(0,300)" x2="0" y2="-300" stroke="#888" stroke-width="1" opacity="1"/></g><g class="mark-text role-axis-title" pointer-events="none"><text text-anchor="middle" transform="translate(-46.733333587646484,150) rotate(-90) translate(0,-2)" font-family="sans-serif" font-size="11px" font-weight="bold" fill="#000" opacity="1">Number of people</text></g></g><path class="foreground" aria-hidden="true" d="" pointer-events="none" display="none"/></g></g><g class="mark-rect role-mark marks" role="graphics-object" aria-roledescription="rect mark container"><path aria-label="Age (years): 0; Number of people: 12667; BinRight: 1" role="graphics-symbol" aria-roledescription="rect mark" d="M0,252.49875h3v47.50125h-3Z" fill="#4c78a8"/><path aria-label="Age (years): 1; Number of people: 10860; BinRight: 2" role="graphics-symbol" aria-roledescription="rect mark" d="M3,259.275h3v40.72500000000002h-3Z" fill="#4c78a8"/><path aria-label="Age (years): 2; Number of people: 10519; BinRight: 3" role="graphics-symbol" aria-roledescription="rect mark" d="M6,260.55375h3v39.44625000000002h-3Z" fill="#4c78a8"/><path aria-label="Age (years): 3; Number of people: 11262; BinRight: 4" role="graphics-symbol" aria-roledescription="rect mark" d="M9,257.7675h3v42.232500000000016h-3Z" fill="#4c78a8"/><path aria-label="Age (years): 4; Number of people: 12428; BinRight: 5" role="graphics-symbol" aria-roledescription="rect mark" d="M12,253.395h3v46.60499999999999h-3Z" fill="#4c78a8"/><path aria-label="Age (years): 5; Number of people: 12931; BinRight: 6" role="graphics-symbol" aria-roledescription="rect mark" d="M15,251.50875h3v48.49125000000001h-3Z" fill="#4c78a8"/><path aria-label="Age (years): 6; Number of people: 13961; BinRight: 7" role="graphics-symbol" aria-roledescription="rect mark" d="M18,247.64625h3.0000000000000036v52.35374999999999h-3.0000000000000036Z" fill="#4c78a8"/><path aria-label="Age (years): 7; Number of people: 15250; BinRight: 8" role="graphics-symbol" aria-roledescription="rect mark" d="M21.000000000000004,242.8125h2.9999999999999964v57.1875h-2.9999999999999964Z" fill="#4c78a8"/><path aria-label="Age (years): 8; Number of people: 14944; BinRight: 9" role="graphics-symbol" aria-roledescription="rect mark" d="M24,243.96h3v56.03999999999999h-3Z" fill="#4c78a8"/><path aria-label="Age (years): 9; Number of people: 15377; BinRight: 10" role="graphics-symbol" aria-roledescription="rect mark" d="M27,242.33625h3v57.66374999999999h-3Z" fill="#4c78a8"/><path aria-label="Age (years): 10; Number of people: 16457; BinRight: 11" role="graphics-symbol" aria-roledescription="rect mark" d="M30,238.28625000000002h3v61.713749999999976h-3Z" fill="#4c78a8"/><path aria-label="Age (years): 11; Number of people: 19173; BinRight: 12" role="graphics-symbol" aria-roledescription="rect mark" d="M33,228.10125h3v71.89875h-3Z" fill="#4c78a8"/><path aria-label="Age (years): 12; Number of people: 18016; BinRight: 13" role="graphics-symbol" aria-roledescription="rect mark" d="M36,232.43999999999997h3v67.56000000000003h-3Z" fill="#4c78a8"/><path aria-label="Age (years): 13; Number of people: 21428; BinRight: 14" role="graphics-symbol" aria-roledescription="rect mark" d="M39,219.645h3.000000000000007v80.35499999999999h-3.000000000000007Z" fill="#4c78a8"/><path aria-label="Age (years): 14; Number of people: 28171; BinRight: 15" role="graphics-symbol" aria-roledescription="rect mark" d="M42.00000000000001,194.35875000000001h2.999999999999993v105.64124999999999h-2.999999999999993Z" fill="#4c78a8"/><path aria-label="Age (years): 15; Number of people: 28334; BinRight: 16" role="graphics-symbol" aria-roledescription="rect mark" d="M45,193.7475h3v106.2525h-3Z" fill="#4c78a8"/><path aria-label="Age (years): 16; Number of people: 31052; BinRight: 17" role="graphics-symbol" aria-roledescription="rect mark" d="M48,183.555h3.000000000000007v116.445h-3.000000000000007Z" fill="#4c78a8"/><path aria-label="Age (years): 17; Number of people: 31869; BinRight: 18" role="graphics-symbol" aria-roledescription="rect mark" d="M51.00000000000001,180.49125h2.999999999999993v119.50874999999999h-2.999999999999993Z" fill="#4c78a8"/><path aria-label="Age (years): 18; Number of people: 31803; BinRight: 19" role="graphics-symbol" aria-roledescription="rect mark" d="M54,180.73875h3v119.26124999999999h-3Z" fill="#4c78a8"/><path aria-label="Age (years): 19; Number of people: 33219; BinRight: 20" role="graphics-symbol" aria-roledescription="rect mark" d="M57,175.42875000000004h3v124.57124999999996h-3Z" fill="#4c78a8"/><path aria-label="Age (years): 20; Number of people: 34157; BinRight: 21" role="graphics-symbol" aria-roledescription="rect mark" d="M60,171.91125h3v128.08875h-3Z" fill="#4c78a8"/><path aria-label="Age (years): 21; Number of people: 34756; BinRight: 22" role="graphics-symbol" aria-roledescription="rect mark" d="M63,169.665h3v130.335h-3Z" fill="#4c78a8"/><path aria-label="Age (years): 22; Number of people: 35337; BinRight: 23" role="graphics-symbol" aria-roledescription="rect mark" d="M66,167.48625h3v132.51375h-3Z" fill="#4c78a8"/><path aria-label="Age (years): 23; Number of people: 36847; BinRight: 24" role="graphics-symbol" aria-roledescription="rect mark" d="M69,161.82375000000002h3v138.17624999999998h-3Z" fill="#4c78a8"/><path aria-label="Age (years): 24; Number of people: 38967; BinRight: 25" role="graphics-symbol" aria-roledescription="rect mark" d="M72,153.87375h3v146.12625h-3Z" fill="#4c78a8"/><path aria-label="Age (years): 25; Number of people: 40922; BinRight: 26" role="graphics-symbol" aria-roledescription="rect mark" d="M75,146.5425h3v153.4575h-3Z" fill="#4c78a8"/><path aria-label="Age (years): 26; Number of people: 41693; BinRight: 27" role="graphics-symbol" aria-roledescription="rect mark" d="M78,143.65125h3v156.34875h-3Z" fill="#4c78a8"/><path aria-label="Age (years): 27; Number of people: 42189; BinRight: 28" role="graphics-symbol" aria-roledescription="rect mark" d="M81,141.79125000000002h3.000000000000014v158.20874999999998h-3.000000000000014Z" fill="#4c78a8"/><path aria-label="Age (years): 28; Number of people: 42603; BinRight: 29" role="graphics-symbol" aria-roledescription="rect mark" d="M84.00000000000001,140.23875h2.999999999999986v159.76125h-2.999999999999986Z" fill="#4c78a8"/><path aria-label="Age (years): 29; Number of people: 43232; BinRight: 30" role="graphics-symbol" aria-roledescription="rect mark" d="M87,137.88h3v162.12h-3Z" fill="#4c78a8"/><path aria-label="Age (years): 30; Number of people: 43507; BinRight: 31" role="graphics-symbol" aria-roledescription="rect mark" d="M90,136.84875h3v163.15125h-3Z" fill="#4c78a8"/><path aria-label="Age (years): 31; Number of people: 43006; BinRight: 32" role="graphics-symbol" aria-roledescription="rect mark" d="M93,138.7275h3v161.2725h-3Z" fill="#4c78a8"/><path aria-label="Age (years): 32; Number of people: 43657; BinRight: 33" role="graphics-symbol" aria-roledescription="rect mark" d="M96,136.28625h3v163.71375h-3Z" fill="#4c78a8"/><path aria-label="Age (years): 33; Number of people: 43563; BinRight: 34" role="graphics-symbol" aria-roledescription="rect mark" d="M99,136.63875h3.000000000000014v163.36125h-3.000000000000014Z" fill="#4c78a8"/><path aria-label="Age (years): 34; Number of people: 46002; BinRight: 35" role="graphics-symbol" aria-roledescription="rect mark" d="M102.00000000000001,127.49249999999999h2.999999999999986v172.5075h-2.999999999999986Z" fill="#4c78a8"/><path aria-label="Age (years): 35; Number of people: 46365; BinRight: 36" role="graphics-symbol" aria-roledescription="rect mark" d="M105,126.13125000000001h3v173.86874999999998h-3Z" fill="#4c78a8"/><path aria-label="Age (years): 36; Number of people: 45455; BinRight: 37" role="graphics-symbol" aria-roledescription="rect mark" d="M108,129.54375000000002h3v170.45624999999998h-3Z" fill="#4c78a8"/><path aria-label="Age (years): 37; Number of people: 45820; BinRight: 38" role="graphics-symbol" aria-roledescription="rect mark" d="M111,128.175h3v171.825h-3Z" fill="#4c78a8"/><path aria-label="Age (years): 38; Number of people: 46173; BinRight: 39" role="graphics-symbol" aria-roledescription="rect mark" d="M114,126.85125h3v173.14875h-3Z" fill="#4c78a8"/><path aria-label="Age (years): 39; Number of people: 49286; BinRight: 40" role="graphics-symbol" aria-roledescription="rect mark" d="M117,115.1775h3v184.8225h-3Z" fill="#4c78a8"/><path aria-label="Age (years): 40; Number of people: 50047; BinRight: 41" role="graphics-symbol" aria-roledescription="rect mark" d="M120,112.32375000000002h2.999999999999986v187.67624999999998h-2.999999999999986Z" fill="#4c78a8"/><path aria-label="Age (years): 41; Number of people: 46398; BinRight: 42" role="graphics-symbol" aria-roledescription="rect mark" d="M122.99999999999999,126.0075h3.000000000000014v173.9925h-3.000000000000014Z" fill="#4c78a8"/><path aria-label="Age (years): 42; Number of people: 46202; BinRight: 43" role="graphics-symbol" aria-roledescription="rect mark" d="M126,126.7425h3v173.2575h-3Z" fill="#4c78a8"/><path aria-label="Age (years): 43; Number of people: 45993; BinRight: 44" role="graphics-symbol" aria-roledescription="rect mark" d="M129,127.52624999999999h3v172.47375h-3Z" fill="#4c78a8"/><path aria-label="Age (years): 44; Number of people: 48632; BinRight: 45" role="graphics-symbol" aria-roledescription="rect mark" d="M132,117.63h3v182.37h-3Z" fill="#4c78a8"/><path aria-label="Age (years): 45; Number of people: 48953; BinRight: 46" role="graphics-symbol" aria-roledescription="rect mark" d="M135,116.42625000000001h3v183.57375h-3Z" fill="#4c78a8"/><path aria-label="Age (years): 46; Number of people: 47656; BinRight: 47" role="graphics-symbol" aria-roledescription="rect mark" d="M138,121.28999999999999h3v178.71h-3Z" fill="#4c78a8"/><path aria-label="Age (years): 47; Number of people: 49413; BinRight: 48" role="graphics-symbol" aria-roledescription="rect mark" d="M141,114.70125h3v185.29874999999998h-3Z" fill="#4c78a8"/><path aria-label="Age (years): 48; Number of people: 50989; BinRight: 49" role="graphics-symbol" aria-roledescription="rect mark" d="M144,108.79124999999999h3v191.20875h-3Z" fill="#4c78a8"/><path aria-label="Age (years): 49; Number of people: 57590; BinRight: 50" role="graphics-symbol" aria-roledescription="rect mark" d="M147,84.0375h3v215.9625h-3Z" fill="#4c78a8"/><path aria-label="Age (years): 50; Number of people: 60879; BinRight: 51" role="graphics-symbol" aria-roledescription="rect mark" d="M150,71.70374999999999h3v228.29625000000001h-3Z" fill="#4c78a8"/><path aria-label="Age (years): 51; Number of people: 56284; BinRight: 52" role="graphics-symbol" aria-roledescription="rect mark" d="M153,88.935h3v211.065h-3Z" fill="#4c78a8"/><path aria-label="Age (years): 52; Number of people: 60280; BinRight: 53" role="graphics-symbol" aria-roledescription="rect mark" d="M156,73.95000000000002h3v226.04999999999998h-3Z" fill="#4c78a8"/><path aria-label="Age (years): 53; Number of people: 61450; BinRight: 54" role="graphics-symbol" aria-roledescription="rect mark" d="M159,69.56250000000001h3v230.4375h-3Z" fill="#4c78a8"/><path aria-label="Age (years): 54; Number of people: 63660; BinRight: 55" role="graphics-symbol" aria-roledescription="rect mark" d="M162,61.27500000000001h3v238.725h-3Z" fill="#4c78a8"/><path aria-label="Age (years): 55; Number of people: 64984; BinRight: 56" role="graphics-symbol" aria-roledescription="rect mark" d="M165,56.309999999999995h3.0000000000000284v243.69h-3.0000000000000284Z" fill="#4c78a8"/><path aria-label="Age (years): 56; Number of people: 62926; BinRight: 57" role="graphics-symbol" aria-roledescription="rect mark" d="M168.00000000000003,64.02749999999999h2.999999999999943v235.97250000000003h-2.999999999999943Z" fill="#4c78a8"/><path aria-label="Age (years): 57; Number of people: 63866; BinRight: 58" role="graphics-symbol" aria-roledescription="rect mark" d="M170.99999999999997,60.50250000000001h3.0000000000000284v239.4975h-3.0000000000000284Z" fill="#4c78a8"/><path aria-label="Age (years): 58; Number of people: 65413; BinRight: 59" role="graphics-symbol" aria-roledescription="rect mark" d="M174,54.701250000000016h3v245.29874999999998h-3Z" fill="#4c78a8"/><path aria-label="Age (years): 59; Number of people: 68249; BinRight: 60" role="graphics-symbol" aria-roledescription="rect mark" d="M177,44.06624999999998h3v255.93375000000003h-3Z" fill="#4c78a8"/><path aria-label="Age (years): 60; Number of people: 69006; BinRight: 61" role="graphics-symbol" aria-roledescription="rect mark" d="M180,41.227500000000006h3v258.7725h-3Z" fill="#4c78a8"/><path aria-label="Age (years): 61; Number of people: 67391; BinRight: 62" role="graphics-symbol" aria-roledescription="rect mark" d="M183,47.28375000000001h3v252.71625h-3Z" fill="#4c78a8"/><path aria-label="Age (years): 62; Number of people: 69242; BinRight: 63" role="graphics-symbol" aria-roledescription="rect mark" d="M186,40.3425h3v259.6575h-3Z" fill="#4c78a8"/><path aria-label="Age (years): 63; Number of people: 70500; BinRight: 64" role="graphics-symbol" aria-roledescription="rect mark" d="M189,35.62500000000001h3v264.375h-3Z" fill="#4c78a8"/><path aria-label="Age (years): 64; Number of people: 72638; BinRight: 65" role="graphics-symbol" aria-roledescription="rect mark" d="M192,27.60750000000001h3v272.3925h-3Z" fill="#4c78a8"/><path aria-label="Age (years): 65; Number of people: 71241; BinRight: 66" role="graphics-symbol" aria-roledescription="rect mark" d="M195,32.84624999999999h3v267.15375h-3Z" fill="#4c78a8"/><path aria-label="Age (years): 66; Number of people: 70967; BinRight: 67" role="graphics-symbol" aria-roledescription="rect mark" d="M198,33.873749999999994h3v266.12625h-3Z" fill="#4c78a8"/><path aria-label="Age (years): 67; Number of people: 72620; BinRight: 68" role="graphics-symbol" aria-roledescription="rect mark" d="M201,27.675000000000015h3.0000000000000284v272.325h-3.0000000000000284Z" fill="#4c78a8"/><path aria-label="Age (years): 68; Number of people: 72437; BinRight: 69" role="graphics-symbol" aria-roledescription="rect mark" d="M204.00000000000003,28.361250000000016h2.999999999999943v271.63874999999996h-2.999999999999943Z" fill="#4c78a8"/><path aria-label="Age (years): 69; Number of people: 76914; BinRight: 70" role="graphics-symbol" aria-roledescription="rect mark" d="M206.99999999999997,11.572500000000009h3.0000000000000284v288.4275h-3.0000000000000284Z" fill="#4c78a8"/><path aria-label="Age (years): 70; Number of people: 65137; BinRight: 71" role="graphics-symbol" aria-roledescription="rect mark" d="M210,55.73625h3v244.26375000000002h-3Z" fill="#4c78a8"/><path aria-label="Age (years): 71; Number of people: 61330; BinRight: 72" role="graphics-symbol" aria-roledescription="rect mark" d="M213,70.0125h3v229.9875h-3Z" fill="#4c78a8"/><path aria-label="Age (years): 72; Number of people: 55947; BinRight: 73" role="graphics-symbol" aria-roledescription="rect mark" d="M216,90.19875000000002h3v209.80124999999998h-3Z" fill="#4c78a8"/><path aria-label="Age (years): 73; Number of people: 54695; BinRight: 74" role="graphics-symbol" aria-roledescription="rect mark" d="M219,94.89375h3v205.10625h-3Z" fill="#4c78a8"/><path aria-label="Age (years): 74; Number of people: 53668; BinRight: 75" role="graphics-symbol" aria-roledescription="rect mark" d="M222,98.74500000000002h3v201.255h-3Z" fill="#4c78a8"/><path aria-label="Age (years): 75; Number of people: 46959; BinRight: 76" role="graphics-symbol" aria-roledescription="rect mark" d="M225,123.90375h3v176.09625h-3Z" fill="#4c78a8"/><path aria-label="Age (years): 76; Number of people: 44979; BinRight: 77" role="graphics-symbol" aria-roledescription="rect mark" d="M228,131.32875h3v168.67125h-3Z" fill="#4c78a8"/><path aria-label="Age (years): 77; Number of people: 42560; BinRight: 78" role="graphics-symbol" aria-roledescription="rect mark" d="M231,140.39999999999998h3v159.60000000000002h-3Z" fill="#4c78a8"/><path aria-label="Age (years): 78; Number of people: 40414; BinRight: 79" role="graphics-symbol" aria-roledescription="rect mark" d="M234,148.4475h3v151.5525h-3Z" fill="#4c78a8"/><path aria-label="Age (years): 79; Number of people: 40008; BinRight: 80" role="graphics-symbol" aria-roledescription="rect mark" d="M237,149.97h3v150.03h-3Z" fill="#4c78a8"/><path aria-label="Age (years): 80; Number of people: 35333; BinRight: 81" role="graphics-symbol" aria-roledescription="rect mark" d="M240,167.50124999999997h3.0000000000000284v132.49875000000003h-3.0000000000000284Z" fill="#4c78a8"/><path aria-label="Age (years): 81; Number of people: 32466; BinRight: 82" role="graphics-symbol" aria-roledescription="rect mark" d="M243.00000000000003,178.2525h2.999999999999943v121.7475h-2.999999999999943Z" fill="#4c78a8"/><path aria-label="Age (years): 82; Number of people: 30523; BinRight: 83" role="graphics-symbol" aria-roledescription="rect mark" d="M245.99999999999997,185.53875000000002h3.0000000000000284v114.46124999999998h-3.0000000000000284Z" fill="#4c78a8"/><path aria-label="Age (years): 83; Number of people: 28958; BinRight: 84" role="graphics-symbol" aria-roledescription="rect mark" d="M249,191.40750000000003h3v108.59249999999997h-3Z" fill="#4c78a8"/><path aria-label="Age (years): 84; Number of people: 27792; BinRight: 85" role="graphics-symbol" aria-roledescription="rect mark" d="M252,195.78000000000003h3v104.21999999999997h-3Z" fill="#4c78a8"/><path aria-label="Age (years): 85; Number of people: 24856; BinRight: 86" role="graphics-symbol" aria-roledescription="rect mark" d="M255,206.79000000000002h3v93.20999999999998h-3Z" fill="#4c78a8"/><path aria-label="Age (years): 86; Number of people: 22556; BinRight: 87" role="graphics-symbol" aria-roledescription="rect mark" d="M258,215.41500000000002h3v84.58499999999998h-3Z" fill="#4c78a8"/><path aria-label="Age (years): 87; Number of people: 20058; BinRight: 88" role="graphics-symbol" aria-roledescription="rect mark" d="M261,224.7825h3v75.2175h-3Z" fill="#4c78a8"/><path aria-label="Age (years): 88; Number of people: 17238; BinRight: 89" role="graphics-symbol" aria-roledescription="rect mark" d="M264,235.35750000000002h3v64.64249999999998h-3Z" fill="#4c78a8"/><path aria-label="Age (years): 89; Number of people: 14929; BinRight: 90" role="graphics-symbol" aria-roledescription="rect mark" d="M267,244.01625h3v55.983749999999986h-3Z" fill="#4c78a8"/><path aria-label="Age (years): 90; Number of people: 12153; BinRight: 91" role="graphics-symbol" aria-roledescription="rect mark" d="M270,254.42625h3v45.57374999999999h-3Z" fill="#4c78a8"/><path aria-label="Age (years): 91; Number of people: 9898; BinRight: 92" role="graphics-symbol" aria-roledescription="rect mark" d="M273,262.8825h3v37.11750000000001h-3Z" fill="#4c78a8"/><path aria-label="Age (years): 92; Number of people: 8018; BinRight: 93" role="graphics-symbol" aria-roledescription="rect mark" d="M276,269.9325h3v30.067499999999995h-3Z" fill="#4c78a8"/><path aria-label="Age (years): 93; Number of people: 6010; BinRight: 94" role="graphics-symbol" aria-roledescription="rect mark" d="M279,277.4625h3v22.537500000000023h-3Z" fill="#4c78a8"/><path aria-label="Age (years): 94; Number of people: 4451; BinRight: 95" role="graphics-symbol" aria-roledescription="rect mark" d="M282,283.30875h3v16.691250000000025h-3Z" fill="#4c78a8"/><path aria-label="Age (years): 95; Number of people: 2978; BinRight: 96" role="graphics-symbol" aria-roledescription="rect mark" d="M285,288.83250000000004h3v11.167499999999961h-3Z" fill="#4c78a8"/><path aria-label="Age (years): 96; Number of people: 2056; BinRight: 97" role="graphics-symbol" aria-roledescription="rect mark" d="M288,292.28999999999996h3v7.710000000000036h-3Z" fill="#4c78a8"/><path aria-label="Age (years): 97; Number of people: 1477; BinRight: 98" role="graphics-symbol" aria-roledescription="rect mark" d="M291,294.46125h3v5.538749999999993h-3Z" fill="#4c78a8"/><path aria-label="Age (years): 98; Number of people: 907; BinRight: 99" role="graphics-symbol" aria-roledescription="rect mark" d="M294,296.59875h3v3.4012500000000045h-3Z" fill="#4c78a8"/><path aria-label="Age (years): 99; Number of people: 580; BinRight: 100" role="graphics-symbol" aria-roledescription="rect mark" d="M297,297.825h3v2.1750000000000114h-3Z" fill="#4c78a8"/><path aria-label="Age (years): 100; Number of people: 767; BinRight: NaN" role="graphics-symbol" aria-roledescription="rect mark" d="M300,297.12375000000003h0v2.8762499999999704h0Z" fill="#4c78a8"/></g></g><path class="foreground" aria-hidden="true" d="" display="none"/></g></g></g></svg>