<svg xmlns="http://www.w3.org/2000/svg" xmlns:xlink="http://www.w3.org/1999/xlink" version="1.1" class="marks" width="375" height="347" viewBox="0 0 375 347"><rect width="375" height="347" fill="white"/><g fill="none" stroke-miterlimit="10" transform="translate(62,10)"><g class="mark-group role-frame root" role="graphics-object" aria-roledescription="group mark container"><g transform="translate(0,0)"><path class="background" aria-hidden="true" d="M0.5,0.5h300v300h-300Z" stroke="#ddd"/><g><g class="mark-group role-axis" aria-hidden="true"><g transform="translate(0.5,300.5)"><path class="background" aria-hidden="true" d="M0,0h0v0h0Z" pointer-events="none"/><g><g class="mark-rule role-axis-grid" pointer-events="none"><line transform="translate(5,-300)" x2="0" y2="300" stroke="#ddd" stroke-width="1" opacity="1"/><line transform="translate(38,-300)" x2="0" y2="300" stroke="#ddd" stroke-width="1" opacity="1"/><line transform="translate(70,-300)" x2="0" y2="300" stroke="#ddd" stroke-width="1" opacity="1"/><line transform="translate(103,-300)" x2="0" y2="300" stroke="#ddd" stroke-width="1" opacity="1"/><line transform="translate(135,-300)" x2="0" y2="300" stroke="#ddd" stroke-width="1" opacity="1"/><line transform="translate(168,-300)" x2="0" y2="300" stroke="#ddd" stroke-width="1" opacity="1"/><line transform="translate(200,-300)" x2="0" y2="300" stroke="#ddd" stroke-width="1" opacity="1"/><line transform="translate(233,-300)" x2="0" y2="300" stroke="#ddd" stroke-width="1" opacity="1"/><line transform="translate(265,-300)" x2="0" y2="300" stroke="#ddd" stroke-width="1" opacity="1"/><line transform="translate(298,-300)" x2="0" y2="300" stroke="#ddd" stroke-width="1" opacity="1"/></g></g><path class="foreground" aria-hidden="true" d="" pointer-events="none" display="none"/></g></g><g class="mark-group role-axis" aria-hidden="true"><g transform="translate(0.5,0.5)"><path class="background" aria-hidden="true" d="M0,0h0v0h0Z" pointer-events="none"/><g><g class="mark-rule role-axis-grid" pointer-events="none"><line transform="translate(0,300)" x2="300" y2="0" stroke="#ddd" stroke-width="1" opacity="1"/><line transform="translate(0,273)" x2="300" y2="0" stroke="#ddd" stroke-width="1" opacity="1"/><line transform="translate(0,245)" x2="300" y2="0" stroke="#ddd" stroke-width="1" opacity="1"/><line transform="translate(0,218)" x2="300" y2="0" stroke="#ddd" stroke-width="1" opacity="1"/><line transform="translate(0,191)" x2="300" y2="0" stroke="#ddd" stroke-width="1" opacity="1"/><line transform="translate(0,164)" x2="300" y2="0" stroke="#ddd" stroke-width="1" opacity="1"/><line transform="translate(0,136)" x2="300" y2="0" stroke="#ddd" stroke-width="1" opacity="1"/><line transform="translate(0,109)" x2="300" y2="0" stroke="#ddd" stroke-width="1" opacity="1"/><line transform="translate(0,82)" x2="300" y2="0" stroke="#ddd" stroke-width="1" opacity="1"/><line transform="translate(0,55)" x2="300" y2="0" stroke="#ddd" stroke-width="1" opacity="1"/><line transform="translate(0,27)" x2="300" y2="0" stroke="#ddd" stroke-width="1" opacity="1"/><line transform="translate(0,0)" x2="300" y2="0" stroke="#ddd" stroke-width="1" opacity="1"/></g></g><path class="foreground" aria-hidden="true" d="" pointer-events="none" display="none"/></g></g><g class="mark-group role-axis" role="graphics-symbol" aria-roledescription="axis" aria-label="X-axis titled 'Date' for a time scale with values from Tuesday, 05 November 2013, 10:41:22 PM to Thursday, 26 January 2023, 5:18:37 AM"><g transform="translate(0.5,300.5)"><path class="background" aria-hidden="true" d="M0,0h0v0h0Z" pointer-events="none"/><g><g class="mark-rule role-axis-tick" pointer-events="none"><line transform="translate(5,0)" x2="0" y2="5" stroke="#888" stroke-width="1" opacity="1"/><line transform="translate(38,0)" x2="0" y2="5" stroke="#888" stroke-width="1" opacity="1"/><line transform="translate(70,0)" x2="0" y2="5" stroke="#888" stroke-width="1" opacity="1"/><line transform="translate(103,0)" x2="0" y2="5" stroke="#888" stroke-width="1" opacity="1"/><line transform="translate(135,0)" x2="0" y2="5" stroke="#888" stroke-width="1" opacity="1"/><line transform="translate(168,0)" x2="0" y2="5" stroke="#888" stroke-width="1" opacity="1"/><line transform="translate(200,0)" x2="0" y2="5" stroke="#888" stroke-width="1" opacity="1"/><line transform="translate(233,0)" x2="0" y2="5" stroke="#888" stroke-width="1" opacity="1"/><line transform="translate(265,0)" x2="0" y2="5" stroke="#888" stroke-width="1" opacity="1"/><line transform="translate(298,0)" x2="0" y2="5" stroke="#888" stroke-width="1" opacity="1"/></g><g class="mark-text role-axis-label" pointer-events="none"><text text-anchor="middle" transform="translate(4.992577805713508,15)" font-family="sans-serif" font-size="10px" fill="#000" opacity="1">2014</text><text text-anchor="middle" transform="translate(37.5017915649003,15)" font-family="sans-serif" font-size="10px" fill="#000" opacity="1">2015</text><text text-anchor="middle" transform="translate(70.01100532408711,15)" font-family="sans-serif" font-size="10px" fill="#000" opacity="1">2016</text><text text-anchor="middle" transform="translate(102.60928542234016,15)" font-family="sans-serif" font-size="10px" fill="#000" opacity="1">2017</text><text text-anchor="middle" transform="translate(135.11849918152697,15)" font-family="sans-serif" font-size="10px" fill="#000" opacity="1">2018</text><text text-anchor="middle" transform="translate(167.62771294071374,15)" font-family="sans-serif" font-size="10px" fill="#000" opacity="1">2019</text><text text-anchor="middle" transform="translate(200.13692669990053,15)" font-family="sans-serif" font-size="10px" fill="#000" opacity="1">2020</text><text text-anchor="middle" transform="translate(232.73520679815363,15)" font-family="sans-serif" font-size="10px" fill="#000" opacity="1">2021</text><text text-anchor="middle" transform="translate(265.2444205573404,15)" font-family="sans-serif" font-size="10px" fill="#000" opacity="1">2022</text><text text-anchor="middle" transform="translate(297.7536343165272,15)" font-family="sans-serif" font-size="10px" fill="#000" opacity="1">2023</text></g><g class="mark-rule role-axis-domain" pointer-events="none"><line transform="translate(0,0)" x2="300" y2="0" stroke="#888" stroke-width="1" opacity="1"/></g><g class="mark-text role-axis-title" pointer-events="none"><text text-anchor="middle" transform="translate(150,30)" font-family="sans-serif" font-size="11px" font-weight="bold" fill="#000" opacity="1">Date</text></g></g><path class="foreground" aria-hidden="true" d="" pointer-events="none" display="none"/></g></g><g class="mark-group role-axis" role="graphics-symbol" aria-roledescription="axis" aria-label="Y-axis titled 'Number of records' for a linear scale with values from 0 to 550,000"><g transform="translate(0.5,0.5)"><path class="background" aria-hidden="true" d="M0,0h0v0h0Z" pointer-events="none"/><g><g class="mark-rule role-axis-tick" pointer-events="none"><line transform="translate(0,300)" x2="-5" y2="0" stroke="#888" stroke-width="1" opacity="1"/><line transform="translate(0,273)" x2="-5" y2="0" stroke="#888" stroke-width="1" opacity="1"/><line transform="translate(0,245)" x2="-5" y2="0" stroke="#888" stroke-width="1" opacity="1"/><line transform="translate(0,218)" x2="-5" y2="0" stroke="#888" stroke-width="1" opacity="1"/><line transform="translate(0,191)" x2="-5" y2="0" stroke="#888" stroke-width="1" opacity="1"/><line transform="translate(0,164)" x2="-5" y2="0" stroke="#888" stroke-width="1" opacity="1"/><line transform="translate(0,136)" x2="-5" y2="0" stroke="#888" stroke-width="1" opacity="1"/><line transform="translate(0,109)" x2="-5" y2="0" stroke="#888" stroke-width="1" opacity="1"/><line transform="translate(0,82)" x2="-5" y2="0" stroke="#888" stroke-width="1" opacity="1"/><line transform="translate(0,55)" x2="-5" y2="0" stroke="#888" stroke-width="1" opacity="1"/><line transform="translate(0,27)" x2="-5" y2="0" stroke="#888" stroke-width="1" opacity="1"/><line transform="translate(0,0)" x2="-5" y2="0" stroke="#888" stroke-width="1" opacity="1"/></g><g class="mark-text role-axis-label" pointer-events="none"><text text-anchor="end" transform="translate(-7,303)" font-family="sans-serif" font-size="10px" fill="#000" opacity="1">0</text><text text-anchor="end" transform="translate(-7,275.7272727272727)" font-family="sans-serif" font-size="10px" fill="#000" opacity="1">50,000</text><text text-anchor="end" transform="translate(-7,248.45454545454544)" font-family="sans-serif" font-size="10px" fill="#000" opacity="1">100,000</text><text text-anchor="end" transform="translate(-7,221.1818181818182)" font-family="sans-serif" font-size="10px" fill="#000" opacity="1">150,000</text><text text-anchor="end" transform="translate(-7,193.9090909090909)" font-family="sans-serif" font-size="10px" fill="#000" opacity="1">200,000</text><text text-anchor="end" transform="translate(-7,166.63636363636363)" font-family="sans-serif" font-size="10px" fill="#000" opacity="1">250,000</text><text text-anchor="end" transform="translate(-7,139.36363636363637)" font-family="sans-serif" font-size="10px" fill="#000" opacity="1">300,000</text><text text-anchor="end" transform="translate(-7,112.0909090909091)" font-family="sans-serif" font-size="10px" fill="#000" opacity="1">350,000</text><text text-anchor="end" transform="translate(-7,84.81818181818181)" font-family="sans-serif" font-size="10px" fill="#000" opacity="1">400,000</text><text text-anchor="end" transform="translate(-7,57.54545454545453)" font-family="sans-serif" font-size="10px" fill="#000" opacity="1">450,000</text><text text-anchor="end" transform="translate(-7,30.27272727272728)" font-family="sans-serif" font-size="10px" fill="#000" opacity="1">500,000</text><text text-anchor="end" transform="translate(-7,3)" font-family="sans-serif" font-size="10px" fill="#000" opacity="1">550,000</text></g><g class="mark-rule role-axis-domain" pointer-events="none"><line transform="translate(0,300)" x2="0" y2="-300" stroke="#888" stroke-width="1" opacity="1"/></g><g class="mark-text role-axis-title" pointer-events="none"><text text-anchor="middle" transform="translate(-46,150) rotate(-90) translate(0,-2)" font-family="sans-serif" font-size="11px" font-weight="bold" fill="#000" opacity="1">Number of records</text></g></g><path class="foreground" aria-hidden="true" d="" pointer-events="none" display="none"/></g></g><g class="mark-rect role-mark marks" role="graphics-object" aria-roledescription="rect mark container"><path aria-label="Date: Jan 01, 2014; Number of records: 80" role="graphics-symbol" aria-roledescription="bar" d="M2.5000000006356977,299.9563636363636h5v0.04363636363638079h-5Z" fill="#4c78a8"/><path aria-label="Date: Feb 01, 2014; Number of records: 116" role="graphics-symbol" aria-roledescription="bar" d="M5.261056511689919,299.9367272727273h5v0.06327272727270383h-5Z" fill="#4c78a8"/><path aria-label="Date: Mar 01, 2014; Number of records: 199" role="graphics-symbol" aria-roledescription="bar" d="M7.754914005545343,299.89145454545456h5v0.1085454545454354h-5Z" fill="#4c78a8"/><path aria-label="Date: Apr 01, 2014; Number of records: 1084" role="graphics-symbol" aria-roledescription="bar" d="M10.515970516599566,299.4087272727273h5v0.5912727272727238h-5Z" fill="#4c78a8"/><path aria-label="Date: May 01, 2014; Number of records: 7920" role="graphics-symbol" aria-roledescription="bar" d="M13.18796068858752,295.68h5v4.319999999999993h-5Z" fill="#4c78a8"/><path aria-label="Date: Jun 01, 2014; Number of records: 29783" role="graphics-symbol" aria-roledescription="bar" d="M15.949017199641741,283.7547272727273h5v16.24527272727272h-5Z" fill="#4c78a8"/><path aria-label="Date: Jul 01, 2014; Number of records: 34207" role="graphics-symbol" aria-roledescription="bar" d="M18.621007371629698,281.3416363636363h5v18.658363636363674h-5Z" fill="#4c78a8"/><path aria-label="Date: Aug 01, 2014; Number of records: 39643" role="graphics-symbol" aria-roledescription="bar" d="M21.38206388268392,278.37654545454546h5v21.623454545454535h-5Z" fill="#4c78a8"/><path aria-label="Date: Sep 01, 2014; Number of records: 48618" role="graphics-symbol" aria-roledescription="bar" d="M24.143120393738137,273.48109090909094h5v26.518909090909062h-5Z" fill="#4c78a8"/><path aria-label="Date: Oct 01, 2014; Number of records: 66915" role="graphics-symbol" aria-roledescription="bar" d="M26.815110565726094,263.5009090909091h5v36.49909090909091h-5Z" fill="#4c78a8"/><path aria-label="Date: Nov 01, 2014; Number of records: 83142" role="graphics-symbol" aria-roledescription="bar" d="M29.576167076780315,254.64981818181818h5v45.350181818181824h-5Z" fill="#4c78a8"/><path aria-label="Date: Dec 01, 2014; Number of records: 108211" role="graphics-symbol" aria-roledescription="bar" d="M32.24815724876827,240.97581818181817h5v59.02418181818183h-5Z" fill="#4c78a8"/><path aria-label="Date: Jan 01, 2015; Number of records: 123243" role="graphics-symbol" aria-roledescription="bar" d="M35.009213759822494,232.77654545454544h5v67.22345454545456h-5Z" fill="#4c78a8"/><path aria-label="Date: Feb 01, 2015; Number of records: 123663" role="graphics-symbol" aria-roledescription="bar" d="M37.770270270876715,232.54745454545457h5v67.45254545454543h-5Z" fill="#4c78a8"/><path aria-label="Date: Mar 01, 2015; Number of records: 141324" role="graphics-symbol" aria-roledescription="bar" d="M40.26412776473214,222.91418181818185h5v77.08581818181815h-5Z" fill="#4c78a8"/><path aria-label="Date: Apr 01, 2015; Number of records: 135615" role="graphics-symbol" aria-roledescription="bar" d="M43.025184275786366,226.02818181818182h5v73.97181818181818h-5Z" fill="#4c78a8"/><path aria-label="Date: May 01, 2015; Number of records: 135460" role="graphics-symbol" aria-roledescription="bar" d="M45.697174447774316,226.11272727272726h5v73.88727272727274h-5Z" fill="#4c78a8"/><path aria-label="Date: Jun 01, 2015; Number of records: 130675" role="graphics-symbol" aria-roledescription="bar" d="M48.45823095882854,228.72272727272727h5v71.27727272727273h-5Z" fill="#4c78a8"/><path aria-label="Date: Jul 01, 2015; Number of records: 119230" role="graphics-symbol" aria-roledescription="bar" d="M51.13022113081649,234.96545454545455h5v65.03454545454545h-5Z" fill="#4c78a8"/><path aria-label="Date: Aug 01, 2015; Number of records: 134530" role="graphics-symbol" aria-roledescription="bar" d="M53.89127764187071,226.61999999999998h5v73.38000000000002h-5Z" fill="#4c78a8"/><path aria-label="Date: Sep 01, 2015; Number of records: 143477" role="graphics-symbol" aria-roledescription="bar" d="M56.65233415292493,221.73981818181818h5v78.26018181818182h-5Z" fill="#4c78a8"/><path aria-label="Date: Oct 01, 2015; Number of records: 143464" role="graphics-symbol" aria-roledescription="bar" d="M59.32432432491289,221.74690909090907h5v78.25309090909093h-5Z" fill="#4c78a8"/><path aria-label="Date: Nov 01, 2015; Number of records: 148049" role="graphics-symbol" aria-roledescription="bar" d="M62.085380835967115,219.246h5v80.75399999999999h-5Z" fill="#4c78a8"/><path aria-label="Date: Dec 01, 2015; Number of records: 139339" role="graphics-symbol" aria-roledescription="bar" d="M64.75737100795507,223.9969090909091h5v76.0030909090909h-5Z" fill="#4c78a8"/><path aria-label="Date: Jan 01, 2016; Number of records: 143145" role="graphics-symbol" aria-roledescription="bar" d="M67.5184275190093,221.92090909090908h5v78.07909090909092h-5Z" fill="#4c78a8"/><path aria-label="Date: Feb 01, 2016; Number of records: 156180" role="graphics-symbol" aria-roledescription="bar" d="M70.27948403006351,214.81090909090906h5v85.18909090909094h-5Z" fill="#4c78a8"/><path aria-label="Date: Mar 01, 2016; Number of records: 158038" role="graphics-symbol" aria-roledescription="bar" d="M72.8624078629852,213.79745454545457h5v86.20254545454543h-5Z" fill="#4c78a8"/><path aria-label="Date: Apr 01, 2016; Number of records: 178768" role="graphics-symbol" aria-roledescription="bar" d="M75.62346437403941,202.49018181818184h5v97.50981818181816h-5Z" fill="#4c78a8"/><path aria-label="Date: May 01, 2016; Number of records: 215246" role="graphics-symbol" aria-roledescription="bar" d="M78.29545454602737,182.5930909090909h5v117.4069090909091h-5Z" fill="#4c78a8"/><path aria-label="Date: Jun 01, 2016; Number of records: 199135" role="graphics-symbol" aria-roledescription="bar" d="M81.05651105708161,191.38090909090909h5v108.61909090909091h-5Z" fill="#4c78a8"/><path aria-label="Date: Jul 01, 2016; Number of records: 168119" role="graphics-symbol" aria-roledescription="bar" d="M83.72850122906955,208.29872727272726h5v91.70127272727274h-5Z" fill="#4c78a8"/><path aria-label="Date: Aug 01, 2016; Number of records: 219066" role="graphics-symbol" aria-roledescription="bar" d="M86.48955774012377,180.50945454545453h5v119.49054545454547h-5Z" fill="#4c78a8"/><path aria-label="Date: Sep 01, 2016; Number of records: 229118" role="graphics-symbol" aria-roledescription="bar" d="M89.25061425117799,175.02654545454547h5v124.97345454545453h-5Z" fill="#4c78a8"/><path aria-label="Date: Oct 01, 2016; Number of records: 233548" role="graphics-symbol" aria-roledescription="bar" d="M91.92260442316595,172.61018181818181h5v127.38981818181819h-5Z" fill="#4c78a8"/><path aria-label="Date: Nov 01, 2016; Number of records: 246573" role="graphics-symbol" aria-roledescription="bar" d="M94.68366093422019,165.50563636363637h5v134.49436363636363h-5Z" fill="#4c78a8"/><path aria-label="Date: Dec 01, 2016; Number of records: 234069" role="graphics-symbol" aria-roledescription="bar" d="M97.35565110620813,172.32599999999996h5v127.67400000000004h-5Z" fill="#4c78a8"/><path aria-label="Date: Jan 01, 2017; Number of records: 271239" role="graphics-symbol" aria-roledescription="bar" d="M100.11670761726235,152.05145454545453h5v147.94854545454547h-5Z" fill="#4c78a8"/><path aria-label="Date: Feb 01, 2017; Number of records: 250938" role="graphics-symbol" aria-roledescription="bar" d="M102.87776412831657,163.12472727272728h5v136.87527272727272h-5Z" fill="#4c78a8"/><path aria-label="Date: Mar 01, 2017; Number of records: 285136" role="graphics-symbol" aria-roledescription="bar" d="M105.37162162217199,144.47127272727272h5v155.52872727272728h-5Z" fill="#4c78a8"/><path aria-label="Date: Apr 01, 2017; Number of records: 245545" role="graphics-symbol" aria-roledescription="bar" d="M108.13267813322621,166.06636363636363h5v133.93363636363637h-5Z" fill="#4c78a8"/><path aria-label="Date: May 01, 2017; Number of records: 316652" role="graphics-symbol" aria-roledescription="bar" d="M110.80466830521418,127.28072727272728h5v172.7192727272727h-5Z" fill="#4c78a8"/><path aria-label="Date: Jun 01, 2017; Number of records: 287505" role="graphics-symbol" aria-roledescription="bar" d="M113.5657248162684,143.1790909090909h5v156.8209090909091h-5Z" fill="#4c78a8"/><path aria-label="Date: Jul 01, 2017; Number of records: 243978" role="graphics-symbol" aria-roledescription="bar" d="M116.23771498825634,166.92109090909094h5v133.07890909090906h-5Z" fill="#4c78a8"/><path aria-label="Date: Aug 01, 2017; Number of records: 313429" role="graphics-symbol" aria-roledescription="bar" d="M118.99877149931056,129.03872727272727h5v170.96127272727273h-5Z" fill="#4c78a8"/><path aria-label="Date: Sep 01, 2017; Number of records: 328161" role="graphics-symbol" aria-roledescription="bar" d="M121.75982801036479,121.0030909090909h5v178.9969090909091h-5Z" fill="#4c78a8"/><path aria-label="Date: Oct 01, 2017; Number of records: 358987" role="graphics-symbol" aria-roledescription="bar" d="M124.43181818235276,104.18890909090909h5v195.81109090909092h-5Z" fill="#4c78a8"/><path aria-label="Date: Nov 01, 2017; Number of records: 362801" role="graphics-symbol" aria-roledescription="bar" d="M127.19287469340696,102.10854545454546h5v197.89145454545454h-5Z" fill="#4c78a8"/><path aria-label="Date: Dec 01, 2017; Number of records: 325682" role="graphics-symbol" aria-roledescription="bar" d="M129.86486486539494,122.3552727272727h5v177.6447272727273h-5Z" fill="#4c78a8"/><path aria-label="Date: Jan 01, 2018; Number of records: 407518" role="graphics-symbol" aria-roledescription="bar" d="M132.62592137644916,77.71745454545456h5v222.28254545454544h-5Z" fill="#4c78a8"/><path aria-label="Date: Feb 01, 2018; Number of records: 360124" role="graphics-symbol" aria-roledescription="bar" d="M135.38697788750338,103.56872727272727h5v196.43127272727273h-5Z" fill="#4c78a8"/><path aria-label="Date: Mar 01, 2018; Number of records: 399155" role="graphics-symbol" aria-roledescription="bar" d="M137.8808353813588,82.27909090909091h5v217.7209090909091h-5Z" fill="#4c78a8"/><path aria-label="Date: Apr 01, 2018; Number of records: 391050" role="graphics-symbol" aria-roledescription="bar" d="M140.641891892413,86.70000000000002h5v213.29999999999998h-5Z" fill="#4c78a8"/><path aria-label="Date: May 01, 2018; Number of records: 411639" role="graphics-symbol" aria-roledescription="bar" d="M143.31388206440096,75.46963636363635h5v224.53036363636363h-5Z" fill="#4c78a8"/><path aria-label="Date: Jun 01, 2018; Number of records: 364199" role="graphics-symbol" aria-roledescription="bar" d="M146.07493857545518,101.346h5v198.654h-5Z" fill="#4c78a8"/><path aria-label="Date: Jul 01, 2018; Number of records: 343196" role="graphics-symbol" aria-roledescription="bar" d="M148.74692874744315,112.80218181818182h5v187.19781818181818h-5Z" fill="#4c78a8"/><path aria-label="Date: Aug 01, 2018; Number of records: 415900" role="graphics-symbol" aria-roledescription="bar" d="M151.50798525849737,73.14545454545454h5v226.85454545454547h-5Z" fill="#4c78a8"/><path aria-label="Date: Sep 01, 2018; Number of records: 394765" role="graphics-symbol" aria-roledescription="bar" d="M154.2690417695516,84.67363636363638h5v215.32636363636362h-5Z" fill="#4c78a8"/><path aria-label="Date: Oct 01, 2018; Number of records: 434606" role="graphics-symbol" aria-roledescription="bar" d="M156.94103194153953,62.94218181818182h5v237.05781818181816h-5Z" fill="#4c78a8"/><path aria-label="Date: Nov 01, 2018; Number of records: 415026" role="graphics-symbol" aria-roledescription="bar" d="M159.70208845259376,73.62218181818182h5v226.37781818181818h-5Z" fill="#4c78a8"/><path aria-label="Date: Dec 01, 2018; Number of records: 351321" role="graphics-symbol" aria-roledescription="bar" d="M162.37407862458173,108.37036363636365h5v191.62963636363634h-5Z" fill="#4c78a8"/><path aria-label="Date: Jan 01, 2019; Number of records: 452214" role="graphics-symbol" aria-roledescription="bar" d="M165.13513513563595,53.3378181818182h5v246.6621818181818h-5Z" fill="#4c78a8"/><path aria-label="Date: Feb 01, 2019; Number of records: 421841" role="graphics-symbol" aria-roledescription="bar" d="M167.89619164669014,69.9049090909091h5v230.0950909090909h-5Z" fill="#4c78a8"/><path aria-label="Date: Mar 01, 2019; Number of records: 457669" role="graphics-symbol" aria-roledescription="bar" d="M170.39004914054559,50.362363636363646h5v249.63763636363635h-5Z" fill="#4c78a8"/><path aria-label="Date: Apr 01, 2019; Number of records: 437440" role="graphics-symbol" aria-roledescription="bar" d="M173.1511056515998,61.396363636363624h5v238.60363636363638h-5Z" fill="#4c78a8"/><path aria-label="Date: May 01, 2019; Number of records: 463522" role="graphics-symbol" aria-roledescription="bar" d="M175.82309582358775,47.169818181818194h5v252.8301818181818h-5Z" fill="#4c78a8"/><path aria-label="Date: Jun 01, 2019; Number of records: 407392" role="graphics-symbol" aria-roledescription="bar" d="M178.58415233464197,77.78618181818182h5v222.21381818181817h-5Z" fill="#4c78a8"/><path aria-label="Date: Jul 01, 2019; Number of records: 393162" role="graphics-symbol" aria-roledescription="bar" d="M181.25614250662994,85.54799999999999h5v214.452h-5Z" fill="#4c78a8"/><path aria-label="Date: Aug 01, 2019; Number of records: 451142" role="graphics-symbol" aria-roledescription="bar" d="M184.01719901768416,53.92254545454547h5v246.07745454545454h-5Z" fill="#4c78a8"/><path aria-label="Date: Sep 01, 2019; Number of records: 462322" role="graphics-symbol" aria-roledescription="bar" d="M186.77825552873838,47.82436363636364h5v252.17563636363636h-5Z" fill="#4c78a8"/><path aria-label="Date: Oct 01, 2019; Number of records: 486663" role="graphics-symbol" aria-roledescription="bar" d="M189.45024570072633,34.54745454545455h5v265.45254545454543h-5Z" fill="#4c78a8"/><path aria-label="Date: Nov 01, 2019; Number of records: 453755" role="graphics-symbol" aria-roledescription="bar" d="M192.21130221178055,52.49727272727272h5v247.50272727272727h-5Z" fill="#4c78a8"/><path aria-label="Date: Dec 01, 2019; Number of records: 404377" role="graphics-symbol" aria-roledescription="bar" d="M194.88329238376852,79.43072727272728h5v220.56927272727273h-5Z" fill="#4c78a8"/><path aria-label="Date: Jan 01, 2020; Number of records: 481855" role="graphics-symbol" aria-roledescription="bar" d="M197.64434889482274,37.17h5v262.83h-5Z" fill="#4c78a8"/><path aria-label="Date: Feb 01, 2020; Number of records: 441700" role="graphics-symbol" aria-roledescription="bar" d="M200.40540540587696,59.07272727272728h5v240.92727272727274h-5Z" fill="#4c78a8"/><path aria-label="Date: Mar 01, 2020; Number of records: 414048" role="graphics-symbol" aria-roledescription="bar" d="M202.98832923879866,74.15563636363638h5v225.84436363636362h-5Z" fill="#4c78a8"/><path aria-label="Date: Apr 01, 2020; Number of records: 339997" role="graphics-symbol" aria-roledescription="bar" d="M205.74938574985288,114.54709090909091h5v185.4529090909091h-5Z" fill="#4c78a8"/><path aria-label="Date: May 01, 2020; Number of records: 405300" role="graphics-symbol" aria-roledescription="bar" d="M208.42137592184082,78.92727272727271h5v221.0727272727273h-5Z" fill="#4c78a8"/><path aria-label="Date: Jun 01, 2020; Number of records: 428652" role="graphics-symbol" aria-roledescription="bar" d="M211.18243243289504,66.1898181818182h5v233.8101818181818h-5Z" fill="#4c78a8"/><path aria-label="Date: Jul 01, 2020; Number of records: 397625" role="graphics-symbol" aria-roledescription="bar" d="M213.854422604883,83.11363636363637h5v216.88636363636363h-5Z" fill="#4c78a8"/><path aria-label="Date: Aug 01, 2020; Number of records: 433447" role="graphics-symbol" aria-roledescription="bar" d="M216.6154791159372,63.57436363636364h5v236.42563636363636h-5Z" fill="#4c78a8"/><path aria-label="Date: Sep 01, 2020; Number of records: 469883" role="graphics-symbol" aria-roledescription="bar" d="M219.37653562699145,43.700181818181825h5v256.2998181818182h-5Z" fill="#4c78a8"/><path aria-label="Date: Oct 01, 2020; Number of records: 473938" role="graphics-symbol" aria-roledescription="bar" d="M222.0485257989794,41.48836363636364h5v258.51163636363634h-5Z" fill="#4c78a8"/><path aria-label="Date: Nov 01, 2020; Number of records: 459581" role="graphics-symbol" aria-roledescription="bar" d="M224.80958231003362,49.31945454545453h5v250.68054545454547h-5Z" fill="#4c78a8"/><path aria-label="Date: Dec 01, 2020; Number of records: 428868" role="graphics-symbol" aria-roledescription="bar" d="M227.4815724820216,66.072h5v233.928h-5Z" fill="#4c78a8"/><path aria-label="Date: Jan 01, 2021; Number of records: 446254" role="graphics-symbol" aria-roledescription="bar" d="M230.24262899307578,56.588727272727255h5v243.41127272727275h-5Z" fill="#4c78a8"/><path aria-label="Date: Feb 01, 2021; Number of records: 437120" role="graphics-symbol" aria-roledescription="bar" d="M233.00368550413003,61.5709090909091h5v238.42909090909092h-5Z" fill="#4c78a8"/><path aria-label="Date: Mar 01, 2021; Number of records: 492862" role="graphics-symbol" aria-roledescription="bar" d="M235.49754299798545,31.166181818181816h5v268.8338181818182h-5Z" fill="#4c78a8"/><path aria-label="Date: Apr 01, 2021; Number of records: 457730" role="graphics-symbol" aria-roledescription="bar" d="M238.25859950903967,50.3290909090909h5v249.6709090909091h-5Z" fill="#4c78a8"/><path aria-label="Date: May 01, 2021; Number of records: 477019" role="graphics-symbol" aria-roledescription="bar" d="M240.9305896810276,39.80781818181819h5v260.1921818181818h-5Z" fill="#4c78a8"/><path aria-label="Date: Jun 01, 2021; Number of records: 458690" role="graphics-symbol" aria-roledescription="bar" d="M243.69164619208186,49.80545454545455h5v250.19454545454545h-5Z" fill="#4c78a8"/><path aria-label="Date: Jul 01, 2021; Number of records: 403667" role="graphics-symbol" aria-roledescription="bar" d="M246.3636363640698,79.81799999999998h5v220.18200000000002h-5Z" fill="#4c78a8"/><path aria-label="Date: Aug 01, 2021; Number of records: 478787" role="graphics-symbol" aria-roledescription="bar" d="M249.124692875124,38.84345454545455h5v261.15654545454544h-5Z" fill="#4c78a8"/><path aria-label="Date: Sep 01, 2021; Number of records: 506908" role="graphics-symbol" aria-roledescription="bar" d="M251.88574938617825,23.504727272727276h5v276.4952727272727h-5Z" fill="#4c78a8"/><path aria-label="Date: Oct 01, 2021; Number of records: 501540" role="graphics-symbol" aria-roledescription="bar" d="M254.5577395581662,26.432727272727274h5v273.5672727272727h-5Z" fill="#4c78a8"/><path aria-label="Date: Nov 01, 2021; Number of records: 513789" role="graphics-symbol" aria-roledescription="bar" d="M257.3187960692204,19.75145454545454h5v280.2485454545455h-5Z" fill="#4c78a8"/><path aria-label="Date: Dec 01, 2021; Number of records: 453496" role="graphics-symbol" aria-roledescription="bar" d="M259.99078624120835,52.63854545454545h5v247.36145454545454h-5Z" fill="#4c78a8"/><path aria-label="Date: Jan 01, 2022; Number of records: 462119" role="graphics-symbol" aria-roledescription="bar" d="M262.7518427522626,47.9350909090909h5v252.0649090909091h-5Z" fill="#4c78a8"/><path aria-label="Date: Feb 01, 2022; Number of records: 452136" role="graphics-symbol" aria-roledescription="bar" d="M265.5128992633168,53.38036363636364h5v246.61963636363635h-5Z" fill="#4c78a8"/><path aria-label="Date: Mar 01, 2022; Number of records: 514476" role="graphics-symbol" aria-roledescription="bar" d="M268.00675675717224,19.37672727272728h5v280.6232727272727h-5Z" fill="#4c78a8"/><path aria-label="Date: Apr 01, 2022; Number of records: 395976" role="graphics-symbol" aria-roledescription="bar" d="M270.76781326822646,84.01309090909092h5v215.98690909090908h-5Z" fill="#4c78a8"/><path aria-label="Date: May 01, 2022; Number of records: 498792" role="graphics-symbol" aria-roledescription="bar" d="M273.4398034402144,27.931636363636347h5v272.06836363636364h-5Z" fill="#4c78a8"/><path aria-label="Date: Jun 01, 2022; Number of records: 444639" role="graphics-symbol" aria-roledescription="bar" d="M276.2008599512686,57.469636363636376h5v242.53036363636363h-5Z" fill="#4c78a8"/><path aria-label="Date: Jul 01, 2022; Number of records: 383434" role="graphics-symbol" aria-roledescription="bar" d="M278.87285012325657,90.85418181818183h5v209.14581818181819h-5Z" fill="#4c78a8"/><path aria-label="Date: Aug 01, 2022; Number of records: 479196" role="graphics-symbol" aria-roledescription="bar" d="M281.6339066343108,38.62036363636363h5v261.3796363636364h-5Z" fill="#4c78a8"/><path aria-label="Date: Sep 01, 2022; Number of records: 487170" role="graphics-symbol" aria-roledescription="bar" d="M284.394963145365,34.27090909090911h5v265.72909090909087h-5Z" fill="#4c78a8"/><path aria-label="Date: Oct 01, 2022; Number of records: 479013" role="graphics-symbol" aria-roledescription="bar" d="M287.06695331735295,38.72018181818181h5v261.2798181818182h-5Z" fill="#4c78a8"/><path aria-label="Date: Nov 01, 2022; Number of records: 483012" role="graphics-symbol" aria-roledescription="bar" d="M289.82800982840723,36.53890909090908h5v263.4610909090909h-5Z" fill="#4c78a8"/><path aria-label="Date: Dec 01, 2022; Number of records: 429123" role="graphics-symbol" aria-roledescription="bar" d="M292.5000000003952,65.93290909090909h5v234.0670909090909h-5Z" fill="#4c78a8"/></g></g><path class="foreground" aria-hidden="true" d="" display="none"/></g></g></g></svg>