<svg xmlns="http://www.w3.org/2000/svg" xmlns:xlink="http://www.w3.org/1999/xlink" version="1.1" class="marks" width="369" height="347" viewBox="0 0 369 347"><rect width="369" height="347" fill="white"/><g fill="none" stroke-miterlimit="10" transform="translate(63,10)"><g class="mark-group role-frame root" role="graphics-object" aria-roledescription="group mark container"><g transform="translate(0,0)"><path class="background" aria-hidden="true" d="M0.5,0.5h300v300h-300Z" stroke="#ddd"/><g><g class="mark-group role-axis" aria-hidden="true"><g transform="translate(0.5,300.5)"><path class="background" aria-hidden="true" d="M0,0h0v0h0Z" pointer-events="none"/><g><g class="mark-rule role-axis-grid" pointer-events="none"><line transform="translate(0,-300)" x2="0" y2="300" stroke="#ddd" stroke-width="1" opacity="1"/><line transform="translate(30,-300)" x2="0" y2="300" stroke="#ddd" stroke-width="1" opacity="1"/><line transform="translate(60,-300)" x2="0" y2="300" stroke="#ddd" stroke-width="1" opacity="1"/><line transform="translate(90,-300)" x2="0" y2="300" stroke="#ddd" stroke-width="1" opacity="1"/><line transform="translate(120,-300)" x2="0" y2="300" stroke="#ddd" stroke-width="1" opacity="1"/><line transform="translate(150,-300)" x2="0" y2="300" stroke="#ddd" stroke-width="1" opacity="1"/><line transform="translate(180,-300)" x2="0" y2="300" stroke="#ddd" stroke-width="1" opacity="1"/><line transform="translate(210,-300)" x2="0" y2="300" stroke="#ddd" stroke-width="1" opacity="1"/><line transform="translate(240,-300)" x2="0" y2="300" stroke="#ddd" stroke-width="1" opacity="1"/><line transform="translate(270,-300)" x2="0" y2="300" stroke="#ddd" stroke-width="1" opacity="1"/><line transform="translate(300,-300)" x2="0" y2="300" stroke="#ddd" stroke-width="1" opacity="1"/></g></g><path class="foreground" aria-hidden="true" d="" pointer-events="none" display="none"/></g></g><g class="mark-group role-axis" aria-hidden="true"><g transform="translate(0.5,0.5)"><path class="background" aria-hidden="true" d="M0,0h0v0h0Z" pointer-events="none"/><g><g class="mark-rule role-axis-grid" pointer-events="none"><line transform="translate(0,300)" x2="300" y2="0" stroke="#ddd" stroke-width="1" opacity="1"/><line transform="translate(0,263)" x2="300" y2="0" stroke="#ddd" stroke-width="1" opacity="1"/><line transform="translate(0,225)" x2="300" y2="0" stroke="#ddd" stroke-width="1" opacity="1"/><line transform="translate(0,188)" x2="300" y2="0" stroke="#ddd" stroke-width="1" opacity="1"/><line transform="translate(0,150)" x2="300" y2="0" stroke="#ddd" stroke-width="1" opacity="1"/><line transform="translate(0,113)" x2="300" y2="0" stroke="#ddd" stroke-width="1" opacity="1"/><line transform="translate(0,75)" x2="300" y2="0" stroke="#ddd" stroke-width="1" opacity="1"/><line transform="translate(0,38)" x2="300" y2="0" stroke="#ddd" stroke-width="1" opacity="1"/><line transform="translate(0,0)" x2="300" y2="0" stroke="#ddd" stroke-width="1" opacity="1"/></g></g><path class="foreground" aria-hidden="true" d="" pointer-events="none" display="none"/></g></g><g class="mark-group role-axis" role="graphics-symbol" aria-roledescription="axis" aria-label="X-axis titled 'Age (years)' for a linear scale with values from 0 to 100"><g transform="translate(0.5,300.5)"><path class="background" aria-hidden="true" d="M0,0h0v0h0Z" pointer-events="none"/><g><g class="mark-rule role-axis-tick" pointer-events="none"><line transform="translate(0,0)" x2="0" y2="5" stroke="#888" stroke-width="1" opacity="1"/><line transform="translate(30,0)" x2="0" y2="5" stroke="#888" stroke-width="1" opacity="1"/><line transform="translate(60,0)" x2="0" y2="5" stroke="#888" stroke-width="1" opacity="1"/><line transform="translate(90,0)" x2="0" y2="5" stroke="#888" stroke-width="1" opacity="1"/><line transform="translate(120,0)" x2="0" y2="5" stroke="#888" stroke-width="1" opacity="1"/><line transform="translate(150,0)" x2="0" y2="5" stroke="#888" stroke-width="1" opacity="1"/><line transform="translate(180,0)" x2="0" y2="5" stroke="#888" stroke-width="1" opacity="1"/><line transform="translate(210,0)" x2="0" y2="5" stroke="#888" stroke-width="1" opacity="1"/><line transform="translate(240,0)" x2="0" y2="5" stroke="#888" stroke-width="1" opacity="1"/><line transform="translate(270,0)" x2="0" y2="5" stroke="#888" stroke-width="1" opacity="1"/><line transform="translate(300,0)" x2="0" y2="5" stroke="#888" stroke-width="1" opacity="1"/></g><g class="mark-text role-axis-label" pointer-events="none"><text text-anchor="start" transform="translate(0,15)" font-family="sans-serif" font-size="10px" fill="#000" opacity="1">0</text><text text-anchor="middle" transform="translate(30,15)" font-family="sans-serif" font-size="10px" fill="#000" opacity="1">10</text><text text-anchor="middle" transform="translate(60,15)" font-family="sans-serif" font-size="10px" fill="#000" opacity="1">20</text><text text-anchor="middle" transform="translate(90,15)" font-family="sans-serif" font-size="10px" fill="#000" opacity="1">30</text><text text-anchor="middle" transform="translate(120,15)" font-family="sans-serif" font-size="10px" fill="#000" opacity="1">40</text><text text-anchor="middle" transform="translate(150,15)" font-family="sans-serif" font-size="10px" fill="#000" opacity="1">50</text><text text-anchor="middle" transform="translate(180,15)" font-family="sans-serif" font-size="10px" fill="#000" opacity="1">60</text><text text-anchor="middle" transform="translate(210,15)" font-family="sans-serif" font-size="10px" fill="#000" opacity="1">70</text><text text-anchor="middle" transform="translate(240,15)" font-family="sans-serif" font-size="10px" fill="#000" opacity="1">80</text><text text-anchor="middle" transform="translate(270,15)" font-family="sans-serif" font-size="10px" fill="#000" opacity="1">90</text><text text-anchor="end" transform="translate(300,15)" font-family="sans-serif" font-size="10px" fill="#000" opacity="1">100</text></g><g class="mark-rule role-axis-domain" pointer-events="none"><line transform="translate(0,0)" x2="300" y2="0" stroke="#888" stroke-width="1" opacity="1"/></g><g class="mark-text role-axis-title" pointer-events="none"><text text-anchor="middle" transform="translate(150,30)" font-family="sans-serif" font-size="11px" font-weight="bold" fill="#000" opacity="1">Age (years)</text></g></g><path class="foreground" aria-hidden="true" d="" pointer-events="none" display="none"/></g></g><g class="mark-group role-axis" role="graphics-symbol" aria-roledescription="axis" aria-label="Y-axis titled 'Number of people' for a linear scale with values from 0 to 80,000"><g transform="translate(0.5,0.5)"><path class="background" aria-hidden="true" d="M0,0h0v0h0Z" pointer-events="none"/><g><g class="mark-rule role-axis-tick" pointer-events="none"><line transform="translate(0,300)" x2="-5" y2="0" stroke="#888" stroke-width="1" opacity="1"/><line transform="translate(0,263)" x2="-5" y2="0" stroke="#888" stroke-width="1" opacity="1"/><line transform="translate(0,225)" x2="-5" y2="0" stroke="#888" stroke-width="1" opacity="1"/><line transform="translate(0,188)" x2="-5" y2="0" stroke="#888" stroke-width="1" opacity="1"/><line transform="translate(0,150)" x2="-5" y2="0" stroke="#888" stroke-width="1" opacity="1"/><line transform="translate(0,113)" x2="-5" y2="0" stroke="#888" stroke-width="1" opacity="1"/><line transform="translate(0,75)" x2="-5" y2="0" stroke="#888" stroke-width="1" opacity="1"/><line transform="translate(0,38)" x2="-5" y2="0" stroke="#888" stroke-width="1" opacity="1"/><line transform="translate(0,0)" x2="-5" y2="0" stroke="#888" stroke-width="1" opacity="1"/></g><g class="mark-text role-axis-label" pointer-events="none"><text text-anchor="end" transform="translate(-7,303)" font-family="sans-serif" font-size="10px" fill="#000" opacity="1">0</text><text text-anchor="end" transform="translate(-7,265.5)" font-family="sans-serif" font-size="10px" fill="#000" opacity="1">10,000</text><text text-anchor="end" transform="translate(-7,228)" font-family="sans-serif" font-size="10px" fill="#000" opacity="1">20,000</text><text text-anchor="end" transform="translate(-7,190.5)" font-family="sans-serif" font-size="10px" fill="#000" opacity="1">30,000</text><text text-anchor="end" transform="translate(-7,153)" font-family="sans-serif" font-size="10px" fill="#000" opacity="1">40,000</text><text text-anchor="end" transform="translate(-7,115.5)" font-family="sans-serif" font-size="10px" fill="#000" opacity="1">50,000</text><text text-anchor="end" transform="translate(-7,78)" font-family="sans-serif" font-size="10px" fill="#000" opacity="1">60,000</text><text text-anchor="end" transform="translate(-7,40.5)" font-family="sans-serif" font-size="10px" fill="#000" opacity="1">70,000</text><text text-anchor="end" transform="translate(-7,3)" font-family="sans-serif" font-size="10px" fill="#000" opacity="1">80,000</text></g><g class="mark-rule role-axis-domain" pointer-events="none"><line transform="translate(0,300)" x2="0" y2="-300" stroke="#888" stroke-width="1" opacity="1"/></g><g class="mark-text role-axis-title" pointer-events="none"><text text-anchor="middle" transform="translate(-46.733333587646484,150) rotate(-90) translate(0,-2)" font-family="sans-serif" font-size="11px" font-weight="bold" fill="#000" opacity="1">Number of people</text></g></g><path class="foreground" aria-hidden="true" d="" pointer-events="none" display="none"/></g></g><g class="mark-rect role-mark marks" role="graphics-object" aria-roledescription="rect mark container"><path aria-label="Age (years): 0; Number of people: 13604; BinRight: 1" role="graphics-symbol" aria-roledescription="rect mark" d="M0,248.98499999999999h3v51.015000000000015h-3Z" fill="#4c78a8"/><path aria-label="Age (years): 1; Number of people: 14138; BinRight: 2" role="graphics-symbol" aria-roledescription="rect mark" d="M3,246.9825h3v53.01750000000001h-3Z" fill="#4c78a8"/><path aria-label="Age (years): 2; Number of people: 14865; BinRight: 3" role="graphics-symbol" aria-roledescription="rect mark" d="M6,244.25625000000002h3v55.74374999999998h-3Z" fill="#4c78a8"/><path aria-label="Age (years): 3; Number of people: 16104; BinRight: 4" role="graphics-symbol" aria-roledescription="rect mark" d="M9,239.60999999999999h3v60.390000000000015h-3Z" fill="#4c78a8"/><path aria-label="Age (years): 4; Number of people: 17018; BinRight: 5" role="graphics-symbol" aria-roledescription="rect mark" d="M12,236.18249999999998h3v63.817500000000024h-3Z" fill="#4c78a8"/><path aria-label="Age (years): 5; Number of people: 18378; BinRight: 6" role="graphics-symbol" aria-roledescription="rect mark" d="M15,231.0825h3v68.91749999999999h-3Z" fill="#4c78a8"/><path aria-label="Age (years): 6; Number of people: 20457; BinRight: 7" role="graphics-symbol" aria-roledescription="rect mark" d="M18,223.28625h3.0000000000000036v76.71375h-3.0000000000000036Z" fill="#4c78a8"/><path aria-label="Age (years): 7; Number of people: 22082; BinRight: 8" role="graphics-symbol" aria-roledescription="rect mark" d="M21.000000000000004,217.19250000000002h2.9999999999999964v82.80749999999998h-2.9999999999999964Z" fill="#4c78a8"/><path aria-label="Age (years): 8; Number of people: 23590; BinRight: 9" role="graphics-symbol" aria-roledescription="rect mark" d="M24,211.5375h3v88.4625h-3Z" fill="#4c78a8"/><path aria-label="Age (years): 9; Number of people: 25498; BinRight: 10" role="graphics-symbol" aria-roledescription="rect mark" d="M27,204.38250000000002h3v95.61749999999998h-3Z" fill="#4c78a8"/><path aria-label="Age (years): 10; Number of people: 26524; BinRight: 11" role="graphics-symbol" aria-roledescription="rect mark" d="M30,200.535h3v99.465h-3Z" fill="#4c78a8"/><path aria-label="Age (years): 11; Number of people: 27736; BinRight: 12" role="graphics-symbol" aria-roledescription="rect mark" d="M33,195.99h3v104.00999999999999h-3Z" fill="#4c78a8"/><path aria-label="Age (years): 12; Number of people: 29504; BinRight: 13" role="graphics-symbol" aria-roledescription="rect mark" d="M36,189.35999999999999h3v110.64000000000001h-3Z" fill="#4c78a8"/><path aria-label="Age (years): 13; Number of people: 30390; BinRight: 14" role="graphics-symbol" aria-roledescription="rect mark" d="M39,186.03750000000002h3.000000000000007v113.96249999999998h-3.000000000000007Z" fill="#4c78a8"/><path aria-label="Age (years): 14; Number of people: 31879; BinRight: 15" role="graphics-symbol" aria-roledescription="rect mark" d="M42.00000000000001,180.45375h2.999999999999993v119.54624999999999h-2.999999999999993Z" fill="#4c78a8"/><path aria-label="Age (years): 15; Number of people: 32140; BinRight: 16" role="graphics-symbol" aria-roledescription="rect mark" d="M45,179.475h3v120.525h-3Z" fill="#4c78a8"/><path aria-label="Age (years): 16; Number of people: 34425; BinRight: 17" role="graphics-symbol" aria-roledescription="rect mark" d="M48,170.90625h3.000000000000007v129.09375h-3.000000000000007Z" fill="#4c78a8"/><path aria-label="Age (years): 17; Number of people: 35903; BinRight: 18" role="graphics-symbol" aria-roledescription="rect mark" d="M51.00000000000001,165.36375h2.999999999999993v134.63625h-2.999999999999993Z" fill="#4c78a8"/><path aria-label="Age (years): 18; Number of people: 37701; BinRight: 19" role="graphics-symbol" aria-roledescription="rect mark" d="M54,158.62125000000003h3v141.37874999999997h-3Z" fill="#4c78a8"/><path aria-label="Age (years): 19; Number of people: 39882; BinRight: 20" role="graphics-symbol" aria-roledescription="rect mark" d="M57,150.4425h3v149.5575h-3Z" fill="#4c78a8"/><path aria-label="Age (years): 20; Number of people: 40803; BinRight: 21" role="graphics-symbol" aria-roledescription="rect mark" d="M60,146.98874999999998h3v153.01125000000002h-3Z" fill="#4c78a8"/><path aria-label="Age (years): 21; Number of people: 42128; BinRight: 22" role="graphics-symbol" aria-roledescription="rect mark" d="M63,142.02h3v157.98h-3Z" fill="#4c78a8"/><path aria-label="Age (years): 22; Number of people: 42212; BinRight: 23" role="graphics-symbol" aria-roledescription="rect mark" d="M66,141.705h3v158.295h-3Z" fill="#4c78a8"/><path aria-label="Age (years): 23; Number of people: 42606; BinRight: 24" role="graphics-symbol" aria-roledescription="rect mark" d="M69,140.2275h3v159.7725h-3Z" fill="#4c78a8"/><path aria-label="Age (years): 24; Number of people: 42130; BinRight: 25" role="graphics-symbol" aria-roledescription="rect mark" d="M72,142.0125h3v157.9875h-3Z" fill="#4c78a8"/><path aria-label="Age (years): 25; Number of people: 42137; BinRight: 26" role="graphics-symbol" aria-roledescription="rect mark" d="M75,141.98624999999998h3v158.01375000000002h-3Z" fill="#4c78a8"/><path aria-label="Age (years): 26; Number of people: 40778; BinRight: 27" role="graphics-symbol" aria-roledescription="rect mark" d="M78,147.0825h3v152.9175h-3Z" fill="#4c78a8"/><path aria-label="Age (years): 27; Number of people: 41817; BinRight: 28" role="graphics-symbol" aria-roledescription="rect mark" d="M81,143.18625h3.000000000000014v156.81375h-3.000000000000014Z" fill="#4c78a8"/><path aria-label="Age (years): 28; Number of people: 43299; BinRight: 29" role="graphics-symbol" aria-roledescription="rect mark" d="M84.00000000000001,137.62875h2.999999999999986v162.37125h-2.999999999999986Z" fill="#4c78a8"/><path aria-label="Age (years): 29; Number of people: 44970; BinRight: 30" role="graphics-symbol" aria-roledescription="rect mark" d="M87,131.3625h3v168.6375h-3Z" fill="#4c78a8"/><path aria-label="Age (years): 30; Number of people: 46783; BinRight: 31" role="graphics-symbol" aria-roledescription="rect mark" d="M90,124.56375h3v175.43625h-3Z" fill="#4c78a8"/><path aria-label="Age (years): 31; Number of people: 47531; BinRight: 32" role="graphics-symbol" aria-roledescription="rect mark" d="M93,121.75875h3v178.24124999999998h-3Z" fill="#4c78a8"/><path aria-label="Age (years): 32; Number of people: 45661; BinRight: 33" role="graphics-symbol" aria-roledescription="rect mark" d="M96,128.77125h3v171.22875h-3Z" fill="#4c78a8"/><path aria-label="Age (years): 33; Number of people: 45010; BinRight: 34" role="graphics-symbol" aria-roledescription="rect mark" d="M99,131.21249999999998h3.000000000000014v168.78750000000002h-3.000000000000014Z" fill="#4c78a8"/><path aria-label="Age (years): 34; Number of people: 45630; BinRight: 35" role="graphics-symbol" aria-roledescription="rect mark" d="M102.00000000000001,128.88750000000002h2.999999999999986v171.11249999999998h-2.999999999999986Z" fill="#4c78a8"/><path aria-label="Age (years): 35; Number of people: 46294; BinRight: 36" role="graphics-symbol" aria-roledescription="rect mark" d="M105,126.39749999999998h3v173.60250000000002h-3Z" fill="#4c78a8"/><path aria-label="Age (years): 36; Number of people: 48052; BinRight: 37" role="graphics-symbol" aria-roledescription="rect mark" d="M108,119.80499999999999h3v180.195h-3Z" fill="#4c78a8"/><path aria-label="Age (years): 37; Number of people: 48080; BinRight: 38" role="graphics-symbol" aria-roledescription="rect mark" d="M111,119.7h3v180.3h-3Z" fill="#4c78a8"/><path aria-label="Age (years): 38; Number of people: 47708; BinRight: 39" role="graphics-symbol" aria-roledescription="rect mark" d="M114,121.09499999999998h3v178.90500000000003h-3Z" fill="#4c78a8"/><path aria-label="Age (years): 39; Number of people: 45667; BinRight: 40" role="graphics-symbol" aria-roledescription="rect mark" d="M117,128.74875h3v171.25125h-3Z" fill="#4c78a8"/><path aria-label="Age (years): 40; Number of people: 42685; BinRight: 41" role="graphics-symbol" aria-roledescription="rect mark" d="M120,139.93124999999998h2.999999999999986v160.06875000000002h-2.999999999999986Z" fill="#4c78a8"/><path aria-label="Age (years): 41; Number of people: 45100; BinRight: 42" role="graphics-symbol" aria-roledescription="rect mark" d="M122.99999999999999,130.875h3.000000000000014v169.125h-3.000000000000014Z" fill="#4c78a8"/><path aria-label="Age (years): 42; Number of people: 47033; BinRight: 43" role="graphics-symbol" aria-roledescription="rect mark" d="M126,123.62625000000001h3v176.37374999999997h-3Z" fill="#4c78a8"/><path aria-label="Age (years): 43; Number of people: 48748; BinRight: 44" role="graphics-symbol" aria-roledescription="rect mark" d="M129,117.19500000000002h3v182.80499999999998h-3Z" fill="#4c78a8"/><path aria-label="Age (years): 44; Number of people: 50783; BinRight: 45" role="graphics-symbol" aria-roledescription="rect mark" d="M132,109.56375000000001h3v190.43624999999997h-3Z" fill="#4c78a8"/><path aria-label="Age (years): 45; Number of people: 54996; BinRight: 46" role="graphics-symbol" aria-roledescription="rect mark" d="M135,93.765h3v206.235h-3Z" fill="#4c78a8"/><path aria-label="Age (years): 46; Number of people: 57615; BinRight: 47" role="graphics-symbol" aria-roledescription="rect mark" d="M138,83.94375000000001h3v216.05624999999998h-3Z" fill="#4c78a8"/><path aria-label="Age (years): 47; Number of people: 58211; BinRight: 48" role="graphics-symbol" aria-roledescription="rect mark" d="M141,81.70874999999998h3v218.29125000000002h-3Z" fill="#4c78a8"/><path aria-label="Age (years): 48; Number of people: 59367; BinRight: 49" role="graphics-symbol" aria-roledescription="rect mark" d="M144,77.37375h3v222.62625h-3Z" fill="#4c78a8"/><path aria-label="Age (years): 49; Number of people: 59937; BinRight: 50" role="graphics-symbol" aria-roledescription="rect mark" d="M147,75.23625000000001h3v224.76375h-3Z" fill="#4c78a8"/><path aria-label="Age (years): 50; Number of people: 61500; BinRight: 51" role="graphics-symbol" aria-roledescription="rect mark" d="M150,69.37499999999999h3v230.625h-3Z" fill="#4c78a8"/><path aria-label="Age (years): 51; Number of people: 62042; BinRight: 52" role="graphics-symbol" aria-roledescription="rect mark" d="M153,67.3425h3v232.6575h-3Z" fill="#4c78a8"/><path aria-label="Age (years): 52; Number of people: 62300; BinRight: 53" role="graphics-symbol" aria-roledescription="rect mark" d="M156,66.37499999999999h3v233.625h-3Z" fill="#4c78a8"/><path aria-label="Age (years): 53; Number of people: 61937; BinRight: 54" role="graphics-symbol" aria-roledescription="rect mark" d="M159,67.73625000000001h3v232.26375h-3Z" fill="#4c78a8"/><path aria-label="Age (years): 54; Number of people: 62447; BinRight: 55" role="graphics-symbol" aria-roledescription="rect mark" d="M162,65.82375h3v234.17624999999998h-3Z" fill="#4c78a8"/><path aria-label="Age (years): 55; Number of people: 60834; BinRight: 56" role="graphics-symbol" aria-roledescription="rect mark" d="M165,71.87249999999999h3.0000000000000284v228.1275h-3.0000000000000284Z" fill="#4c78a8"/><path aria-label="Age (years): 56; Number of people: 63933; BinRight: 57" role="graphics-symbol" aria-roledescription="rect mark" d="M168.00000000000003,60.25125h2.999999999999943v239.74875h-2.999999999999943Z" fill="#4c78a8"/><path aria-label="Age (years): 57; Number of people: 65578; BinRight: 58" role="graphics-symbol" aria-roledescription="rect mark" d="M170.99999999999997,54.08249999999999h3.0000000000000284v245.91750000000002h-3.0000000000000284Z" fill="#4c78a8"/><path aria-label="Age (years): 58; Number of people: 65452; BinRight: 59" role="graphics-symbol" aria-roledescription="rect mark" d="M174,54.554999999999986h3v245.44500000000002h-3Z" fill="#4c78a8"/><path aria-label="Age (years): 59; Number of people: 65610; BinRight: 60" role="graphics-symbol" aria-roledescription="rect mark" d="M177,53.962500000000006h3v246.0375h-3Z" fill="#4c78a8"/><path aria-label="Age (years): 60; Number of people: 64874; BinRight: 61" role="graphics-symbol" aria-roledescription="rect mark" d="M180,56.7225h3v243.2775h-3Z" fill="#4c78a8"/><path aria-label="Age (years): 61; Number of people: 67372; BinRight: 62" role="graphics-symbol" aria-roledescription="rect mark" d="M183,47.35500000000001h3v252.64499999999998h-3Z" fill="#4c78a8"/><path aria-label="Age (years): 62; Number of people: 65287; BinRight: 63" role="graphics-symbol" aria-roledescription="rect mark" d="M186,55.17375000000001h3v244.82625h-3Z" fill="#4c78a8"/><path aria-label="Age (years): 63; Number of people: 67900; BinRight: 64" role="graphics-symbol" aria-roledescription="rect mark" d="M189,45.375h3v254.625h-3Z" fill="#4c78a8"/><path aria-label="Age (years): 64; Number of people: 70410; BinRight: 65" role="graphics-symbol" aria-roledescription="rect mark" d="M192,35.962499999999984h3v264.0375h-3Z" fill="#4c78a8"/><path aria-label="Age (years): 65; Number of people: 71475; BinRight: 66" role="graphics-symbol" aria-roledescription="rect mark" d="M195,31.96875h3v268.03125h-3Z" fill="#4c78a8"/><path aria-label="Age (years): 66; Number of people: 71720; BinRight: 67" role="graphics-symbol" aria-roledescription="rect mark" d="M198,31.05000000000001h3v268.95h-3Z" fill="#4c78a8"/><path aria-label="Age (years): 67; Number of people: 69660; BinRight: 68" role="graphics-symbol" aria-roledescription="rect mark" d="M201,38.77499999999999h3.0000000000000284v261.225h-3.0000000000000284Z" fill="#4c78a8"/><path aria-label="Age (years): 68; Number of people: 61861; BinRight: 69" role="graphics-symbol" aria-roledescription="rect mark" d="M204.00000000000003,68.02125000000001h2.999999999999943v231.97875h-2.999999999999943Z" fill="#4c78a8"/><path aria-label="Age (years): 69; Number of people: 48984; BinRight: 70" role="graphics-symbol" aria-roledescription="rect mark" d="M206.99999999999997,116.31000000000002h3.0000000000000284v183.69h-3.0000000000000284Z" fill="#4c78a8"/><path aria-label="Age (years): 70; Number of people: 46599; BinRight: 71" role="graphics-symbol" aria-roledescription="rect mark" d="M210,125.25374999999998h3v174.74625000000003h-3Z" fill="#4c78a8"/><path aria-label="Age (years): 71; Number of people: 36901; BinRight: 72" role="graphics-symbol" aria-roledescription="rect mark" d="M213,161.62125h3v138.37875h-3Z" fill="#4c78a8"/><path aria-label="Age (years): 72; Number of people: 53444; BinRight: 73" role="graphics-symbol" aria-roledescription="rect mark" d="M216,99.585h3v200.41500000000002h-3Z" fill="#4c78a8"/><path aria-label="Age (years): 73; Number of people: 37016; BinRight: 74" role="graphics-symbol" aria-roledescription="rect mark" d="M219,161.19h3v138.81h-3Z" fill="#4c78a8"/><path aria-label="Age (years): 74; Number of people: 42372; BinRight: 75" role="graphics-symbol" aria-roledescription="rect mark" d="M222,141.10500000000002h3v158.89499999999998h-3Z" fill="#4c78a8"/><path aria-label="Age (years): 75; Number of people: 40127; BinRight: 76" role="graphics-symbol" aria-roledescription="rect mark" d="M225,149.52375h3v150.47625h-3Z" fill="#4c78a8"/><path aria-label="Age (years): 76; Number of people: 36724; BinRight: 77" role="graphics-symbol" aria-roledescription="rect mark" d="M228,162.28500000000003h3v137.71499999999997h-3Z" fill="#4c78a8"/><path aria-label="Age (years): 77; Number of people: 33383; BinRight: 78" role="graphics-symbol" aria-roledescription="rect mark" d="M231,174.81375h3v125.18625h-3Z" fill="#4c78a8"/><path aria-label="Age (years): 78; Number of people: 32373; BinRight: 79" role="graphics-symbol" aria-roledescription="rect mark" d="M234,178.60125000000002h3v121.39874999999998h-3Z" fill="#4c78a8"/><path aria-label="Age (years): 79; Number of people: 29370; BinRight: 80" role="graphics-symbol" aria-roledescription="rect mark" d="M237,189.8625h3v110.13749999999999h-3Z" fill="#4c78a8"/><path aria-label="Age (years): 80; Number of people: 26468; BinRight: 81" role="graphics-symbol" aria-roledescription="rect mark" d="M240,200.745h3.0000000000000284v99.255h-3.0000000000000284Z" fill="#4c78a8"/><path aria-label="Age (years): 81; Number of people: 25916; BinRight: 82" role="graphics-symbol" aria-roledescription="rect mark" d="M243.00000000000003,202.815h2.999999999999943v97.185h-2.999999999999943Z" fill="#4c78a8"/><path aria-label="Age (years): 82; Number of people: 24732; BinRight: 83" role="graphics-symbol" aria-roledescription="rect mark" d="M245.99999999999997,207.255h3.0000000000000284v92.745h-3.0000000000000284Z" fill="#4c78a8"/><path aria-label="Age (years): 83; Number of people: 23270; BinRight: 84" role="graphics-symbol" aria-roledescription="rect mark" d="M249,212.7375h3v87.26249999999999h-3Z" fill="#4c78a8"/><path aria-label="Age (years): 84; Number of people: 20571; BinRight: 85" role="graphics-symbol" aria-roledescription="rect mark" d="M252,222.85875h3v77.14125000000001h-3Z" fill="#4c78a8"/><path aria-label="Age (years): 85; Number of people: 18040; BinRight: 86" role="graphics-symbol" aria-roledescription="rect mark" d="M255,232.35h3v67.65h-3Z" fill="#4c78a8"/><path aria-label="Age (years): 86; Number of people: 14987; BinRight: 87" role="graphics-symbol" aria-roledescription="rect mark" d="M258,243.79875h3v56.20124999999999h-3Z" fill="#4c78a8"/><path aria-label="Age (years): 87; Number of people: 12725; BinRight: 88" role="graphics-symbol" aria-roledescription="rect mark" d="M261,252.28125h3v47.71875h-3Z" fill="#4c78a8"/><path aria-label="Age (years): 88; Number of people: 11074; BinRight: 89" role="graphics-symbol" aria-roledescription="rect mark" d="M264,258.47249999999997h3v41.52750000000003h-3Z" fill="#4c78a8"/><path aria-label="Age (years): 89; Number of people: 8530; BinRight: 90" role="graphics-symbol" aria-roledescription="rect mark" d="M267,268.0125h3v31.98750000000001h-3Z" fill="#4c78a8"/><path aria-label="Age (years): 90; Number of people: 6933; BinRight: 91" role="graphics-symbol" aria-roledescription="rect mark" d="M270,274.00125h3v25.998749999999973h-3Z" fill="#4c78a8"/><path aria-label="Age (years): 91; Number of people: 5194; BinRight: 92" role="graphics-symbol" aria-roledescription="rect mark" d="M273,280.5225h3v19.47750000000002h-3Z" fill="#4c78a8"/><path aria-label="Age (years): 92; Number of people: 3896; BinRight: 93" role="graphics-symbol" aria-roledescription="rect mark" d="M276,285.39h3v14.610000000000014h-3Z" fill="#4c78a8"/><path aria-label="Age (years): 93; Number of people: 2810; BinRight: 94" role="graphics-symbol" aria-roledescription="rect mark" d="M279,289.46250000000003h3v10.537499999999966h-3Z" fill="#4c78a8"/><path aria-label="Age (years): 94; Number of people: 1579; BinRight: 95" role="graphics-symbol" aria-roledescription="rect mark" d="M282,294.07875h3v5.921249999999986h-3Z" fill="#4c78a8"/><path aria-label="Age (years): 95; Number of people: 1231; BinRight: 96" role="graphics-symbol" aria-roledescription="rect mark" d="M285,295.38375h3v4.6162499999999795h-3Z" fill="#4c78a8"/><path aria-label="Age (years): 96; Number of people: 818; BinRight: 97" role="graphics-symbol" aria-roledescription="rect mark" d="M288,296.9325h3v3.0674999999999955h-3Z" fill="#4c78a8"/><path aria-label="Age (years): 97; Number of people: 518; BinRight: 98" role="graphics-symbol" aria-roledescription="rect mark" d="M291,298.0575h3v1.9424999999999955h-3Z" fill="#4c78a8"/><path aria-label="Age (years): 98; Number of people: 291; BinRight: 99" role="graphics-symbol" aria-roledescription="rect mark" d="M294,298.90875h3v1.0912500000000023h-3Z" fill="#4c78a8"/><path aria-label="Age (years): 99; Number of people: 170; BinRight: 100" role="graphics-symbol" aria-roledescription="rect mark" d="M297,299.3625h3v0.6374999999999886h-3Z" fill="#4c78a8"/><path aria-label="Age (years): 100; Number of people: 230; BinRight: NaN" role="graphics-symbol" aria-roledescription="rect mark" d="M300,299.1375h0v0.8625000000000114h0Z" fill="#4c78a8"/></g></g><path class="foreground" aria-hidden="true" d="" display="none"/></g></g></g></svg>