<svg xmlns="http://www.w3.org/2000/svg" xmlns:xlink="http://www.w3.org/1999/xlink" version="1.1" class="marks" width="369" height="347" viewBox="0 0 369 347"><rect width="369" height="347" fill="white"/><g fill="none" stroke-miterlimit="10" transform="translate(63,10)"><g class="mark-group role-frame root" role="graphics-object" aria-roledescription="group mark container"><g transform="translate(0,0)"><path class="background" aria-hidden="true" d="M0.5,0.5h300v300h-300Z" stroke="#ddd"/><g><g class="mark-group role-axis" aria-hidden="true"><g transform="translate(0.5,300.5)"><path class="background" aria-hidden="true" d="M0,0h0v0h0Z" pointer-events="none"/><g><g class="mark-rule role-axis-grid" pointer-events="none"><line transform="translate(0,-300)" x2="0" y2="300" stroke="#ddd" stroke-width="1" opacity="1"/><line transform="translate(30,-300)" x2="0" y2="300" stroke="#ddd" stroke-width="1" opacity="1"/><line transform="translate(60,-300)" x2="0" y2="300" stroke="#ddd" stroke-width="1" opacity="1"/><line transform="translate(90,-300)" x2="0" y2="300" stroke="#ddd" stroke-width="1" opacity="1"/><line transform="translate(120,-300)" x2="0" y2="300" stroke="#ddd" stroke-width="1" opacity="1"/><line transform="translate(150,-300)" x2="0" y2="300" stroke="#ddd" stroke-width="1" opacity="1"/><line transform="translate(180,-300)" x2="0" y2="300" stroke="#ddd" stroke-width="1" opacity="1"/><line transform="translate(210,-300)" x2="0" y2="300" stroke="#ddd" stroke-width="1" opacity="1"/><line transform="translate(240,-300)" x2="0" y2="300" stroke="#ddd" stroke-width="1" opacity="1"/><line transform="translate(270,-300)" x2="0" y2="300" stroke="#ddd" stroke-width="1" opacity="1"/><line transform="translate(300,-300)" x2="0" y2="300" stroke="#ddd" stroke-width="1" opacity="1"/></g></g><path class="foreground" aria-hidden="true" d="" pointer-events="none" display="none"/></g></g><g class="mark-group role-axis" aria-hidden="true"><g transform="translate(0.5,0.5)"><path class="background" aria-hidden="true" d="M0,0h0v0h0Z" pointer-events="none"/><g><g class="mark-rule role-axis-grid" pointer-events="none"><line transform="translate(0,300)" x2="300" y2="0" stroke="#ddd" stroke-width="1" opacity="1"/><line transform="translate(0,263)" x2="300" y2="0" stroke="#ddd" stroke-width="1" opacity="1"/><line transform="translate(0,225)" x2="300" y2="0" stroke="#ddd" stroke-width="1" opacity="1"/><line transform="translate(0,188)" x2="300" y2="0" stroke="#ddd" stroke-width="1" opacity="1"/><line transform="translate(0,150)" x2="300" y2="0" stroke="#ddd" stroke-width="1" opacity="1"/><line transform="translate(0,113)" x2="300" y2="0" stroke="#ddd" stroke-width="1" opacity="1"/><line transform="translate(0,75)" x2="300" y2="0" stroke="#ddd" stroke-width="1" opacity="1"/><line transform="translate(0,38)" x2="300" y2="0" stroke="#ddd" stroke-width="1" opacity="1"/><line transform="translate(0,0)" x2="300" y2="0" stroke="#ddd" stroke-width="1" opacity="1"/></g></g><path class="foreground" aria-hidden="true" d="" pointer-events="none" display="none"/></g></g><g class="mark-group role-axis" role="graphics-symbol" aria-roledescription="axis" aria-label="X-axis titled 'Age (years)' for a linear scale with values from 0 to 100"><g transform="translate(0.5,300.5)"><path class="background" aria-hidden="true" d="M0,0h0v0h0Z" pointer-events="none"/><g><g class="mark-rule role-axis-tick" pointer-events="none"><line transform="translate(0,0)" x2="0" y2="5" stroke="#888" stroke-width="1" opacity="1"/><line transform="translate(30,0)" x2="0" y2="5" stroke="#888" stroke-width="1" opacity="1"/><line transform="translate(60,0)" x2="0" y2="5" stroke="#888" stroke-width="1" opacity="1"/><line transform="translate(90,0)" x2="0" y2="5" stroke="#888" stroke-width="1" opacity="1"/><line transform="translate(120,0)" x2="0" y2="5" stroke="#888" stroke-width="1" opacity="1"/><line transform="translate(150,0)" x2="0" y2="5" stroke="#888" stroke-width="1" opacity="1"/><line transform="translate(180,0)" x2="0" y2="5" stroke="#888" stroke-width="1" opacity="1"/><line transform="translate(210,0)" x2="0" y2="5" stroke="#888" stroke-width="1" opacity="1"/><line transform="translate(240,0)" x2="0" y2="5" stroke="#888" stroke-width="1" opacity="1"/><line transform="translate(270,0)" x2="0" y2="5" stroke="#888" stroke-width="1" opacity="1"/><line transform="translate(300,0)" x2="0" y2="5" stroke="#888" stroke-width="1" opacity="1"/></g><g class="mark-text role-axis-label" pointer-events="none"><text text-anchor="start" transform="translate(0,15)" font-family="sans-serif" font-size="10px" fill="#000" opacity="1">0</text><text text-anchor="middle" transform="translate(30,15)" font-family="sans-serif" font-size="10px" fill="#000" opacity="1">10</text><text text-anchor="middle" transform="translate(60,15)" font-family="sans-serif" font-size="10px" fill="#000" opacity="1">20</text><text text-anchor="middle" transform="translate(90,15)" font-family="sans-serif" font-size="10px" fill="#000" opacity="1">30</text><text text-anchor="middle" transform="translate(120,15)" font-family="sans-serif" font-size="10px" fill="#000" opacity="1">40</text><text text-anchor="middle" transform="translate(150,15)" font-family="sans-serif" font-size="10px" fill="#000" opacity="1">50</text><text text-anchor="middle" transform="translate(180,15)" font-family="sans-serif" font-size="10px" fill="#000" opacity="1">60</text><text text-anchor="middle" transform="translate(210,15)" font-family="sans-serif" font-size="10px" fill="#000" opacity="1">70</text><text text-anchor="middle" transform="translate(240,15)" font-family="sans-serif" font-size="10px" fill="#000" opacity="1">80</text><text text-anchor="middle" transform="translate(270,15)" font-family="sans-serif" font-size="10px" fill="#000" opacity="1">90</text><text text-anchor="end" transform="translate(300,15)" font-family="sans-serif" font-size="10px" fill="#000" opacity="1">100</text></g><g class="mark-rule role-axis-domain" pointer-events="none"><line transform="translate(0,0)" x2="300" y2="0" stroke="#888" stroke-width="1" opacity="1"/></g><g class="mark-text role-axis-title" pointer-events="none"><text text-anchor="middle" transform="translate(150,30)" font-family="sans-serif" font-size="11px" font-weight="bold" fill="#000" opacity="1">Age (years)</text></g></g><path class="foreground" aria-hidden="true" d="" pointer-events="none" display="none"/></g></g><g class="mark-group role-axis" role="graphics-symbol" aria-roledescription="axis" aria-label="Y-axis titled 'Number of people' for a linear scale with values from 0 to 80,000"><g transform="translate(0.5,0.5)"><path class="background" aria-hidden="true" d="M0,0h0v0h0Z" pointer-events="none"/><g><g class="mark-rule role-axis-tick" pointer-events="none"><line transform="translate(0,300)" x2="-5" y2="0" stroke="#888" stroke-width="1" opacity="1"/><line transform="translate(0,263)" x2="-5" y2="0" stroke="#888" stroke-width="1" opacity="1"/><line transform="translate(0,225)" x2="-5" y2="0" stroke="#888" stroke-width="1" opacity="1"/><line transform="translate(0,188)" x2="-5" y2="0" stroke="#888" stroke-width="1" opacity="1"/><line transform="translate(0,150)" x2="-5" y2="0" stroke="#888" stroke-width="1" opacity="1"/><line transform="translate(0,113)" x2="-5" y2="0" stroke="#888" stroke-width="1" opacity="1"/><line transform="translate(0,75)" x2="-5" y2="0" stroke="#888" stroke-width="1" opacity="1"/><line transform="translate(0,38)" x2="-5" y2="0" stroke="#888" stroke-width="1" opacity="1"/><line transform="translate(0,0)" x2="-5" y2="0" stroke="#888" stroke-width="1" opacity="1"/></g><g class="mark-text role-axis-label" pointer-events="none"><text text-anchor="end" transform="translate(-7,303)" font-family="sans-serif" font-size="10px" fill="#000" opacity="1">0</text><text text-anchor="end" transform="translate(-7,265.5)" font-family="sans-serif" font-size="10px" fill="#000" opacity="1">10,000</text><text text-anchor="end" transform="translate(-7,228)" font-family="sans-serif" font-size="10px" fill="#000" opacity="1">20,000</text><text text-anchor="end" transform="translate(-7,190.5)" font-family="sans-serif" font-size="10px" fill="#000" opacity="1">30,000</text><text text-anchor="end" transform="translate(-7,153)" font-family="sans-serif" font-size="10px" fill="#000" opacity="1">40,000</text><text text-anchor="end" transform="translate(-7,115.5)" font-family="sans-serif" font-size="10px" fill="#000" opacity="1">50,000</text><text text-anchor="end" transform="translate(-7,78)" font-family="sans-serif" font-size="10px" fill="#000" opacity="1">60,000</text><text text-anchor="end" transform="translate(-7,40.5)" font-family="sans-serif" font-size="10px" fill="#000" opacity="1">70,000</text><text text-anchor="end" transform="translate(-7,3)" font-family="sans-serif" font-size="10px" fill="#000" opacity="1">80,000</text></g><g class="mark-rule role-axis-domain" pointer-events="none"><line transform="translate(0,300)" x2="0" y2="-300" stroke="#888" stroke-width="1" opacity="1"/></g><g class="mark-text role-axis-title" pointer-events="none"><text text-anchor="middle" transform="translate(-46.733333587646484,150) rotate(-90) translate(0,-2)" font-family="sans-serif" font-size="11px" font-weight="bold" fill="#000" opacity="1">Number of people</text></g></g><path class="foreground" aria-hidden="true" d="" pointer-events="none" display="none"/></g></g><g class="mark-rect role-mark marks" role="graphics-object" aria-roledescription="rect mark container"><path aria-label="Age (years): 0; Number of people: 8757; BinRight: 1" role="graphics-symbol" aria-roledescription="rect mark" d="M0,267.16125h3v32.838750000000005h-3Z" fill="#4c78a8"/><path aria-label="Age (years): 1; Number of people: 8773; BinRight: 2" role="graphics-symbol" aria-roledescription="rect mark" d="M3,267.10125h3v32.89875000000001h-3Z" fill="#4c78a8"/><path aria-label="Age (years): 2; Number of people: 9183; BinRight: 3" role="graphics-symbol" aria-roledescription="rect mark" d="M6,265.56374999999997h3v34.43625000000003h-3Z" fill="#4c78a8"/><path aria-label="Age (years): 3; Number of people: 10228; BinRight: 4" role="graphics-symbol" aria-roledescription="rect mark" d="M9,261.645h3v38.35500000000002h-3Z" fill="#4c78a8"/><path aria-label="Age (years): 4; Number of people: 11563; BinRight: 5" role="graphics-symbol" aria-roledescription="rect mark" d="M12,256.63875h3v43.361249999999984h-3Z" fill="#4c78a8"/><path aria-label="Age (years): 5; Number of people: 11971; BinRight: 6" role="graphics-symbol" aria-roledescription="rect mark" d="M15,255.10875000000001h3v44.891249999999985h-3Z" fill="#4c78a8"/><path aria-label="Age (years): 6; Number of people: 12880; BinRight: 7" role="graphics-symbol" aria-roledescription="rect mark" d="M18,251.7h3.0000000000000036v48.30000000000001h-3.0000000000000036Z" fill="#4c78a8"/><path aria-label="Age (years): 7; Number of people: 13951; BinRight: 8" role="graphics-symbol" aria-roledescription="rect mark" d="M21.000000000000004,247.68375h2.9999999999999964v52.31625h-2.9999999999999964Z" fill="#4c78a8"/><path aria-label="Age (years): 8; Number of people: 13496; BinRight: 9" role="graphics-symbol" aria-roledescription="rect mark" d="M24,249.39000000000001h3v50.609999999999985h-3Z" fill="#4c78a8"/><path aria-label="Age (years): 9; Number of people: 13701; BinRight: 10" role="graphics-symbol" aria-roledescription="rect mark" d="M27,248.62125h3v51.37875h-3Z" fill="#4c78a8"/><path aria-label="Age (years): 10; Number of people: 14711; BinRight: 11" role="graphics-symbol" aria-roledescription="rect mark" d="M30,244.83375h3v55.16624999999999h-3Z" fill="#4c78a8"/><path aria-label="Age (years): 11; Number of people: 16746; BinRight: 12" role="graphics-symbol" aria-roledescription="rect mark" d="M33,237.20250000000001h3v62.797499999999985h-3Z" fill="#4c78a8"/><path aria-label="Age (years): 12; Number of people: 15629; BinRight: 13" role="graphics-symbol" aria-roledescription="rect mark" d="M36,241.39125h3v58.608749999999986h-3Z" fill="#4c78a8"/><path aria-label="Age (years): 13; Number of people: 17569; BinRight: 14" role="graphics-symbol" aria-roledescription="rect mark" d="M39,234.11625h3.000000000000007v65.88374999999999h-3.000000000000007Z" fill="#4c78a8"/><path aria-label="Age (years): 14; Number of people: 22579; BinRight: 15" role="graphics-symbol" aria-roledescription="rect mark" d="M42.00000000000001,215.32875h2.999999999999993v84.67124999999999h-2.999999999999993Z" fill="#4c78a8"/><path aria-label="Age (years): 15; Number of people: 23290; BinRight: 16" role="graphics-symbol" aria-roledescription="rect mark" d="M45,212.66249999999997h3v87.33750000000003h-3Z" fill="#4c78a8"/><path aria-label="Age (years): 16; Number of people: 25507; BinRight: 17" role="graphics-symbol" aria-roledescription="rect mark" d="M48,204.34875h3.000000000000007v95.65125h-3.000000000000007Z" fill="#4c78a8"/><path aria-label="Age (years): 17; Number of people: 27054; BinRight: 18" role="graphics-symbol" aria-roledescription="rect mark" d="M51.00000000000001,198.54749999999999h2.999999999999993v101.45250000000001h-2.999999999999993Z" fill="#4c78a8"/><path aria-label="Age (years): 18; Number of people: 28021; BinRight: 19" role="graphics-symbol" aria-roledescription="rect mark" d="M54,194.92125000000001h3v105.07874999999999h-3Z" fill="#4c78a8"/><path aria-label="Age (years): 19; Number of people: 29207; BinRight: 20" role="graphics-symbol" aria-roledescription="rect mark" d="M57,190.47375h3v109.52625h-3Z" fill="#4c78a8"/><path aria-label="Age (years): 20; Number of people: 30721; BinRight: 21" role="graphics-symbol" aria-roledescription="rect mark" d="M60,184.79625000000001h3v115.20374999999999h-3Z" fill="#4c78a8"/><path aria-label="Age (years): 21; Number of people: 31773; BinRight: 22" role="graphics-symbol" aria-roledescription="rect mark" d="M63,180.85125000000002h3v119.14874999999998h-3Z" fill="#4c78a8"/><path aria-label="Age (years): 22; Number of people: 32488; BinRight: 23" role="graphics-symbol" aria-roledescription="rect mark" d="M66,178.17h3v121.83000000000001h-3Z" fill="#4c78a8"/><path aria-label="Age (years): 23; Number of people: 33534; BinRight: 24" role="graphics-symbol" aria-roledescription="rect mark" d="M69,174.24749999999997h3v125.75250000000003h-3Z" fill="#4c78a8"/><path aria-label="Age (years): 24; Number of people: 35277; BinRight: 25" role="graphics-symbol" aria-roledescription="rect mark" d="M72,167.71125000000004h3v132.28874999999996h-3Z" fill="#4c78a8"/><path aria-label="Age (years): 25; Number of people: 37511; BinRight: 26" role="graphics-symbol" aria-roledescription="rect mark" d="M75,159.33375h3v140.66625h-3Z" fill="#4c78a8"/><path aria-label="Age (years): 26; Number of people: 38555; BinRight: 27" role="graphics-symbol" aria-roledescription="rect mark" d="M78,155.41875h3v144.58125h-3Z" fill="#4c78a8"/><path aria-label="Age (years): 27; Number of people: 39892; BinRight: 28" role="graphics-symbol" aria-roledescription="rect mark" d="M81,150.405h3.000000000000014v149.595h-3.000000000000014Z" fill="#4c78a8"/><path aria-label="Age (years): 28; Number of people: 41075; BinRight: 29" role="graphics-symbol" aria-roledescription="rect mark" d="M84.00000000000001,145.96875h2.999999999999986v154.03125h-2.999999999999986Z" fill="#4c78a8"/><path aria-label="Age (years): 29; Number of people: 42019; BinRight: 30" role="graphics-symbol" aria-roledescription="rect mark" d="M87,142.42874999999998h3v157.57125000000002h-3Z" fill="#4c78a8"/><path aria-label="Age (years): 30; Number of people: 42720; BinRight: 31" role="graphics-symbol" aria-roledescription="rect mark" d="M90,139.79999999999998h3v160.20000000000002h-3Z" fill="#4c78a8"/><path aria-label="Age (years): 31; Number of people: 41666; BinRight: 32" role="graphics-symbol" aria-roledescription="rect mark" d="M93,143.7525h3v156.2475h-3Z" fill="#4c78a8"/><path aria-label="Age (years): 32; Number of people: 41777; BinRight: 33" role="graphics-symbol" aria-roledescription="rect mark" d="M96,143.33625h3v156.66375h-3Z" fill="#4c78a8"/><path aria-label="Age (years): 33; Number of people: 41081; BinRight: 34" role="graphics-symbol" aria-roledescription="rect mark" d="M99,145.94625h3.000000000000014v154.05375h-3.000000000000014Z" fill="#4c78a8"/><path aria-label="Age (years): 34; Number of people: 42595; BinRight: 35" role="graphics-symbol" aria-roledescription="rect mark" d="M102.00000000000001,140.26875h2.999999999999986v159.73125h-2.999999999999986Z" fill="#4c78a8"/><path aria-label="Age (years): 35; Number of people: 43513; BinRight: 36" role="graphics-symbol" aria-roledescription="rect mark" d="M105,136.82625h3v163.17375h-3Z" fill="#4c78a8"/><path aria-label="Age (years): 36; Number of people: 43300; BinRight: 37" role="graphics-symbol" aria-roledescription="rect mark" d="M108,137.625h3v162.375h-3Z" fill="#4c78a8"/><path aria-label="Age (years): 37; Number of people: 43696; BinRight: 38" role="graphics-symbol" aria-roledescription="rect mark" d="M111,136.14h3v163.86h-3Z" fill="#4c78a8"/><path aria-label="Age (years): 38; Number of people: 44242; BinRight: 39" role="graphics-symbol" aria-roledescription="rect mark" d="M114,134.0925h3v165.9075h-3Z" fill="#4c78a8"/><path aria-label="Age (years): 39; Number of people: 46960; BinRight: 40" role="graphics-symbol" aria-roledescription="rect mark" d="M117,123.9h3v176.1h-3Z" fill="#4c78a8"/><path aria-label="Age (years): 40; Number of people: 47588; BinRight: 41" role="graphics-symbol" aria-roledescription="rect mark" d="M120,121.545h2.999999999999986v178.45499999999998h-2.999999999999986Z" fill="#4c78a8"/><path aria-label="Age (years): 41; Number of people: 44409; BinRight: 42" role="graphics-symbol" aria-roledescription="rect mark" d="M122.99999999999999,133.46625h3.000000000000014v166.53375h-3.000000000000014Z" fill="#4c78a8"/><path aria-label="Age (years): 42; Number of people: 44336; BinRight: 43" role="graphics-symbol" aria-roledescription="rect mark" d="M126,133.73999999999998h3v166.26000000000002h-3Z" fill="#4c78a8"/><path aria-label="Age (years): 43; Number of people: 44308; BinRight: 44" role="graphics-symbol" aria-roledescription="rect mark" d="M129,133.84500000000003h3v166.15499999999997h-3Z" fill="#4c78a8"/><path aria-label="Age (years): 44; Number of people: 46887; BinRight: 45" role="graphics-symbol" aria-roledescription="rect mark" d="M132,124.17375h3v175.82625000000002h-3Z" fill="#4c78a8"/><path aria-label="Age (years): 45; Number of people: 47274; BinRight: 46" role="graphics-symbol" aria-roledescription="rect mark" d="M135,122.7225h3v177.2775h-3Z" fill="#4c78a8"/><path aria-label="Age (years): 46; Number of people: 44804; BinRight: 47" role="graphics-symbol" aria-roledescription="rect mark" d="M138,131.98499999999999h3v168.01500000000001h-3Z" fill="#4c78a8"/><path aria-label="Age (years): 47; Number of people: 44077; BinRight: 48" role="graphics-symbol" aria-roledescription="rect mark" d="M141,134.71125h3v165.28875h-3Z" fill="#4c78a8"/><path aria-label="Age (years): 48; Number of people: 43083; BinRight: 49" role="graphics-symbol" aria-roledescription="rect mark" d="M144,138.43875h3v161.56125h-3Z" fill="#4c78a8"/><path aria-label="Age (years): 49; Number of people: 46550; BinRight: 50" role="graphics-symbol" aria-roledescription="rect mark" d="M147,125.43749999999999h3v174.5625h-3Z" fill="#4c78a8"/><path aria-label="Age (years): 50; Number of people: 50592; BinRight: 51" role="graphics-symbol" aria-roledescription="rect mark" d="M150,110.28000000000002h3v189.71999999999997h-3Z" fill="#4c78a8"/><path aria-label="Age (years): 51; Number of people: 48144; BinRight: 52" role="graphics-symbol" aria-roledescription="rect mark" d="M153,119.46h3v180.54000000000002h-3Z" fill="#4c78a8"/><path aria-label="Age (years): 52; Number of people: 51069; BinRight: 53" role="graphics-symbol" aria-roledescription="rect mark" d="M156,108.49124999999998h3v191.50875000000002h-3Z" fill="#4c78a8"/><path aria-label="Age (years): 53; Number of people: 54161; BinRight: 54" role="graphics-symbol" aria-roledescription="rect mark" d="M159,96.89625h3v203.10375h-3Z" fill="#4c78a8"/><path aria-label="Age (years): 54; Number of people: 56271; BinRight: 55" role="graphics-symbol" aria-roledescription="rect mark" d="M162,88.98374999999999h3v211.01625h-3Z" fill="#4c78a8"/><path aria-label="Age (years): 55; Number of people: 59279; BinRight: 56" role="graphics-symbol" aria-roledescription="rect mark" d="M165,77.70375h3.0000000000000284v222.29625h-3.0000000000000284Z" fill="#4c78a8"/><path aria-label="Age (years): 56; Number of people: 57550; BinRight: 57" role="graphics-symbol" aria-roledescription="rect mark" d="M168.00000000000003,84.1875h2.999999999999943v215.8125h-2.999999999999943Z" fill="#4c78a8"/><path aria-label="Age (years): 57; Number of people: 57996; BinRight: 58" role="graphics-symbol" aria-roledescription="rect mark" d="M170.99999999999997,82.515h3.0000000000000284v217.485h-3.0000000000000284Z" fill="#4c78a8"/><path aria-label="Age (years): 58; Number of people: 58642; BinRight: 59" role="graphics-symbol" aria-roledescription="rect mark" d="M174,80.09249999999999h3v219.90750000000003h-3Z" fill="#4c78a8"/><path aria-label="Age (years): 59; Number of people: 61857; BinRight: 60" role="graphics-symbol" aria-roledescription="rect mark" d="M177,68.03625000000001h3v231.96375h-3Z" fill="#4c78a8"/><path aria-label="Age (years): 60; Number of people: 63206; BinRight: 61" role="graphics-symbol" aria-roledescription="rect mark" d="M180,62.977500000000006h3v237.02249999999998h-3Z" fill="#4c78a8"/><path aria-label="Age (years): 61; Number of people: 61016; BinRight: 62" role="graphics-symbol" aria-roledescription="rect mark" d="M183,71.18999999999998h3v228.81h-3Z" fill="#4c78a8"/><path aria-label="Age (years): 62; Number of people: 61389; BinRight: 63" role="graphics-symbol" aria-roledescription="rect mark" d="M186,69.79125000000002h3v230.20874999999998h-3Z" fill="#4c78a8"/><path aria-label="Age (years): 63; Number of people: 62734; BinRight: 64" role="graphics-symbol" aria-roledescription="rect mark" d="M189,64.74750000000002h3v235.2525h-3Z" fill="#4c78a8"/><path aria-label="Age (years): 64; Number of people: 62647; BinRight: 65" role="graphics-symbol" aria-roledescription="rect mark" d="M192,65.07374999999999h3v234.92625h-3Z" fill="#4c78a8"/><path aria-label="Age (years): 65; Number of people: 63317; BinRight: 66" role="graphics-symbol" aria-roledescription="rect mark" d="M195,62.561250000000015h3v237.43874999999997h-3Z" fill="#4c78a8"/><path aria-label="Age (years): 66; Number of people: 63325; BinRight: 67" role="graphics-symbol" aria-roledescription="rect mark" d="M198,62.531250000000014h3v237.46875h-3Z" fill="#4c78a8"/><path aria-label="Age (years): 67; Number of people: 63852; BinRight: 68" role="graphics-symbol" aria-roledescription="rect mark" d="M201,60.55499999999999h3.0000000000000284v239.445h-3.0000000000000284Z" fill="#4c78a8"/><path aria-label="Age (years): 68; Number of people: 64528; BinRight: 69" role="graphics-symbol" aria-roledescription="rect mark" d="M204.00000000000003,58.02h2.999999999999943v241.98h-2.999999999999943Z" fill="#4c78a8"/><path aria-label="Age (years): 69; Number of people: 66441; BinRight: 70" role="graphics-symbol" aria-roledescription="rect mark" d="M206.99999999999997,50.846250000000005h3.0000000000000284v249.15375h-3.0000000000000284Z" fill="#4c78a8"/><path aria-label="Age (years): 70; Number of people: 66686; BinRight: 71" role="graphics-symbol" aria-roledescription="rect mark" d="M210,49.927500000000016h3v250.0725h-3Z" fill="#4c78a8"/><path aria-label="Age (years): 71; Number of people: 66242; BinRight: 72" role="graphics-symbol" aria-roledescription="rect mark" d="M213,51.592499999999994h3v248.4075h-3Z" fill="#4c78a8"/><path aria-label="Age (years): 72; Number of people: 67416; BinRight: 73" role="graphics-symbol" aria-roledescription="rect mark" d="M216,47.19h3v252.81h-3Z" fill="#4c78a8"/><path aria-label="Age (years): 73; Number of people: 67728; BinRight: 74" role="graphics-symbol" aria-roledescription="rect mark" d="M219,46.019999999999996h3v253.98000000000002h-3Z" fill="#4c78a8"/><path aria-label="Age (years): 74; Number of people: 71769; BinRight: 75" role="graphics-symbol" aria-roledescription="rect mark" d="M222,30.866250000000008h3v269.13374999999996h-3Z" fill="#4c78a8"/><path aria-label="Age (years): 75; Number of people: 66638; BinRight: 76" role="graphics-symbol" aria-roledescription="rect mark" d="M225,50.107499999999995h3v249.8925h-3Z" fill="#4c78a8"/><path aria-label="Age (years): 76; Number of people: 63643; BinRight: 77" role="graphics-symbol" aria-roledescription="rect mark" d="M228,61.33875h3v238.66125h-3Z" fill="#4c78a8"/><path aria-label="Age (years): 77; Number of people: 50853; BinRight: 78" role="graphics-symbol" aria-roledescription="rect mark" d="M231,109.30125h3v190.69875000000002h-3Z" fill="#4c78a8"/><path aria-label="Age (years): 78; Number of people: 47212; BinRight: 79" role="graphics-symbol" aria-roledescription="rect mark" d="M234,122.95500000000001h3v177.045h-3Z" fill="#4c78a8"/><path aria-label="Age (years): 79; Number of people: 45988; BinRight: 80" role="graphics-symbol" aria-roledescription="rect mark" d="M237,127.545h3v172.45499999999998h-3Z" fill="#4c78a8"/><path aria-label="Age (years): 80; Number of people: 44151; BinRight: 81" role="graphics-symbol" aria-roledescription="rect mark" d="M240,134.43375h3.0000000000000284v165.56625h-3.0000000000000284Z" fill="#4c78a8"/><path aria-label="Age (years): 81; Number of people: 45595; BinRight: 82" role="graphics-symbol" aria-roledescription="rect mark" d="M243.00000000000003,129.01875h2.999999999999943v170.98125h-2.999999999999943Z" fill="#4c78a8"/><path aria-label="Age (years): 82; Number of people: 42161; BinRight: 83" role="graphics-symbol" aria-roledescription="rect mark" d="M245.99999999999997,141.89625h3.0000000000000284v158.10375h-3.0000000000000284Z" fill="#4c78a8"/><path aria-label="Age (years): 83; Number of people: 41643; BinRight: 84" role="graphics-symbol" aria-roledescription="rect mark" d="M249,143.83875h3v156.16125h-3Z" fill="#4c78a8"/><path aria-label="Age (years): 84; Number of people: 39784; BinRight: 85" role="graphics-symbol" aria-roledescription="rect mark" d="M252,150.80999999999997h3v149.19000000000003h-3Z" fill="#4c78a8"/><path aria-label="Age (years): 85; Number of people: 35900; BinRight: 86" role="graphics-symbol" aria-roledescription="rect mark" d="M255,165.375h3v134.625h-3Z" fill="#4c78a8"/><path aria-label="Age (years): 86; Number of people: 34344; BinRight: 87" role="graphics-symbol" aria-roledescription="rect mark" d="M258,171.21h3v128.79h-3Z" fill="#4c78a8"/><path aria-label="Age (years): 87; Number of people: 32142; BinRight: 88" role="graphics-symbol" aria-roledescription="rect mark" d="M261,179.4675h3v120.5325h-3Z" fill="#4c78a8"/><path aria-label="Age (years): 88; Number of people: 29160; BinRight: 89" role="graphics-symbol" aria-roledescription="rect mark" d="M264,190.64999999999998h3v109.35000000000002h-3Z" fill="#4c78a8"/><path aria-label="Age (years): 89; Number of people: 26542; BinRight: 90" role="graphics-symbol" aria-roledescription="rect mark" d="M267,200.46750000000003h3v99.53249999999997h-3Z" fill="#4c78a8"/><path aria-label="Age (years): 90; Number of people: 24512; BinRight: 91" role="graphics-symbol" aria-roledescription="rect mark" d="M270,208.07999999999998h3v91.92000000000002h-3Z" fill="#4c78a8"/><path aria-label="Age (years): 91; Number of people: 21567; BinRight: 92" role="graphics-symbol" aria-roledescription="rect mark" d="M273,219.12375h3v80.87625h-3Z" fill="#4c78a8"/><path aria-label="Age (years): 92; Number of people: 18472; BinRight: 93" role="graphics-symbol" aria-roledescription="rect mark" d="M276,230.73h3v69.27000000000001h-3Z" fill="#4c78a8"/><path aria-label="Age (years): 93; Number of people: 15127; BinRight: 94" role="graphics-symbol" aria-roledescription="rect mark" d="M279,243.27375h3v56.72624999999999h-3Z" fill="#4c78a8"/><path aria-label="Age (years): 94; Number of people: 11806; BinRight: 95" role="graphics-symbol" aria-roledescription="rect mark" d="M282,255.7275h3v44.27250000000001h-3Z" fill="#4c78a8"/><path aria-label="Age (years): 95; Number of people: 8975; BinRight: 96" role="graphics-symbol" aria-roledescription="rect mark" d="M285,266.34375h3v33.65625h-3Z" fill="#4c78a8"/><path aria-label="Age (years): 96; Number of people: 6591; BinRight: 97" role="graphics-symbol" aria-roledescription="rect mark" d="M288,275.28375h3v24.716250000000002h-3Z" fill="#4c78a8"/><path aria-label="Age (years): 97; Number of people: 4747; BinRight: 98" role="graphics-symbol" aria-roledescription="rect mark" d="M291,282.19874999999996h3v17.80125000000004h-3Z" fill="#4c78a8"/><path aria-label="Age (years): 98; Number of people: 3068; BinRight: 99" role="graphics-symbol" aria-roledescription="rect mark" d="M294,288.495h3v11.504999999999995h-3Z" fill="#4c78a8"/><path aria-label="Age (years): 99; Number of people: 2006; BinRight: 100" role="graphics-symbol" aria-roledescription="rect mark" d="M297,292.4775h3v7.5224999999999795h-3Z" fill="#4c78a8"/><path aria-label="Age (years): 100; Number of people: 2768; BinRight: NaN" role="graphics-symbol" aria-roledescription="rect mark" d="M300,289.62h0v10.379999999999995h0Z" fill="#4c78a8"/></g></g><path class="foreground" aria-hidden="true" d="" display="none"/></g></g></g></svg>