<svg xmlns="http://www.w3.org/2000/svg" xmlns:xlink="http://www.w3.org/1999/xlink" version="1.1" class="marks" width="369" height="347" viewBox="0 0 369 347"><rect width="369" height="347" fill="white"/><g fill="none" stroke-miterlimit="10" transform="translate(63,10)"><g class="mark-group role-frame root" role="graphics-object" aria-roledescription="group mark container"><g transform="translate(0,0)"><path class="background" aria-hidden="true" d="M0.5,0.5h300v300h-300Z" stroke="#ddd"/><g><g class="mark-group role-axis" aria-hidden="true"><g transform="translate(0.5,300.5)"><path class="background" aria-hidden="true" d="M0,0h0v0h0Z" pointer-events="none"/><g><g class="mark-rule role-axis-grid" pointer-events="none"><line transform="translate(0,-300)" x2="0" y2="300" stroke="#ddd" stroke-width="1" opacity="1"/><line transform="translate(30,-300)" x2="0" y2="300" stroke="#ddd" stroke-width="1" opacity="1"/><line transform="translate(60,-300)" x2="0" y2="300" stroke="#ddd" stroke-width="1" opacity="1"/><line transform="translate(90,-300)" x2="0" y2="300" stroke="#ddd" stroke-width="1" opacity="1"/><line transform="translate(120,-300)" x2="0" y2="300" stroke="#ddd" stroke-width="1" opacity="1"/><line transform="translate(150,-300)" x2="0" y2="300" stroke="#ddd" stroke-width="1" opacity="1"/><line transform="translate(180,-300)" x2="0" y2="300" stroke="#ddd" stroke-width="1" opacity="1"/><line transform="translate(210,-300)" x2="0" y2="300" stroke="#ddd" stroke-width="1" opacity="1"/><line transform="translate(240,-300)" x2="0" y2="300" stroke="#ddd" stroke-width="1" opacity="1"/><line transform="translate(270,-300)" x2="0" y2="300" stroke="#ddd" stroke-width="1" opacity="1"/><line transform="translate(300,-300)" x2="0" y2="300" stroke="#ddd" stroke-width="1" opacity="1"/></g></g><path class="foreground" aria-hidden="true" d="" pointer-events="none" display="none"/></g></g><g class="mark-group role-axis" aria-hidden="true"><g transform="translate(0.5,0.5)"><path class="background" aria-hidden="true" d="M0,0h0v0h0Z" pointer-events="none"/><g><g class="mark-rule role-axis-grid" pointer-events="none"><line transform="translate(0,300)" x2="300" y2="0" stroke="#ddd" stroke-width="1" opacity="1"/><line transform="translate(0,267)" x2="300" y2="0" stroke="#ddd" stroke-width="1" opacity="1"/><line transform="translate(0,233)" x2="300" y2="0" stroke="#ddd" stroke-width="1" opacity="1"/><line transform="translate(0,200)" x2="300" y2="0" stroke="#ddd" stroke-width="1" opacity="1"/><line transform="translate(0,167)" x2="300" y2="0" stroke="#ddd" stroke-width="1" opacity="1"/><line transform="translate(0,133)" x2="300" y2="0" stroke="#ddd" stroke-width="1" opacity="1"/><line transform="translate(0,100)" x2="300" y2="0" stroke="#ddd" stroke-width="1" opacity="1"/><line transform="translate(0,67)" x2="300" y2="0" stroke="#ddd" stroke-width="1" opacity="1"/><line transform="translate(0,33)" x2="300" y2="0" stroke="#ddd" stroke-width="1" opacity="1"/><line transform="translate(0,0)" x2="300" y2="0" stroke="#ddd" stroke-width="1" opacity="1"/></g></g><path class="foreground" aria-hidden="true" d="" pointer-events="none" display="none"/></g></g><g class="mark-group role-axis" role="graphics-symbol" aria-roledescription="axis" aria-label="X-axis titled 'Age (years)' for a linear scale with values from 0 to 100"><g transform="translate(0.5,300.5)"><path class="background" aria-hidden="true" d="M0,0h0v0h0Z" pointer-events="none"/><g><g class="mark-rule role-axis-tick" pointer-events="none"><line transform="translate(0,0)" x2="0" y2="5" stroke="#888" stroke-width="1" opacity="1"/><line transform="translate(30,0)" x2="0" y2="5" stroke="#888" stroke-width="1" opacity="1"/><line transform="translate(60,0)" x2="0" y2="5" stroke="#888" stroke-width="1" opacity="1"/><line transform="translate(90,0)" x2="0" y2="5" stroke="#888" stroke-width="1" opacity="1"/><line transform="translate(120,0)" x2="0" y2="5" stroke="#888" stroke-width="1" opacity="1"/><line transform="translate(150,0)" x2="0" y2="5" stroke="#888" stroke-width="1" opacity="1"/><line transform="translate(180,0)" x2="0" y2="5" stroke="#888" stroke-width="1" opacity="1"/><line transform="translate(210,0)" x2="0" y2="5" stroke="#888" stroke-width="1" opacity="1"/><line transform="translate(240,0)" x2="0" y2="5" stroke="#888" stroke-width="1" opacity="1"/><line transform="translate(270,0)" x2="0" y2="5" stroke="#888" stroke-width="1" opacity="1"/><line transform="translate(300,0)" x2="0" y2="5" stroke="#888" stroke-width="1" opacity="1"/></g><g class="mark-text role-axis-label" pointer-events="none"><text text-anchor="start" transform="translate(0,15)" font-family="sans-serif" font-size="10px" fill="#000" opacity="1">0</text><text text-anchor="middle" transform="translate(30,15)" font-family="sans-serif" font-size="10px" fill="#000" opacity="1">10</text><text text-anchor="middle" transform="translate(60,15)" font-family="sans-serif" font-size="10px" fill="#000" opacity="1">20</text><text text-anchor="middle" transform="translate(90,15)" font-family="sans-serif" font-size="10px" fill="#000" opacity="1">30</text><text text-anchor="middle" transform="translate(120,15)" font-family="sans-serif" font-size="10px" fill="#000" opacity="1">40</text><text text-anchor="middle" transform="translate(150,15)" font-family="sans-serif" font-size="10px" fill="#000" opacity="1">50</text><text text-anchor="middle" transform="translate(180,15)" font-family="sans-serif" font-size="10px" fill="#000" opacity="1">60</text><text text-anchor="middle" transform="translate(210,15)" font-family="sans-serif" font-size="10px" fill="#000" opacity="1">70</text><text text-anchor="middle" transform="translate(240,15)" font-family="sans-serif" font-size="10px" fill="#000" opacity="1">80</text><text text-anchor="middle" transform="translate(270,15)" font-family="sans-serif" font-size="10px" fill="#000" opacity="1">90</text><text text-anchor="end" transform="translate(300,15)" font-family="sans-serif" font-size="10px" fill="#000" opacity="1">100</text></g><g class="mark-rule role-axis-domain" pointer-events="none"><line transform="translate(0,0)" x2="300" y2="0" stroke="#888" stroke-width="1" opacity="1"/></g><g class="mark-text role-axis-title" pointer-events="none"><text text-anchor="middle" transform="translate(150,30)" font-family="sans-serif" font-size="11px" font-weight="bold" fill="#000" opacity="1">Age (years)</text></g></g><path class="foreground" aria-hidden="true" d="" pointer-events="none" display="none"/></g></g><g class="mark-group role-axis" role="graphics-symbol" aria-roledescription="axis" aria-label="Y-axis titled 'Number of people' for a linear scale with values from 0 to 45,000"><g transform="translate(0.5,0.5)"><path class="background" aria-hidden="true" d="M0,0h0v0h0Z" pointer-events="none"/><g><g class="mark-rule role-axis-tick" pointer-events="none"><line transform="translate(0,300)" x2="-5" y2="0" stroke="#888" stroke-width="1" opacity="1"/><line transform="translate(0,267)" x2="-5" y2="0" stroke="#888" stroke-width="1" opacity="1"/><line transform="translate(0,233)" x2="-5" y2="0" stroke="#888" stroke-width="1" opacity="1"/><line transform="translate(0,200)" x2="-5" y2="0" stroke="#888" stroke-width="1" opacity="1"/><line transform="translate(0,167)" x2="-5" y2="0" stroke="#888" stroke-width="1" opacity="1"/><line transform="translate(0,133)" x2="-5" y2="0" stroke="#888" stroke-width="1" opacity="1"/><line transform="translate(0,100)" x2="-5" y2="0" stroke="#888" stroke-width="1" opacity="1"/><line transform="translate(0,67)" x2="-5" y2="0" stroke="#888" stroke-width="1" opacity="1"/><line transform="translate(0,33)" x2="-5" y2="0" stroke="#888" stroke-width="1" opacity="1"/><line transform="translate(0,0)" x2="-5" y2="0" stroke="#888" stroke-width="1" opacity="1"/></g><g class="mark-text role-axis-label" pointer-events="none"><text text-anchor="end" transform="translate(-7,303)" font-family="sans-serif" font-size="10px" fill="#000" opacity="1">0</text><text text-anchor="end" transform="translate(-7,269.66666666666663)" font-family="sans-serif" font-size="10px" fill="#000" opacity="1">5,000</text><text text-anchor="end" transform="translate(-7,236.33333333333334)" font-family="sans-serif" font-size="10px" fill="#000" opacity="1">10,000</text><text text-anchor="end" transform="translate(-7,203.00000000000003)" font-family="sans-serif" font-size="10px" fill="#000" opacity="1">15,000</text><text text-anchor="end" transform="translate(-7,169.66666666666669)" font-family="sans-serif" font-size="10px" fill="#000" opacity="1">20,000</text><text text-anchor="end" transform="translate(-7,136.33333333333331)" font-family="sans-serif" font-size="10px" fill="#000" opacity="1">25,000</text><text text-anchor="end" transform="translate(-7,103.00000000000001)" font-family="sans-serif" font-size="10px" fill="#000" opacity="1">30,000</text><text text-anchor="end" transform="translate(-7,69.66666666666666)" font-family="sans-serif" font-size="10px" fill="#000" opacity="1">35,000</text><text text-anchor="end" transform="translate(-7,36.33333333333335)" font-family="sans-serif" font-size="10px" fill="#000" opacity="1">40,000</text><text text-anchor="end" transform="translate(-7,3)" font-family="sans-serif" font-size="10px" fill="#000" opacity="1">45,000</text></g><g class="mark-rule role-axis-domain" pointer-events="none"><line transform="translate(0,300)" x2="0" y2="-300" stroke="#888" stroke-width="1" opacity="1"/></g><g class="mark-text role-axis-title" pointer-events="none"><text text-anchor="middle" transform="translate(-46.5,150) rotate(-90) translate(0,-2)" font-family="sans-serif" font-size="11px" font-weight="bold" fill="#000" opacity="1">Number of people</text></g></g><path class="foreground" aria-hidden="true" d="" pointer-events="none" display="none"/></g></g><g class="mark-rect role-mark marks" role="graphics-object" aria-roledescription="rect mark container"><path aria-label="Age (years): 0; Number of people: 4439; BinRight: 1" role="graphics-symbol" aria-roledescription="rect mark" d="M0,270.4066666666667h3v29.593333333333305h-3Z" fill="#4c78a8"/><path aria-label="Age (years): 1; Number of people: 4527; BinRight: 2" role="graphics-symbol" aria-roledescription="rect mark" d="M3,269.82h3v30.180000000000007h-3Z" fill="#4c78a8"/><path aria-label="Age (years): 2; Number of people: 4915; BinRight: 3" role="graphics-symbol" aria-roledescription="rect mark" d="M6,267.23333333333335h3v32.76666666666665h-3Z" fill="#4c78a8"/><path aria-label="Age (years): 3; Number of people: 5487; BinRight: 4" role="graphics-symbol" aria-roledescription="rect mark" d="M9,263.42h3v36.579999999999984h-3Z" fill="#4c78a8"/><path aria-label="Age (years): 4; Number of people: 6205; BinRight: 5" role="graphics-symbol" aria-roledescription="rect mark" d="M12,258.6333333333333h3v41.366666666666674h-3Z" fill="#4c78a8"/><path aria-label="Age (years): 5; Number of people: 6857; BinRight: 6" role="graphics-symbol" aria-roledescription="rect mark" d="M15,254.2866666666667h3v45.71333333333331h-3Z" fill="#4c78a8"/><path aria-label="Age (years): 6; Number of people: 7772; BinRight: 7" role="graphics-symbol" aria-roledescription="rect mark" d="M18,248.18666666666667h3.0000000000000036v51.81333333333333h-3.0000000000000036Z" fill="#4c78a8"/><path aria-label="Age (years): 7; Number of people: 8785; BinRight: 8" role="graphics-symbol" aria-roledescription="rect mark" d="M21.000000000000004,241.43333333333334h2.9999999999999964v58.56666666666666h-2.9999999999999964Z" fill="#4c78a8"/><path aria-label="Age (years): 8; Number of people: 9561; BinRight: 9" role="graphics-symbol" aria-roledescription="rect mark" d="M24,236.26h3v63.74000000000001h-3Z" fill="#4c78a8"/><path aria-label="Age (years): 9; Number of people: 10674; BinRight: 10" role="graphics-symbol" aria-roledescription="rect mark" d="M27,228.84h3v71.16h-3Z" fill="#4c78a8"/><path aria-label="Age (years): 10; Number of people: 11223; BinRight: 11" role="graphics-symbol" aria-roledescription="rect mark" d="M30,225.17999999999998h3v74.82000000000002h-3Z" fill="#4c78a8"/><path aria-label="Age (years): 11; Number of people: 11890; BinRight: 12" role="graphics-symbol" aria-roledescription="rect mark" d="M33,220.73333333333332h3v79.26666666666668h-3Z" fill="#4c78a8"/><path aria-label="Age (years): 12; Number of people: 12852; BinRight: 13" role="graphics-symbol" aria-roledescription="rect mark" d="M36,214.31999999999996h3v85.68000000000004h-3Z" fill="#4c78a8"/><path aria-label="Age (years): 13; Number of people: 13072; BinRight: 14" role="graphics-symbol" aria-roledescription="rect mark" d="M39,212.85333333333332h3.000000000000007v87.14666666666668h-3.000000000000007Z" fill="#4c78a8"/><path aria-label="Age (years): 14; Number of people: 13833; BinRight: 15" role="graphics-symbol" aria-roledescription="rect mark" d="M42.00000000000001,207.78h2.999999999999993v92.22h-2.999999999999993Z" fill="#4c78a8"/><path aria-label="Age (years): 15; Number of people: 13704; BinRight: 16" role="graphics-symbol" aria-roledescription="rect mark" d="M45,208.64000000000001h3v91.35999999999999h-3Z" fill="#4c78a8"/><path aria-label="Age (years): 16; Number of people: 14740; BinRight: 17" role="graphics-symbol" aria-roledescription="rect mark" d="M48,201.73333333333332h3.000000000000007v98.26666666666668h-3.000000000000007Z" fill="#4c78a8"/><path aria-label="Age (years): 17; Number of people: 15288; BinRight: 18" role="graphics-symbol" aria-roledescription="rect mark" d="M51.00000000000001,198.08h2.999999999999993v101.91999999999999h-2.999999999999993Z" fill="#4c78a8"/><path aria-label="Age (years): 18; Number of people: 15819; BinRight: 19" role="graphics-symbol" aria-roledescription="rect mark" d="M54,194.54000000000002h3v105.45999999999998h-3Z" fill="#4c78a8"/><path aria-label="Age (years): 19; Number of people: 16820; BinRight: 20" role="graphics-symbol" aria-roledescription="rect mark" d="M57,187.86666666666667h3v112.13333333333333h-3Z" fill="#4c78a8"/><path aria-label="Age (years): 20; Number of people: 17323; BinRight: 21" role="graphics-symbol" aria-roledescription="rect mark" d="M60,184.51333333333335h3v115.48666666666665h-3Z" fill="#4c78a8"/><path aria-label="Age (years): 21; Number of people: 17779; BinRight: 22" role="graphics-symbol" aria-roledescription="rect mark" d="M63,181.47333333333336h3v118.52666666666664h-3Z" fill="#4c78a8"/><path aria-label="Age (years): 22; Number of people: 17810; BinRight: 23" role="graphics-symbol" aria-roledescription="rect mark" d="M66,181.26666666666665h3v118.73333333333335h-3Z" fill="#4c78a8"/><path aria-label="Age (years): 23; Number of people: 18290; BinRight: 24" role="graphics-symbol" aria-roledescription="rect mark" d="M69,178.0666666666667h3v121.93333333333331h-3Z" fill="#4c78a8"/><path aria-label="Age (years): 24; Number of people: 18118; BinRight: 25" role="graphics-symbol" aria-roledescription="rect mark" d="M72,179.21333333333334h3v120.78666666666666h-3Z" fill="#4c78a8"/><path aria-label="Age (years): 25; Number of people: 18275; BinRight: 26" role="graphics-symbol" aria-roledescription="rect mark" d="M75,178.16666666666669h3v121.83333333333331h-3Z" fill="#4c78a8"/><path aria-label="Age (years): 26; Number of people: 17411; BinRight: 27" role="graphics-symbol" aria-roledescription="rect mark" d="M78,183.92666666666668h3v116.07333333333332h-3Z" fill="#4c78a8"/><path aria-label="Age (years): 27; Number of people: 18331; BinRight: 28" role="graphics-symbol" aria-roledescription="rect mark" d="M81,177.79333333333332h3.000000000000014v122.20666666666668h-3.000000000000014Z" fill="#4c78a8"/><path aria-label="Age (years): 28; Number of people: 19278; BinRight: 29" role="graphics-symbol" aria-roledescription="rect mark" d="M84.00000000000001,171.48h2.999999999999986v128.52h-2.999999999999986Z" fill="#4c78a8"/><path aria-label="Age (years): 29; Number of people: 19901; BinRight: 30" role="graphics-symbol" aria-roledescription="rect mark" d="M87,167.32666666666665h3v132.67333333333335h-3Z" fill="#4c78a8"/><path aria-label="Age (years): 30; Number of people: 20692; BinRight: 31" role="graphics-symbol" aria-roledescription="rect mark" d="M90,162.0533333333333h3v137.9466666666667h-3Z" fill="#4c78a8"/><path aria-label="Age (years): 31; Number of people: 21014; BinRight: 32" role="graphics-symbol" aria-roledescription="rect mark" d="M93,159.9066666666667h3v140.0933333333333h-3Z" fill="#4c78a8"/><path aria-label="Age (years): 32; Number of people: 20292; BinRight: 33" role="graphics-symbol" aria-roledescription="rect mark" d="M96,164.71999999999997h3v135.28000000000003h-3Z" fill="#4c78a8"/><path aria-label="Age (years): 33; Number of people: 20267; BinRight: 34" role="graphics-symbol" aria-roledescription="rect mark" d="M99,164.88666666666666h3.000000000000014v135.11333333333334h-3.000000000000014Z" fill="#4c78a8"/><path aria-label="Age (years): 34; Number of people: 20644; BinRight: 35" role="graphics-symbol" aria-roledescription="rect mark" d="M102.00000000000001,162.37333333333333h2.999999999999986v137.62666666666667h-2.999999999999986Z" fill="#4c78a8"/><path aria-label="Age (years): 35; Number of people: 20838; BinRight: 36" role="graphics-symbol" aria-roledescription="rect mark" d="M105,161.07999999999998h3v138.92000000000002h-3Z" fill="#4c78a8"/><path aria-label="Age (years): 36; Number of people: 21779; BinRight: 37" role="graphics-symbol" aria-roledescription="rect mark" d="M108,154.80666666666664h3v145.19333333333336h-3Z" fill="#4c78a8"/><path aria-label="Age (years): 37; Number of people: 22103; BinRight: 38" role="graphics-symbol" aria-roledescription="rect mark" d="M111,152.64666666666668h3v147.35333333333332h-3Z" fill="#4c78a8"/><path aria-label="Age (years): 38; Number of people: 22162; BinRight: 39" role="graphics-symbol" aria-roledescription="rect mark" d="M114,152.25333333333333h3v147.74666666666667h-3Z" fill="#4c78a8"/><path aria-label="Age (years): 39; Number of people: 21356; BinRight: 40" role="graphics-symbol" aria-roledescription="rect mark" d="M117,157.62666666666667h3v142.37333333333333h-3Z" fill="#4c78a8"/><path aria-label="Age (years): 40; Number of people: 20054; BinRight: 41" role="graphics-symbol" aria-roledescription="rect mark" d="M120,166.30666666666664h2.999999999999986v133.69333333333336h-2.999999999999986Z" fill="#4c78a8"/><path aria-label="Age (years): 41; Number of people: 20842; BinRight: 42" role="graphics-symbol" aria-roledescription="rect mark" d="M122.99999999999999,161.05333333333334h3.000000000000014v138.94666666666666h-3.000000000000014Z" fill="#4c78a8"/><path aria-label="Age (years): 42; Number of people: 22268; BinRight: 43" role="graphics-symbol" aria-roledescription="rect mark" d="M126,151.54666666666668h3v148.45333333333332h-3Z" fill="#4c78a8"/><path aria-label="Age (years): 43; Number of people: 23631; BinRight: 44" role="graphics-symbol" aria-roledescription="rect mark" d="M129,142.46h3v157.54h-3Z" fill="#4c78a8"/><path aria-label="Age (years): 44; Number of people: 24683; BinRight: 45" role="graphics-symbol" aria-roledescription="rect mark" d="M132,135.4466666666667h3v164.5533333333333h-3Z" fill="#4c78a8"/><path aria-label="Age (years): 45; Number of people: 26807; BinRight: 46" role="graphics-symbol" aria-roledescription="rect mark" d="M135,121.28666666666668h3v178.7133333333333h-3Z" fill="#4c78a8"/><path aria-label="Age (years): 46; Number of people: 28652; BinRight: 47" role="graphics-symbol" aria-roledescription="rect mark" d="M138,108.98666666666666h3v191.01333333333332h-3Z" fill="#4c78a8"/><path aria-label="Age (years): 47; Number of people: 29077; BinRight: 48" role="graphics-symbol" aria-roledescription="rect mark" d="M141,106.15333333333332h3v193.8466666666667h-3Z" fill="#4c78a8"/><path aria-label="Age (years): 48; Number of people: 29916; BinRight: 49" role="graphics-symbol" aria-roledescription="rect mark" d="M144,100.56000000000002h3v199.44h-3Z" fill="#4c78a8"/><path aria-label="Age (years): 49; Number of people: 30768; BinRight: 50" role="graphics-symbol" aria-roledescription="rect mark" d="M147,94.88000000000001h3v205.12h-3Z" fill="#4c78a8"/><path aria-label="Age (years): 50; Number of people: 31719; BinRight: 51" role="graphics-symbol" aria-roledescription="rect mark" d="M150,88.54h3v211.45999999999998h-3Z" fill="#4c78a8"/><path aria-label="Age (years): 51; Number of people: 32415; BinRight: 52" role="graphics-symbol" aria-roledescription="rect mark" d="M153,83.89999999999999h3v216.10000000000002h-3Z" fill="#4c78a8"/><path aria-label="Age (years): 52; Number of people: 33003; BinRight: 53" role="graphics-symbol" aria-roledescription="rect mark" d="M156,79.97999999999999h3v220.02h-3Z" fill="#4c78a8"/><path aria-label="Age (years): 53; Number of people: 33195; BinRight: 54" role="graphics-symbol" aria-roledescription="rect mark" d="M159,78.69999999999999h3v221.3h-3Z" fill="#4c78a8"/><path aria-label="Age (years): 54; Number of people: 33839; BinRight: 55" role="graphics-symbol" aria-roledescription="rect mark" d="M162,74.40666666666668h3v225.5933333333333h-3Z" fill="#4c78a8"/><path aria-label="Age (years): 55; Number of people: 33365; BinRight: 56" role="graphics-symbol" aria-roledescription="rect mark" d="M165,77.56666666666666h3.0000000000000284v222.43333333333334h-3.0000000000000284Z" fill="#4c78a8"/><path aria-label="Age (years): 56; Number of people: 35721; BinRight: 57" role="graphics-symbol" aria-roledescription="rect mark" d="M168.00000000000003,61.860000000000014h2.999999999999943v238.14h-2.999999999999943Z" fill="#4c78a8"/><path aria-label="Age (years): 57; Number of people: 36919; BinRight: 58" role="graphics-symbol" aria-roledescription="rect mark" d="M170.99999999999997,53.87333333333332h3.0000000000000284v246.12666666666667h-3.0000000000000284Z" fill="#4c78a8"/><path aria-label="Age (years): 58; Number of people: 37322; BinRight: 59" role="graphics-symbol" aria-roledescription="rect mark" d="M174,51.18666666666667h3v248.81333333333333h-3Z" fill="#4c78a8"/><path aria-label="Age (years): 59; Number of people: 37684; BinRight: 60" role="graphics-symbol" aria-roledescription="rect mark" d="M177,48.77333333333335h3v251.22666666666666h-3Z" fill="#4c78a8"/><path aria-label="Age (years): 60; Number of people: 37929; BinRight: 61" role="graphics-symbol" aria-roledescription="rect mark" d="M180,47.14h3v252.86h-3Z" fill="#4c78a8"/><path aria-label="Age (years): 61; Number of people: 39716; BinRight: 62" role="graphics-symbol" aria-roledescription="rect mark" d="M183,35.22666666666666h3v264.7733333333333h-3Z" fill="#4c78a8"/><path aria-label="Age (years): 62; Number of people: 38923; BinRight: 63" role="graphics-symbol" aria-roledescription="rect mark" d="M186,40.51333333333332h3v259.4866666666667h-3Z" fill="#4c78a8"/><path aria-label="Age (years): 63; Number of people: 40973; BinRight: 64" role="graphics-symbol" aria-roledescription="rect mark" d="M189,26.846666666666653h3v273.15333333333336h-3Z" fill="#4c78a8"/><path aria-label="Age (years): 64; Number of people: 43169; BinRight: 65" role="graphics-symbol" aria-roledescription="rect mark" d="M192,12.206666666666665h3v287.79333333333335h-3Z" fill="#4c78a8"/><path aria-label="Age (years): 65; Number of people: 44147; BinRight: 66" role="graphics-symbol" aria-roledescription="rect mark" d="M195,5.686666666666651h3v294.31333333333333h-3Z" fill="#4c78a8"/><path aria-label="Age (years): 66; Number of people: 44672; BinRight: 67" role="graphics-symbol" aria-roledescription="rect mark" d="M198,2.18666666666667h3v297.81333333333333h-3Z" fill="#4c78a8"/><path aria-label="Age (years): 67; Number of people: 44113; BinRight: 68" role="graphics-symbol" aria-roledescription="rect mark" d="M201,5.9133333333333375h3.0000000000000284v294.08666666666664h-3.0000000000000284Z" fill="#4c78a8"/><path aria-label="Age (years): 68; Number of people: 39703; BinRight: 69" role="graphics-symbol" aria-roledescription="rect mark" d="M204.00000000000003,35.31333333333333h2.999999999999943v264.68666666666667h-2.999999999999943Z" fill="#4c78a8"/><path aria-label="Age (years): 69; Number of people: 31991; BinRight: 70" role="graphics-symbol" aria-roledescription="rect mark" d="M206.99999999999997,86.72666666666665h3.0000000000000284v213.27333333333337h-3.0000000000000284Z" fill="#4c78a8"/><path aria-label="Age (years): 70; Number of people: 30846; BinRight: 71" role="graphics-symbol" aria-roledescription="rect mark" d="M210,94.36h3v205.64h-3Z" fill="#4c78a8"/><path aria-label="Age (years): 71; Number of people: 24587; BinRight: 72" role="graphics-symbol" aria-roledescription="rect mark" d="M213,136.08666666666667h3v163.91333333333333h-3Z" fill="#4c78a8"/><path aria-label="Age (years): 72; Number of people: 36191; BinRight: 73" role="graphics-symbol" aria-roledescription="rect mark" d="M216,58.726666666666674h3v241.2733333333333h-3Z" fill="#4c78a8"/><path aria-label="Age (years): 73; Number of people: 25184; BinRight: 74" role="graphics-symbol" aria-roledescription="rect mark" d="M219,132.10666666666665h3v167.89333333333335h-3Z" fill="#4c78a8"/><path aria-label="Age (years): 74; Number of people: 28912; BinRight: 75" role="graphics-symbol" aria-roledescription="rect mark" d="M222,107.25333333333333h3v192.74666666666667h-3Z" fill="#4c78a8"/><path aria-label="Age (years): 75; Number of people: 27826; BinRight: 76" role="graphics-symbol" aria-roledescription="rect mark" d="M225,114.49333333333334h3v185.50666666666666h-3Z" fill="#4c78a8"/><path aria-label="Age (years): 76; Number of people: 25335; BinRight: 77" role="graphics-symbol" aria-roledescription="rect mark" d="M228,131.10000000000002h3v168.89999999999998h-3Z" fill="#4c78a8"/><path aria-label="Age (years): 77; Number of people: 23255; BinRight: 78" role="graphics-symbol" aria-roledescription="rect mark" d="M231,144.96666666666667h3v155.03333333333333h-3Z" fill="#4c78a8"/><path aria-label="Age (years): 78; Number of people: 22540; BinRight: 79" role="graphics-symbol" aria-roledescription="rect mark" d="M234,149.73333333333332h3v150.26666666666668h-3Z" fill="#4c78a8"/><path aria-label="Age (years): 79; Number of people: 20349; BinRight: 80" role="graphics-symbol" aria-roledescription="rect mark" d="M237,164.34000000000003h3v135.65999999999997h-3Z" fill="#4c78a8"/><path aria-label="Age (years): 80; Number of people: 18301; BinRight: 81" role="graphics-symbol" aria-roledescription="rect mark" d="M240,177.99333333333334h3.0000000000000284v122.00666666666666h-3.0000000000000284Z" fill="#4c78a8"/><path aria-label="Age (years): 81; Number of people: 17648; BinRight: 82" role="graphics-symbol" aria-roledescription="rect mark" d="M243.00000000000003,182.3466666666667h2.999999999999943v117.65333333333331h-2.999999999999943Z" fill="#4c78a8"/><path aria-label="Age (years): 82; Number of people: 16595; BinRight: 83" role="graphics-symbol" aria-roledescription="rect mark" d="M245.99999999999997,189.36666666666667h3.0000000000000284v110.63333333333333h-3.0000000000000284Z" fill="#4c78a8"/><path aria-label="Age (years): 83; Number of people: 15509; BinRight: 84" role="graphics-symbol" aria-roledescription="rect mark" d="M249,196.60666666666668h3v103.39333333333332h-3Z" fill="#4c78a8"/><path aria-label="Age (years): 84; Number of people: 13306; BinRight: 85" role="graphics-symbol" aria-roledescription="rect mark" d="M252,211.29333333333332h3v88.70666666666668h-3Z" fill="#4c78a8"/><path aria-label="Age (years): 85; Number of people: 11309; BinRight: 86" role="graphics-symbol" aria-roledescription="rect mark" d="M255,224.60666666666668h3v75.39333333333332h-3Z" fill="#4c78a8"/><path aria-label="Age (years): 86; Number of people: 9087; BinRight: 87" role="graphics-symbol" aria-roledescription="rect mark" d="M258,239.42000000000002h3v60.579999999999984h-3Z" fill="#4c78a8"/><path aria-label="Age (years): 87; Number of people: 7454; BinRight: 88" role="graphics-symbol" aria-roledescription="rect mark" d="M261,250.30666666666664h3v49.69333333333336h-3Z" fill="#4c78a8"/><path aria-label="Age (years): 88; Number of people: 6268; BinRight: 89" role="graphics-symbol" aria-roledescription="rect mark" d="M264,258.2133333333333h3v41.78666666666669h-3Z" fill="#4c78a8"/><path aria-label="Age (years): 89; Number of people: 4676; BinRight: 90" role="graphics-symbol" aria-roledescription="rect mark" d="M267,268.82666666666665h3v31.173333333333346h-3Z" fill="#4c78a8"/><path aria-label="Age (years): 90; Number of people: 3575; BinRight: 91" role="graphics-symbol" aria-roledescription="rect mark" d="M270,276.1666666666667h3v23.833333333333314h-3Z" fill="#4c78a8"/><path aria-label="Age (years): 91; Number of people: 2516; BinRight: 92" role="graphics-symbol" aria-roledescription="rect mark" d="M273,283.2266666666667h3v16.773333333333312h-3Z" fill="#4c78a8"/><path aria-label="Age (years): 92; Number of people: 1781; BinRight: 93" role="graphics-symbol" aria-roledescription="rect mark" d="M276,288.12666666666667h3v11.873333333333335h-3Z" fill="#4c78a8"/><path aria-label="Age (years): 93; Number of people: 1207; BinRight: 94" role="graphics-symbol" aria-roledescription="rect mark" d="M279,291.9533333333333h3v8.046666666666681h-3Z" fill="#4c78a8"/><path aria-label="Age (years): 94; Number of people: 608; BinRight: 95" role="graphics-symbol" aria-roledescription="rect mark" d="M282,295.94666666666666h3v4.053333333333342h-3Z" fill="#4c78a8"/><path aria-label="Age (years): 95; Number of people: 458; BinRight: 96" role="graphics-symbol" aria-roledescription="rect mark" d="M285,296.94666666666666h3v3.0533333333333417h-3Z" fill="#4c78a8"/><path aria-label="Age (years): 96; Number of people: 279; BinRight: 97" role="graphics-symbol" aria-roledescription="rect mark" d="M288,298.14h3v1.8600000000000136h-3Z" fill="#4c78a8"/><path aria-label="Age (years): 97; Number of people: 164; BinRight: 98" role="graphics-symbol" aria-roledescription="rect mark" d="M291,298.90666666666664h3v1.0933333333333621h-3Z" fill="#4c78a8"/><path aria-label="Age (years): 98; Number of people: 98; BinRight: 99" role="graphics-symbol" aria-roledescription="rect mark" d="M294,299.3466666666667h3v0.6533333333333076h-3Z" fill="#4c78a8"/><path aria-label="Age (years): 99; Number of people: 59; BinRight: 100" role="graphics-symbol" aria-roledescription="rect mark" d="M297,299.6066666666666h3v0.3933333333333735h-3Z" fill="#4c78a8"/><path aria-label="Age (years): 100; Number of people: 55; BinRight: NaN" role="graphics-symbol" aria-roledescription="rect mark" d="M300,299.6333333333333h0v0.36666666666667425h0Z" fill="#4c78a8"/></g></g><path class="foreground" aria-hidden="true" d="" display="none"/></g></g></g></svg>