<svg xmlns="http://www.w3.org/2000/svg" xmlns:xlink="http://www.w3.org/1999/xlink" version="1.1" class="marks" width="369" height="347" viewBox="0 0 369 347"><rect width="369" height="347" fill="white"/><g fill="none" stroke-miterlimit="10" transform="translate(63,10)"><g class="mark-group role-frame root" role="graphics-object" aria-roledescription="group mark container"><g transform="translate(0,0)"><path class="background" aria-hidden="true" d="M0.5,0.5h300v300h-300Z" stroke="#ddd"/><g><g class="mark-group role-axis" aria-hidden="true"><g transform="translate(0.5,300.5)"><path class="background" aria-hidden="true" d="M0,0h0v0h0Z" pointer-events="none"/><g><g class="mark-rule role-axis-grid" pointer-events="none"><line transform="translate(0,-300)" x2="0" y2="300" stroke="#ddd" stroke-width="1" opacity="1"/><line transform="translate(30,-300)" x2="0" y2="300" stroke="#ddd" stroke-width="1" opacity="1"/><line transform="translate(60,-300)" x2="0" y2="300" stroke="#ddd" stroke-width="1" opacity="1"/><line transform="translate(90,-300)" x2="0" y2="300" stroke="#ddd" stroke-width="1" opacity="1"/><line transform="translate(120,-300)" x2="0" y2="300" stroke="#ddd" stroke-width="1" opacity="1"/><line transform="translate(150,-300)" x2="0" y2="300" stroke="#ddd" stroke-width="1" opacity="1"/><line transform="translate(180,-300)" x2="0" y2="300" stroke="#ddd" stroke-width="1" opacity="1"/><line transform="translate(210,-300)" x2="0" y2="300" stroke="#ddd" stroke-width="1" opacity="1"/><line transform="translate(240,-300)" x2="0" y2="300" stroke="#ddd" stroke-width="1" opacity="1"/><line transform="translate(270,-300)" x2="0" y2="300" stroke="#ddd" stroke-width="1" opacity="1"/><line transform="translate(300,-300)" x2="0" y2="300" stroke="#ddd" stroke-width="1" opacity="1"/></g></g><path class="foreground" aria-hidden="true" d="" pointer-events="none" display="none"/></g></g><g class="mark-group role-axis" aria-hidden="true"><g transform="translate(0.5,0.5)"><path class="background" aria-hidden="true" d="M0,0h0v0h0Z" pointer-events="none"/><g><g class="mark-rule role-axis-grid" pointer-events="none"><line transform="translate(0,300)" x2="300" y2="0" stroke="#ddd" stroke-width="1" opacity="1"/><line transform="translate(0,267)" x2="300" y2="0" stroke="#ddd" stroke-width="1" opacity="1"/><line transform="translate(0,233)" x2="300" y2="0" stroke="#ddd" stroke-width="1" opacity="1"/><line transform="translate(0,200)" x2="300" y2="0" stroke="#ddd" stroke-width="1" opacity="1"/><line transform="translate(0,167)" x2="300" y2="0" stroke="#ddd" stroke-width="1" opacity="1"/><line transform="translate(0,133)" x2="300" y2="0" stroke="#ddd" stroke-width="1" opacity="1"/><line transform="translate(0,100)" x2="300" y2="0" stroke="#ddd" stroke-width="1" opacity="1"/><line transform="translate(0,67)" x2="300" y2="0" stroke="#ddd" stroke-width="1" opacity="1"/><line transform="translate(0,33)" x2="300" y2="0" stroke="#ddd" stroke-width="1" opacity="1"/><line transform="translate(0,0)" x2="300" y2="0" stroke="#ddd" stroke-width="1" opacity="1"/></g></g><path class="foreground" aria-hidden="true" d="" pointer-events="none" display="none"/></g></g><g class="mark-group role-axis" role="graphics-symbol" aria-roledescription="axis" aria-label="X-axis titled 'Age (years)' for a linear scale with values from 0 to 100"><g transform="translate(0.5,300.5)"><path class="background" aria-hidden="true" d="M0,0h0v0h0Z" pointer-events="none"/><g><g class="mark-rule role-axis-tick" pointer-events="none"><line transform="translate(0,0)" x2="0" y2="5" stroke="#888" stroke-width="1" opacity="1"/><line transform="translate(30,0)" x2="0" y2="5" stroke="#888" stroke-width="1" opacity="1"/><line transform="translate(60,0)" x2="0" y2="5" stroke="#888" stroke-width="1" opacity="1"/><line transform="translate(90,0)" x2="0" y2="5" stroke="#888" stroke-width="1" opacity="1"/><line transform="translate(120,0)" x2="0" y2="5" stroke="#888" stroke-width="1" opacity="1"/><line transform="translate(150,0)" x2="0" y2="5" stroke="#888" stroke-width="1" opacity="1"/><line transform="translate(180,0)" x2="0" y2="5" stroke="#888" stroke-width="1" opacity="1"/><line transform="translate(210,0)" x2="0" y2="5" stroke="#888" stroke-width="1" opacity="1"/><line transform="translate(240,0)" x2="0" y2="5" stroke="#888" stroke-width="1" opacity="1"/><line transform="translate(270,0)" x2="0" y2="5" stroke="#888" stroke-width="1" opacity="1"/><line transform="translate(300,0)" x2="0" y2="5" stroke="#888" stroke-width="1" opacity="1"/></g><g class="mark-text role-axis-label" pointer-events="none"><text text-anchor="start" transform="translate(0,15)" font-family="sans-serif" font-size="10px" fill="#000" opacity="1">0</text><text text-anchor="middle" transform="translate(30,15)" font-family="sans-serif" font-size="10px" fill="#000" opacity="1">10</text><text text-anchor="middle" transform="translate(60,15)" font-family="sans-serif" font-size="10px" fill="#000" opacity="1">20</text><text text-anchor="middle" transform="translate(90,15)" font-family="sans-serif" font-size="10px" fill="#000" opacity="1">30</text><text text-anchor="middle" transform="translate(120,15)" font-family="sans-serif" font-size="10px" fill="#000" opacity="1">40</text><text text-anchor="middle" transform="translate(150,15)" font-family="sans-serif" font-size="10px" fill="#000" opacity="1">50</text><text text-anchor="middle" transform="translate(180,15)" font-family="sans-serif" font-size="10px" fill="#000" opacity="1">60</text><text text-anchor="middle" transform="translate(210,15)" font-family="sans-serif" font-size="10px" fill="#000" opacity="1">70</text><text text-anchor="middle" transform="translate(240,15)" font-family="sans-serif" font-size="10px" fill="#000" opacity="1">80</text><text text-anchor="middle" transform="translate(270,15)" font-family="sans-serif" font-size="10px" fill="#000" opacity="1">90</text><text text-anchor="end" transform="translate(300,15)" font-family="sans-serif" font-size="10px" fill="#000" opacity="1">100</text></g><g class="mark-rule role-axis-domain" pointer-events="none"><line transform="translate(0,0)" x2="300" y2="0" stroke="#888" stroke-width="1" opacity="1"/></g><g class="mark-text role-axis-title" pointer-events="none"><text text-anchor="middle" transform="translate(150,30)" font-family="sans-serif" font-size="11px" font-weight="bold" fill="#000" opacity="1">Age (years)</text></g></g><path class="foreground" aria-hidden="true" d="" pointer-events="none" display="none"/></g></g><g class="mark-group role-axis" role="graphics-symbol" aria-roledescription="axis" aria-label="Y-axis titled 'Number of people' for a linear scale with values from 0 to 45,000"><g transform="translate(0.5,0.5)"><path class="background" aria-hidden="true" d="M0,0h0v0h0Z" pointer-events="none"/><g><g class="mark-rule role-axis-tick" pointer-events="none"><line transform="translate(0,300)" x2="-5" y2="0" stroke="#888" stroke-width="1" opacity="1"/><line transform="translate(0,267)" x2="-5" y2="0" stroke="#888" stroke-width="1" opacity="1"/><line transform="translate(0,233)" x2="-5" y2="0" stroke="#888" stroke-width="1" opacity="1"/><line transform="translate(0,200)" x2="-5" y2="0" stroke="#888" stroke-width="1" opacity="1"/><line transform="translate(0,167)" x2="-5" y2="0" stroke="#888" stroke-width="1" opacity="1"/><line transform="translate(0,133)" x2="-5" y2="0" stroke="#888" stroke-width="1" opacity="1"/><line transform="translate(0,100)" x2="-5" y2="0" stroke="#888" stroke-width="1" opacity="1"/><line transform="translate(0,67)" x2="-5" y2="0" stroke="#888" stroke-width="1" opacity="1"/><line transform="translate(0,33)" x2="-5" y2="0" stroke="#888" stroke-width="1" opacity="1"/><line transform="translate(0,0)" x2="-5" y2="0" stroke="#888" stroke-width="1" opacity="1"/></g><g class="mark-text role-axis-label" pointer-events="none"><text text-anchor="end" transform="translate(-7,303)" font-family="sans-serif" font-size="10px" fill="#000" opacity="1">0</text><text text-anchor="end" transform="translate(-7,269.66666666666663)" font-family="sans-serif" font-size="10px" fill="#000" opacity="1">5,000</text><text text-anchor="end" transform="translate(-7,236.33333333333334)" font-family="sans-serif" font-size="10px" fill="#000" opacity="1">10,000</text><text text-anchor="end" transform="translate(-7,203.00000000000003)" font-family="sans-serif" font-size="10px" fill="#000" opacity="1">15,000</text><text text-anchor="end" transform="translate(-7,169.66666666666669)" font-family="sans-serif" font-size="10px" fill="#000" opacity="1">20,000</text><text text-anchor="end" transform="translate(-7,136.33333333333331)" font-family="sans-serif" font-size="10px" fill="#000" opacity="1">25,000</text><text text-anchor="end" transform="translate(-7,103.00000000000001)" font-family="sans-serif" font-size="10px" fill="#000" opacity="1">30,000</text><text text-anchor="end" transform="translate(-7,69.66666666666666)" font-family="sans-serif" font-size="10px" fill="#000" opacity="1">35,000</text><text text-anchor="end" transform="translate(-7,36.33333333333335)" font-family="sans-serif" font-size="10px" fill="#000" opacity="1">40,000</text><text text-anchor="end" transform="translate(-7,3)" font-family="sans-serif" font-size="10px" fill="#000" opacity="1">45,000</text></g><g class="mark-rule role-axis-domain" pointer-events="none"><line transform="translate(0,300)" x2="0" y2="-300" stroke="#888" stroke-width="1" opacity="1"/></g><g class="mark-text role-axis-title" pointer-events="none"><text text-anchor="middle" transform="translate(-46.5,150) rotate(-90) translate(0,-2)" font-family="sans-serif" font-size="11px" font-weight="bold" fill="#000" opacity="1">Number of people</text></g></g><path class="foreground" aria-hidden="true" d="" pointer-events="none" display="none"/></g></g><g class="mark-rect role-mark marks" role="graphics-object" aria-roledescription="rect mark container"><path aria-label="Age (years): 0; Number of people: 6400; BinRight: 1" role="graphics-symbol" aria-roledescription="rect mark" d="M0,257.3333333333333h3v42.666666666666686h-3Z" fill="#4c78a8"/><path aria-label="Age (years): 1; Number of people: 3751; BinRight: 2" role="graphics-symbol" aria-roledescription="rect mark" d="M3,274.99333333333334h3v25.00666666666666h-3Z" fill="#4c78a8"/><path aria-label="Age (years): 2; Number of people: 3176; BinRight: 3" role="graphics-symbol" aria-roledescription="rect mark" d="M6,278.82666666666665h3v21.173333333333346h-3Z" fill="#4c78a8"/><path aria-label="Age (years): 3; Number of people: 3373; BinRight: 4" role="graphics-symbol" aria-roledescription="rect mark" d="M9,277.5133333333333h3v22.48666666666668h-3Z" fill="#4c78a8"/><path aria-label="Age (years): 4; Number of people: 3972; BinRight: 5" role="graphics-symbol" aria-roledescription="rect mark" d="M12,273.52h3v26.480000000000018h-3Z" fill="#4c78a8"/><path aria-label="Age (years): 5; Number of people: 3938; BinRight: 6" role="graphics-symbol" aria-roledescription="rect mark" d="M15,273.74666666666667h3v26.25333333333333h-3Z" fill="#4c78a8"/><path aria-label="Age (years): 6; Number of people: 4216; BinRight: 7" role="graphics-symbol" aria-roledescription="rect mark" d="M18,271.8933333333333h3.0000000000000036v28.106666666666683h-3.0000000000000036Z" fill="#4c78a8"/><path aria-label="Age (years): 7; Number of people: 4549; BinRight: 8" role="graphics-symbol" aria-roledescription="rect mark" d="M21.000000000000004,269.67333333333335h2.9999999999999964v30.326666666666654h-2.9999999999999964Z" fill="#4c78a8"/><path aria-label="Age (years): 8; Number of people: 4662; BinRight: 9" role="graphics-symbol" aria-roledescription="rect mark" d="M24,268.92h3v31.079999999999984h-3Z" fill="#4c78a8"/><path aria-label="Age (years): 9; Number of people: 4826; BinRight: 10" role="graphics-symbol" aria-roledescription="rect mark" d="M27,267.82666666666665h3v32.173333333333346h-3Z" fill="#4c78a8"/><path aria-label="Age (years): 10; Number of people: 5262; BinRight: 11" role="graphics-symbol" aria-roledescription="rect mark" d="M30,264.92h3v35.079999999999984h-3Z" fill="#4c78a8"/><path aria-label="Age (years): 11; Number of people: 6391; BinRight: 12" role="graphics-symbol" aria-roledescription="rect mark" d="M33,257.3933333333333h3v42.60666666666668h-3Z" fill="#4c78a8"/><path aria-label="Age (years): 12; Number of people: 6159; BinRight: 13" role="graphics-symbol" aria-roledescription="rect mark" d="M36,258.94h3v41.06h-3Z" fill="#4c78a8"/><path aria-label="Age (years): 13; Number of people: 7663; BinRight: 14" role="graphics-symbol" aria-roledescription="rect mark" d="M39,248.91333333333333h3.000000000000007v51.08666666666667h-3.000000000000007Z" fill="#4c78a8"/><path aria-label="Age (years): 14; Number of people: 9943; BinRight: 15" role="graphics-symbol" aria-roledescription="rect mark" d="M42.00000000000001,233.71333333333334h2.999999999999993v66.28666666666666h-2.999999999999993Z" fill="#4c78a8"/><path aria-label="Age (years): 15; Number of people: 10047; BinRight: 16" role="graphics-symbol" aria-roledescription="rect mark" d="M45,233.01999999999998h3v66.98000000000002h-3Z" fill="#4c78a8"/><path aria-label="Age (years): 16; Number of people: 11404; BinRight: 17" role="graphics-symbol" aria-roledescription="rect mark" d="M48,223.97333333333333h3.000000000000007v76.02666666666667h-3.000000000000007Z" fill="#4c78a8"/><path aria-label="Age (years): 17; Number of people: 12394; BinRight: 18" role="graphics-symbol" aria-roledescription="rect mark" d="M51.00000000000001,217.37333333333333h2.999999999999993v82.62666666666667h-2.999999999999993Z" fill="#4c78a8"/><path aria-label="Age (years): 18; Number of people: 12522; BinRight: 19" role="graphics-symbol" aria-roledescription="rect mark" d="M54,216.52h3v83.47999999999999h-3Z" fill="#4c78a8"/><path aria-label="Age (years): 19; Number of people: 13039; BinRight: 20" role="graphics-symbol" aria-roledescription="rect mark" d="M57,213.07333333333332h3v86.92666666666668h-3Z" fill="#4c78a8"/><path aria-label="Age (years): 20; Number of people: 13512; BinRight: 21" role="graphics-symbol" aria-roledescription="rect mark" d="M60,209.92h3v90.08000000000001h-3Z" fill="#4c78a8"/><path aria-label="Age (years): 21; Number of people: 14076; BinRight: 22" role="graphics-symbol" aria-roledescription="rect mark" d="M63,206.16h3v93.84h-3Z" fill="#4c78a8"/><path aria-label="Age (years): 22; Number of people: 14361; BinRight: 23" role="graphics-symbol" aria-roledescription="rect mark" d="M66,204.26000000000002h3v95.73999999999998h-3Z" fill="#4c78a8"/><path aria-label="Age (years): 23; Number of people: 14800; BinRight: 24" role="graphics-symbol" aria-roledescription="rect mark" d="M69,201.33333333333334h3v98.66666666666666h-3Z" fill="#4c78a8"/><path aria-label="Age (years): 24; Number of people: 15202; BinRight: 25" role="graphics-symbol" aria-roledescription="rect mark" d="M72,198.65333333333334h3v101.34666666666666h-3Z" fill="#4c78a8"/><path aria-label="Age (years): 25; Number of people: 15856; BinRight: 26" role="graphics-symbol" aria-roledescription="rect mark" d="M75,194.29333333333335h3v105.70666666666665h-3Z" fill="#4c78a8"/><path aria-label="Age (years): 26; Number of people: 16441; BinRight: 27" role="graphics-symbol" aria-roledescription="rect mark" d="M78,190.39333333333335h3v109.60666666666665h-3Z" fill="#4c78a8"/><path aria-label="Age (years): 27; Number of people: 17143; BinRight: 28" role="graphics-symbol" aria-roledescription="rect mark" d="M81,185.71333333333337h3.000000000000014v114.28666666666663h-3.000000000000014Z" fill="#4c78a8"/><path aria-label="Age (years): 28; Number of people: 17687; BinRight: 29" role="graphics-symbol" aria-roledescription="rect mark" d="M84.00000000000001,182.08666666666667h2.999999999999986v117.91333333333333h-2.999999999999986Z" fill="#4c78a8"/><path aria-label="Age (years): 29; Number of people: 17944; BinRight: 30" role="graphics-symbol" aria-roledescription="rect mark" d="M87,180.37333333333333h3v119.62666666666667h-3Z" fill="#4c78a8"/><path aria-label="Age (years): 30; Number of people: 18054; BinRight: 31" role="graphics-symbol" aria-roledescription="rect mark" d="M90,179.64h3v120.36000000000001h-3Z" fill="#4c78a8"/><path aria-label="Age (years): 31; Number of people: 18068; BinRight: 32" role="graphics-symbol" aria-roledescription="rect mark" d="M93,179.54666666666665h3v120.45333333333335h-3Z" fill="#4c78a8"/><path aria-label="Age (years): 32; Number of people: 18403; BinRight: 33" role="graphics-symbol" aria-roledescription="rect mark" d="M96,177.31333333333333h3v122.68666666666667h-3Z" fill="#4c78a8"/><path aria-label="Age (years): 33; Number of people: 18553; BinRight: 34" role="graphics-symbol" aria-roledescription="rect mark" d="M99,176.31333333333333h3.000000000000014v123.68666666666667h-3.000000000000014Z" fill="#4c78a8"/><path aria-label="Age (years): 34; Number of people: 18652; BinRight: 35" role="graphics-symbol" aria-roledescription="rect mark" d="M102.00000000000001,175.65333333333334h2.999999999999986v124.34666666666666h-2.999999999999986Z" fill="#4c78a8"/><path aria-label="Age (years): 35; Number of people: 19086; BinRight: 36" role="graphics-symbol" aria-roledescription="rect mark" d="M105,172.76000000000002h3v127.23999999999998h-3Z" fill="#4c78a8"/><path aria-label="Age (years): 36; Number of people: 19547; BinRight: 37" role="graphics-symbol" aria-roledescription="rect mark" d="M108,169.68666666666667h3v130.31333333333333h-3Z" fill="#4c78a8"/><path aria-label="Age (years): 37; Number of people: 20206; BinRight: 38" role="graphics-symbol" aria-roledescription="rect mark" d="M111,165.29333333333335h3v134.70666666666665h-3Z" fill="#4c78a8"/><path aria-label="Age (years): 38; Number of people: 20185; BinRight: 39" role="graphics-symbol" aria-roledescription="rect mark" d="M114,165.4333333333333h3v134.5666666666667h-3Z" fill="#4c78a8"/><path aria-label="Age (years): 39; Number of people: 20575; BinRight: 40" role="graphics-symbol" aria-roledescription="rect mark" d="M117,162.83333333333334h3v137.16666666666666h-3Z" fill="#4c78a8"/><path aria-label="Age (years): 40; Number of people: 20533; BinRight: 41" role="graphics-symbol" aria-roledescription="rect mark" d="M120,163.11333333333332h2.999999999999986v136.88666666666668h-2.999999999999986Z" fill="#4c78a8"/><path aria-label="Age (years): 41; Number of people: 20825; BinRight: 42" role="graphics-symbol" aria-roledescription="rect mark" d="M122.99999999999999,161.16666666666669h3.000000000000014v138.83333333333331h-3.000000000000014Z" fill="#4c78a8"/><path aria-label="Age (years): 42; Number of people: 20879; BinRight: 43" role="graphics-symbol" aria-roledescription="rect mark" d="M126,160.80666666666664h3v139.19333333333336h-3Z" fill="#4c78a8"/><path aria-label="Age (years): 43; Number of people: 20760; BinRight: 44" role="graphics-symbol" aria-roledescription="rect mark" d="M129,161.6h3v138.4h-3Z" fill="#4c78a8"/><path aria-label="Age (years): 44; Number of people: 21382; BinRight: 45" role="graphics-symbol" aria-roledescription="rect mark" d="M132,157.45333333333335h3v142.54666666666665h-3Z" fill="#4c78a8"/><path aria-label="Age (years): 45; Number of people: 21458; BinRight: 46" role="graphics-symbol" aria-roledescription="rect mark" d="M135,156.9466666666667h3v143.0533333333333h-3Z" fill="#4c78a8"/><path aria-label="Age (years): 46; Number of people: 21373; BinRight: 47" role="graphics-symbol" aria-roledescription="rect mark" d="M138,157.51333333333332h3v142.48666666666668h-3Z" fill="#4c78a8"/><path aria-label="Age (years): 47; Number of people: 21503; BinRight: 48" role="graphics-symbol" aria-roledescription="rect mark" d="M141,156.64666666666665h3v143.35333333333335h-3Z" fill="#4c78a8"/><path aria-label="Age (years): 48; Number of people: 21859; BinRight: 49" role="graphics-symbol" aria-roledescription="rect mark" d="M144,154.27333333333334h3v145.72666666666666h-3Z" fill="#4c78a8"/><path aria-label="Age (years): 49; Number of people: 22649; BinRight: 50" role="graphics-symbol" aria-roledescription="rect mark" d="M147,149.00666666666666h3v150.99333333333334h-3Z" fill="#4c78a8"/><path aria-label="Age (years): 50; Number of people: 24459; BinRight: 51" role="graphics-symbol" aria-roledescription="rect mark" d="M150,136.94h3v163.06h-3Z" fill="#4c78a8"/><path aria-label="Age (years): 51; Number of people: 24936; BinRight: 52" role="graphics-symbol" aria-roledescription="rect mark" d="M153,133.76h3v166.24h-3Z" fill="#4c78a8"/><path aria-label="Age (years): 52; Number of people: 26390; BinRight: 53" role="graphics-symbol" aria-roledescription="rect mark" d="M156,124.06666666666666h3v175.93333333333334h-3Z" fill="#4c78a8"/><path aria-label="Age (years): 53; Number of people: 28152; BinRight: 54" role="graphics-symbol" aria-roledescription="rect mark" d="M159,112.32h3v187.68h-3Z" fill="#4c78a8"/><path aria-label="Age (years): 54; Number of people: 29294; BinRight: 55" role="graphics-symbol" aria-roledescription="rect mark" d="M162,104.70666666666666h3v195.29333333333335h-3Z" fill="#4c78a8"/><path aria-label="Age (years): 55; Number of people: 30231; BinRight: 56" role="graphics-symbol" aria-roledescription="rect mark" d="M165,98.46000000000001h3.0000000000000284v201.54h-3.0000000000000284Z" fill="#4c78a8"/><path aria-label="Age (years): 56; Number of people: 30567; BinRight: 57" role="graphics-symbol" aria-roledescription="rect mark" d="M168.00000000000003,96.22h2.999999999999943v203.78h-2.999999999999943Z" fill="#4c78a8"/><path aria-label="Age (years): 57; Number of people: 31588; BinRight: 58" role="graphics-symbol" aria-roledescription="rect mark" d="M170.99999999999997,89.41333333333333h3.0000000000000284v210.58666666666667h-3.0000000000000284Z" fill="#4c78a8"/><path aria-label="Age (years): 58; Number of people: 32258; BinRight: 59" role="graphics-symbol" aria-roledescription="rect mark" d="M174,84.94666666666669h3v215.0533333333333h-3Z" fill="#4c78a8"/><path aria-label="Age (years): 59; Number of people: 33326; BinRight: 60" role="graphics-symbol" aria-roledescription="rect mark" d="M177,77.82666666666667h3v222.17333333333335h-3Z" fill="#4c78a8"/><path aria-label="Age (years): 60; Number of people: 33868; BinRight: 61" role="graphics-symbol" aria-roledescription="rect mark" d="M180,74.21333333333334h3v225.78666666666666h-3Z" fill="#4c78a8"/><path aria-label="Age (years): 61; Number of people: 34163; BinRight: 62" role="graphics-symbol" aria-roledescription="rect mark" d="M183,72.24666666666668h3v227.75333333333333h-3Z" fill="#4c78a8"/><path aria-label="Age (years): 62; Number of people: 34773; BinRight: 63" role="graphics-symbol" aria-roledescription="rect mark" d="M186,68.17999999999998h3v231.82000000000002h-3Z" fill="#4c78a8"/><path aria-label="Age (years): 63; Number of people: 35543; BinRight: 64" role="graphics-symbol" aria-roledescription="rect mark" d="M189,63.04666666666666h3v236.95333333333335h-3Z" fill="#4c78a8"/><path aria-label="Age (years): 64; Number of people: 36398; BinRight: 65" role="graphics-symbol" aria-roledescription="rect mark" d="M192,57.34666666666666h3v242.65333333333334h-3Z" fill="#4c78a8"/><path aria-label="Age (years): 65; Number of people: 37443; BinRight: 66" role="graphics-symbol" aria-roledescription="rect mark" d="M195,50.38000000000002h3v249.61999999999998h-3Z" fill="#4c78a8"/><path aria-label="Age (years): 66; Number of people: 37928; BinRight: 67" role="graphics-symbol" aria-roledescription="rect mark" d="M198,47.14666666666668h3v252.85333333333332h-3Z" fill="#4c78a8"/><path aria-label="Age (years): 67; Number of people: 38280; BinRight: 68" role="graphics-symbol" aria-roledescription="rect mark" d="M201,44.8h3.0000000000000284v255.2h-3.0000000000000284Z" fill="#4c78a8"/><path aria-label="Age (years): 68; Number of people: 39527; BinRight: 69" role="graphics-symbol" aria-roledescription="rect mark" d="M204.00000000000003,36.48666666666666h2.999999999999943v263.5133333333333h-2.999999999999943Z" fill="#4c78a8"/><path aria-label="Age (years): 69; Number of people: 40852; BinRight: 70" role="graphics-symbol" aria-roledescription="rect mark" d="M206.99999999999997,27.65333333333334h3.0000000000000284v272.34666666666664h-3.0000000000000284Z" fill="#4c78a8"/><path aria-label="Age (years): 70; Number of people: 40893; BinRight: 71" role="graphics-symbol" aria-roledescription="rect mark" d="M210,27.380000000000017h3v272.62h-3Z" fill="#4c78a8"/><path aria-label="Age (years): 71; Number of people: 41185; BinRight: 72" role="graphics-symbol" aria-roledescription="rect mark" d="M213,25.43333333333332h3v274.56666666666666h-3Z" fill="#4c78a8"/><path aria-label="Age (years): 72; Number of people: 41747; BinRight: 73" role="graphics-symbol" aria-roledescription="rect mark" d="M216,21.686666666666653h3v278.31333333333333h-3Z" fill="#4c78a8"/><path aria-label="Age (years): 73; Number of people: 41622; BinRight: 74" role="graphics-symbol" aria-roledescription="rect mark" d="M219,22.519999999999985h3v277.48h-3Z" fill="#4c78a8"/><path aria-label="Age (years): 74; Number of people: 41083; BinRight: 75" role="graphics-symbol" aria-roledescription="rect mark" d="M222,26.113333333333344h3v273.88666666666666h-3Z" fill="#4c78a8"/><path aria-label="Age (years): 75; Number of people: 39026; BinRight: 76" role="graphics-symbol" aria-roledescription="rect mark" d="M225,39.826666666666654h3v260.17333333333335h-3Z" fill="#4c78a8"/><path aria-label="Age (years): 76; Number of people: 36567; BinRight: 77" role="graphics-symbol" aria-roledescription="rect mark" d="M228,56.220000000000006h3v243.78h-3Z" fill="#4c78a8"/><path aria-label="Age (years): 77; Number of people: 31828; BinRight: 78" role="graphics-symbol" aria-roledescription="rect mark" d="M231,87.81333333333335h3v212.18666666666667h-3Z" fill="#4c78a8"/><path aria-label="Age (years): 78; Number of people: 30676; BinRight: 79" role="graphics-symbol" aria-roledescription="rect mark" d="M234,95.49333333333333h3v204.50666666666666h-3Z" fill="#4c78a8"/><path aria-label="Age (years): 79; Number of people: 29998; BinRight: 80" role="graphics-symbol" aria-roledescription="rect mark" d="M237,100.01333333333334h3v199.98666666666668h-3Z" fill="#4c78a8"/><path aria-label="Age (years): 80; Number of people: 29266; BinRight: 81" role="graphics-symbol" aria-roledescription="rect mark" d="M240,104.89333333333333h3.0000000000000284v195.10666666666668h-3.0000000000000284Z" fill="#4c78a8"/><path aria-label="Age (years): 81; Number of people: 29047; BinRight: 82" role="graphics-symbol" aria-roledescription="rect mark" d="M243.00000000000003,106.35333333333334h2.999999999999943v193.64666666666665h-2.999999999999943Z" fill="#4c78a8"/><path aria-label="Age (years): 82; Number of people: 27345; BinRight: 83" role="graphics-symbol" aria-roledescription="rect mark" d="M245.99999999999997,117.69999999999999h3.0000000000000284v182.3h-3.0000000000000284Z" fill="#4c78a8"/><path aria-label="Age (years): 83; Number of people: 26483; BinRight: 84" role="graphics-symbol" aria-roledescription="rect mark" d="M249,123.44666666666667h3v176.55333333333334h-3Z" fill="#4c78a8"/><path aria-label="Age (years): 84; Number of people: 24969; BinRight: 85" role="graphics-symbol" aria-roledescription="rect mark" d="M252,133.54000000000002h3v166.45999999999998h-3Z" fill="#4c78a8"/><path aria-label="Age (years): 85; Number of people: 23139; BinRight: 86" role="graphics-symbol" aria-roledescription="rect mark" d="M255,145.74h3v154.26h-3Z" fill="#4c78a8"/><path aria-label="Age (years): 86; Number of people: 21584; BinRight: 87" role="graphics-symbol" aria-roledescription="rect mark" d="M258,156.10666666666668h3v143.89333333333332h-3Z" fill="#4c78a8"/><path aria-label="Age (years): 87; Number of people: 19685; BinRight: 88" role="graphics-symbol" aria-roledescription="rect mark" d="M261,168.76666666666665h3v131.23333333333335h-3Z" fill="#4c78a8"/><path aria-label="Age (years): 88; Number of people: 17750; BinRight: 89" role="graphics-symbol" aria-roledescription="rect mark" d="M264,181.66666666666669h3v118.33333333333331h-3Z" fill="#4c78a8"/><path aria-label="Age (years): 89; Number of people: 15933; BinRight: 90" role="graphics-symbol" aria-roledescription="rect mark" d="M267,193.78h3v106.22h-3Z" fill="#4c78a8"/><path aria-label="Age (years): 90; Number of people: 13863; BinRight: 91" role="graphics-symbol" aria-roledescription="rect mark" d="M270,207.57999999999998h3v92.42000000000002h-3Z" fill="#4c78a8"/><path aria-label="Age (years): 91; Number of people: 11785; BinRight: 92" role="graphics-symbol" aria-roledescription="rect mark" d="M273,221.43333333333334h3v78.56666666666666h-3Z" fill="#4c78a8"/><path aria-label="Age (years): 92; Number of people: 9589; BinRight: 93" role="graphics-symbol" aria-roledescription="rect mark" d="M276,236.07333333333332h3v63.92666666666668h-3Z" fill="#4c78a8"/><path aria-label="Age (years): 93; Number of people: 7659; BinRight: 94" role="graphics-symbol" aria-roledescription="rect mark" d="M279,248.94h3v51.06h-3Z" fill="#4c78a8"/><path aria-label="Age (years): 94; Number of people: 5728; BinRight: 95" role="graphics-symbol" aria-roledescription="rect mark" d="M282,261.81333333333333h3v38.18666666666667h-3Z" fill="#4c78a8"/><path aria-label="Age (years): 95; Number of people: 4033; BinRight: 96" role="graphics-symbol" aria-roledescription="rect mark" d="M285,273.11333333333334h3v26.886666666666656h-3Z" fill="#4c78a8"/><path aria-label="Age (years): 96; Number of people: 2772; BinRight: 97" role="graphics-symbol" aria-roledescription="rect mark" d="M288,281.52h3v18.480000000000018h-3Z" fill="#4c78a8"/><path aria-label="Age (years): 97; Number of people: 1852; BinRight: 98" role="graphics-symbol" aria-roledescription="rect mark" d="M291,287.6533333333333h3v12.346666666666692h-3Z" fill="#4c78a8"/><path aria-label="Age (years): 98; Number of people: 1202; BinRight: 99" role="graphics-symbol" aria-roledescription="rect mark" d="M294,291.9866666666667h3v8.013333333333321h-3Z" fill="#4c78a8"/><path aria-label="Age (years): 99; Number of people: 690; BinRight: 100" role="graphics-symbol" aria-roledescription="rect mark" d="M297,295.40000000000003h3v4.599999999999966h-3Z" fill="#4c78a8"/><path aria-label="Age (years): 100; Number of people: 878; BinRight: NaN" role="graphics-symbol" aria-roledescription="rect mark" d="M300,294.14666666666665h0v5.853333333333353h0Z" fill="#4c78a8"/></g></g><path class="foreground" aria-hidden="true" d="" display="none"/></g></g></g></svg>