<svg xmlns="http://www.w3.org/2000/svg" xmlns:xlink="http://www.w3.org/1999/xlink" version="1.1" class="marks" width="369" height="347" viewBox="0 0 369 347"><rect width="369" height="347" fill="white"/><g fill="none" stroke-miterlimit="10" transform="translate(63,10)"><g class="mark-group role-frame root" role="graphics-object" aria-roledescription="group mark container"><g transform="translate(0,0)"><path class="background" aria-hidden="true" d="M0.5,0.5h300v300h-300Z" stroke="#ddd"/><g><g class="mark-group role-axis" aria-hidden="true"><g transform="translate(0.5,300.5)"><path class="background" aria-hidden="true" d="M0,0h0v0h0Z" pointer-events="none"/><g><g class="mark-rule role-axis-grid" pointer-events="none"><line transform="translate(0,-300)" x2="0" y2="300" stroke="#ddd" stroke-width="1" opacity="1"/><line transform="translate(30,-300)" x2="0" y2="300" stroke="#ddd" stroke-width="1" opacity="1"/><line transform="translate(60,-300)" x2="0" y2="300" stroke="#ddd" stroke-width="1" opacity="1"/><line transform="translate(90,-300)" x2="0" y2="300" stroke="#ddd" stroke-width="1" opacity="1"/><line transform="translate(120,-300)" x2="0" y2="300" stroke="#ddd" stroke-width="1" opacity="1"/><line transform="translate(150,-300)" x2="0" y2="300" stroke="#ddd" stroke-width="1" opacity="1"/><line transform="translate(180,-300)" x2="0" y2="300" stroke="#ddd" stroke-width="1" opacity="1"/><line transform="translate(210,-300)" x2="0" y2="300" stroke="#ddd" stroke-width="1" opacity="1"/><line transform="translate(240,-300)" x2="0" y2="300" stroke="#ddd" stroke-width="1" opacity="1"/><line transform="translate(270,-300)" x2="0" y2="300" stroke="#ddd" stroke-width="1" opacity="1"/><line transform="translate(300,-300)" x2="0" y2="300" stroke="#ddd" stroke-width="1" opacity="1"/></g></g><path class="foreground" aria-hidden="true" d="" pointer-events="none" display="none"/></g></g><g class="mark-group role-axis" aria-hidden="true"><g transform="translate(0.5,0.5)"><path class="background" aria-hidden="true" d="M0,0h0v0h0Z" pointer-events="none"/><g><g class="mark-rule role-axis-grid" pointer-events="none"><line transform="translate(0,300)" x2="300" y2="0" stroke="#ddd" stroke-width="1" opacity="1"/><line transform="translate(0,267)" x2="300" y2="0" stroke="#ddd" stroke-width="1" opacity="1"/><line transform="translate(0,233)" x2="300" y2="0" stroke="#ddd" stroke-width="1" opacity="1"/><line transform="translate(0,200)" x2="300" y2="0" stroke="#ddd" stroke-width="1" opacity="1"/><line transform="translate(0,167)" x2="300" y2="0" stroke="#ddd" stroke-width="1" opacity="1"/><line transform="translate(0,133)" x2="300" y2="0" stroke="#ddd" stroke-width="1" opacity="1"/><line transform="translate(0,100)" x2="300" y2="0" stroke="#ddd" stroke-width="1" opacity="1"/><line transform="translate(0,67)" x2="300" y2="0" stroke="#ddd" stroke-width="1" opacity="1"/><line transform="translate(0,33)" x2="300" y2="0" stroke="#ddd" stroke-width="1" opacity="1"/><line transform="translate(0,0)" x2="300" y2="0" stroke="#ddd" stroke-width="1" opacity="1"/></g></g><path class="foreground" aria-hidden="true" d="" pointer-events="none" display="none"/></g></g><g class="mark-group role-axis" role="graphics-symbol" aria-roledescription="axis" aria-label="X-axis titled 'Age (years)' for a linear scale with values from 0 to 100"><g transform="translate(0.5,300.5)"><path class="background" aria-hidden="true" d="M0,0h0v0h0Z" pointer-events="none"/><g><g class="mark-rule role-axis-tick" pointer-events="none"><line transform="translate(0,0)" x2="0" y2="5" stroke="#888" stroke-width="1" opacity="1"/><line transform="translate(30,0)" x2="0" y2="5" stroke="#888" stroke-width="1" opacity="1"/><line transform="translate(60,0)" x2="0" y2="5" stroke="#888" stroke-width="1" opacity="1"/><line transform="translate(90,0)" x2="0" y2="5" stroke="#888" stroke-width="1" opacity="1"/><line transform="translate(120,0)" x2="0" y2="5" stroke="#888" stroke-width="1" opacity="1"/><line transform="translate(150,0)" x2="0" y2="5" stroke="#888" stroke-width="1" opacity="1"/><line transform="translate(180,0)" x2="0" y2="5" stroke="#888" stroke-width="1" opacity="1"/><line transform="translate(210,0)" x2="0" y2="5" stroke="#888" stroke-width="1" opacity="1"/><line transform="translate(240,0)" x2="0" y2="5" stroke="#888" stroke-width="1" opacity="1"/><line transform="translate(270,0)" x2="0" y2="5" stroke="#888" stroke-width="1" opacity="1"/><line transform="translate(300,0)" x2="0" y2="5" stroke="#888" stroke-width="1" opacity="1"/></g><g class="mark-text role-axis-label" pointer-events="none"><text text-anchor="start" transform="translate(0,15)" font-family="sans-serif" font-size="10px" fill="#000" opacity="1">0</text><text text-anchor="middle" transform="translate(30,15)" font-family="sans-serif" font-size="10px" fill="#000" opacity="1">10</text><text text-anchor="middle" transform="translate(60,15)" font-family="sans-serif" font-size="10px" fill="#000" opacity="1">20</text><text text-anchor="middle" transform="translate(90,15)" font-family="sans-serif" font-size="10px" fill="#000" opacity="1">30</text><text text-anchor="middle" transform="translate(120,15)" font-family="sans-serif" font-size="10px" fill="#000" opacity="1">40</text><text text-anchor="middle" transform="translate(150,15)" font-family="sans-serif" font-size="10px" fill="#000" opacity="1">50</text><text text-anchor="middle" transform="translate(180,15)" font-family="sans-serif" font-size="10px" fill="#000" opacity="1">60</text><text text-anchor="middle" transform="translate(210,15)" font-family="sans-serif" font-size="10px" fill="#000" opacity="1">70</text><text text-anchor="middle" transform="translate(240,15)" font-family="sans-serif" font-size="10px" fill="#000" opacity="1">80</text><text text-anchor="middle" transform="translate(270,15)" font-family="sans-serif" font-size="10px" fill="#000" opacity="1">90</text><text text-anchor="end" transform="translate(300,15)" font-family="sans-serif" font-size="10px" fill="#000" opacity="1">100</text></g><g class="mark-rule role-axis-domain" pointer-events="none"><line transform="translate(0,0)" x2="300" y2="0" stroke="#888" stroke-width="1" opacity="1"/></g><g class="mark-text role-axis-title" pointer-events="none"><text text-anchor="middle" transform="translate(150,30)" font-family="sans-serif" font-size="11px" font-weight="bold" fill="#000" opacity="1">Age (years)</text></g></g><path class="foreground" aria-hidden="true" d="" pointer-events="none" display="none"/></g></g><g class="mark-group role-axis" role="graphics-symbol" aria-roledescription="axis" aria-label="Y-axis titled 'Number of people' for a linear scale with values from 0 to 45,000"><g transform="translate(0.5,0.5)"><path class="background" aria-hidden="true" d="M0,0h0v0h0Z" pointer-events="none"/><g><g class="mark-rule role-axis-tick" pointer-events="none"><line transform="translate(0,300)" x2="-5" y2="0" stroke="#888" stroke-width="1" opacity="1"/><line transform="translate(0,267)" x2="-5" y2="0" stroke="#888" stroke-width="1" opacity="1"/><line transform="translate(0,233)" x2="-5" y2="0" stroke="#888" stroke-width="1" opacity="1"/><line transform="translate(0,200)" x2="-5" y2="0" stroke="#888" stroke-width="1" opacity="1"/><line transform="translate(0,167)" x2="-5" y2="0" stroke="#888" stroke-width="1" opacity="1"/><line transform="translate(0,133)" x2="-5" y2="0" stroke="#888" stroke-width="1" opacity="1"/><line transform="translate(0,100)" x2="-5" y2="0" stroke="#888" stroke-width="1" opacity="1"/><line transform="translate(0,67)" x2="-5" y2="0" stroke="#888" stroke-width="1" opacity="1"/><line transform="translate(0,33)" x2="-5" y2="0" stroke="#888" stroke-width="1" opacity="1"/><line transform="translate(0,0)" x2="-5" y2="0" stroke="#888" stroke-width="1" opacity="1"/></g><g class="mark-text role-axis-label" pointer-events="none"><text text-anchor="end" transform="translate(-7,303)" font-family="sans-serif" font-size="10px" fill="#000" opacity="1">0</text><text text-anchor="end" transform="translate(-7,269.66666666666663)" font-family="sans-serif" font-size="10px" fill="#000" opacity="1">5,000</text><text text-anchor="end" transform="translate(-7,236.33333333333334)" font-family="sans-serif" font-size="10px" fill="#000" opacity="1">10,000</text><text text-anchor="end" transform="translate(-7,203.00000000000003)" font-family="sans-serif" font-size="10px" fill="#000" opacity="1">15,000</text><text text-anchor="end" transform="translate(-7,169.66666666666669)" font-family="sans-serif" font-size="10px" fill="#000" opacity="1">20,000</text><text text-anchor="end" transform="translate(-7,136.33333333333331)" font-family="sans-serif" font-size="10px" fill="#000" opacity="1">25,000</text><text text-anchor="end" transform="translate(-7,103.00000000000001)" font-family="sans-serif" font-size="10px" fill="#000" opacity="1">30,000</text><text text-anchor="end" transform="translate(-7,69.66666666666666)" font-family="sans-serif" font-size="10px" fill="#000" opacity="1">35,000</text><text text-anchor="end" transform="translate(-7,36.33333333333335)" font-family="sans-serif" font-size="10px" fill="#000" opacity="1">40,000</text><text text-anchor="end" transform="translate(-7,3)" font-family="sans-serif" font-size="10px" fill="#000" opacity="1">45,000</text></g><g class="mark-rule role-axis-domain" pointer-events="none"><line transform="translate(0,300)" x2="0" y2="-300" stroke="#888" stroke-width="1" opacity="1"/></g><g class="mark-text role-axis-title" pointer-events="none"><text text-anchor="middle" transform="translate(-46.5,150) rotate(-90) translate(0,-2)" font-family="sans-serif" font-size="11px" font-weight="bold" fill="#000" opacity="1">Number of people</text></g></g><path class="foreground" aria-hidden="true" d="" pointer-events="none" display="none"/></g></g><g class="mark-rect role-mark marks" role="graphics-object" aria-roledescription="rect mark container"><path aria-label="Age (years): 0; Number of people: 7898; BinRight: 1" role="graphics-symbol" aria-roledescription="rect mark" d="M0,247.34666666666664h3v52.653333333333364h-3Z" fill="#4c78a8"/><path aria-label="Age (years): 1; Number of people: 3950; BinRight: 2" role="graphics-symbol" aria-roledescription="rect mark" d="M3,273.6666666666667h3v26.333333333333314h-3Z" fill="#4c78a8"/><path aria-label="Age (years): 2; Number of people: 3212; BinRight: 3" role="graphics-symbol" aria-roledescription="rect mark" d="M6,278.58666666666664h3v21.413333333333355h-3Z" fill="#4c78a8"/><path aria-label="Age (years): 3; Number of people: 3383; BinRight: 4" role="graphics-symbol" aria-roledescription="rect mark" d="M9,277.44666666666666h3v22.55333333333334h-3Z" fill="#4c78a8"/><path aria-label="Age (years): 4; Number of people: 3940; BinRight: 5" role="graphics-symbol" aria-roledescription="rect mark" d="M12,273.7333333333333h3v26.26666666666671h-3Z" fill="#4c78a8"/><path aria-label="Age (years): 5; Number of people: 4020; BinRight: 6" role="graphics-symbol" aria-roledescription="rect mark" d="M15,273.2h3v26.80000000000001h-3Z" fill="#4c78a8"/><path aria-label="Age (years): 6; Number of people: 4356; BinRight: 7" role="graphics-symbol" aria-roledescription="rect mark" d="M18,270.96h3.0000000000000036v29.04000000000002h-3.0000000000000036Z" fill="#4c78a8"/><path aria-label="Age (years): 7; Number of people: 4733; BinRight: 8" role="graphics-symbol" aria-roledescription="rect mark" d="M21.000000000000004,268.44666666666666h2.9999999999999964v31.55333333333334h-2.9999999999999964Z" fill="#4c78a8"/><path aria-label="Age (years): 8; Number of people: 4934; BinRight: 9" role="graphics-symbol" aria-roledescription="rect mark" d="M24,267.1066666666667h3v32.89333333333332h-3Z" fill="#4c78a8"/><path aria-label="Age (years): 9; Number of people: 5156; BinRight: 10" role="graphics-symbol" aria-roledescription="rect mark" d="M27,265.62666666666667h3v34.373333333333335h-3Z" fill="#4c78a8"/><path aria-label="Age (years): 10; Number of people: 5774; BinRight: 11" role="graphics-symbol" aria-roledescription="rect mark" d="M30,261.50666666666666h3v38.49333333333334h-3Z" fill="#4c78a8"/><path aria-label="Age (years): 11; Number of people: 7003; BinRight: 12" role="graphics-symbol" aria-roledescription="rect mark" d="M33,253.31333333333333h3v46.68666666666667h-3Z" fill="#4c78a8"/><path aria-label="Age (years): 12; Number of people: 6758; BinRight: 13" role="graphics-symbol" aria-roledescription="rect mark" d="M36,254.9466666666667h3v45.05333333333331h-3Z" fill="#4c78a8"/><path aria-label="Age (years): 13; Number of people: 8727; BinRight: 14" role="graphics-symbol" aria-roledescription="rect mark" d="M39,241.82000000000002h3.000000000000007v58.17999999999998h-3.000000000000007Z" fill="#4c78a8"/><path aria-label="Age (years): 14; Number of people: 11341; BinRight: 15" role="graphics-symbol" aria-roledescription="rect mark" d="M42.00000000000001,224.39333333333335h2.999999999999993v75.60666666666665h-2.999999999999993Z" fill="#4c78a8"/><path aria-label="Age (years): 15; Number of people: 11484; BinRight: 16" role="graphics-symbol" aria-roledescription="rect mark" d="M45,223.44h3v76.56h-3Z" fill="#4c78a8"/><path aria-label="Age (years): 16; Number of people: 13373; BinRight: 17" role="graphics-symbol" aria-roledescription="rect mark" d="M48,210.84666666666666h3.000000000000007v89.15333333333334h-3.000000000000007Z" fill="#4c78a8"/><path aria-label="Age (years): 17; Number of people: 13969; BinRight: 18" role="graphics-symbol" aria-roledescription="rect mark" d="M51.00000000000001,206.87333333333336h2.999999999999993v93.12666666666664h-2.999999999999993Z" fill="#4c78a8"/><path aria-label="Age (years): 18; Number of people: 13615; BinRight: 19" role="graphics-symbol" aria-roledescription="rect mark" d="M54,209.23333333333332h3v90.76666666666668h-3Z" fill="#4c78a8"/><path aria-label="Age (years): 19; Number of people: 14073; BinRight: 20" role="graphics-symbol" aria-roledescription="rect mark" d="M57,206.18h3v93.82h-3Z" fill="#4c78a8"/><path aria-label="Age (years): 20; Number of people: 14567; BinRight: 21" role="graphics-symbol" aria-roledescription="rect mark" d="M60,202.88666666666668h3v97.11333333333332h-3Z" fill="#4c78a8"/><path aria-label="Age (years): 21; Number of people: 15122; BinRight: 22" role="graphics-symbol" aria-roledescription="rect mark" d="M63,199.1866666666667h3v100.8133333333333h-3Z" fill="#4c78a8"/><path aria-label="Age (years): 22; Number of people: 15350; BinRight: 23" role="graphics-symbol" aria-roledescription="rect mark" d="M66,197.66666666666666h3v102.33333333333334h-3Z" fill="#4c78a8"/><path aria-label="Age (years): 23; Number of people: 15682; BinRight: 24" role="graphics-symbol" aria-roledescription="rect mark" d="M69,195.45333333333335h3v104.54666666666665h-3Z" fill="#4c78a8"/><path aria-label="Age (years): 24; Number of people: 16258; BinRight: 25" role="graphics-symbol" aria-roledescription="rect mark" d="M72,191.61333333333334h3v108.38666666666666h-3Z" fill="#4c78a8"/><path aria-label="Age (years): 25; Number of people: 16825; BinRight: 26" role="graphics-symbol" aria-roledescription="rect mark" d="M75,187.83333333333331h3v112.16666666666669h-3Z" fill="#4c78a8"/><path aria-label="Age (years): 26; Number of people: 17393; BinRight: 27" role="graphics-symbol" aria-roledescription="rect mark" d="M78,184.04666666666665h3v115.95333333333335h-3Z" fill="#4c78a8"/><path aria-label="Age (years): 27; Number of people: 17925; BinRight: 28" role="graphics-symbol" aria-roledescription="rect mark" d="M81,180.5h3.000000000000014v119.5h-3.000000000000014Z" fill="#4c78a8"/><path aria-label="Age (years): 28; Number of people: 18276; BinRight: 29" role="graphics-symbol" aria-roledescription="rect mark" d="M84.00000000000001,178.16h2.999999999999986v121.84h-2.999999999999986Z" fill="#4c78a8"/><path aria-label="Age (years): 29; Number of people: 18307; BinRight: 30" role="graphics-symbol" aria-roledescription="rect mark" d="M87,177.95333333333335h3v122.04666666666665h-3Z" fill="#4c78a8"/><path aria-label="Age (years): 30; Number of people: 18469; BinRight: 31" role="graphics-symbol" aria-roledescription="rect mark" d="M90,176.87333333333333h3v123.12666666666667h-3Z" fill="#4c78a8"/><path aria-label="Age (years): 31; Number of people: 18721; BinRight: 32" role="graphics-symbol" aria-roledescription="rect mark" d="M93,175.1933333333333h3v124.8066666666667h-3Z" fill="#4c78a8"/><path aria-label="Age (years): 32; Number of people: 19170; BinRight: 33" role="graphics-symbol" aria-roledescription="rect mark" d="M96,172.20000000000002h3v127.79999999999998h-3Z" fill="#4c78a8"/><path aria-label="Age (years): 33; Number of people: 19536; BinRight: 34" role="graphics-symbol" aria-roledescription="rect mark" d="M99,169.76000000000002h3.000000000000014v130.23999999999998h-3.000000000000014Z" fill="#4c78a8"/><path aria-label="Age (years): 34; Number of people: 19771; BinRight: 35" role="graphics-symbol" aria-roledescription="rect mark" d="M102.00000000000001,168.19333333333336h2.999999999999986v131.80666666666664h-2.999999999999986Z" fill="#4c78a8"/><path aria-label="Age (years): 35; Number of people: 19959; BinRight: 36" role="graphics-symbol" aria-roledescription="rect mark" d="M105,166.94h3v133.06h-3Z" fill="#4c78a8"/><path aria-label="Age (years): 36; Number of people: 20180; BinRight: 37" role="graphics-symbol" aria-roledescription="rect mark" d="M108,165.46666666666667h3v134.53333333333333h-3Z" fill="#4c78a8"/><path aria-label="Age (years): 37; Number of people: 20763; BinRight: 38" role="graphics-symbol" aria-roledescription="rect mark" d="M111,161.57999999999998h3v138.42000000000002h-3Z" fill="#4c78a8"/><path aria-label="Age (years): 38; Number of people: 20687; BinRight: 39" role="graphics-symbol" aria-roledescription="rect mark" d="M114,162.08666666666664h3v137.91333333333336h-3Z" fill="#4c78a8"/><path aria-label="Age (years): 39; Number of people: 21000; BinRight: 40" role="graphics-symbol" aria-roledescription="rect mark" d="M117,160h3v140h-3Z" fill="#4c78a8"/><path aria-label="Age (years): 40; Number of people: 21274; BinRight: 41" role="graphics-symbol" aria-roledescription="rect mark" d="M120,158.17333333333332h2.999999999999986v141.82666666666668h-2.999999999999986Z" fill="#4c78a8"/><path aria-label="Age (years): 41; Number of people: 21185; BinRight: 42" role="graphics-symbol" aria-roledescription="rect mark" d="M122.99999999999999,158.76666666666668h3.000000000000014v141.23333333333332h-3.000000000000014Z" fill="#4c78a8"/><path aria-label="Age (years): 42; Number of people: 21683; BinRight: 43" role="graphics-symbol" aria-roledescription="rect mark" d="M126,155.44666666666666h3v144.55333333333334h-3Z" fill="#4c78a8"/><path aria-label="Age (years): 43; Number of people: 21201; BinRight: 44" role="graphics-symbol" aria-roledescription="rect mark" d="M129,158.65999999999997h3v141.34000000000003h-3Z" fill="#4c78a8"/><path aria-label="Age (years): 44; Number of people: 21753; BinRight: 45" role="graphics-symbol" aria-roledescription="rect mark" d="M132,154.98h3v145.02h-3Z" fill="#4c78a8"/><path aria-label="Age (years): 45; Number of people: 21829; BinRight: 46" role="graphics-symbol" aria-roledescription="rect mark" d="M135,154.47333333333333h3v145.52666666666667h-3Z" fill="#4c78a8"/><path aria-label="Age (years): 46; Number of people: 22316; BinRight: 47" role="graphics-symbol" aria-roledescription="rect mark" d="M138,151.22666666666663h3v148.77333333333337h-3Z" fill="#4c78a8"/><path aria-label="Age (years): 47; Number of people: 23093; BinRight: 48" role="graphics-symbol" aria-roledescription="rect mark" d="M141,146.04666666666668h3v153.95333333333332h-3Z" fill="#4c78a8"/><path aria-label="Age (years): 48; Number of people: 23922; BinRight: 49" role="graphics-symbol" aria-roledescription="rect mark" d="M144,140.52h3v159.48h-3Z" fill="#4c78a8"/><path aria-label="Age (years): 49; Number of people: 25627; BinRight: 50" role="graphics-symbol" aria-roledescription="rect mark" d="M147,129.1533333333333h3v170.8466666666667h-3Z" fill="#4c78a8"/><path aria-label="Age (years): 50; Number of people: 27473; BinRight: 51" role="graphics-symbol" aria-roledescription="rect mark" d="M150,116.84666666666666h3v183.15333333333334h-3Z" fill="#4c78a8"/><path aria-label="Age (years): 51; Number of people: 27558; BinRight: 52" role="graphics-symbol" aria-roledescription="rect mark" d="M153,116.27999999999999h3v183.72000000000003h-3Z" fill="#4c78a8"/><path aria-label="Age (years): 52; Number of people: 29392; BinRight: 53" role="graphics-symbol" aria-roledescription="rect mark" d="M156,104.05333333333331h3v195.9466666666667h-3Z" fill="#4c78a8"/><path aria-label="Age (years): 53; Number of people: 30209; BinRight: 54" role="graphics-symbol" aria-roledescription="rect mark" d="M159,98.60666666666667h3v201.39333333333332h-3Z" fill="#4c78a8"/><path aria-label="Age (years): 54; Number of people: 31454; BinRight: 55" role="graphics-symbol" aria-roledescription="rect mark" d="M162,90.30666666666666h3v209.69333333333333h-3Z" fill="#4c78a8"/><path aria-label="Age (years): 55; Number of people: 31908; BinRight: 56" role="graphics-symbol" aria-roledescription="rect mark" d="M165,87.28000000000002h3.0000000000000284v212.71999999999997h-3.0000000000000284Z" fill="#4c78a8"/><path aria-label="Age (years): 56; Number of people: 32329; BinRight: 57" role="graphics-symbol" aria-roledescription="rect mark" d="M168.00000000000003,84.47333333333334h2.999999999999943v215.52666666666664h-2.999999999999943Z" fill="#4c78a8"/><path aria-label="Age (years): 57; Number of people: 33029; BinRight: 58" role="graphics-symbol" aria-roledescription="rect mark" d="M170.99999999999997,79.80666666666669h3.0000000000000284v220.19333333333333h-3.0000000000000284Z" fill="#4c78a8"/><path aria-label="Age (years): 58; Number of people: 34140; BinRight: 59" role="graphics-symbol" aria-roledescription="rect mark" d="M174,72.39999999999999h3v227.60000000000002h-3Z" fill="#4c78a8"/><path aria-label="Age (years): 59; Number of people: 34686; BinRight: 60" role="graphics-symbol" aria-roledescription="rect mark" d="M177,68.75999999999999h3v231.24h-3Z" fill="#4c78a8"/><path aria-label="Age (years): 60; Number of people: 36019; BinRight: 61" role="graphics-symbol" aria-roledescription="rect mark" d="M180,59.87333333333332h3v240.12666666666667h-3Z" fill="#4c78a8"/><path aria-label="Age (years): 61; Number of people: 36024; BinRight: 62" role="graphics-symbol" aria-roledescription="rect mark" d="M183,59.84h3v240.16h-3Z" fill="#4c78a8"/><path aria-label="Age (years): 62; Number of people: 37121; BinRight: 63" role="graphics-symbol" aria-roledescription="rect mark" d="M186,52.52666666666666h3v247.47333333333336h-3Z" fill="#4c78a8"/><path aria-label="Age (years): 63; Number of people: 37549; BinRight: 64" role="graphics-symbol" aria-roledescription="rect mark" d="M189,49.673333333333346h3v250.32666666666665h-3Z" fill="#4c78a8"/><path aria-label="Age (years): 64; Number of people: 39277; BinRight: 65" role="graphics-symbol" aria-roledescription="rect mark" d="M192,38.153333333333315h3v261.8466666666667h-3Z" fill="#4c78a8"/><path aria-label="Age (years): 65; Number of people: 39737; BinRight: 66" role="graphics-symbol" aria-roledescription="rect mark" d="M195,35.08666666666668h3v264.9133333333333h-3Z" fill="#4c78a8"/><path aria-label="Age (years): 66; Number of people: 40474; BinRight: 67" role="graphics-symbol" aria-roledescription="rect mark" d="M198,30.17333333333333h3v269.82666666666665h-3Z" fill="#4c78a8"/><path aria-label="Age (years): 67; Number of people: 41186; BinRight: 68" role="graphics-symbol" aria-roledescription="rect mark" d="M201,25.426666666666677h3.0000000000000284v274.5733333333333h-3.0000000000000284Z" fill="#4c78a8"/><path aria-label="Age (years): 68; Number of people: 42690; BinRight: 69" role="graphics-symbol" aria-roledescription="rect mark" d="M204.00000000000003,15.400000000000002h2.999999999999943v284.6h-2.999999999999943Z" fill="#4c78a8"/><path aria-label="Age (years): 69; Number of people: 43138; BinRight: 70" role="graphics-symbol" aria-roledescription="rect mark" d="M206.99999999999997,12.41333333333332h3.0000000000000284v287.5866666666667h-3.0000000000000284Z" fill="#4c78a8"/><path aria-label="Age (years): 70; Number of people: 41683; BinRight: 71" role="graphics-symbol" aria-roledescription="rect mark" d="M210,22.11333333333332h3v277.88666666666666h-3Z" fill="#4c78a8"/><path aria-label="Age (years): 71; Number of people: 40841; BinRight: 72" role="graphics-symbol" aria-roledescription="rect mark" d="M213,27.726666666666656h3v272.27333333333337h-3Z" fill="#4c78a8"/><path aria-label="Age (years): 72; Number of people: 39068; BinRight: 73" role="graphics-symbol" aria-roledescription="rect mark" d="M216,39.54666666666665h3v260.4533333333334h-3Z" fill="#4c78a8"/><path aria-label="Age (years): 73; Number of people: 38022; BinRight: 74" role="graphics-symbol" aria-roledescription="rect mark" d="M219,46.52h3v253.48h-3Z" fill="#4c78a8"/><path aria-label="Age (years): 74; Number of people: 35709; BinRight: 75" role="graphics-symbol" aria-roledescription="rect mark" d="M222,61.940000000000005h3v238.06h-3Z" fill="#4c78a8"/><path aria-label="Age (years): 75; Number of people: 33544; BinRight: 76" role="graphics-symbol" aria-roledescription="rect mark" d="M225,76.37333333333333h3v223.62666666666667h-3Z" fill="#4c78a8"/><path aria-label="Age (years): 76; Number of people: 31736; BinRight: 77" role="graphics-symbol" aria-roledescription="rect mark" d="M228,88.42666666666666h3v211.57333333333332h-3Z" fill="#4c78a8"/><path aria-label="Age (years): 77; Number of people: 29946; BinRight: 78" role="graphics-symbol" aria-roledescription="rect mark" d="M231,100.36h3v199.64h-3Z" fill="#4c78a8"/><path aria-label="Age (years): 78; Number of people: 29063; BinRight: 79" role="graphics-symbol" aria-roledescription="rect mark" d="M234,106.24666666666667h3v193.75333333333333h-3Z" fill="#4c78a8"/><path aria-label="Age (years): 79; Number of people: 28097; BinRight: 80" role="graphics-symbol" aria-roledescription="rect mark" d="M237,112.68666666666665h3v187.31333333333333h-3Z" fill="#4c78a8"/><path aria-label="Age (years): 80; Number of people: 26493; BinRight: 81" role="graphics-symbol" aria-roledescription="rect mark" d="M240,123.38h3.0000000000000284v176.62h-3.0000000000000284Z" fill="#4c78a8"/><path aria-label="Age (years): 81; Number of people: 25187; BinRight: 82" role="graphics-symbol" aria-roledescription="rect mark" d="M243.00000000000003,132.08666666666664h2.999999999999943v167.91333333333336h-2.999999999999943Z" fill="#4c78a8"/><path aria-label="Age (years): 82; Number of people: 23457; BinRight: 83" role="graphics-symbol" aria-roledescription="rect mark" d="M245.99999999999997,143.62h3.0000000000000284v156.38h-3.0000000000000284Z" fill="#4c78a8"/><path aria-label="Age (years): 83; Number of people: 22116; BinRight: 84" role="graphics-symbol" aria-roledescription="rect mark" d="M249,152.55999999999997h3v147.44000000000003h-3Z" fill="#4c78a8"/><path aria-label="Age (years): 84; Number of people: 20795; BinRight: 85" role="graphics-symbol" aria-roledescription="rect mark" d="M252,161.36666666666665h3v138.63333333333335h-3Z" fill="#4c78a8"/><path aria-label="Age (years): 85; Number of people: 19101; BinRight: 86" role="graphics-symbol" aria-roledescription="rect mark" d="M255,172.66h3v127.34h-3Z" fill="#4c78a8"/><path aria-label="Age (years): 86; Number of people: 17433; BinRight: 87" role="graphics-symbol" aria-roledescription="rect mark" d="M258,183.78h3v116.22h-3Z" fill="#4c78a8"/><path aria-label="Age (years): 87; Number of people: 15621; BinRight: 88" role="graphics-symbol" aria-roledescription="rect mark" d="M261,195.86h3v104.13999999999999h-3Z" fill="#4c78a8"/><path aria-label="Age (years): 88; Number of people: 13861; BinRight: 89" role="graphics-symbol" aria-roledescription="rect mark" d="M264,207.59333333333333h3v92.40666666666667h-3Z" fill="#4c78a8"/><path aria-label="Age (years): 89; Number of people: 11973; BinRight: 90" role="graphics-symbol" aria-roledescription="rect mark" d="M267,220.18h3v79.82h-3Z" fill="#4c78a8"/><path aria-label="Age (years): 90; Number of people: 9870; BinRight: 91" role="graphics-symbol" aria-roledescription="rect mark" d="M270,234.2h3v65.80000000000001h-3Z" fill="#4c78a8"/><path aria-label="Age (years): 91; Number of people: 8050; BinRight: 92" role="graphics-symbol" aria-roledescription="rect mark" d="M273,246.33333333333334h3v53.66666666666666h-3Z" fill="#4c78a8"/><path aria-label="Age (years): 92; Number of people: 6595; BinRight: 93" role="graphics-symbol" aria-roledescription="rect mark" d="M276,256.03333333333336h3v43.96666666666664h-3Z" fill="#4c78a8"/><path aria-label="Age (years): 93; Number of people: 5066; BinRight: 94" role="graphics-symbol" aria-roledescription="rect mark" d="M279,266.2266666666667h3v33.77333333333331h-3Z" fill="#4c78a8"/><path aria-label="Age (years): 94; Number of people: 3703; BinRight: 95" role="graphics-symbol" aria-roledescription="rect mark" d="M282,275.31333333333333h3v24.686666666666667h-3Z" fill="#4c78a8"/><path aria-label="Age (years): 95; Number of people: 2615; BinRight: 96" role="graphics-symbol" aria-roledescription="rect mark" d="M285,282.56666666666666h3v17.433333333333337h-3Z" fill="#4c78a8"/><path aria-label="Age (years): 96; Number of people: 1710; BinRight: 97" role="graphics-symbol" aria-roledescription="rect mark" d="M288,288.59999999999997h3v11.400000000000034h-3Z" fill="#4c78a8"/><path aria-label="Age (years): 97; Number of people: 1158; BinRight: 98" role="graphics-symbol" aria-roledescription="rect mark" d="M291,292.28h3v7.720000000000027h-3Z" fill="#4c78a8"/><path aria-label="Age (years): 98; Number of people: 719; BinRight: 99" role="graphics-symbol" aria-roledescription="rect mark" d="M294,295.20666666666665h3v4.793333333333351h-3Z" fill="#4c78a8"/><path aria-label="Age (years): 99; Number of people: 423; BinRight: 100" role="graphics-symbol" aria-roledescription="rect mark" d="M297,297.18h3v2.819999999999993h-3Z" fill="#4c78a8"/><path aria-label="Age (years): 100; Number of people: 521; BinRight: NaN" role="graphics-symbol" aria-roledescription="rect mark" d="M300,296.52666666666664h0v3.4733333333333576h0Z" fill="#4c78a8"/></g></g><path class="foreground" aria-hidden="true" d="" display="none"/></g></g></g></svg>