<svg xmlns="http://www.w3.org/2000/svg" xmlns:xlink="http://www.w3.org/1999/xlink" version="1.1" class="marks" width="376" height="347" viewBox="0 0 376 347"><rect width="376" height="347" fill="white"/><g fill="none" stroke-miterlimit="10" transform="translate(63,10)"><g class="mark-group role-frame root" role="graphics-object" aria-roledescription="group mark container"><g transform="translate(0,0)"><path class="background" aria-hidden="true" d="M0.5,0.5h300v300h-300Z" stroke="#ddd"/><g><g class="mark-group role-axis" aria-hidden="true"><g transform="translate(0.5,300.5)"><path class="background" aria-hidden="true" d="M0,0h0v0h0Z" pointer-events="none"/><g><g class="mark-rule role-axis-grid" pointer-events="none"><line transform="translate(5,-300)" x2="0" y2="300" stroke="#ddd" stroke-width="1" opacity="1"/><line transform="translate(38,-300)" x2="0" y2="300" stroke="#ddd" stroke-width="1" opacity="1"/><line transform="translate(70,-300)" x2="0" y2="300" stroke="#ddd" stroke-width="1" opacity="1"/><line transform="translate(103,-300)" x2="0" y2="300" stroke="#ddd" stroke-width="1" opacity="1"/><line transform="translate(135,-300)" x2="0" y2="300" stroke="#ddd" stroke-width="1" opacity="1"/><line transform="translate(168,-300)" x2="0" y2="300" stroke="#ddd" stroke-width="1" opacity="1"/><line transform="translate(200,-300)" x2="0" y2="300" stroke="#ddd" stroke-width="1" opacity="1"/><line transform="translate(233,-300)" x2="0" y2="300" stroke="#ddd" stroke-width="1" opacity="1"/><line transform="translate(265,-300)" x2="0" y2="300" stroke="#ddd" stroke-width="1" opacity="1"/><line transform="translate(298,-300)" x2="0" y2="300" stroke="#ddd" stroke-width="1" opacity="1"/></g></g><path class="foreground" aria-hidden="true" d="" pointer-events="none" display="none"/></g></g><g class="mark-group role-axis" aria-hidden="true"><g transform="translate(0.5,0.5)"><path class="background" aria-hidden="true" d="M0,0h0v0h0Z" pointer-events="none"/><g><g class="mark-rule role-axis-grid" pointer-events="none"><line transform="translate(0,300)" x2="300" y2="0" stroke="#ddd" stroke-width="1" opacity="1"/><line transform="translate(0,257)" x2="300" y2="0" stroke="#ddd" stroke-width="1" opacity="1"/><line transform="translate(0,214)" x2="300" y2="0" stroke="#ddd" stroke-width="1" opacity="1"/><line transform="translate(0,171)" x2="300" y2="0" stroke="#ddd" stroke-width="1" opacity="1"/><line transform="translate(0,129)" x2="300" y2="0" stroke="#ddd" stroke-width="1" opacity="1"/><line transform="translate(0,86)" x2="300" y2="0" stroke="#ddd" stroke-width="1" opacity="1"/><line transform="translate(0,43)" x2="300" y2="0" stroke="#ddd" stroke-width="1" opacity="1"/><line transform="translate(0,0)" x2="300" y2="0" stroke="#ddd" stroke-width="1" opacity="1"/></g></g><path class="foreground" aria-hidden="true" d="" pointer-events="none" display="none"/></g></g><g class="mark-group role-axis" role="graphics-symbol" aria-roledescription="axis" aria-label="X-axis titled 'Date' for a time scale with values from Tuesday, 05 November 2013, 10:41:22 PM to Thursday, 26 January 2023, 5:18:37 AM"><g transform="translate(0.5,300.5)"><path class="background" aria-hidden="true" d="M0,0h0v0h0Z" pointer-events="none"/><g><g class="mark-rule role-axis-tick" pointer-events="none"><line transform="translate(5,0)" x2="0" y2="5" stroke="#888" stroke-width="1" opacity="1"/><line transform="translate(38,0)" x2="0" y2="5" stroke="#888" stroke-width="1" opacity="1"/><line transform="translate(70,0)" x2="0" y2="5" stroke="#888" stroke-width="1" opacity="1"/><line transform="translate(103,0)" x2="0" y2="5" stroke="#888" stroke-width="1" opacity="1"/><line transform="translate(135,0)" x2="0" y2="5" stroke="#888" stroke-width="1" opacity="1"/><line transform="translate(168,0)" x2="0" y2="5" stroke="#888" stroke-width="1" opacity="1"/><line transform="translate(200,0)" x2="0" y2="5" stroke="#888" stroke-width="1" opacity="1"/><line transform="translate(233,0)" x2="0" y2="5" stroke="#888" stroke-width="1" opacity="1"/><line transform="translate(265,0)" x2="0" y2="5" stroke="#888" stroke-width="1" opacity="1"/><line transform="translate(298,0)" x2="0" y2="5" stroke="#888" stroke-width="1" opacity="1"/></g><g class="mark-text role-axis-label" pointer-events="none"><text text-anchor="middle" transform="translate(4.992577805713508,15)" font-family="sans-serif" font-size="10px" fill="#000" opacity="1">2014</text><text text-anchor="middle" transform="translate(37.5017915649003,15)" font-family="sans-serif" font-size="10px" fill="#000" opacity="1">2015</text><text text-anchor="middle" transform="translate(70.01100532408711,15)" font-family="sans-serif" font-size="10px" fill="#000" opacity="1">2016</text><text text-anchor="middle" transform="translate(102.60928542234016,15)" font-family="sans-serif" font-size="10px" fill="#000" opacity="1">2017</text><text text-anchor="middle" transform="translate(135.11849918152697,15)" font-family="sans-serif" font-size="10px" fill="#000" opacity="1">2018</text><text text-anchor="middle" transform="translate(167.62771294071374,15)" font-family="sans-serif" font-size="10px" fill="#000" opacity="1">2019</text><text text-anchor="middle" transform="translate(200.13692669990053,15)" font-family="sans-serif" font-size="10px" fill="#000" opacity="1">2020</text><text text-anchor="middle" transform="translate(232.73520679815363,15)" font-family="sans-serif" font-size="10px" fill="#000" opacity="1">2021</text><text text-anchor="middle" transform="translate(265.2444205573404,15)" font-family="sans-serif" font-size="10px" fill="#000" opacity="1">2022</text><text text-anchor="middle" transform="translate(297.7536343165272,15)" font-family="sans-serif" font-size="10px" fill="#000" opacity="1">2023</text></g><g class="mark-rule role-axis-domain" pointer-events="none"><line transform="translate(0,0)" x2="300" y2="0" stroke="#888" stroke-width="1" opacity="1"/></g><g class="mark-text role-axis-title" pointer-events="none"><text text-anchor="middle" transform="translate(150,30)" font-family="sans-serif" font-size="11px" font-weight="bold" fill="#000" opacity="1">Date</text></g></g><path class="foreground" aria-hidden="true" d="" pointer-events="none" display="none"/></g></g><g class="mark-group role-axis" role="graphics-symbol" aria-roledescription="axis" aria-label="Y-axis titled 'Number of records' for a linear scale with values from 0 to 140,000"><g transform="translate(0.5,0.5)"><path class="background" aria-hidden="true" d="M0,0h0v0h0Z" pointer-events="none"/><g><g class="mark-rule role-axis-tick" pointer-events="none"><line transform="translate(0,300)" x2="-5" y2="0" stroke="#888" stroke-width="1" opacity="1"/><line transform="translate(0,257)" x2="-5" y2="0" stroke="#888" stroke-width="1" opacity="1"/><line transform="translate(0,214)" x2="-5" y2="0" stroke="#888" stroke-width="1" opacity="1"/><line transform="translate(0,171)" x2="-5" y2="0" stroke="#888" stroke-width="1" opacity="1"/><line transform="translate(0,129)" x2="-5" y2="0" stroke="#888" stroke-width="1" opacity="1"/><line transform="translate(0,86)" x2="-5" y2="0" stroke="#888" stroke-width="1" opacity="1"/><line transform="translate(0,43)" x2="-5" y2="0" stroke="#888" stroke-width="1" opacity="1"/><line transform="translate(0,0)" x2="-5" y2="0" stroke="#888" stroke-width="1" opacity="1"/></g><g class="mark-text role-axis-label" pointer-events="none"><text text-anchor="end" transform="translate(-7,303)" font-family="sans-serif" font-size="10px" fill="#000" opacity="1">0</text><text text-anchor="end" transform="translate(-7,260.14285714285717)" font-family="sans-serif" font-size="10px" fill="#000" opacity="1">20,000</text><text text-anchor="end" transform="translate(-7,217.28571428571428)" font-family="sans-serif" font-size="10px" fill="#000" opacity="1">40,000</text><text text-anchor="end" transform="translate(-7,174.42857142857142)" font-family="sans-serif" font-size="10px" fill="#000" opacity="1">60,000</text><text text-anchor="end" transform="translate(-7,131.57142857142858)" font-family="sans-serif" font-size="10px" fill="#000" opacity="1">80,000</text><text text-anchor="end" transform="translate(-7,88.71428571428571)" font-family="sans-serif" font-size="10px" fill="#000" opacity="1">100,000</text><text text-anchor="end" transform="translate(-7,45.85714285714287)" font-family="sans-serif" font-size="10px" fill="#000" opacity="1">120,000</text><text text-anchor="end" transform="translate(-7,3)" font-family="sans-serif" font-size="10px" fill="#000" opacity="1">140,000</text></g><g class="mark-rule role-axis-domain" pointer-events="none"><line transform="translate(0,300)" x2="0" y2="-300" stroke="#888" stroke-width="1" opacity="1"/></g><g class="mark-text role-axis-title" pointer-events="none"><text text-anchor="middle" transform="translate(-46.733333587646484,150) rotate(-90) translate(0,-2)" font-family="sans-serif" font-size="11px" font-weight="bold" fill="#000" opacity="1">Number of records</text></g></g><path class="foreground" aria-hidden="true" d="" pointer-events="none" display="none"/></g></g><g class="mark-rect role-mark marks" role="graphics-object" aria-roledescription="rect mark container"><path aria-label="Date: Jan 01, 2014; Number of records: 17" role="graphics-symbol" aria-roledescription="bar" d="M2.5000000006356977,299.9635714285714h5v0.03642857142858702h-5Z" fill="#4c78a8"/><path aria-label="Date: Feb 01, 2014; Number of records: 19" role="graphics-symbol" aria-roledescription="bar" d="M5.261056511689919,299.9592857142857h5v0.040714285714273046h-5Z" fill="#4c78a8"/><path aria-label="Date: Mar 01, 2014; Number of records: 48" role="graphics-symbol" aria-roledescription="bar" d="M7.754914005545343,299.89714285714285h5v0.10285714285714675h-5Z" fill="#4c78a8"/><path aria-label="Date: Apr 01, 2014; Number of records: 240" role="graphics-symbol" aria-roledescription="bar" d="M10.515970516599566,299.4857142857143h5v0.5142857142856769h-5Z" fill="#4c78a8"/><path aria-label="Date: May 01, 2014; Number of records: 1787" role="graphics-symbol" aria-roledescription="bar" d="M13.18796068858752,296.1707142857143h5v3.8292857142856747h-5Z" fill="#4c78a8"/><path aria-label="Date: Jun 01, 2014; Number of records: 7125" role="graphics-symbol" aria-roledescription="bar" d="M15.949017199641741,284.73214285714283h5v15.267857142857167h-5Z" fill="#4c78a8"/><path aria-label="Date: Jul 01, 2014; Number of records: 8373" role="graphics-symbol" aria-roledescription="bar" d="M18.621007371629698,282.05785714285713h5v17.94214285714287h-5Z" fill="#4c78a8"/><path aria-label="Date: Aug 01, 2014; Number of records: 9958" role="graphics-symbol" aria-roledescription="bar" d="M21.38206388268392,278.6614285714286h5v21.338571428571413h-5Z" fill="#4c78a8"/><path aria-label="Date: Sep 01, 2014; Number of records: 12063" role="graphics-symbol" aria-roledescription="bar" d="M24.143120393738137,274.1507142857143h5v25.849285714285713h-5Z" fill="#4c78a8"/><path aria-label="Date: Oct 01, 2014; Number of records: 16114" role="graphics-symbol" aria-roledescription="bar" d="M26.815110565726094,265.47h5v34.52999999999997h-5Z" fill="#4c78a8"/><path aria-label="Date: Nov 01, 2014; Number of records: 19379" role="graphics-symbol" aria-roledescription="bar" d="M29.576167076780315,258.4735714285714h5v41.526428571428596h-5Z" fill="#4c78a8"/><path aria-label="Date: Dec 01, 2014; Number of records: 24107" role="graphics-symbol" aria-roledescription="bar" d="M32.24815724876827,248.34214285714285h5v51.657857142857154h-5Z" fill="#4c78a8"/><path aria-label="Date: Jan 01, 2015; Number of records: 27090" role="graphics-symbol" aria-roledescription="bar" d="M35.009213759822494,241.95h5v58.05000000000001h-5Z" fill="#4c78a8"/><path aria-label="Date: Feb 01, 2015; Number of records: 27089" role="graphics-symbol" aria-roledescription="bar" d="M37.770270270876715,241.95214285714286h5v58.04785714285714h-5Z" fill="#4c78a8"/><path aria-label="Date: Mar 01, 2015; Number of records: 30671" role="graphics-symbol" aria-roledescription="bar" d="M40.26412776473214,234.27642857142857h5v65.72357142857143h-5Z" fill="#4c78a8"/><path aria-label="Date: Apr 01, 2015; Number of records: 29281" role="graphics-symbol" aria-roledescription="bar" d="M43.025184275786366,237.25500000000002h5v62.744999999999976h-5Z" fill="#4c78a8"/><path aria-label="Date: May 01, 2015; Number of records: 29581" role="graphics-symbol" aria-roledescription="bar" d="M45.697174447774316,236.61214285714286h5v63.38785714285714h-5Z" fill="#4c78a8"/><path aria-label="Date: Jun 01, 2015; Number of records: 29051" role="graphics-symbol" aria-roledescription="bar" d="M48.45823095882854,237.74785714285713h5v62.25214285714287h-5Z" fill="#4c78a8"/><path aria-label="Date: Jul 01, 2015; Number of records: 25986" role="graphics-symbol" aria-roledescription="bar" d="M51.13022113081649,244.31571428571428h5v55.68428571428572h-5Z" fill="#4c78a8"/><path aria-label="Date: Aug 01, 2015; Number of records: 30230" role="graphics-symbol" aria-roledescription="bar" d="M53.89127764187071,235.22142857142856h5v64.77857142857144h-5Z" fill="#4c78a8"/><path aria-label="Date: Sep 01, 2015; Number of records: 32213" role="graphics-symbol" aria-roledescription="bar" d="M56.65233415292493,230.97214285714287h5v69.02785714285713h-5Z" fill="#4c78a8"/><path aria-label="Date: Oct 01, 2015; Number of records: 32011" role="graphics-symbol" aria-roledescription="bar" d="M59.32432432491289,231.405h5v68.595h-5Z" fill="#4c78a8"/><path aria-label="Date: Nov 01, 2015; Number of records: 32609" role="graphics-symbol" aria-roledescription="bar" d="M62.085380835967115,230.1235714285714h5v69.87642857142859h-5Z" fill="#4c78a8"/><path aria-label="Date: Dec 01, 2015; Number of records: 30322" role="graphics-symbol" aria-roledescription="bar" d="M64.75737100795507,235.02428571428572h5v64.97571428571428h-5Z" fill="#4c78a8"/><path aria-label="Date: Jan 01, 2016; Number of records: 30400" role="graphics-symbol" aria-roledescription="bar" d="M67.5184275190093,234.8571428571429h5v65.14285714285711h-5Z" fill="#4c78a8"/><path aria-label="Date: Feb 01, 2016; Number of records: 33451" role="graphics-symbol" aria-roledescription="bar" d="M70.27948403006351,228.3192857142857h5v71.68071428571429h-5Z" fill="#4c78a8"/><path aria-label="Date: Mar 01, 2016; Number of records: 33856" role="graphics-symbol" aria-roledescription="bar" d="M72.8624078629852,227.45142857142858h5v72.54857142857142h-5Z" fill="#4c78a8"/><path aria-label="Date: Apr 01, 2016; Number of records: 40109" role="graphics-symbol" aria-roledescription="bar" d="M75.62346437403941,214.05214285714288h5v85.94785714285712h-5Z" fill="#4c78a8"/><path aria-label="Date: May 01, 2016; Number of records: 50595" role="graphics-symbol" aria-roledescription="bar" d="M78.29545454602737,191.58214285714288h5v108.41785714285712h-5Z" fill="#4c78a8"/><path aria-label="Date: Jun 01, 2016; Number of records: 47929" role="graphics-symbol" aria-roledescription="bar" d="M81.05651105708161,197.29500000000002h5v102.70499999999998h-5Z" fill="#4c78a8"/><path aria-label="Date: Jul 01, 2016; Number of records: 38812" role="graphics-symbol" aria-roledescription="bar" d="M83.72850122906955,216.83142857142857h5v83.16857142857143h-5Z" fill="#4c78a8"/><path aria-label="Date: Aug 01, 2016; Number of records: 55381" role="graphics-symbol" aria-roledescription="bar" d="M86.48955774012377,181.32642857142858h5v118.67357142857142h-5Z" fill="#4c78a8"/><path aria-label="Date: Sep 01, 2016; Number of records: 57008" role="graphics-symbol" aria-roledescription="bar" d="M89.25061425117799,177.84h5v122.16h-5Z" fill="#4c78a8"/><path aria-label="Date: Oct 01, 2016; Number of records: 56652" role="graphics-symbol" aria-roledescription="bar" d="M91.92260442316595,178.60285714285715h5v121.39714285714285h-5Z" fill="#4c78a8"/><path aria-label="Date: Nov 01, 2016; Number of records: 60441" role="graphics-symbol" aria-roledescription="bar" d="M94.68366093422019,170.48357142857142h5v129.51642857142858h-5Z" fill="#4c78a8"/><path aria-label="Date: Dec 01, 2016; Number of records: 56213" role="graphics-symbol" aria-roledescription="bar" d="M97.35565110620813,179.54357142857143h5v120.45642857142857h-5Z" fill="#4c78a8"/><path aria-label="Date: Jan 01, 2017; Number of records: 67485" role="graphics-symbol" aria-roledescription="bar" d="M100.11670761726235,155.3892857142857h5v144.6107142857143h-5Z" fill="#4c78a8"/><path aria-label="Date: Feb 01, 2017; Number of records: 63064" role="graphics-symbol" aria-roledescription="bar" d="M102.87776412831657,164.86285714285714h5v135.13714285714286h-5Z" fill="#4c78a8"/><path aria-label="Date: Mar 01, 2017; Number of records: 71749" role="graphics-symbol" aria-roledescription="bar" d="M105.37162162217199,146.25214285714284h5v153.74785714285716h-5Z" fill="#4c78a8"/><path aria-label="Date: Apr 01, 2017; Number of records: 61783" role="graphics-symbol" aria-roledescription="bar" d="M108.13267813322621,167.60785714285714h5v132.39214285714286h-5Z" fill="#4c78a8"/><path aria-label="Date: May 01, 2017; Number of records: 82399" role="graphics-symbol" aria-roledescription="bar" d="M110.80466830521418,123.43071428571427h5v176.56928571428574h-5Z" fill="#4c78a8"/><path aria-label="Date: Jun 01, 2017; Number of records: 74053" role="graphics-symbol" aria-roledescription="bar" d="M113.5657248162684,141.315h5v158.685h-5Z" fill="#4c78a8"/><path aria-label="Date: Jul 01, 2017; Number of records: 62684" role="graphics-symbol" aria-roledescription="bar" d="M116.23771498825634,165.67714285714283h5v134.32285714285717h-5Z" fill="#4c78a8"/><path aria-label="Date: Aug 01, 2017; Number of records: 83543" role="graphics-symbol" aria-roledescription="bar" d="M118.99877149931056,120.97928571428572h5v179.0207142857143h-5Z" fill="#4c78a8"/><path aria-label="Date: Sep 01, 2017; Number of records: 84903" role="graphics-symbol" aria-roledescription="bar" d="M121.75982801036479,118.06499999999998h5v181.935h-5Z" fill="#4c78a8"/><path aria-label="Date: Oct 01, 2017; Number of records: 92585" role="graphics-symbol" aria-roledescription="bar" d="M124.43181818235276,101.60357142857141h5v198.3964285714286h-5Z" fill="#4c78a8"/><path aria-label="Date: Nov 01, 2017; Number of records: 94412" role="graphics-symbol" aria-roledescription="bar" d="M127.19287469340696,97.68857142857141h5v202.3114285714286h-5Z" fill="#4c78a8"/><path aria-label="Date: Dec 01, 2017; Number of records: 81771" role="graphics-symbol" aria-roledescription="bar" d="M129.86486486539494,124.77642857142857h5v175.22357142857143h-5Z" fill="#4c78a8"/><path aria-label="Date: Jan 01, 2018; Number of records: 107049" role="graphics-symbol" aria-roledescription="bar" d="M132.62592137644916,70.6092857142857h5v229.3907142857143h-5Z" fill="#4c78a8"/><path aria-label="Date: Feb 01, 2018; Number of records: 92478" role="graphics-symbol" aria-roledescription="bar" d="M135.38697788750338,101.83285714285715h5v198.16714285714284h-5Z" fill="#4c78a8"/><path aria-label="Date: Mar 01, 2018; Number of records: 101587" role="graphics-symbol" aria-roledescription="bar" d="M137.8808353813588,82.31357142857144h5v217.68642857142856h-5Z" fill="#4c78a8"/><path aria-label="Date: Apr 01, 2018; Number of records: 101924" role="graphics-symbol" aria-roledescription="bar" d="M140.641891892413,81.59142857142857h5v218.40857142857143h-5Z" fill="#4c78a8"/><path aria-label="Date: May 01, 2018; Number of records: 109878" role="graphics-symbol" aria-roledescription="bar" d="M143.31388206440096,64.54714285714284h5v235.45285714285717h-5Z" fill="#4c78a8"/><path aria-label="Date: Jun 01, 2018; Number of records: 96208" role="graphics-symbol" aria-roledescription="bar" d="M146.07493857545518,93.83999999999999h5v206.16000000000003h-5Z" fill="#4c78a8"/><path aria-label="Date: Jul 01, 2018; Number of records: 88690" role="graphics-symbol" aria-roledescription="bar" d="M148.74692874744315,109.95000000000002h5v190.04999999999998h-5Z" fill="#4c78a8"/><path aria-label="Date: Aug 01, 2018; Number of records: 112918" role="graphics-symbol" aria-roledescription="bar" d="M151.50798525849737,58.03285714285714h5v241.96714285714285h-5Z" fill="#4c78a8"/><path aria-label="Date: Sep 01, 2018; Number of records: 105563" role="graphics-symbol" aria-roledescription="bar" d="M154.2690417695516,73.79357142857141h5v226.2064285714286h-5Z" fill="#4c78a8"/><path aria-label="Date: Oct 01, 2018; Number of records: 117207" role="graphics-symbol" aria-roledescription="bar" d="M156.94103194153953,48.842142857142846h5v251.15785714285715h-5Z" fill="#4c78a8"/><path aria-label="Date: Nov 01, 2018; Number of records: 113314" role="graphics-symbol" aria-roledescription="bar" d="M159.70208845259376,57.18428571428572h5v242.81571428571428h-5Z" fill="#4c78a8"/><path aria-label="Date: Dec 01, 2018; Number of records: 92159" role="graphics-symbol" aria-roledescription="bar" d="M162.37407862458173,102.51642857142859h5v197.4835714285714h-5Z" fill="#4c78a8"/><path aria-label="Date: Jan 01, 2019; Number of records: 122278" role="graphics-symbol" aria-roledescription="bar" d="M165.13513513563595,37.97571428571429h5v262.0242857142857h-5Z" fill="#4c78a8"/><path aria-label="Date: Feb 01, 2019; Number of records: 111199" role="graphics-symbol" aria-roledescription="bar" d="M167.89619164669014,61.71642857142858h5v238.2835714285714h-5Z" fill="#4c78a8"/><path aria-label="Date: Mar 01, 2019; Number of records: 119004" role="graphics-symbol" aria-roledescription="bar" d="M170.39004914054559,44.99142857142856h5v255.00857142857143h-5Z" fill="#4c78a8"/><path aria-label="Date: Apr 01, 2019; Number of records: 116825" role="graphics-symbol" aria-roledescription="bar" d="M173.1511056515998,49.66071428571427h5v250.33928571428572h-5Z" fill="#4c78a8"/><path aria-label="Date: May 01, 2019; Number of records: 124188" role="graphics-symbol" aria-roledescription="bar" d="M175.82309582358775,33.882857142857134h5v266.1171428571429h-5Z" fill="#4c78a8"/><path aria-label="Date: Jun 01, 2019; Number of records: 106896" role="graphics-symbol" aria-roledescription="bar" d="M178.58415233464197,70.93714285714285h5v229.06285714285715h-5Z" fill="#4c78a8"/><path aria-label="Date: Jul 01, 2019; Number of records: 104480" role="graphics-symbol" aria-roledescription="bar" d="M181.25614250662994,76.1142857142857h5v223.8857142857143h-5Z" fill="#4c78a8"/><path aria-label="Date: Aug 01, 2019; Number of records: 125146" role="graphics-symbol" aria-roledescription="bar" d="M184.01719901768416,31.82999999999999h5v268.17h-5Z" fill="#4c78a8"/><path aria-label="Date: Sep 01, 2019; Number of records: 127031" role="graphics-symbol" aria-roledescription="bar" d="M186.77825552873838,27.79071428571428h5v272.2092857142857h-5Z" fill="#4c78a8"/><path aria-label="Date: Oct 01, 2019; Number of records: 130533" role="graphics-symbol" aria-roledescription="bar" d="M189.45024570072633,20.286428571428583h5v279.7135714285714h-5Z" fill="#4c78a8"/><path aria-label="Date: Nov 01, 2019; Number of records: 122819" role="graphics-symbol" aria-roledescription="bar" d="M192.21130221178055,36.81642857142856h5v263.18357142857144h-5Z" fill="#4c78a8"/><path aria-label="Date: Dec 01, 2019; Number of records: 106729" role="graphics-symbol" aria-roledescription="bar" d="M194.88329238376852,71.295h5v228.70499999999998h-5Z" fill="#4c78a8"/><path aria-label="Date: Jan 01, 2020; Number of records: 129635" role="graphics-symbol" aria-roledescription="bar" d="M197.64434889482274,22.210714285714296h5v277.7892857142857h-5Z" fill="#4c78a8"/><path aria-label="Date: Feb 01, 2020; Number of records: 115132" role="graphics-symbol" aria-roledescription="bar" d="M200.40540540587696,53.288571428571444h5v246.71142857142854h-5Z" fill="#4c78a8"/><path aria-label="Date: Mar 01, 2020; Number of records: 112476" role="graphics-symbol" aria-roledescription="bar" d="M202.98832923879866,58.98h5v241.02h-5Z" fill="#4c78a8"/><path aria-label="Date: Apr 01, 2020; Number of records: 97732" role="graphics-symbol" aria-roledescription="bar" d="M205.74938574985288,90.57428571428571h5v209.4257142857143h-5Z" fill="#4c78a8"/><path aria-label="Date: May 01, 2020; Number of records: 110974" role="graphics-symbol" aria-roledescription="bar" d="M208.42137592184082,62.19857142857143h5v237.80142857142857h-5Z" fill="#4c78a8"/><path aria-label="Date: Jun 01, 2020; Number of records: 115217" role="graphics-symbol" aria-roledescription="bar" d="M211.18243243289504,53.106428571428566h5v246.89357142857142h-5Z" fill="#4c78a8"/><path aria-label="Date: Jul 01, 2020; Number of records: 104243" role="graphics-symbol" aria-roledescription="bar" d="M213.854422604883,76.62214285714285h5v223.37785714285715h-5Z" fill="#4c78a8"/><path aria-label="Date: Aug 01, 2020; Number of records: 120001" role="graphics-symbol" aria-roledescription="bar" d="M216.6154791159372,42.85500000000001h5v257.145h-5Z" fill="#4c78a8"/><path aria-label="Date: Sep 01, 2020; Number of records: 129013" role="graphics-symbol" aria-roledescription="bar" d="M219.37653562699145,23.54357142857142h5v276.4564285714286h-5Z" fill="#4c78a8"/><path aria-label="Date: Oct 01, 2020; Number of records: 126376" role="graphics-symbol" aria-roledescription="bar" d="M222.0485257989794,29.194285714285705h5v270.8057142857143h-5Z" fill="#4c78a8"/><path aria-label="Date: Nov 01, 2020; Number of records: 124387" role="graphics-symbol" aria-roledescription="bar" d="M224.80958231003362,33.45642857142857h5v266.54357142857145h-5Z" fill="#4c78a8"/><path aria-label="Date: Dec 01, 2020; Number of records: 116008" role="graphics-symbol" aria-roledescription="bar" d="M227.4815724820216,51.41142857142859h5v248.5885714285714h-5Z" fill="#4c78a8"/><path aria-label="Date: Jan 01, 2021; Number of records: 120002" role="graphics-symbol" aria-roledescription="bar" d="M230.24262899307578,42.85285714285715h5v257.14714285714285h-5Z" fill="#4c78a8"/><path aria-label="Date: Feb 01, 2021; Number of records: 118367" role="graphics-symbol" aria-roledescription="bar" d="M233.00368550413003,46.35642857142857h5v253.64357142857142h-5Z" fill="#4c78a8"/><path aria-label="Date: Mar 01, 2021; Number of records: 133274" role="graphics-symbol" aria-roledescription="bar" d="M235.49754299798545,14.412857142857149h5v285.58714285714285h-5Z" fill="#4c78a8"/><path aria-label="Date: Apr 01, 2021; Number of records: 123944" role="graphics-symbol" aria-roledescription="bar" d="M238.25859950903967,34.40571428571428h5v265.5942857142857h-5Z" fill="#4c78a8"/><path aria-label="Date: May 01, 2021; Number of records: 128215" role="graphics-symbol" aria-roledescription="bar" d="M240.9305896810276,25.25357142857143h5v274.74642857142857h-5Z" fill="#4c78a8"/><path aria-label="Date: Jun 01, 2021; Number of records: 119893" role="graphics-symbol" aria-roledescription="bar" d="M243.69164619208186,43.08642857142857h5v256.91357142857146h-5Z" fill="#4c78a8"/><path aria-label="Date: Jul 01, 2021; Number of records: 101978" role="graphics-symbol" aria-roledescription="bar" d="M246.3636363640698,81.47571428571429h5v218.52428571428572h-5Z" fill="#4c78a8"/><path aria-label="Date: Aug 01, 2021; Number of records: 130721" role="graphics-symbol" aria-roledescription="bar" d="M249.124692875124,19.883571428571422h5v280.11642857142857h-5Z" fill="#4c78a8"/><path aria-label="Date: Sep 01, 2021; Number of records: 136786" role="graphics-symbol" aria-roledescription="bar" d="M251.88574938617825,6.8871428571428694h5v293.11285714285714h-5Z" fill="#4c78a8"/><path aria-label="Date: Oct 01, 2021; Number of records: 131106" role="graphics-symbol" aria-roledescription="bar" d="M254.5577395581662,19.058571428571412h5v280.94142857142856h-5Z" fill="#4c78a8"/><path aria-label="Date: Nov 01, 2021; Number of records: 138838" role="graphics-symbol" aria-roledescription="bar" d="M257.3187960692204,2.489999999999992h5v297.51h-5Z" fill="#4c78a8"/><path aria-label="Date: Dec 01, 2021; Number of records: 119897" role="graphics-symbol" aria-roledescription="bar" d="M259.99078624120835,43.077857142857155h5v256.92214285714283h-5Z" fill="#4c78a8"/><path aria-label="Date: Jan 01, 2022; Number of records: 123365" role="graphics-symbol" aria-roledescription="bar" d="M262.7518427522626,35.64642857142856h5v264.35357142857146h-5Z" fill="#4c78a8"/><path aria-label="Date: Feb 01, 2022; Number of records: 118872" role="graphics-symbol" aria-roledescription="bar" d="M265.5128992633168,45.2742857142857h5v254.7257142857143h-5Z" fill="#4c78a8"/><path aria-label="Date: Mar 01, 2022; Number of records: 134167" role="graphics-symbol" aria-roledescription="bar" d="M268.00675675717224,12.499285714285712h5v287.5007142857143h-5Z" fill="#4c78a8"/><path aria-label="Date: Apr 01, 2022; Number of records: 102654" role="graphics-symbol" aria-roledescription="bar" d="M270.76781326822646,80.02714285714283h5v219.97285714285715h-5Z" fill="#4c78a8"/><path aria-label="Date: May 01, 2022; Number of records: 130887" role="graphics-symbol" aria-roledescription="bar" d="M273.4398034402144,19.52785714285715h5v280.47214285714284h-5Z" fill="#4c78a8"/><path aria-label="Date: Jun 01, 2022; Number of records: 114442" role="graphics-symbol" aria-roledescription="bar" d="M276.2008599512686,54.76714285714286h5v245.23285714285714h-5Z" fill="#4c78a8"/><path aria-label="Date: Jul 01, 2022; Number of records: 95368" role="graphics-symbol" aria-roledescription="bar" d="M278.87285012325657,95.63999999999999h5v204.36h-5Z" fill="#4c78a8"/><path aria-label="Date: Aug 01, 2022; Number of records: 128482" role="graphics-symbol" aria-roledescription="bar" d="M281.6339066343108,24.681428571428565h5v275.31857142857143h-5Z" fill="#4c78a8"/><path aria-label="Date: Sep 01, 2022; Number of records: 127321" role="graphics-symbol" aria-roledescription="bar" d="M284.394963145365,27.169285714285728h5v272.8307142857143h-5Z" fill="#4c78a8"/><path aria-label="Date: Oct 01, 2022; Number of records: 123054" role="graphics-symbol" aria-roledescription="bar" d="M287.06695331735295,36.31285714285713h5v263.6871428571429h-5Z" fill="#4c78a8"/><path aria-label="Date: Nov 01, 2022; Number of records: 127033" role="graphics-symbol" aria-roledescription="bar" d="M289.82800982840723,27.786428571428555h5v272.21357142857147h-5Z" fill="#4c78a8"/><path aria-label="Date: Dec 01, 2022; Number of records: 109144" role="graphics-symbol" aria-roledescription="bar" d="M292.5000000003952,66.12000000000002h5v233.88h-5Z" fill="#4c78a8"/></g></g><path class="foreground" aria-hidden="true" d="" display="none"/></g></g></g></svg>