<svg xmlns="http://www.w3.org/2000/svg" xmlns:xlink="http://www.w3.org/1999/xlink" version="1.1" class="marks" width="367" height="347" viewBox="0 0 367 347"><rect width="367" height="347" fill="white"/><g fill="none" stroke-miterlimit="10" transform="translate(61,10)"><g class="mark-group role-frame root" role="graphics-object" aria-roledescription="group mark container"><g transform="translate(0,0)"><path class="background" aria-hidden="true" d="M0.5,0.5h300v300h-300Z" stroke="#ddd"/><g><g class="mark-group role-axis" aria-hidden="true"><g transform="translate(0.5,300.5)"><path class="background" aria-hidden="true" d="M0,0h0v0h0Z" pointer-events="none"/><g><g class="mark-rule role-axis-grid" pointer-events="none"><line transform="translate(0,-300)" x2="0" y2="300" stroke="#ddd" stroke-width="1" opacity="1"/><line transform="translate(27,-300)" x2="0" y2="300" stroke="#ddd" stroke-width="1" opacity="1"/><line transform="translate(55,-300)" x2="0" y2="300" stroke="#ddd" stroke-width="1" opacity="1"/><line transform="translate(82,-300)" x2="0" y2="300" stroke="#ddd" stroke-width="1" opacity="1"/><line transform="translate(109,-300)" x2="0" y2="300" stroke="#ddd" stroke-width="1" opacity="1"/><line transform="translate(136,-300)" x2="0" y2="300" stroke="#ddd" stroke-width="1" opacity="1"/><line transform="translate(164,-300)" x2="0" y2="300" stroke="#ddd" stroke-width="1" opacity="1"/><line transform="translate(191,-300)" x2="0" y2="300" stroke="#ddd" stroke-width="1" opacity="1"/><line transform="translate(218,-300)" x2="0" y2="300" stroke="#ddd" stroke-width="1" opacity="1"/><line transform="translate(245,-300)" x2="0" y2="300" stroke="#ddd" stroke-width="1" opacity="1"/><line transform="translate(273,-300)" x2="0" y2="300" stroke="#ddd" stroke-width="1" opacity="1"/><line transform="translate(300,-300)" x2="0" y2="300" stroke="#ddd" stroke-width="1" opacity="1"/></g></g><path class="foreground" aria-hidden="true" d="" pointer-events="none" display="none"/></g></g><g class="mark-group role-axis" aria-hidden="true"><g transform="translate(0.5,0.5)"><path class="background" aria-hidden="true" d="M0,0h0v0h0Z" pointer-events="none"/><g><g class="mark-rule role-axis-grid" pointer-events="none"><line transform="translate(0,300)" x2="300" y2="0" stroke="#ddd" stroke-width="1" opacity="1"/><line transform="translate(0,267)" x2="300" y2="0" stroke="#ddd" stroke-width="1" opacity="1"/><line transform="translate(0,233)" x2="300" y2="0" stroke="#ddd" stroke-width="1" opacity="1"/><line transform="translate(0,200)" x2="300" y2="0" stroke="#ddd" stroke-width="1" opacity="1"/><line transform="translate(0,167)" x2="300" y2="0" stroke="#ddd" stroke-width="1" opacity="1"/><line transform="translate(0,133)" x2="300" y2="0" stroke="#ddd" stroke-width="1" opacity="1"/><line transform="translate(0,100)" x2="300" y2="0" stroke="#ddd" stroke-width="1" opacity="1"/><line transform="translate(0,67)" x2="300" y2="0" stroke="#ddd" stroke-width="1" opacity="1"/><line transform="translate(0,33)" x2="300" y2="0" stroke="#ddd" stroke-width="1" opacity="1"/><line transform="translate(0,0)" x2="300" y2="0" stroke="#ddd" stroke-width="1" opacity="1"/></g></g><path class="foreground" aria-hidden="true" d="" pointer-events="none" display="none"/></g></g><g class="mark-group role-axis" role="graphics-symbol" aria-roledescription="axis" aria-label="X-axis titled 'Number of measurements' for a linear scale with values from −20 to 200"><g transform="translate(0.5,300.5)"><path class="background" aria-hidden="true" d="M0,0h0v0h0Z" pointer-events="none"/><g><g class="mark-rule role-axis-tick" pointer-events="none"><line transform="translate(0,0)" x2="0" y2="5" stroke="#888" stroke-width="1" opacity="1"/><line transform="translate(27,0)" x2="0" y2="5" stroke="#888" stroke-width="1" opacity="1"/><line transform="translate(55,0)" x2="0" y2="5" stroke="#888" stroke-width="1" opacity="1"/><line transform="translate(82,0)" x2="0" y2="5" stroke="#888" stroke-width="1" opacity="1"/><line transform="translate(109,0)" x2="0" y2="5" stroke="#888" stroke-width="1" opacity="1"/><line transform="translate(136,0)" x2="0" y2="5" stroke="#888" stroke-width="1" opacity="1"/><line transform="translate(164,0)" x2="0" y2="5" stroke="#888" stroke-width="1" opacity="1"/><line transform="translate(191,0)" x2="0" y2="5" stroke="#888" stroke-width="1" opacity="1"/><line transform="translate(218,0)" x2="0" y2="5" stroke="#888" stroke-width="1" opacity="1"/><line transform="translate(245,0)" x2="0" y2="5" stroke="#888" stroke-width="1" opacity="1"/><line transform="translate(273,0)" x2="0" y2="5" stroke="#888" stroke-width="1" opacity="1"/><line transform="translate(300,0)" x2="0" y2="5" stroke="#888" stroke-width="1" opacity="1"/></g><g class="mark-text role-axis-label" pointer-events="none"><text text-anchor="start" transform="translate(0,15)" font-family="sans-serif" font-size="10px" fill="#000" opacity="1">−20</text><text text-anchor="middle" transform="translate(27.272727272727273,15)" font-family="sans-serif" font-size="10px" fill="#000" opacity="1">0</text><text text-anchor="middle" transform="translate(54.54545454545455,15)" font-family="sans-serif" font-size="10px" fill="#000" opacity="1">20</text><text text-anchor="middle" transform="translate(81.81818181818181,15)" font-family="sans-serif" font-size="10px" fill="#000" opacity="1">40</text><text text-anchor="middle" transform="translate(109.0909090909091,15)" font-family="sans-serif" font-size="10px" fill="#000" opacity="1">60</text><text text-anchor="middle" transform="translate(136.36363636363635,15)" font-family="sans-serif" font-size="10px" fill="#000" opacity="1">80</text><text text-anchor="middle" transform="translate(163.63636363636363,15)" font-family="sans-serif" font-size="10px" fill="#000" opacity="1">100</text><text text-anchor="middle" transform="translate(190.9090909090909,15)" font-family="sans-serif" font-size="10px" fill="#000" opacity="1">120</text><text text-anchor="middle" transform="translate(218.1818181818182,15)" font-family="sans-serif" font-size="10px" fill="#000" opacity="1">140</text><text text-anchor="middle" transform="translate(245.45454545454547,15)" font-family="sans-serif" font-size="10px" fill="#000" opacity="1">160</text><text text-anchor="middle" transform="translate(272.7272727272727,15)" font-family="sans-serif" font-size="10px" fill="#000" opacity="1">180</text><text text-anchor="end" transform="translate(300,15)" font-family="sans-serif" font-size="10px" fill="#000" opacity="1">200</text></g><g class="mark-rule role-axis-domain" pointer-events="none"><line transform="translate(0,0)" x2="300" y2="0" stroke="#888" stroke-width="1" opacity="1"/></g><g class="mark-text role-axis-title" pointer-events="none"><text text-anchor="middle" transform="translate(150,30)" font-family="sans-serif" font-size="11px" font-weight="bold" fill="#000" opacity="1">Number of measurements</text></g></g><path class="foreground" aria-hidden="true" d="" pointer-events="none" display="none"/></g></g><g class="mark-group role-axis" role="graphics-symbol" aria-roledescription="axis" aria-label="Y-axis titled 'Number of people' for a linear scale with values from 0 to 900,000"><g transform="translate(0.5,0.5)"><path class="background" aria-hidden="true" d="M0,0h0v0h0Z" pointer-events="none"/><g><g class="mark-rule role-axis-tick" pointer-events="none"><line transform="translate(0,300)" x2="-5" y2="0" stroke="#888" stroke-width="1" opacity="1"/><line transform="translate(0,267)" x2="-5" y2="0" stroke="#888" stroke-width="1" opacity="1"/><line transform="translate(0,233)" x2="-5" y2="0" stroke="#888" stroke-width="1" opacity="1"/><line transform="translate(0,200)" x2="-5" y2="0" stroke="#888" stroke-width="1" opacity="1"/><line transform="translate(0,167)" x2="-5" y2="0" stroke="#888" stroke-width="1" opacity="1"/><line transform="translate(0,133)" x2="-5" y2="0" stroke="#888" stroke-width="1" opacity="1"/><line transform="translate(0,100)" x2="-5" y2="0" stroke="#888" stroke-width="1" opacity="1"/><line transform="translate(0,67)" x2="-5" y2="0" stroke="#888" stroke-width="1" opacity="1"/><line transform="translate(0,33)" x2="-5" y2="0" stroke="#888" stroke-width="1" opacity="1"/><line transform="translate(0,0)" x2="-5" y2="0" stroke="#888" stroke-width="1" opacity="1"/></g><g class="mark-text role-axis-label" pointer-events="none"><text text-anchor="end" transform="translate(-7,303)" font-family="sans-serif" font-size="10px" fill="#000" opacity="1">0</text><text text-anchor="end" transform="translate(-7,269.66666666666663)" font-family="sans-serif" font-size="10px" fill="#000" opacity="1">100,000</text><text text-anchor="end" transform="translate(-7,236.33333333333334)" font-family="sans-serif" font-size="10px" fill="#000" opacity="1">200,000</text><text text-anchor="end" transform="translate(-7,203.00000000000003)" font-family="sans-serif" font-size="10px" fill="#000" opacity="1">300,000</text><text text-anchor="end" transform="translate(-7,169.66666666666669)" font-family="sans-serif" font-size="10px" fill="#000" opacity="1">400,000</text><text text-anchor="end" transform="translate(-7,136.33333333333331)" font-family="sans-serif" font-size="10px" fill="#000" opacity="1">500,000</text><text text-anchor="end" transform="translate(-7,103.00000000000001)" font-family="sans-serif" font-size="10px" fill="#000" opacity="1">600,000</text><text text-anchor="end" transform="translate(-7,69.66666666666666)" font-family="sans-serif" font-size="10px" fill="#000" opacity="1">700,000</text><text text-anchor="end" transform="translate(-7,36.33333333333335)" font-family="sans-serif" font-size="10px" fill="#000" opacity="1">800,000</text><text text-anchor="end" transform="translate(-7,3)" font-family="sans-serif" font-size="10px" fill="#000" opacity="1">900,000</text></g><g class="mark-rule role-axis-domain" pointer-events="none"><line transform="translate(0,300)" x2="0" y2="-300" stroke="#888" stroke-width="1" opacity="1"/></g><g class="mark-text role-axis-title" pointer-events="none"><text text-anchor="middle" transform="translate(-45,150) rotate(-90) translate(0,-2)" font-family="sans-serif" font-size="11px" font-weight="bold" fill="#000" opacity="1">Number of people</text></g></g><path class="foreground" aria-hidden="true" d="" pointer-events="none" display="none"/></g></g><g class="mark-rect role-mark marks" role="graphics-object" aria-roledescription="rect mark container"><path aria-label="Number of measurements: 150; Number of people: 5" role="graphics-symbol" aria-roledescription="bar" d="M229.3181818181818,299.99833333333333h5v0.0016666666666651508h-5Z" fill="#4c78a8"/><path aria-label="Number of measurements: 163; Number of people: 5" role="graphics-symbol" aria-roledescription="bar" d="M247.04545454545453,299.99833333333333h5v0.0016666666666651508h-5Z" fill="#4c78a8"/><path aria-label="Number of measurements: 164; Number of people: 5" role="graphics-symbol" aria-roledescription="bar" d="M248.4090909090909,299.99833333333333h5v0.0016666666666651508h-5Z" fill="#4c78a8"/><path aria-label="Number of measurements: 168; Number of people: 5" role="graphics-symbol" aria-roledescription="bar" d="M253.86363636363637,299.99833333333333h5v0.0016666666666651508h-5Z" fill="#4c78a8"/><path aria-label="Number of measurements: 169; Number of people: 5" role="graphics-symbol" aria-roledescription="bar" d="M255.22727272727275,299.99833333333333h5v0.0016666666666651508h-5Z" fill="#4c78a8"/><path aria-label="Number of measurements: 173; Number of people: 5" role="graphics-symbol" aria-roledescription="bar" d="M260.6818181818182,299.99833333333333h5v0.0016666666666651508h-5Z" fill="#4c78a8"/><path aria-label="Number of measurements: 176; Number of people: 5" role="graphics-symbol" aria-roledescription="bar" d="M264.77272727272725,299.99833333333333h5v0.0016666666666651508h-5Z" fill="#4c78a8"/><path aria-label="Number of measurements: 135; Number of people: 6" role="graphics-symbol" aria-roledescription="bar" d="M208.86363636363637,299.998h5v0.0020000000000095497h-5Z" fill="#4c78a8"/><path aria-label="Number of measurements: 138; Number of people: 6" role="graphics-symbol" aria-roledescription="bar" d="M212.95454545454544,299.998h5v0.0020000000000095497h-5Z" fill="#4c78a8"/><path aria-label="Number of measurements: 140; Number of people: 6" role="graphics-symbol" aria-roledescription="bar" d="M215.6818181818182,299.998h5v0.0020000000000095497h-5Z" fill="#4c78a8"/><path aria-label="Number of measurements: 147; Number of people: 6" role="graphics-symbol" aria-roledescription="bar" d="M225.22727272727272,299.998h5v0.0020000000000095497h-5Z" fill="#4c78a8"/><path aria-label="Number of measurements: 149; Number of people: 6" role="graphics-symbol" aria-roledescription="bar" d="M227.95454545454547,299.998h5v0.0020000000000095497h-5Z" fill="#4c78a8"/><path aria-label="Number of measurements: 167; Number of people: 6" role="graphics-symbol" aria-roledescription="bar" d="M252.5,299.998h5v0.0020000000000095497h-5Z" fill="#4c78a8"/><path aria-label="Number of measurements: 154; Number of people: 7" role="graphics-symbol" aria-roledescription="bar" d="M234.77272727272728,299.99766666666665h5v0.0023333333333539485h-5Z" fill="#4c78a8"/><path aria-label="Number of measurements: 139; Number of people: 8" role="graphics-symbol" aria-roledescription="bar" d="M214.31818181818184,299.99733333333336h5v0.002666666666641504h-5Z" fill="#4c78a8"/><path aria-label="Number of measurements: 143; Number of people: 8" role="graphics-symbol" aria-roledescription="bar" d="M219.77272727272728,299.99733333333336h5v0.002666666666641504h-5Z" fill="#4c78a8"/><path aria-label="Number of measurements: 146; Number of people: 8" role="graphics-symbol" aria-roledescription="bar" d="M223.86363636363635,299.99733333333336h5v0.002666666666641504h-5Z" fill="#4c78a8"/><path aria-label="Number of measurements: 179; Number of people: 8" role="graphics-symbol" aria-roledescription="bar" d="M268.8636363636364,299.99733333333336h5v0.002666666666641504h-5Z" fill="#4c78a8"/><path aria-label="Number of measurements: 136; Number of people: 9" role="graphics-symbol" aria-roledescription="bar" d="M210.22727272727272,299.997h5v0.002999999999985903h-5Z" fill="#4c78a8"/><path aria-label="Number of measurements: 148; Number of people: 9" role="graphics-symbol" aria-roledescription="bar" d="M226.5909090909091,299.997h5v0.002999999999985903h-5Z" fill="#4c78a8"/><path aria-label="Number of measurements: 155; Number of people: 9" role="graphics-symbol" aria-roledescription="bar" d="M236.13636363636363,299.997h5v0.002999999999985903h-5Z" fill="#4c78a8"/><path aria-label="Number of measurements: 115; Number of people: 10" role="graphics-symbol" aria-roledescription="bar" d="M181.5909090909091,299.99666666666667h5v0.0033333333333303017h-5Z" fill="#4c78a8"/><path aria-label="Number of measurements: 126; Number of people: 10" role="graphics-symbol" aria-roledescription="bar" d="M196.5909090909091,299.99666666666667h5v0.0033333333333303017h-5Z" fill="#4c78a8"/><path aria-label="Number of measurements: 128; Number of people: 10" role="graphics-symbol" aria-roledescription="bar" d="M199.3181818181818,299.99666666666667h5v0.0033333333333303017h-5Z" fill="#4c78a8"/><path aria-label="Number of measurements: 134; Number of people: 10" role="graphics-symbol" aria-roledescription="bar" d="M207.5,299.99666666666667h5v0.0033333333333303017h-5Z" fill="#4c78a8"/><path aria-label="Number of measurements: 142; Number of people: 10" role="graphics-symbol" aria-roledescription="bar" d="M218.4090909090909,299.99666666666667h5v0.0033333333333303017h-5Z" fill="#4c78a8"/><path aria-label="Number of measurements: 144; Number of people: 10" role="graphics-symbol" aria-roledescription="bar" d="M221.13636363636365,299.99666666666667h5v0.0033333333333303017h-5Z" fill="#4c78a8"/><path aria-label="Number of measurements: 145; Number of people: 10" role="graphics-symbol" aria-roledescription="bar" d="M222.5,299.99666666666667h5v0.0033333333333303017h-5Z" fill="#4c78a8"/><path aria-label="Number of measurements: 117; Number of people: 11" role="graphics-symbol" aria-roledescription="bar" d="M184.3181818181818,299.9963333333333h5v0.0036666666666747005h-5Z" fill="#4c78a8"/><path aria-label="Number of measurements: 132; Number of people: 11" role="graphics-symbol" aria-roledescription="bar" d="M204.77272727272728,299.9963333333333h5v0.0036666666666747005h-5Z" fill="#4c78a8"/><path aria-label="Number of measurements: 130; Number of people: 12" role="graphics-symbol" aria-roledescription="bar" d="M202.04545454545453,299.996h5v0.004000000000019099h-5Z" fill="#4c78a8"/><path aria-label="Number of measurements: 122; Number of people: 13" role="graphics-symbol" aria-roledescription="bar" d="M191.13636363636365,299.9956666666667h5v0.004333333333306655h-5Z" fill="#4c78a8"/><path aria-label="Number of measurements: 123; Number of people: 13" role="graphics-symbol" aria-roledescription="bar" d="M192.5,299.9956666666667h5v0.004333333333306655h-5Z" fill="#4c78a8"/><path aria-label="Number of measurements: 137; Number of people: 13" role="graphics-symbol" aria-roledescription="bar" d="M211.5909090909091,299.9956666666667h5v0.004333333333306655h-5Z" fill="#4c78a8"/><path aria-label="Number of measurements: 141; Number of people: 13" role="graphics-symbol" aria-roledescription="bar" d="M217.04545454545453,299.9956666666667h5v0.004333333333306655h-5Z" fill="#4c78a8"/><path aria-label="Number of measurements: 127; Number of people: 14" role="graphics-symbol" aria-roledescription="bar" d="M197.95454545454547,299.99533333333335h5v0.004666666666651054h-5Z" fill="#4c78a8"/><path aria-label="Number of measurements: 120; Number of people: 15" role="graphics-symbol" aria-roledescription="bar" d="M188.4090909090909,299.995h5v0.0049999999999954525h-5Z" fill="#4c78a8"/><path aria-label="Number of measurements: 121; Number of people: 15" role="graphics-symbol" aria-roledescription="bar" d="M189.77272727272725,299.995h5v0.0049999999999954525h-5Z" fill="#4c78a8"/><path aria-label="Number of measurements: 125; Number of people: 15" role="graphics-symbol" aria-roledescription="bar" d="M195.22727272727272,299.995h5v0.0049999999999954525h-5Z" fill="#4c78a8"/><path aria-label="Number of measurements: 131; Number of people: 15" role="graphics-symbol" aria-roledescription="bar" d="M203.4090909090909,299.995h5v0.0049999999999954525h-5Z" fill="#4c78a8"/><path aria-label="Number of measurements: 133; Number of people: 15" role="graphics-symbol" aria-roledescription="bar" d="M206.13636363636363,299.995h5v0.0049999999999954525h-5Z" fill="#4c78a8"/><path aria-label="Number of measurements: 112; Number of people: 16" role="graphics-symbol" aria-roledescription="bar" d="M177.5,299.99466666666666h5v0.005333333333339851h-5Z" fill="#4c78a8"/><path aria-label="Number of measurements: 118; Number of people: 16" role="graphics-symbol" aria-roledescription="bar" d="M185.6818181818182,299.99466666666666h5v0.005333333333339851h-5Z" fill="#4c78a8"/><path aria-label="Number of measurements: 116; Number of people: 18" role="graphics-symbol" aria-roledescription="bar" d="M182.95454545454544,299.99399999999997h5v0.006000000000028649h-5Z" fill="#4c78a8"/><path aria-label="Number of measurements: 124; Number of people: 18" role="graphics-symbol" aria-roledescription="bar" d="M193.86363636363637,299.99399999999997h5v0.006000000000028649h-5Z" fill="#4c78a8"/><path aria-label="Number of measurements: 129; Number of people: 19" role="graphics-symbol" aria-roledescription="bar" d="M200.6818181818182,299.9936666666667h5v0.0063333333333162045h-5Z" fill="#4c78a8"/><path aria-label="Number of measurements: 107; Number of people: 21" role="graphics-symbol" aria-roledescription="bar" d="M170.6818181818182,299.993h5v0.007000000000005002h-5Z" fill="#4c78a8"/><path aria-label="Number of measurements: 114; Number of people: 23" role="graphics-symbol" aria-roledescription="bar" d="M180.22727272727275,299.99233333333336h5v0.0076666666666369565h-5Z" fill="#4c78a8"/><path aria-label="Number of measurements: 104; Number of people: 24" role="graphics-symbol" aria-roledescription="bar" d="M166.5909090909091,299.992h5v0.007999999999981355h-5Z" fill="#4c78a8"/><path aria-label="Number of measurements: 110; Number of people: 24" role="graphics-symbol" aria-roledescription="bar" d="M174.77272727272728,299.992h5v0.007999999999981355h-5Z" fill="#4c78a8"/><path aria-label="Number of measurements: 119; Number of people: 25" role="graphics-symbol" aria-roledescription="bar" d="M187.04545454545456,299.9916666666667h5v0.008333333333325754h-5Z" fill="#4c78a8"/><path aria-label="Number of measurements: 113; Number of people: 27" role="graphics-symbol" aria-roledescription="bar" d="M178.86363636363635,299.991h5v0.009000000000014552h-5Z" fill="#4c78a8"/><path aria-label="Number of measurements: 103; Number of people: 31" role="graphics-symbol" aria-roledescription="bar" d="M165.22727272727272,299.98966666666666h5v0.010333333333335304h-5Z" fill="#4c78a8"/><path aria-label="Number of measurements: 106; Number of people: 31" role="graphics-symbol" aria-roledescription="bar" d="M169.3181818181818,299.98966666666666h5v0.010333333333335304h-5Z" fill="#4c78a8"/><path aria-label="Number of measurements: 102; Number of people: 32" role="graphics-symbol" aria-roledescription="bar" d="M163.86363636363637,299.9893333333333h5v0.010666666666679703h-5Z" fill="#4c78a8"/><path aria-label="Number of measurements: 105; Number of people: 32" role="graphics-symbol" aria-roledescription="bar" d="M167.95454545454547,299.9893333333333h5v0.010666666666679703h-5Z" fill="#4c78a8"/><path aria-label="Number of measurements: 111; Number of people: 32" role="graphics-symbol" aria-roledescription="bar" d="M176.13636363636363,299.9893333333333h5v0.010666666666679703h-5Z" fill="#4c78a8"/><path aria-label="Number of measurements: 101; Number of people: 33" role="graphics-symbol" aria-roledescription="bar" d="M162.5,299.989h5v0.011000000000024102h-5Z" fill="#4c78a8"/><path aria-label="Number of measurements: 109; Number of people: 34" role="graphics-symbol" aria-roledescription="bar" d="M173.4090909090909,299.98866666666663h5v0.0113333333333685h-5Z" fill="#4c78a8"/><path aria-label="Number of measurements: 100; Number of people: 35" role="graphics-symbol" aria-roledescription="bar" d="M161.13636363636363,299.98833333333334h5v0.011666666666656056h-5Z" fill="#4c78a8"/><path aria-label="Number of measurements: 108; Number of people: 35" role="graphics-symbol" aria-roledescription="bar" d="M172.04545454545453,299.98833333333334h5v0.011666666666656056h-5Z" fill="#4c78a8"/><path aria-label="Number of measurements: 96; Number of people: 46" role="graphics-symbol" aria-roledescription="bar" d="M155.68181818181816,299.98466666666667h5v0.015333333333330756h-5Z" fill="#4c78a8"/><path aria-label="Number of measurements: 94; Number of people: 47" role="graphics-symbol" aria-roledescription="bar" d="M152.95454545454547,299.9843333333333h5v0.015666666666675155h-5Z" fill="#4c78a8"/><path aria-label="Number of measurements: 99; Number of people: 47" role="graphics-symbol" aria-roledescription="bar" d="M159.77272727272728,299.9843333333333h5v0.015666666666675155h-5Z" fill="#4c78a8"/><path aria-label="Number of measurements: 92; Number of people: 49" role="graphics-symbol" aria-roledescription="bar" d="M150.22727272727272,299.98366666666664h5v0.016333333333363953h-5Z" fill="#4c78a8"/><path aria-label="Number of measurements: 98; Number of people: 49" role="graphics-symbol" aria-roledescription="bar" d="M158.4090909090909,299.98366666666664h5v0.016333333333363953h-5Z" fill="#4c78a8"/><path aria-label="Number of measurements: 97; Number of people: 50" role="graphics-symbol" aria-roledescription="bar" d="M157.04545454545456,299.98333333333335h5v0.01666666666665151h-5Z" fill="#4c78a8"/><path aria-label="Number of measurements: 93; Number of people: 55" role="graphics-symbol" aria-roledescription="bar" d="M151.5909090909091,299.9816666666667h5v0.01833333333331666h-5Z" fill="#4c78a8"/><path aria-label="Number of measurements: 89; Number of people: 61" role="graphics-symbol" aria-roledescription="bar" d="M146.13636363636365,299.9796666666667h5v0.02033333333332621h-5Z" fill="#4c78a8"/><path aria-label="Number of measurements: 88; Number of people: 62" role="graphics-symbol" aria-roledescription="bar" d="M144.77272727272728,299.97933333333333h5v0.020666666666670608h-5Z" fill="#4c78a8"/><path aria-label="Number of measurements: 91; Number of people: 62" role="graphics-symbol" aria-roledescription="bar" d="M148.86363636363635,299.97933333333333h5v0.020666666666670608h-5Z" fill="#4c78a8"/><path aria-label="Number of measurements: 95; Number of people: 62" role="graphics-symbol" aria-roledescription="bar" d="M154.3181818181818,299.97933333333333h5v0.020666666666670608h-5Z" fill="#4c78a8"/><path aria-label="Number of measurements: 87; Number of people: 63" role="graphics-symbol" aria-roledescription="bar" d="M143.4090909090909,299.979h5v0.021000000000015007h-5Z" fill="#4c78a8"/><path aria-label="Number of measurements: 86; Number of people: 69" role="graphics-symbol" aria-roledescription="bar" d="M142.04545454545453,299.97700000000003h5v0.022999999999967713h-5Z" fill="#4c78a8"/><path aria-label="Number of measurements: 90; Number of people: 71" role="graphics-symbol" aria-roledescription="bar" d="M147.5,299.97633333333334h5v0.02366666666665651h-5Z" fill="#4c78a8"/><path aria-label="Number of measurements: 85; Number of people: 74" role="graphics-symbol" aria-roledescription="bar" d="M140.6818181818182,299.9753333333333h5v0.024666666666689707h-5Z" fill="#4c78a8"/><path aria-label="Number of measurements: 81; Number of people: 84" role="graphics-symbol" aria-roledescription="bar" d="M135.22727272727272,299.97200000000004h5v0.027999999999963165h-5Z" fill="#4c78a8"/><path aria-label="Number of measurements: 80; Number of people: 86" role="graphics-symbol" aria-roledescription="bar" d="M133.86363636363635,299.97133333333335h5v0.028666666666651963h-5Z" fill="#4c78a8"/><path aria-label="Number of measurements: 84; Number of people: 86" role="graphics-symbol" aria-roledescription="bar" d="M139.3181818181818,299.97133333333335h5v0.028666666666651963h-5Z" fill="#4c78a8"/><path aria-label="Number of measurements: 83; Number of people: 91" role="graphics-symbol" aria-roledescription="bar" d="M137.95454545454547,299.9696666666667h5v0.030333333333317114h-5Z" fill="#4c78a8"/><path aria-label="Number of measurements: 82; Number of people: 94" role="graphics-symbol" aria-roledescription="bar" d="M136.5909090909091,299.96866666666665h5v0.03133333333335031h-5Z" fill="#4c78a8"/><path aria-label="Number of measurements: 77; Number of people: 105" role="graphics-symbol" aria-roledescription="bar" d="M129.77272727272728,299.96500000000003h5v0.03499999999996817h-5Z" fill="#4c78a8"/><path aria-label="Number of measurements: 78; Number of people: 107" role="graphics-symbol" aria-roledescription="bar" d="M131.13636363636363,299.96433333333334h5v0.035666666666656965h-5Z" fill="#4c78a8"/><path aria-label="Number of measurements: 76; Number of people: 111" role="graphics-symbol" aria-roledescription="bar" d="M128.4090909090909,299.96299999999997h5v0.03700000000003456h-5Z" fill="#4c78a8"/><path aria-label="Number of measurements: 75; Number of people: 113" role="graphics-symbol" aria-roledescription="bar" d="M127.04545454545456,299.96233333333333h5v0.037666666666666515h-5Z" fill="#4c78a8"/><path aria-label="Number of measurements: 74; Number of people: 121" role="graphics-symbol" aria-roledescription="bar" d="M125.68181818181819,299.9596666666667h5v0.04033333333330802h-5Z" fill="#4c78a8"/><path aria-label="Number of measurements: 79; Number of people: 124" role="graphics-symbol" aria-roledescription="bar" d="M132.5,299.95866666666666h5v0.041333333333341216h-5Z" fill="#4c78a8"/><path aria-label="Number of measurements: 73; Number of people: 135" role="graphics-symbol" aria-roledescription="bar" d="M124.31818181818181,299.955h5v0.045000000000015916h-5Z" fill="#4c78a8"/><path aria-label="Number of measurements: 71; Number of people: 145" role="graphics-symbol" aria-roledescription="bar" d="M121.5909090909091,299.9516666666667h5v0.048333333333289374h-5Z" fill="#4c78a8"/><path aria-label="Number of measurements: 72; Number of people: 150" role="graphics-symbol" aria-roledescription="bar" d="M122.95454545454545,299.95h5v0.05000000000001137h-5Z" fill="#4c78a8"/><path aria-label="Number of measurements: 68; Number of people: 158" role="graphics-symbol" aria-roledescription="bar" d="M117.5,299.94733333333335h5v0.05266666666665287h-5Z" fill="#4c78a8"/><path aria-label="Number of measurements: 70; Number of people: 176" role="graphics-symbol" aria-roledescription="bar" d="M120.22727272727273,299.9413333333334h5v0.05866666666662468h-5Z" fill="#4c78a8"/><path aria-label="Number of measurements: 69; Number of people: 181" role="graphics-symbol" aria-roledescription="bar" d="M118.86363636363636,299.93966666666665h5v0.06033333333334667h-5Z" fill="#4c78a8"/><path aria-label="Number of measurements: 67; Number of people: 185" role="graphics-symbol" aria-roledescription="bar" d="M116.13636363636364,299.93833333333333h5v0.061666666666667425h-5Z" fill="#4c78a8"/><path aria-label="Number of measurements: 66; Number of people: 204" role="graphics-symbol" aria-roledescription="bar" d="M114.77272727272728,299.93199999999996h5v0.06800000000004047h-5Z" fill="#4c78a8"/><path aria-label="Number of measurements: 65; Number of people: 206" role="graphics-symbol" aria-roledescription="bar" d="M113.4090909090909,299.9313333333333h5v0.06866666666667243h-5Z" fill="#4c78a8"/><path aria-label="Number of measurements: 64; Number of people: 207" role="graphics-symbol" aria-roledescription="bar" d="M112.04545454545455,299.93100000000004h5v0.06899999999995998h-5Z" fill="#4c78a8"/><path aria-label="Number of measurements: 62; Number of people: 227" role="graphics-symbol" aria-roledescription="bar" d="M109.31818181818183,299.9243333333333h5v0.07566666666667743h-5Z" fill="#4c78a8"/><path aria-label="Number of measurements: 63; Number of people: 227" role="graphics-symbol" aria-roledescription="bar" d="M110.68181818181817,299.9243333333333h5v0.07566666666667743h-5Z" fill="#4c78a8"/><path aria-label="Number of measurements: 61; Number of people: 272" role="graphics-symbol" aria-roledescription="bar" d="M107.95454545454545,299.90933333333334h5v0.09066666666666379h-5Z" fill="#4c78a8"/><path aria-label="Number of measurements: 60; Number of people: 276" role="graphics-symbol" aria-roledescription="bar" d="M106.5909090909091,299.908h5v0.09199999999998454h-5Z" fill="#4c78a8"/><path aria-label="Number of measurements: 59; Number of people: 292" role="graphics-symbol" aria-roledescription="bar" d="M105.22727272727272,299.9026666666667h5v0.09733333333332439h-5Z" fill="#4c78a8"/><path aria-label="Number of measurements: 58; Number of people: 309" role="graphics-symbol" aria-roledescription="bar" d="M103.86363636363636,299.897h5v0.10300000000000864h-5Z" fill="#4c78a8"/><path aria-label="Number of measurements: 57; Number of people: 334" role="graphics-symbol" aria-roledescription="bar" d="M102.5,299.88866666666667h5v0.1113333333333344h-5Z" fill="#4c78a8"/><path aria-label="Number of measurements: 56; Number of people: 335" role="graphics-symbol" aria-roledescription="bar" d="M101.13636363636364,299.8883333333333h5v0.1116666666666788h-5Z" fill="#4c78a8"/><path aria-label="Number of measurements: 55; Number of people: 379" role="graphics-symbol" aria-roledescription="bar" d="M99.77272727272727,299.8736666666667h5v0.12633333333332075h-5Z" fill="#4c78a8"/><path aria-label="Number of measurements: 54; Number of people: 394" role="graphics-symbol" aria-roledescription="bar" d="M98.4090909090909,299.8686666666667h5v0.1313333333333162h-5Z" fill="#4c78a8"/><path aria-label="Number of measurements: 53; Number of people: 402" role="graphics-symbol" aria-roledescription="bar" d="M97.04545454545455,299.866h5v0.13400000000001455h-5Z" fill="#4c78a8"/><path aria-label="Number of measurements: 52; Number of people: 471" role="graphics-symbol" aria-roledescription="bar" d="M95.68181818181819,299.843h5v0.15699999999998226h-5Z" fill="#4c78a8"/><path aria-label="Number of measurements: 50; Number of people: 493" role="graphics-symbol" aria-roledescription="bar" d="M92.95454545454545,299.83566666666667h5v0.16433333333333167h-5Z" fill="#4c78a8"/><path aria-label="Number of measurements: 51; Number of people: 496" role="graphics-symbol" aria-roledescription="bar" d="M94.31818181818183,299.8346666666667h5v0.16533333333330802h-5Z" fill="#4c78a8"/><path aria-label="Number of measurements: 49; Number of people: 513" role="graphics-symbol" aria-roledescription="bar" d="M91.5909090909091,299.829h5v0.17099999999999227h-5Z" fill="#4c78a8"/><path aria-label="Number of measurements: 48; Number of people: 604" role="graphics-symbol" aria-roledescription="bar" d="M90.22727272727272,299.7986666666667h5v0.20133333333330938h-5Z" fill="#4c78a8"/><path aria-label="Number of measurements: 47; Number of people: 628" role="graphics-symbol" aria-roledescription="bar" d="M88.86363636363637,299.79066666666665h5v0.20933333333334758h-5Z" fill="#4c78a8"/><path aria-label="Number of measurements: 46; Number of people: 651" role="graphics-symbol" aria-roledescription="bar" d="M87.5,299.783h5v0.21699999999998454h-5Z" fill="#4c78a8"/><path aria-label="Number of measurements: 45; Number of people: 698" role="graphics-symbol" aria-roledescription="bar" d="M86.13636363636364,299.76733333333334h5v0.2326666666666597h-5Z" fill="#4c78a8"/><path aria-label="Number of measurements: 44; Number of people: 721" role="graphics-symbol" aria-roledescription="bar" d="M84.77272727272727,299.75966666666665h5v0.2403333333333535h-5Z" fill="#4c78a8"/><path aria-label="Number of measurements: 43; Number of people: 797" role="graphics-symbol" aria-roledescription="bar" d="M83.4090909090909,299.7343333333333h5v0.26566666666667516h-5Z" fill="#4c78a8"/><path aria-label="Number of measurements: 42; Number of people: 885" role="graphics-symbol" aria-roledescription="bar" d="M82.04545454545455,299.705h5v0.2950000000000159h-5Z" fill="#4c78a8"/><path aria-label="Number of measurements: 41; Number of people: 924" role="graphics-symbol" aria-roledescription="bar" d="M80.68181818181819,299.692h5v0.3079999999999927h-5Z" fill="#4c78a8"/><path aria-label="Number of measurements: 40; Number of people: 1040" role="graphics-symbol" aria-roledescription="bar" d="M79.31818181818181,299.6533333333333h5v0.34666666666669244h-5Z" fill="#4c78a8"/><path aria-label="Number of measurements: 39; Number of people: 1050" role="graphics-symbol" aria-roledescription="bar" d="M77.95454545454545,299.65h5v0.35000000000002274h-5Z" fill="#4c78a8"/><path aria-label="Number of measurements: 38; Number of people: 1180" role="graphics-symbol" aria-roledescription="bar" d="M76.59090909090908,299.6066666666666h5v0.3933333333333735h-5Z" fill="#4c78a8"/><path aria-label="Number of measurements: 37; Number of people: 1274" role="graphics-symbol" aria-roledescription="bar" d="M75.22727272727273,299.57533333333333h5v0.42466666666666697h-5Z" fill="#4c78a8"/><path aria-label="Number of measurements: 36; Number of people: 1420" role="graphics-symbol" aria-roledescription="bar" d="M73.86363636363636,299.52666666666664h5v0.4733333333333576h-5Z" fill="#4c78a8"/><path aria-label="Number of measurements: 35; Number of people: 1611" role="graphics-symbol" aria-roledescription="bar" d="M72.5,299.463h5v0.5369999999999777h-5Z" fill="#4c78a8"/><path aria-label="Number of measurements: 34; Number of people: 1645" role="graphics-symbol" aria-roledescription="bar" d="M71.13636363636364,299.45166666666665h5v0.5483333333333462h-5Z" fill="#4c78a8"/><path aria-label="Number of measurements: 33; Number of people: 1873" role="graphics-symbol" aria-roledescription="bar" d="M69.77272727272727,299.3756666666667h5v0.6243333333333112h-5Z" fill="#4c78a8"/><path aria-label="Number of measurements: 32; Number of people: 2022" role="graphics-symbol" aria-roledescription="bar" d="M68.4090909090909,299.326h5v0.6739999999999782h-5Z" fill="#4c78a8"/><path aria-label="Number of measurements: 31; Number of people: 2164" role="graphics-symbol" aria-roledescription="bar" d="M67.04545454545455,299.27866666666665h5v0.721333333333348h-5Z" fill="#4c78a8"/><path aria-label="Number of measurements: 30; Number of people: 2313" role="graphics-symbol" aria-roledescription="bar" d="M65.68181818181817,299.229h5v0.771000000000015h-5Z" fill="#4c78a8"/><path aria-label="Number of measurements: 29; Number of people: 2631" role="graphics-symbol" aria-roledescription="bar" d="M64.31818181818181,299.123h5v0.8770000000000095h-5Z" fill="#4c78a8"/><path aria-label="Number of measurements: 28; Number of people: 2827" role="graphics-symbol" aria-roledescription="bar" d="M62.95454545454545,299.05766666666665h5v0.9423333333333517h-5Z" fill="#4c78a8"/><path aria-label="Number of measurements: 27; Number of people: 3103" role="graphics-symbol" aria-roledescription="bar" d="M61.59090909090909,298.96566666666666h5v1.0343333333333362h-5Z" fill="#4c78a8"/><path aria-label="Number of measurements: 26; Number of people: 3343" role="graphics-symbol" aria-roledescription="bar" d="M60.22727272727273,298.8856666666667h5v1.1143333333333203h-5Z" fill="#4c78a8"/><path aria-label="Number of measurements: 25; Number of people: 3605" role="graphics-symbol" aria-roledescription="bar" d="M58.86363636363637,298.79833333333335h5v1.2016666666666538h-5Z" fill="#4c78a8"/><path aria-label="Number of measurements: 24; Number of people: 4051" role="graphics-symbol" aria-roledescription="bar" d="M57.5,298.6496666666667h5v1.3503333333333103h-5Z" fill="#4c78a8"/><path aria-label="Number of measurements: 23; Number of people: 4702" role="graphics-symbol" aria-roledescription="bar" d="M56.13636363636364,298.43266666666665h5v1.5673333333333517h-5Z" fill="#4c78a8"/><path aria-label="Number of measurements: 22; Number of people: 4996" role="graphics-symbol" aria-roledescription="bar" d="M54.77272727272727,298.3346666666667h5v1.665333333333308h-5Z" fill="#4c78a8"/><path aria-label="Number of measurements: 21; Number of people: 5583" role="graphics-symbol" aria-roledescription="bar" d="M53.409090909090914,298.139h5v1.86099999999999h-5Z" fill="#4c78a8"/><path aria-label="Number of measurements: 20; Number of people: 6306" role="graphics-symbol" aria-roledescription="bar" d="M52.04545454545455,297.89799999999997h5v2.1020000000000323h-5Z" fill="#4c78a8"/><path aria-label="Number of measurements: 19; Number of people: 7014" role="graphics-symbol" aria-roledescription="bar" d="M50.68181818181818,297.662h5v2.3380000000000223h-5Z" fill="#4c78a8"/><path aria-label="Number of measurements: 18; Number of people: 7701" role="graphics-symbol" aria-roledescription="bar" d="M49.31818181818182,297.433h5v2.5670000000000073h-5Z" fill="#4c78a8"/><path aria-label="Number of measurements: 17; Number of people: 8782" role="graphics-symbol" aria-roledescription="bar" d="M47.95454545454545,297.0726666666667h5v2.9273333333333085h-5Z" fill="#4c78a8"/><path aria-label="Number of measurements: 16; Number of people: 10014" role="graphics-symbol" aria-roledescription="bar" d="M46.59090909090909,296.66200000000003h5v3.3379999999999654h-5Z" fill="#4c78a8"/><path aria-label="Number of measurements: 15; Number of people: 11500" role="graphics-symbol" aria-roledescription="bar" d="M45.22727272727273,296.1666666666667h5v3.8333333333333144h-5Z" fill="#4c78a8"/><path aria-label="Number of measurements: 14; Number of people: 13566" role="graphics-symbol" aria-roledescription="bar" d="M43.86363636363636,295.478h5v4.521999999999991h-5Z" fill="#4c78a8"/><path aria-label="Number of measurements: 13; Number of people: 15508" role="graphics-symbol" aria-roledescription="bar" d="M42.5,294.8306666666667h5v5.169333333333327h-5Z" fill="#4c78a8"/><path aria-label="Number of measurements: 12; Number of people: 18304" role="graphics-symbol" aria-roledescription="bar" d="M41.13636363636363,293.89866666666666h5v6.1013333333333435h-5Z" fill="#4c78a8"/><path aria-label="Number of measurements: 11; Number of people: 21801" role="graphics-symbol" aria-roledescription="bar" d="M39.77272727272727,292.733h5v7.266999999999996h-5Z" fill="#4c78a8"/><path aria-label="Number of measurements: 10; Number of people: 26483" role="graphics-symbol" aria-roledescription="bar" d="M38.40909090909091,291.1723333333333h5v8.827666666666687h-5Z" fill="#4c78a8"/><path aria-label="Number of measurements: 9; Number of people: 31945" role="graphics-symbol" aria-roledescription="bar" d="M37.04545454545454,289.35166666666663h5v10.648333333333369h-5Z" fill="#4c78a8"/><path aria-label="Number of measurements: 8; Number of people: 39998" role="graphics-symbol" aria-roledescription="bar" d="M35.68181818181818,286.6673333333333h5v13.332666666666682h-5Z" fill="#4c78a8"/><path aria-label="Number of measurements: 7; Number of people: 50460" role="graphics-symbol" aria-roledescription="bar" d="M34.31818181818182,283.18h5v16.819999999999993h-5Z" fill="#4c78a8"/><path aria-label="Number of measurements: 6; Number of people: 66168" role="graphics-symbol" aria-roledescription="bar" d="M32.95454545454545,277.944h5v22.055999999999983h-5Z" fill="#4c78a8"/><path aria-label="Number of measurements: 5; Number of people: 90268" role="graphics-symbol" aria-roledescription="bar" d="M31.590909090909086,269.91066666666666h5v30.089333333333343h-5Z" fill="#4c78a8"/><path aria-label="Number of measurements: 4; Number of people: 129947" role="graphics-symbol" aria-roledescription="bar" d="M30.227272727272727,256.6843333333333h5v43.31566666666669h-5Z" fill="#4c78a8"/><path aria-label="Number of measurements: 3; Number of people: 202671" role="graphics-symbol" aria-roledescription="bar" d="M28.863636363636363,232.443h5v67.55699999999999h-5Z" fill="#4c78a8"/><path aria-label="Number of measurements: 2; Number of people: 363983" role="graphics-symbol" aria-roledescription="bar" d="M27.5,178.6723333333333h5v121.32766666666669h-5Z" fill="#4c78a8"/><path aria-label="Number of measurements: 1; Number of people: 838144" role="graphics-symbol" aria-roledescription="bar" d="M26.136363636363637,20.618666666666652h5v279.3813333333334h-5Z" fill="#4c78a8"/></g></g><path class="foreground" aria-hidden="true" d="" display="none"/></g></g></g></svg>