<svg xmlns="http://www.w3.org/2000/svg" xmlns:xlink="http://www.w3.org/1999/xlink" version="1.1" class="marks" width="360" height="347" viewBox="0 0 360 347"><rect width="360" height="347" fill="white"/><g fill="none" stroke-miterlimit="10" transform="translate(54,10)"><g class="mark-group role-frame root" role="graphics-object" aria-roledescription="group mark container"><g transform="translate(0,0)"><path class="background" aria-hidden="true" d="M0.5,0.5h300v300h-300Z" stroke="#ddd"/><g><g class="mark-group role-axis" aria-hidden="true"><g transform="translate(0.5,300.5)"><path class="background" aria-hidden="true" d="M0,0h0v0h0Z" pointer-events="none"/><g><g class="mark-rule role-axis-grid" pointer-events="none"><line transform="translate(0,-300)" x2="0" y2="300" stroke="#ddd" stroke-width="1" opacity="1"/><line transform="translate(30,-300)" x2="0" y2="300" stroke="#ddd" stroke-width="1" opacity="1"/><line transform="translate(60,-300)" x2="0" y2="300" stroke="#ddd" stroke-width="1" opacity="1"/><line transform="translate(90,-300)" x2="0" y2="300" stroke="#ddd" stroke-width="1" opacity="1"/><line transform="translate(120,-300)" x2="0" y2="300" stroke="#ddd" stroke-width="1" opacity="1"/><line transform="translate(150,-300)" x2="0" y2="300" stroke="#ddd" stroke-width="1" opacity="1"/><line transform="translate(180,-300)" x2="0" y2="300" stroke="#ddd" stroke-width="1" opacity="1"/><line transform="translate(210,-300)" x2="0" y2="300" stroke="#ddd" stroke-width="1" opacity="1"/><line transform="translate(240,-300)" x2="0" y2="300" stroke="#ddd" stroke-width="1" opacity="1"/><line transform="translate(270,-300)" x2="0" y2="300" stroke="#ddd" stroke-width="1" opacity="1"/><line transform="translate(300,-300)" x2="0" y2="300" stroke="#ddd" stroke-width="1" opacity="1"/></g></g><path class="foreground" aria-hidden="true" d="" pointer-events="none" display="none"/></g></g><g class="mark-group role-axis" aria-hidden="true"><g transform="translate(0.5,0.5)"><path class="background" aria-hidden="true" d="M0,0h0v0h0Z" pointer-events="none"/><g><g class="mark-rule role-axis-grid" pointer-events="none"><line transform="translate(0,300)" x2="300" y2="0" stroke="#ddd" stroke-width="1" opacity="1"/><line transform="translate(0,267)" x2="300" y2="0" stroke="#ddd" stroke-width="1" opacity="1"/><line transform="translate(0,233)" x2="300" y2="0" stroke="#ddd" stroke-width="1" opacity="1"/><line transform="translate(0,200)" x2="300" y2="0" stroke="#ddd" stroke-width="1" opacity="1"/><line transform="translate(0,167)" x2="300" y2="0" stroke="#ddd" stroke-width="1" opacity="1"/><line transform="translate(0,133)" x2="300" y2="0" stroke="#ddd" stroke-width="1" opacity="1"/><line transform="translate(0,100)" x2="300" y2="0" stroke="#ddd" stroke-width="1" opacity="1"/><line transform="translate(0,67)" x2="300" y2="0" stroke="#ddd" stroke-width="1" opacity="1"/><line transform="translate(0,33)" x2="300" y2="0" stroke="#ddd" stroke-width="1" opacity="1"/><line transform="translate(0,0)" x2="300" y2="0" stroke="#ddd" stroke-width="1" opacity="1"/></g></g><path class="foreground" aria-hidden="true" d="" pointer-events="none" display="none"/></g></g><g class="mark-group role-axis" role="graphics-symbol" aria-roledescription="axis" aria-label="X-axis titled 'Age (years)' for a linear scale with values from 0 to 100"><g transform="translate(0.5,300.5)"><path class="background" aria-hidden="true" d="M0,0h0v0h0Z" pointer-events="none"/><g><g class="mark-rule role-axis-tick" pointer-events="none"><line transform="translate(0,0)" x2="0" y2="5" stroke="#888" stroke-width="1" opacity="1"/><line transform="translate(30,0)" x2="0" y2="5" stroke="#888" stroke-width="1" opacity="1"/><line transform="translate(60,0)" x2="0" y2="5" stroke="#888" stroke-width="1" opacity="1"/><line transform="translate(90,0)" x2="0" y2="5" stroke="#888" stroke-width="1" opacity="1"/><line transform="translate(120,0)" x2="0" y2="5" stroke="#888" stroke-width="1" opacity="1"/><line transform="translate(150,0)" x2="0" y2="5" stroke="#888" stroke-width="1" opacity="1"/><line transform="translate(180,0)" x2="0" y2="5" stroke="#888" stroke-width="1" opacity="1"/><line transform="translate(210,0)" x2="0" y2="5" stroke="#888" stroke-width="1" opacity="1"/><line transform="translate(240,0)" x2="0" y2="5" stroke="#888" stroke-width="1" opacity="1"/><line transform="translate(270,0)" x2="0" y2="5" stroke="#888" stroke-width="1" opacity="1"/><line transform="translate(300,0)" x2="0" y2="5" stroke="#888" stroke-width="1" opacity="1"/></g><g class="mark-text role-axis-label" pointer-events="none"><text text-anchor="start" transform="translate(0,15)" font-family="sans-serif" font-size="10px" fill="#000" opacity="1">0</text><text text-anchor="middle" transform="translate(30,15)" font-family="sans-serif" font-size="10px" fill="#000" opacity="1">10</text><text text-anchor="middle" transform="translate(60,15)" font-family="sans-serif" font-size="10px" fill="#000" opacity="1">20</text><text text-anchor="middle" transform="translate(90,15)" font-family="sans-serif" font-size="10px" fill="#000" opacity="1">30</text><text text-anchor="middle" transform="translate(120,15)" font-family="sans-serif" font-size="10px" fill="#000" opacity="1">40</text><text text-anchor="middle" transform="translate(150,15)" font-family="sans-serif" font-size="10px" fill="#000" opacity="1">50</text><text text-anchor="middle" transform="translate(180,15)" font-family="sans-serif" font-size="10px" fill="#000" opacity="1">60</text><text text-anchor="middle" transform="translate(210,15)" font-family="sans-serif" font-size="10px" fill="#000" opacity="1">70</text><text text-anchor="middle" transform="translate(240,15)" font-family="sans-serif" font-size="10px" fill="#000" opacity="1">80</text><text text-anchor="middle" transform="translate(270,15)" font-family="sans-serif" font-size="10px" fill="#000" opacity="1">90</text><text text-anchor="end" transform="translate(300,15)" font-family="sans-serif" font-size="10px" fill="#000" opacity="1">100</text></g><g class="mark-rule role-axis-domain" pointer-events="none"><line transform="translate(0,0)" x2="300" y2="0" stroke="#888" stroke-width="1" opacity="1"/></g><g class="mark-text role-axis-title" pointer-events="none"><text text-anchor="middle" transform="translate(150,30)" font-family="sans-serif" font-size="11px" font-weight="bold" fill="#000" opacity="1">Age (years)</text></g></g><path class="foreground" aria-hidden="true" d="" pointer-events="none" display="none"/></g></g><g class="mark-group role-axis" role="graphics-symbol" aria-roledescription="axis" aria-label="Y-axis titled 'Number of people' for a linear scale with values from 0 to 1,800"><g transform="translate(0.5,0.5)"><path class="background" aria-hidden="true" d="M0,0h0v0h0Z" pointer-events="none"/><g><g class="mark-rule role-axis-tick" pointer-events="none"><line transform="translate(0,300)" x2="-5" y2="0" stroke="#888" stroke-width="1" opacity="1"/><line transform="translate(0,267)" x2="-5" y2="0" stroke="#888" stroke-width="1" opacity="1"/><line transform="translate(0,233)" x2="-5" y2="0" stroke="#888" stroke-width="1" opacity="1"/><line transform="translate(0,200)" x2="-5" y2="0" stroke="#888" stroke-width="1" opacity="1"/><line transform="translate(0,167)" x2="-5" y2="0" stroke="#888" stroke-width="1" opacity="1"/><line transform="translate(0,133)" x2="-5" y2="0" stroke="#888" stroke-width="1" opacity="1"/><line transform="translate(0,100)" x2="-5" y2="0" stroke="#888" stroke-width="1" opacity="1"/><line transform="translate(0,67)" x2="-5" y2="0" stroke="#888" stroke-width="1" opacity="1"/><line transform="translate(0,33)" x2="-5" y2="0" stroke="#888" stroke-width="1" opacity="1"/><line transform="translate(0,0)" x2="-5" y2="0" stroke="#888" stroke-width="1" opacity="1"/></g><g class="mark-text role-axis-label" pointer-events="none"><text text-anchor="end" transform="translate(-7,303)" font-family="sans-serif" font-size="10px" fill="#000" opacity="1">0</text><text text-anchor="end" transform="translate(-7,269.66666666666663)" font-family="sans-serif" font-size="10px" fill="#000" opacity="1">200</text><text text-anchor="end" transform="translate(-7,236.33333333333334)" font-family="sans-serif" font-size="10px" fill="#000" opacity="1">400</text><text text-anchor="end" transform="translate(-7,203.00000000000003)" font-family="sans-serif" font-size="10px" fill="#000" opacity="1">600</text><text text-anchor="end" transform="translate(-7,169.66666666666669)" font-family="sans-serif" font-size="10px" fill="#000" opacity="1">800</text><text text-anchor="end" transform="translate(-7,136.33333333333331)" font-family="sans-serif" font-size="10px" fill="#000" opacity="1">1,000</text><text text-anchor="end" transform="translate(-7,103.00000000000001)" font-family="sans-serif" font-size="10px" fill="#000" opacity="1">1,200</text><text text-anchor="end" transform="translate(-7,69.66666666666666)" font-family="sans-serif" font-size="10px" fill="#000" opacity="1">1,400</text><text text-anchor="end" transform="translate(-7,36.33333333333335)" font-family="sans-serif" font-size="10px" fill="#000" opacity="1">1,600</text><text text-anchor="end" transform="translate(-7,3)" font-family="sans-serif" font-size="10px" fill="#000" opacity="1">1,800</text></g><g class="mark-rule role-axis-domain" pointer-events="none"><line transform="translate(0,300)" x2="0" y2="-300" stroke="#888" stroke-width="1" opacity="1"/></g><g class="mark-text role-axis-title" pointer-events="none"><text text-anchor="middle" transform="translate(-37.86666679382324,150) rotate(-90) translate(0,-2)" font-family="sans-serif" font-size="11px" font-weight="bold" fill="#000" opacity="1">Number of people</text></g></g><path class="foreground" aria-hidden="true" d="" pointer-events="none" display="none"/></g></g><g class="mark-rect role-mark marks" role="graphics-object" aria-roledescription="rect mark container"><path aria-label="Age (years): 0; Number of people: 146; BinRight: 1" role="graphics-symbol" aria-roledescription="rect mark" d="M0,275.6666666666667h3v24.333333333333314h-3Z" fill="#4c78a8"/><path aria-label="Age (years): 1; Number of people: 187; BinRight: 2" role="graphics-symbol" aria-roledescription="rect mark" d="M3,268.8333333333333h3v31.166666666666686h-3Z" fill="#4c78a8"/><path aria-label="Age (years): 2; Number of people: 192; BinRight: 3" role="graphics-symbol" aria-roledescription="rect mark" d="M6,268h3v32h-3Z" fill="#4c78a8"/><path aria-label="Age (years): 3; Number of people: 226; BinRight: 4" role="graphics-symbol" aria-roledescription="rect mark" d="M9,262.3333333333333h3v37.666666666666686h-3Z" fill="#4c78a8"/><path aria-label="Age (years): 4; Number of people: 240; BinRight: 5" role="graphics-symbol" aria-roledescription="rect mark" d="M12,260h3v40h-3Z" fill="#4c78a8"/><path aria-label="Age (years): 5; Number of people: 281; BinRight: 6" role="graphics-symbol" aria-roledescription="rect mark" d="M15,253.16666666666669h3v46.833333333333314h-3Z" fill="#4c78a8"/><path aria-label="Age (years): 6; Number of people: 293; BinRight: 7" role="graphics-symbol" aria-roledescription="rect mark" d="M18,251.16666666666666h3.0000000000000036v48.83333333333334h-3.0000000000000036Z" fill="#4c78a8"/><path aria-label="Age (years): 7; Number of people: 289; BinRight: 8" role="graphics-symbol" aria-roledescription="rect mark" d="M21.000000000000004,251.83333333333334h2.9999999999999964v48.16666666666666h-2.9999999999999964Z" fill="#4c78a8"/><path aria-label="Age (years): 8; Number of people: 353; BinRight: 9" role="graphics-symbol" aria-roledescription="rect mark" d="M24,241.16666666666666h3v58.83333333333334h-3Z" fill="#4c78a8"/><path aria-label="Age (years): 9; Number of people: 319; BinRight: 10" role="graphics-symbol" aria-roledescription="rect mark" d="M27,246.83333333333334h3v53.16666666666666h-3Z" fill="#4c78a8"/><path aria-label="Age (years): 10; Number of people: 344; BinRight: 11" role="graphics-symbol" aria-roledescription="rect mark" d="M30,242.66666666666666h3v57.33333333333334h-3Z" fill="#4c78a8"/><path aria-label="Age (years): 11; Number of people: 370; BinRight: 12" role="graphics-symbol" aria-roledescription="rect mark" d="M33,238.33333333333334h3v61.66666666666666h-3Z" fill="#4c78a8"/><path aria-label="Age (years): 12; Number of people: 371; BinRight: 13" role="graphics-symbol" aria-roledescription="rect mark" d="M36,238.16666666666666h3v61.83333333333334h-3Z" fill="#4c78a8"/><path aria-label="Age (years): 13; Number of people: 346; BinRight: 14" role="graphics-symbol" aria-roledescription="rect mark" d="M39,242.33333333333334h3.000000000000007v57.66666666666666h-3.000000000000007Z" fill="#4c78a8"/><path aria-label="Age (years): 14; Number of people: 460; BinRight: 15" role="graphics-symbol" aria-roledescription="rect mark" d="M42.00000000000001,223.33333333333334h2.999999999999993v76.66666666666666h-2.999999999999993Z" fill="#4c78a8"/><path aria-label="Age (years): 15; Number of people: 464; BinRight: 16" role="graphics-symbol" aria-roledescription="rect mark" d="M45,222.66666666666666h3v77.33333333333334h-3Z" fill="#4c78a8"/><path aria-label="Age (years): 16; Number of people: 465; BinRight: 17" role="graphics-symbol" aria-roledescription="rect mark" d="M48,222.5h3.000000000000007v77.5h-3.000000000000007Z" fill="#4c78a8"/><path aria-label="Age (years): 17; Number of people: 512; BinRight: 18" role="graphics-symbol" aria-roledescription="rect mark" d="M51.00000000000001,214.66666666666666h2.999999999999993v85.33333333333334h-2.999999999999993Z" fill="#4c78a8"/><path aria-label="Age (years): 18; Number of people: 616; BinRight: 19" role="graphics-symbol" aria-roledescription="rect mark" d="M54,197.33333333333334h3v102.66666666666666h-3Z" fill="#4c78a8"/><path aria-label="Age (years): 19; Number of people: 618; BinRight: 20" role="graphics-symbol" aria-roledescription="rect mark" d="M57,197.00000000000003h3v102.99999999999997h-3Z" fill="#4c78a8"/><path aria-label="Age (years): 20; Number of people: 640; BinRight: 21" role="graphics-symbol" aria-roledescription="rect mark" d="M60,193.33333333333331h3v106.66666666666669h-3Z" fill="#4c78a8"/><path aria-label="Age (years): 21; Number of people: 673; BinRight: 22" role="graphics-symbol" aria-roledescription="rect mark" d="M63,187.83333333333331h3v112.16666666666669h-3Z" fill="#4c78a8"/><path aria-label="Age (years): 22; Number of people: 646; BinRight: 23" role="graphics-symbol" aria-roledescription="rect mark" d="M66,192.33333333333334h3v107.66666666666666h-3Z" fill="#4c78a8"/><path aria-label="Age (years): 23; Number of people: 729; BinRight: 24" role="graphics-symbol" aria-roledescription="rect mark" d="M69,178.5h3v121.5h-3Z" fill="#4c78a8"/><path aria-label="Age (years): 24; Number of people: 779; BinRight: 25" role="graphics-symbol" aria-roledescription="rect mark" d="M72,170.16666666666669h3v129.83333333333331h-3Z" fill="#4c78a8"/><path aria-label="Age (years): 25; Number of people: 745; BinRight: 26" role="graphics-symbol" aria-roledescription="rect mark" d="M75,175.83333333333334h3v124.16666666666666h-3Z" fill="#4c78a8"/><path aria-label="Age (years): 26; Number of people: 771; BinRight: 27" role="graphics-symbol" aria-roledescription="rect mark" d="M78,171.5h3v128.5h-3Z" fill="#4c78a8"/><path aria-label="Age (years): 27; Number of people: 733; BinRight: 28" role="graphics-symbol" aria-roledescription="rect mark" d="M81,177.83333333333334h3.000000000000014v122.16666666666666h-3.000000000000014Z" fill="#4c78a8"/><path aria-label="Age (years): 28; Number of people: 835; BinRight: 29" role="graphics-symbol" aria-roledescription="rect mark" d="M84.00000000000001,160.83333333333331h2.999999999999986v139.16666666666669h-2.999999999999986Z" fill="#4c78a8"/><path aria-label="Age (years): 29; Number of people: 904; BinRight: 30" role="graphics-symbol" aria-roledescription="rect mark" d="M87,149.33333333333334h3v150.66666666666666h-3Z" fill="#4c78a8"/><path aria-label="Age (years): 30; Number of people: 931; BinRight: 31" role="graphics-symbol" aria-roledescription="rect mark" d="M90,144.83333333333331h3v155.16666666666669h-3Z" fill="#4c78a8"/><path aria-label="Age (years): 31; Number of people: 1003; BinRight: 32" role="graphics-symbol" aria-roledescription="rect mark" d="M93,132.83333333333334h3v167.16666666666666h-3Z" fill="#4c78a8"/><path aria-label="Age (years): 32; Number of people: 979; BinRight: 33" role="graphics-symbol" aria-roledescription="rect mark" d="M96,136.83333333333334h3v163.16666666666666h-3Z" fill="#4c78a8"/><path aria-label="Age (years): 33; Number of people: 964; BinRight: 34" role="graphics-symbol" aria-roledescription="rect mark" d="M99,139.33333333333334h3.000000000000014v160.66666666666666h-3.000000000000014Z" fill="#4c78a8"/><path aria-label="Age (years): 34; Number of people: 1024; BinRight: 35" role="graphics-symbol" aria-roledescription="rect mark" d="M102.00000000000001,129.33333333333334h2.999999999999986v170.66666666666666h-2.999999999999986Z" fill="#4c78a8"/><path aria-label="Age (years): 35; Number of people: 1055; BinRight: 36" role="graphics-symbol" aria-roledescription="rect mark" d="M105,124.16666666666666h3v175.83333333333334h-3Z" fill="#4c78a8"/><path aria-label="Age (years): 36; Number of people: 1141; BinRight: 37" role="graphics-symbol" aria-roledescription="rect mark" d="M108,109.83333333333334h3v190.16666666666666h-3Z" fill="#4c78a8"/><path aria-label="Age (years): 37; Number of people: 1146; BinRight: 38" role="graphics-symbol" aria-roledescription="rect mark" d="M111,108.99999999999999h3v191h-3Z" fill="#4c78a8"/><path aria-label="Age (years): 38; Number of people: 1101; BinRight: 39" role="graphics-symbol" aria-roledescription="rect mark" d="M114,116.49999999999999h3v183.5h-3Z" fill="#4c78a8"/><path aria-label="Age (years): 39; Number of people: 1094; BinRight: 40" role="graphics-symbol" aria-roledescription="rect mark" d="M117,117.66666666666667h3v182.33333333333331h-3Z" fill="#4c78a8"/><path aria-label="Age (years): 40; Number of people: 1015; BinRight: 41" role="graphics-symbol" aria-roledescription="rect mark" d="M120,130.83333333333334h2.999999999999986v169.16666666666666h-2.999999999999986Z" fill="#4c78a8"/><path aria-label="Age (years): 41; Number of people: 1142; BinRight: 42" role="graphics-symbol" aria-roledescription="rect mark" d="M122.99999999999999,109.66666666666666h3.000000000000014v190.33333333333334h-3.000000000000014Z" fill="#4c78a8"/><path aria-label="Age (years): 42; Number of people: 1151; BinRight: 43" role="graphics-symbol" aria-roledescription="rect mark" d="M126,108.16666666666666h3v191.83333333333334h-3Z" fill="#4c78a8"/><path aria-label="Age (years): 43; Number of people: 1200; BinRight: 44" role="graphics-symbol" aria-roledescription="rect mark" d="M129,100.00000000000001h3v200h-3Z" fill="#4c78a8"/><path aria-label="Age (years): 44; Number of people: 1318; BinRight: 45" role="graphics-symbol" aria-roledescription="rect mark" d="M132,80.33333333333333h3v219.66666666666669h-3Z" fill="#4c78a8"/><path aria-label="Age (years): 45; Number of people: 1387; BinRight: 46" role="graphics-symbol" aria-roledescription="rect mark" d="M135,68.83333333333333h3v231.16666666666669h-3Z" fill="#4c78a8"/><path aria-label="Age (years): 46; Number of people: 1485; BinRight: 47" role="graphics-symbol" aria-roledescription="rect mark" d="M138,52.500000000000014h3v247.5h-3Z" fill="#4c78a8"/><path aria-label="Age (years): 47; Number of people: 1558; BinRight: 48" role="graphics-symbol" aria-roledescription="rect mark" d="M141,40.33333333333334h3v259.66666666666663h-3Z" fill="#4c78a8"/><path aria-label="Age (years): 48; Number of people: 1614; BinRight: 49" role="graphics-symbol" aria-roledescription="rect mark" d="M144,31.000000000000018h3v269h-3Z" fill="#4c78a8"/><path aria-label="Age (years): 49; Number of people: 1554; BinRight: 50" role="graphics-symbol" aria-roledescription="rect mark" d="M147,41.000000000000014h3v259h-3Z" fill="#4c78a8"/><path aria-label="Age (years): 50; Number of people: 1678; BinRight: 51" role="graphics-symbol" aria-roledescription="rect mark" d="M150,20.333333333333346h3v279.66666666666663h-3Z" fill="#4c78a8"/><path aria-label="Age (years): 51; Number of people: 1558; BinRight: 52" role="graphics-symbol" aria-roledescription="rect mark" d="M153,40.33333333333334h3v259.66666666666663h-3Z" fill="#4c78a8"/><path aria-label="Age (years): 52; Number of people: 1660; BinRight: 53" role="graphics-symbol" aria-roledescription="rect mark" d="M156,23.333333333333318h3v276.6666666666667h-3Z" fill="#4c78a8"/><path aria-label="Age (years): 53; Number of people: 1570; BinRight: 54" role="graphics-symbol" aria-roledescription="rect mark" d="M159,38.33333333333333h3v261.6666666666667h-3Z" fill="#4c78a8"/><path aria-label="Age (years): 54; Number of people: 1535; BinRight: 55" role="graphics-symbol" aria-roledescription="rect mark" d="M162,44.16666666666668h3v255.83333333333331h-3Z" fill="#4c78a8"/><path aria-label="Age (years): 55; Number of people: 1444; BinRight: 56" role="graphics-symbol" aria-roledescription="rect mark" d="M165,59.33333333333335h3.0000000000000284v240.66666666666666h-3.0000000000000284Z" fill="#4c78a8"/><path aria-label="Age (years): 56; Number of people: 1419; BinRight: 57" role="graphics-symbol" aria-roledescription="rect mark" d="M168.00000000000003,63.5h2.999999999999943v236.5h-2.999999999999943Z" fill="#4c78a8"/><path aria-label="Age (years): 57; Number of people: 1428; BinRight: 58" role="graphics-symbol" aria-roledescription="rect mark" d="M170.99999999999997,62h3.0000000000000284v238h-3.0000000000000284Z" fill="#4c78a8"/><path aria-label="Age (years): 58; Number of people: 1398; BinRight: 59" role="graphics-symbol" aria-roledescription="rect mark" d="M174,67.00000000000001h3v233h-3Z" fill="#4c78a8"/><path aria-label="Age (years): 59; Number of people: 1396; BinRight: 60" role="graphics-symbol" aria-roledescription="rect mark" d="M177,67.33333333333333h3v232.66666666666669h-3Z" fill="#4c78a8"/><path aria-label="Age (years): 60; Number of people: 1335; BinRight: 61" role="graphics-symbol" aria-roledescription="rect mark" d="M180,77.49999999999999h3v222.5h-3Z" fill="#4c78a8"/><path aria-label="Age (years): 61; Number of people: 1420; BinRight: 62" role="graphics-symbol" aria-roledescription="rect mark" d="M183,63.33333333333334h3v236.66666666666666h-3Z" fill="#4c78a8"/><path aria-label="Age (years): 62; Number of people: 1325; BinRight: 63" role="graphics-symbol" aria-roledescription="rect mark" d="M186,79.16666666666666h3v220.83333333333334h-3Z" fill="#4c78a8"/><path aria-label="Age (years): 63; Number of people: 1366; BinRight: 64" role="graphics-symbol" aria-roledescription="rect mark" d="M189,72.33333333333334h3v227.66666666666666h-3Z" fill="#4c78a8"/><path aria-label="Age (years): 64; Number of people: 1449; BinRight: 65" role="graphics-symbol" aria-roledescription="rect mark" d="M192,58.499999999999986h3v241.5h-3Z" fill="#4c78a8"/><path aria-label="Age (years): 65; Number of people: 1506; BinRight: 66" role="graphics-symbol" aria-roledescription="rect mark" d="M195,49h3v251h-3Z" fill="#4c78a8"/><path aria-label="Age (years): 66; Number of people: 1521; BinRight: 67" role="graphics-symbol" aria-roledescription="rect mark" d="M198,46.50000000000001h3v253.5h-3Z" fill="#4c78a8"/><path aria-label="Age (years): 67; Number of people: 1554; BinRight: 68" role="graphics-symbol" aria-roledescription="rect mark" d="M201,41.000000000000014h3.0000000000000284v259h-3.0000000000000284Z" fill="#4c78a8"/><path aria-label="Age (years): 68; Number of people: 1395; BinRight: 69" role="graphics-symbol" aria-roledescription="rect mark" d="M204.00000000000003,67.5h2.999999999999943v232.5h-2.999999999999943Z" fill="#4c78a8"/><path aria-label="Age (years): 69; Number of people: 1089; BinRight: 70" role="graphics-symbol" aria-roledescription="rect mark" d="M206.99999999999997,118.5h3.0000000000000284v181.5h-3.0000000000000284Z" fill="#4c78a8"/><path aria-label="Age (years): 70; Number of people: 1046; BinRight: 71" role="graphics-symbol" aria-roledescription="rect mark" d="M210,125.66666666666666h3v174.33333333333334h-3Z" fill="#4c78a8"/><path aria-label="Age (years): 71; Number of people: 829; BinRight: 72" role="graphics-symbol" aria-roledescription="rect mark" d="M213,161.83333333333331h3v138.16666666666669h-3Z" fill="#4c78a8"/><path aria-label="Age (years): 72; Number of people: 1184; BinRight: 73" role="graphics-symbol" aria-roledescription="rect mark" d="M216,102.66666666666666h3v197.33333333333334h-3Z" fill="#4c78a8"/><path aria-label="Age (years): 73; Number of people: 755; BinRight: 74" role="graphics-symbol" aria-roledescription="rect mark" d="M219,174.16666666666666h3v125.83333333333334h-3Z" fill="#4c78a8"/><path aria-label="Age (years): 74; Number of people: 832; BinRight: 75" role="graphics-symbol" aria-roledescription="rect mark" d="M222,161.33333333333334h3v138.66666666666666h-3Z" fill="#4c78a8"/><path aria-label="Age (years): 75; Number of people: 805; BinRight: 76" role="graphics-symbol" aria-roledescription="rect mark" d="M225,165.83333333333334h3v134.16666666666666h-3Z" fill="#4c78a8"/><path aria-label="Age (years): 76; Number of people: 629; BinRight: 77" role="graphics-symbol" aria-roledescription="rect mark" d="M228,195.16666666666666h3v104.83333333333334h-3Z" fill="#4c78a8"/><path aria-label="Age (years): 77; Number of people: 593; BinRight: 78" role="graphics-symbol" aria-roledescription="rect mark" d="M231,201.16666666666669h3v98.83333333333331h-3Z" fill="#4c78a8"/><path aria-label="Age (years): 78; Number of people: 522; BinRight: 79" role="graphics-symbol" aria-roledescription="rect mark" d="M234,213h3v87h-3Z" fill="#4c78a8"/><path aria-label="Age (years): 79; Number of people: 452; BinRight: 80" role="graphics-symbol" aria-roledescription="rect mark" d="M237,224.66666666666669h3v75.33333333333331h-3Z" fill="#4c78a8"/><path aria-label="Age (years): 80; Number of people: 365; BinRight: 81" role="graphics-symbol" aria-roledescription="rect mark" d="M240,239.16666666666669h3.0000000000000284v60.833333333333314h-3.0000000000000284Z" fill="#4c78a8"/><path aria-label="Age (years): 81; Number of people: 308; BinRight: 82" role="graphics-symbol" aria-roledescription="rect mark" d="M243.00000000000003,248.66666666666666h2.999999999999943v51.33333333333334h-2.999999999999943Z" fill="#4c78a8"/><path aria-label="Age (years): 82; Number of people: 267; BinRight: 83" role="graphics-symbol" aria-roledescription="rect mark" d="M245.99999999999997,255.5h3.0000000000000284v44.5h-3.0000000000000284Z" fill="#4c78a8"/><path aria-label="Age (years): 83; Number of people: 259; BinRight: 84" role="graphics-symbol" aria-roledescription="rect mark" d="M249,256.8333333333333h3v43.166666666666686h-3Z" fill="#4c78a8"/><path aria-label="Age (years): 84; Number of people: 188; BinRight: 85" role="graphics-symbol" aria-roledescription="rect mark" d="M252,268.6666666666667h3v31.333333333333314h-3Z" fill="#4c78a8"/><path aria-label="Age (years): 85; Number of people: 127; BinRight: 86" role="graphics-symbol" aria-roledescription="rect mark" d="M255,278.8333333333333h3v21.166666666666686h-3Z" fill="#4c78a8"/><path aria-label="Age (years): 86; Number of people: 92; BinRight: 87" role="graphics-symbol" aria-roledescription="rect mark" d="M258,284.6666666666667h3v15.333333333333314h-3Z" fill="#4c78a8"/><path aria-label="Age (years): 87; Number of people: 47; BinRight: 88" role="graphics-symbol" aria-roledescription="rect mark" d="M261,292.1666666666667h3v7.833333333333314h-3Z" fill="#4c78a8"/><path aria-label="Age (years): 88; Number of people: 43; BinRight: 89" role="graphics-symbol" aria-roledescription="rect mark" d="M264,292.83333333333337h3v7.166666666666629h-3Z" fill="#4c78a8"/><path aria-label="Age (years): 89; Number of people: 22; BinRight: 90" role="graphics-symbol" aria-roledescription="rect mark" d="M267,296.3333333333333h3v3.6666666666666856h-3Z" fill="#4c78a8"/><path aria-label="Age (years): 90; Number of people: 16; BinRight: 91" role="graphics-symbol" aria-roledescription="rect mark" d="M270,297.33333333333337h3v2.6666666666666288h-3Z" fill="#4c78a8"/><path aria-label="Age (years): 91; Number of people: 13; BinRight: 92" role="graphics-symbol" aria-roledescription="rect mark" d="M273,297.8333333333333h3v2.1666666666666856h-3Z" fill="#4c78a8"/></g></g><path class="foreground" aria-hidden="true" d="" display="none"/></g></g></g></svg>