<svg xmlns="http://www.w3.org/2000/svg" xmlns:xlink="http://www.w3.org/1999/xlink" version="1.1" class="marks" width="360" height="347" viewBox="0 0 360 347"><rect width="360" height="347" fill="white"/><g fill="none" stroke-miterlimit="10" transform="translate(54,10)"><g class="mark-group role-frame root" role="graphics-object" aria-roledescription="group mark container"><g transform="translate(0,0)"><path class="background" aria-hidden="true" d="M0.5,0.5h300v300h-300Z" stroke="#ddd"/><g><g class="mark-group role-axis" aria-hidden="true"><g transform="translate(0.5,300.5)"><path class="background" aria-hidden="true" d="M0,0h0v0h0Z" pointer-events="none"/><g><g class="mark-rule role-axis-grid" pointer-events="none"><line transform="translate(0,-300)" x2="0" y2="300" stroke="#ddd" stroke-width="1" opacity="1"/><line transform="translate(30,-300)" x2="0" y2="300" stroke="#ddd" stroke-width="1" opacity="1"/><line transform="translate(60,-300)" x2="0" y2="300" stroke="#ddd" stroke-width="1" opacity="1"/><line transform="translate(90,-300)" x2="0" y2="300" stroke="#ddd" stroke-width="1" opacity="1"/><line transform="translate(120,-300)" x2="0" y2="300" stroke="#ddd" stroke-width="1" opacity="1"/><line transform="translate(150,-300)" x2="0" y2="300" stroke="#ddd" stroke-width="1" opacity="1"/><line transform="translate(180,-300)" x2="0" y2="300" stroke="#ddd" stroke-width="1" opacity="1"/><line transform="translate(210,-300)" x2="0" y2="300" stroke="#ddd" stroke-width="1" opacity="1"/><line transform="translate(240,-300)" x2="0" y2="300" stroke="#ddd" stroke-width="1" opacity="1"/><line transform="translate(270,-300)" x2="0" y2="300" stroke="#ddd" stroke-width="1" opacity="1"/><line transform="translate(300,-300)" x2="0" y2="300" stroke="#ddd" stroke-width="1" opacity="1"/></g></g><path class="foreground" aria-hidden="true" d="" pointer-events="none" display="none"/></g></g><g class="mark-group role-axis" aria-hidden="true"><g transform="translate(0.5,0.5)"><path class="background" aria-hidden="true" d="M0,0h0v0h0Z" pointer-events="none"/><g><g class="mark-rule role-axis-grid" pointer-events="none"><line transform="translate(0,300)" x2="300" y2="0" stroke="#ddd" stroke-width="1" opacity="1"/><line transform="translate(0,267)" x2="300" y2="0" stroke="#ddd" stroke-width="1" opacity="1"/><line transform="translate(0,233)" x2="300" y2="0" stroke="#ddd" stroke-width="1" opacity="1"/><line transform="translate(0,200)" x2="300" y2="0" stroke="#ddd" stroke-width="1" opacity="1"/><line transform="translate(0,167)" x2="300" y2="0" stroke="#ddd" stroke-width="1" opacity="1"/><line transform="translate(0,133)" x2="300" y2="0" stroke="#ddd" stroke-width="1" opacity="1"/><line transform="translate(0,100)" x2="300" y2="0" stroke="#ddd" stroke-width="1" opacity="1"/><line transform="translate(0,67)" x2="300" y2="0" stroke="#ddd" stroke-width="1" opacity="1"/><line transform="translate(0,33)" x2="300" y2="0" stroke="#ddd" stroke-width="1" opacity="1"/><line transform="translate(0,0)" x2="300" y2="0" stroke="#ddd" stroke-width="1" opacity="1"/></g></g><path class="foreground" aria-hidden="true" d="" pointer-events="none" display="none"/></g></g><g class="mark-group role-axis" role="graphics-symbol" aria-roledescription="axis" aria-label="X-axis titled 'Age (years)' for a linear scale with values from 0 to 100"><g transform="translate(0.5,300.5)"><path class="background" aria-hidden="true" d="M0,0h0v0h0Z" pointer-events="none"/><g><g class="mark-rule role-axis-tick" pointer-events="none"><line transform="translate(0,0)" x2="0" y2="5" stroke="#888" stroke-width="1" opacity="1"/><line transform="translate(30,0)" x2="0" y2="5" stroke="#888" stroke-width="1" opacity="1"/><line transform="translate(60,0)" x2="0" y2="5" stroke="#888" stroke-width="1" opacity="1"/><line transform="translate(90,0)" x2="0" y2="5" stroke="#888" stroke-width="1" opacity="1"/><line transform="translate(120,0)" x2="0" y2="5" stroke="#888" stroke-width="1" opacity="1"/><line transform="translate(150,0)" x2="0" y2="5" stroke="#888" stroke-width="1" opacity="1"/><line transform="translate(180,0)" x2="0" y2="5" stroke="#888" stroke-width="1" opacity="1"/><line transform="translate(210,0)" x2="0" y2="5" stroke="#888" stroke-width="1" opacity="1"/><line transform="translate(240,0)" x2="0" y2="5" stroke="#888" stroke-width="1" opacity="1"/><line transform="translate(270,0)" x2="0" y2="5" stroke="#888" stroke-width="1" opacity="1"/><line transform="translate(300,0)" x2="0" y2="5" stroke="#888" stroke-width="1" opacity="1"/></g><g class="mark-text role-axis-label" pointer-events="none"><text text-anchor="start" transform="translate(0,15)" font-family="sans-serif" font-size="10px" fill="#000" opacity="1">0</text><text text-anchor="middle" transform="translate(30,15)" font-family="sans-serif" font-size="10px" fill="#000" opacity="1">10</text><text text-anchor="middle" transform="translate(60,15)" font-family="sans-serif" font-size="10px" fill="#000" opacity="1">20</text><text text-anchor="middle" transform="translate(90,15)" font-family="sans-serif" font-size="10px" fill="#000" opacity="1">30</text><text text-anchor="middle" transform="translate(120,15)" font-family="sans-serif" font-size="10px" fill="#000" opacity="1">40</text><text text-anchor="middle" transform="translate(150,15)" font-family="sans-serif" font-size="10px" fill="#000" opacity="1">50</text><text text-anchor="middle" transform="translate(180,15)" font-family="sans-serif" font-size="10px" fill="#000" opacity="1">60</text><text text-anchor="middle" transform="translate(210,15)" font-family="sans-serif" font-size="10px" fill="#000" opacity="1">70</text><text text-anchor="middle" transform="translate(240,15)" font-family="sans-serif" font-size="10px" fill="#000" opacity="1">80</text><text text-anchor="middle" transform="translate(270,15)" font-family="sans-serif" font-size="10px" fill="#000" opacity="1">90</text><text text-anchor="end" transform="translate(300,15)" font-family="sans-serif" font-size="10px" fill="#000" opacity="1">100</text></g><g class="mark-rule role-axis-domain" pointer-events="none"><line transform="translate(0,0)" x2="300" y2="0" stroke="#888" stroke-width="1" opacity="1"/></g><g class="mark-text role-axis-title" pointer-events="none"><text text-anchor="middle" transform="translate(150,30)" font-family="sans-serif" font-size="11px" font-weight="bold" fill="#000" opacity="1">Age (years)</text></g></g><path class="foreground" aria-hidden="true" d="" pointer-events="none" display="none"/></g></g><g class="mark-group role-axis" role="graphics-symbol" aria-roledescription="axis" aria-label="Y-axis titled 'Number of people' for a linear scale with values from 0 to 1,800"><g transform="translate(0.5,0.5)"><path class="background" aria-hidden="true" d="M0,0h0v0h0Z" pointer-events="none"/><g><g class="mark-rule role-axis-tick" pointer-events="none"><line transform="translate(0,300)" x2="-5" y2="0" stroke="#888" stroke-width="1" opacity="1"/><line transform="translate(0,267)" x2="-5" y2="0" stroke="#888" stroke-width="1" opacity="1"/><line transform="translate(0,233)" x2="-5" y2="0" stroke="#888" stroke-width="1" opacity="1"/><line transform="translate(0,200)" x2="-5" y2="0" stroke="#888" stroke-width="1" opacity="1"/><line transform="translate(0,167)" x2="-5" y2="0" stroke="#888" stroke-width="1" opacity="1"/><line transform="translate(0,133)" x2="-5" y2="0" stroke="#888" stroke-width="1" opacity="1"/><line transform="translate(0,100)" x2="-5" y2="0" stroke="#888" stroke-width="1" opacity="1"/><line transform="translate(0,67)" x2="-5" y2="0" stroke="#888" stroke-width="1" opacity="1"/><line transform="translate(0,33)" x2="-5" y2="0" stroke="#888" stroke-width="1" opacity="1"/><line transform="translate(0,0)" x2="-5" y2="0" stroke="#888" stroke-width="1" opacity="1"/></g><g class="mark-text role-axis-label" pointer-events="none"><text text-anchor="end" transform="translate(-7,303)" font-family="sans-serif" font-size="10px" fill="#000" opacity="1">0</text><text text-anchor="end" transform="translate(-7,269.66666666666663)" font-family="sans-serif" font-size="10px" fill="#000" opacity="1">200</text><text text-anchor="end" transform="translate(-7,236.33333333333334)" font-family="sans-serif" font-size="10px" fill="#000" opacity="1">400</text><text text-anchor="end" transform="translate(-7,203.00000000000003)" font-family="sans-serif" font-size="10px" fill="#000" opacity="1">600</text><text text-anchor="end" transform="translate(-7,169.66666666666669)" font-family="sans-serif" font-size="10px" fill="#000" opacity="1">800</text><text text-anchor="end" transform="translate(-7,136.33333333333331)" font-family="sans-serif" font-size="10px" fill="#000" opacity="1">1,000</text><text text-anchor="end" transform="translate(-7,103.00000000000001)" font-family="sans-serif" font-size="10px" fill="#000" opacity="1">1,200</text><text text-anchor="end" transform="translate(-7,69.66666666666666)" font-family="sans-serif" font-size="10px" fill="#000" opacity="1">1,400</text><text text-anchor="end" transform="translate(-7,36.33333333333335)" font-family="sans-serif" font-size="10px" fill="#000" opacity="1">1,600</text><text text-anchor="end" transform="translate(-7,3)" font-family="sans-serif" font-size="10px" fill="#000" opacity="1">1,800</text></g><g class="mark-rule role-axis-domain" pointer-events="none"><line transform="translate(0,300)" x2="0" y2="-300" stroke="#888" stroke-width="1" opacity="1"/></g><g class="mark-text role-axis-title" pointer-events="none"><text text-anchor="middle" transform="translate(-37.86666679382324,150) rotate(-90) translate(0,-2)" font-family="sans-serif" font-size="11px" font-weight="bold" fill="#000" opacity="1">Number of people</text></g></g><path class="foreground" aria-hidden="true" d="" pointer-events="none" display="none"/></g></g><g class="mark-rect role-mark marks" role="graphics-object" aria-roledescription="rect mark container"><path aria-label="Age (years): 0; Number of people: 5; BinRight: 1" role="graphics-symbol" aria-roledescription="rect mark" d="M0,299.1666666666667h3v0.8333333333333144h-3Z" fill="#4c78a8"/><path aria-label="Age (years): 1; Number of people: 73; BinRight: 2" role="graphics-symbol" aria-roledescription="rect mark" d="M3,287.8333333333333h3v12.166666666666686h-3Z" fill="#4c78a8"/><path aria-label="Age (years): 2; Number of people: 162; BinRight: 3" role="graphics-symbol" aria-roledescription="rect mark" d="M6,273h3v27h-3Z" fill="#4c78a8"/><path aria-label="Age (years): 3; Number of people: 151; BinRight: 4" role="graphics-symbol" aria-roledescription="rect mark" d="M9,274.8333333333333h3v25.166666666666686h-3Z" fill="#4c78a8"/><path aria-label="Age (years): 4; Number of people: 155; BinRight: 5" role="graphics-symbol" aria-roledescription="rect mark" d="M12,274.1666666666667h3v25.833333333333314h-3Z" fill="#4c78a8"/><path aria-label="Age (years): 5; Number of people: 150; BinRight: 6" role="graphics-symbol" aria-roledescription="rect mark" d="M15,275h3v25h-3Z" fill="#4c78a8"/><path aria-label="Age (years): 6; Number of people: 149; BinRight: 7" role="graphics-symbol" aria-roledescription="rect mark" d="M18,275.16666666666663h3.0000000000000036v24.83333333333337h-3.0000000000000036Z" fill="#4c78a8"/><path aria-label="Age (years): 7; Number of people: 148; BinRight: 8" role="graphics-symbol" aria-roledescription="rect mark" d="M21.000000000000004,275.3333333333333h2.9999999999999964v24.666666666666686h-2.9999999999999964Z" fill="#4c78a8"/><path aria-label="Age (years): 8; Number of people: 208; BinRight: 9" role="graphics-symbol" aria-roledescription="rect mark" d="M24,265.33333333333337h3v34.66666666666663h-3Z" fill="#4c78a8"/><path aria-label="Age (years): 9; Number of people: 199; BinRight: 10" role="graphics-symbol" aria-roledescription="rect mark" d="M27,266.83333333333337h3v33.16666666666663h-3Z" fill="#4c78a8"/><path aria-label="Age (years): 10; Number of people: 219; BinRight: 11" role="graphics-symbol" aria-roledescription="rect mark" d="M30,263.5h3v36.5h-3Z" fill="#4c78a8"/><path aria-label="Age (years): 11; Number of people: 289; BinRight: 12" role="graphics-symbol" aria-roledescription="rect mark" d="M33,251.83333333333334h3v48.16666666666666h-3Z" fill="#4c78a8"/><path aria-label="Age (years): 12; Number of people: 259; BinRight: 13" role="graphics-symbol" aria-roledescription="rect mark" d="M36,256.8333333333333h3v43.166666666666686h-3Z" fill="#4c78a8"/><path aria-label="Age (years): 13; Number of people: 323; BinRight: 14" role="graphics-symbol" aria-roledescription="rect mark" d="M39,246.16666666666669h3.000000000000007v53.833333333333314h-3.000000000000007Z" fill="#4c78a8"/><path aria-label="Age (years): 14; Number of people: 383; BinRight: 15" role="graphics-symbol" aria-roledescription="rect mark" d="M42.00000000000001,236.16666666666669h2.999999999999993v63.833333333333314h-2.999999999999993Z" fill="#4c78a8"/><path aria-label="Age (years): 15; Number of people: 371; BinRight: 16" role="graphics-symbol" aria-roledescription="rect mark" d="M45,238.16666666666666h3v61.83333333333334h-3Z" fill="#4c78a8"/><path aria-label="Age (years): 16; Number of people: 386; BinRight: 17" role="graphics-symbol" aria-roledescription="rect mark" d="M48,235.66666666666666h3.000000000000007v64.33333333333334h-3.000000000000007Z" fill="#4c78a8"/><path aria-label="Age (years): 17; Number of people: 353; BinRight: 18" role="graphics-symbol" aria-roledescription="rect mark" d="M51.00000000000001,241.16666666666666h2.999999999999993v58.83333333333334h-2.999999999999993Z" fill="#4c78a8"/><path aria-label="Age (years): 18; Number of people: 310; BinRight: 19" role="graphics-symbol" aria-roledescription="rect mark" d="M54,248.33333333333331h3v51.666666666666686h-3Z" fill="#4c78a8"/><path aria-label="Age (years): 19; Number of people: 363; BinRight: 20" role="graphics-symbol" aria-roledescription="rect mark" d="M57,239.5h3v60.5h-3Z" fill="#4c78a8"/><path aria-label="Age (years): 20; Number of people: 410; BinRight: 21" role="graphics-symbol" aria-roledescription="rect mark" d="M60,231.66666666666669h3v68.33333333333331h-3Z" fill="#4c78a8"/><path aria-label="Age (years): 21; Number of people: 477; BinRight: 22" role="graphics-symbol" aria-roledescription="rect mark" d="M63,220.5h3v79.5h-3Z" fill="#4c78a8"/><path aria-label="Age (years): 22; Number of people: 548; BinRight: 23" role="graphics-symbol" aria-roledescription="rect mark" d="M66,208.66666666666666h3v91.33333333333334h-3Z" fill="#4c78a8"/><path aria-label="Age (years): 23; Number of people: 534; BinRight: 24" role="graphics-symbol" aria-roledescription="rect mark" d="M69,211h3v89h-3Z" fill="#4c78a8"/><path aria-label="Age (years): 24; Number of people: 575; BinRight: 25" role="graphics-symbol" aria-roledescription="rect mark" d="M72,204.16666666666669h3v95.83333333333331h-3Z" fill="#4c78a8"/><path aria-label="Age (years): 25; Number of people: 608; BinRight: 26" role="graphics-symbol" aria-roledescription="rect mark" d="M75,198.66666666666669h3v101.33333333333331h-3Z" fill="#4c78a8"/><path aria-label="Age (years): 26; Number of people: 644; BinRight: 27" role="graphics-symbol" aria-roledescription="rect mark" d="M78,192.66666666666669h3v107.33333333333331h-3Z" fill="#4c78a8"/><path aria-label="Age (years): 27; Number of people: 719; BinRight: 28" role="graphics-symbol" aria-roledescription="rect mark" d="M81,180.16666666666666h3.000000000000014v119.83333333333334h-3.000000000000014Z" fill="#4c78a8"/><path aria-label="Age (years): 28; Number of people: 682; BinRight: 29" role="graphics-symbol" aria-roledescription="rect mark" d="M84.00000000000001,186.33333333333334h2.999999999999986v113.66666666666666h-2.999999999999986Z" fill="#4c78a8"/><path aria-label="Age (years): 29; Number of people: 718; BinRight: 30" role="graphics-symbol" aria-roledescription="rect mark" d="M87,180.33333333333334h3v119.66666666666666h-3Z" fill="#4c78a8"/><path aria-label="Age (years): 30; Number of people: 685; BinRight: 31" role="graphics-symbol" aria-roledescription="rect mark" d="M90,185.83333333333334h3v114.16666666666666h-3Z" fill="#4c78a8"/><path aria-label="Age (years): 31; Number of people: 748; BinRight: 32" role="graphics-symbol" aria-roledescription="rect mark" d="M93,175.33333333333334h3v124.66666666666666h-3Z" fill="#4c78a8"/><path aria-label="Age (years): 32; Number of people: 779; BinRight: 33" role="graphics-symbol" aria-roledescription="rect mark" d="M96,170.16666666666669h3v129.83333333333331h-3Z" fill="#4c78a8"/><path aria-label="Age (years): 33; Number of people: 821; BinRight: 34" role="graphics-symbol" aria-roledescription="rect mark" d="M99,163.16666666666666h3.000000000000014v136.83333333333334h-3.000000000000014Z" fill="#4c78a8"/><path aria-label="Age (years): 34; Number of people: 847; BinRight: 35" role="graphics-symbol" aria-roledescription="rect mark" d="M102.00000000000001,158.83333333333331h2.999999999999986v141.16666666666669h-2.999999999999986Z" fill="#4c78a8"/><path aria-label="Age (years): 35; Number of people: 882; BinRight: 36" role="graphics-symbol" aria-roledescription="rect mark" d="M105,153h3v147h-3Z" fill="#4c78a8"/><path aria-label="Age (years): 36; Number of people: 951; BinRight: 37" role="graphics-symbol" aria-roledescription="rect mark" d="M108,141.5h3v158.5h-3Z" fill="#4c78a8"/><path aria-label="Age (years): 37; Number of people: 926; BinRight: 38" role="graphics-symbol" aria-roledescription="rect mark" d="M111,145.66666666666666h3v154.33333333333334h-3Z" fill="#4c78a8"/><path aria-label="Age (years): 38; Number of people: 1001; BinRight: 39" role="graphics-symbol" aria-roledescription="rect mark" d="M114,133.16666666666666h3v166.83333333333334h-3Z" fill="#4c78a8"/><path aria-label="Age (years): 39; Number of people: 1015; BinRight: 40" role="graphics-symbol" aria-roledescription="rect mark" d="M117,130.83333333333334h3v169.16666666666666h-3Z" fill="#4c78a8"/><path aria-label="Age (years): 40; Number of people: 1005; BinRight: 41" role="graphics-symbol" aria-roledescription="rect mark" d="M120,132.5h2.999999999999986v167.5h-2.999999999999986Z" fill="#4c78a8"/><path aria-label="Age (years): 41; Number of people: 1086; BinRight: 42" role="graphics-symbol" aria-roledescription="rect mark" d="M122.99999999999999,118.99999999999999h3.000000000000014v181h-3.000000000000014Z" fill="#4c78a8"/><path aria-label="Age (years): 42; Number of people: 1020; BinRight: 43" role="graphics-symbol" aria-roledescription="rect mark" d="M126,130h3v170h-3Z" fill="#4c78a8"/><path aria-label="Age (years): 43; Number of people: 1059; BinRight: 44" role="graphics-symbol" aria-roledescription="rect mark" d="M129,123.49999999999999h3v176.5h-3Z" fill="#4c78a8"/><path aria-label="Age (years): 44; Number of people: 1164; BinRight: 45" role="graphics-symbol" aria-roledescription="rect mark" d="M132,106.00000000000001h3v194h-3Z" fill="#4c78a8"/><path aria-label="Age (years): 45; Number of people: 1156; BinRight: 46" role="graphics-symbol" aria-roledescription="rect mark" d="M135,107.33333333333333h3v192.66666666666669h-3Z" fill="#4c78a8"/><path aria-label="Age (years): 46; Number of people: 1080; BinRight: 47" role="graphics-symbol" aria-roledescription="rect mark" d="M138,120h3v180h-3Z" fill="#4c78a8"/><path aria-label="Age (years): 47; Number of people: 1178; BinRight: 48" role="graphics-symbol" aria-roledescription="rect mark" d="M141,103.66666666666666h3v196.33333333333334h-3Z" fill="#4c78a8"/><path aria-label="Age (years): 48; Number of people: 1119; BinRight: 49" role="graphics-symbol" aria-roledescription="rect mark" d="M144,113.49999999999999h3v186.5h-3Z" fill="#4c78a8"/><path aria-label="Age (years): 49; Number of people: 1251; BinRight: 50" role="graphics-symbol" aria-roledescription="rect mark" d="M147,91.50000000000001h3v208.5h-3Z" fill="#4c78a8"/><path aria-label="Age (years): 50; Number of people: 1335; BinRight: 51" role="graphics-symbol" aria-roledescription="rect mark" d="M150,77.49999999999999h3v222.5h-3Z" fill="#4c78a8"/><path aria-label="Age (years): 51; Number of people: 1355; BinRight: 52" role="graphics-symbol" aria-roledescription="rect mark" d="M153,74.16666666666667h3v225.83333333333331h-3Z" fill="#4c78a8"/><path aria-label="Age (years): 52; Number of people: 1520; BinRight: 53" role="graphics-symbol" aria-roledescription="rect mark" d="M156,46.666666666666664h3v253.33333333333334h-3Z" fill="#4c78a8"/><path aria-label="Age (years): 53; Number of people: 1529; BinRight: 54" role="graphics-symbol" aria-roledescription="rect mark" d="M159,45.166666666666664h3v254.83333333333334h-3Z" fill="#4c78a8"/><path aria-label="Age (years): 54; Number of people: 1586; BinRight: 55" role="graphics-symbol" aria-roledescription="rect mark" d="M162,35.66666666666668h3v264.3333333333333h-3Z" fill="#4c78a8"/><path aria-label="Age (years): 55; Number of people: 1660; BinRight: 56" role="graphics-symbol" aria-roledescription="rect mark" d="M165,23.333333333333318h3.0000000000000284v276.6666666666667h-3.0000000000000284Z" fill="#4c78a8"/><path aria-label="Age (years): 56; Number of people: 1662; BinRight: 57" role="graphics-symbol" aria-roledescription="rect mark" d="M168.00000000000003,23h2.999999999999943v277h-2.999999999999943Z" fill="#4c78a8"/><path aria-label="Age (years): 57; Number of people: 1581; BinRight: 58" role="graphics-symbol" aria-roledescription="rect mark" d="M170.99999999999997,36.50000000000001h3.0000000000000284v263.5h-3.0000000000000284Z" fill="#4c78a8"/><path aria-label="Age (years): 58; Number of people: 1560; BinRight: 59" role="graphics-symbol" aria-roledescription="rect mark" d="M174,39.99999999999999h3v260h-3Z" fill="#4c78a8"/><path aria-label="Age (years): 59; Number of people: 1570; BinRight: 60" role="graphics-symbol" aria-roledescription="rect mark" d="M177,38.33333333333333h3v261.6666666666667h-3Z" fill="#4c78a8"/><path aria-label="Age (years): 60; Number of people: 1584; BinRight: 61" role="graphics-symbol" aria-roledescription="rect mark" d="M180,36h3v264h-3Z" fill="#4c78a8"/><path aria-label="Age (years): 61; Number of people: 1498; BinRight: 62" role="graphics-symbol" aria-roledescription="rect mark" d="M183,50.33333333333334h3v249.66666666666666h-3Z" fill="#4c78a8"/><path aria-label="Age (years): 62; Number of people: 1471; BinRight: 63" role="graphics-symbol" aria-roledescription="rect mark" d="M186,54.83333333333334h3v245.16666666666666h-3Z" fill="#4c78a8"/><path aria-label="Age (years): 63; Number of people: 1403; BinRight: 64" role="graphics-symbol" aria-roledescription="rect mark" d="M189,66.16666666666666h3v233.83333333333334h-3Z" fill="#4c78a8"/><path aria-label="Age (years): 64; Number of people: 1237; BinRight: 65" role="graphics-symbol" aria-roledescription="rect mark" d="M192,93.83333333333334h3v206.16666666666666h-3Z" fill="#4c78a8"/><path aria-label="Age (years): 65; Number of people: 1310; BinRight: 66" role="graphics-symbol" aria-roledescription="rect mark" d="M195,81.66666666666667h3v218.33333333333331h-3Z" fill="#4c78a8"/><path aria-label="Age (years): 66; Number of people: 1347; BinRight: 67" role="graphics-symbol" aria-roledescription="rect mark" d="M198,75.50000000000001h3v224.5h-3Z" fill="#4c78a8"/><path aria-label="Age (years): 67; Number of people: 1435; BinRight: 68" role="graphics-symbol" aria-roledescription="rect mark" d="M201,60.833333333333314h3.0000000000000284v239.16666666666669h-3.0000000000000284Z" fill="#4c78a8"/><path aria-label="Age (years): 68; Number of people: 1387; BinRight: 69" role="graphics-symbol" aria-roledescription="rect mark" d="M204.00000000000003,68.83333333333333h2.999999999999943v231.16666666666669h-2.999999999999943Z" fill="#4c78a8"/><path aria-label="Age (years): 69; Number of people: 1417; BinRight: 70" role="graphics-symbol" aria-roledescription="rect mark" d="M206.99999999999997,63.83333333333332h3.0000000000000284v236.16666666666669h-3.0000000000000284Z" fill="#4c78a8"/><path aria-label="Age (years): 70; Number of people: 1483; BinRight: 71" role="graphics-symbol" aria-roledescription="rect mark" d="M210,52.83333333333333h3v247.16666666666669h-3Z" fill="#4c78a8"/><path aria-label="Age (years): 71; Number of people: 1412; BinRight: 72" role="graphics-symbol" aria-roledescription="rect mark" d="M213,64.66666666666666h3v235.33333333333334h-3Z" fill="#4c78a8"/><path aria-label="Age (years): 72; Number of people: 1382; BinRight: 73" role="graphics-symbol" aria-roledescription="rect mark" d="M216,69.66666666666667h3v230.33333333333331h-3Z" fill="#4c78a8"/><path aria-label="Age (years): 73; Number of people: 1347; BinRight: 74" role="graphics-symbol" aria-roledescription="rect mark" d="M219,75.50000000000001h3v224.5h-3Z" fill="#4c78a8"/><path aria-label="Age (years): 74; Number of people: 1332; BinRight: 75" role="graphics-symbol" aria-roledescription="rect mark" d="M222,78h3v222h-3Z" fill="#4c78a8"/><path aria-label="Age (years): 75; Number of people: 1240; BinRight: 76" role="graphics-symbol" aria-roledescription="rect mark" d="M225,93.33333333333333h3v206.66666666666669h-3Z" fill="#4c78a8"/><path aria-label="Age (years): 76; Number of people: 1223; BinRight: 77" role="graphics-symbol" aria-roledescription="rect mark" d="M228,96.16666666666667h3v203.83333333333331h-3Z" fill="#4c78a8"/><path aria-label="Age (years): 77; Number of people: 1020; BinRight: 78" role="graphics-symbol" aria-roledescription="rect mark" d="M231,130h3v170h-3Z" fill="#4c78a8"/><path aria-label="Age (years): 78; Number of people: 965; BinRight: 79" role="graphics-symbol" aria-roledescription="rect mark" d="M234,139.16666666666669h3v160.83333333333331h-3Z" fill="#4c78a8"/><path aria-label="Age (years): 79; Number of people: 863; BinRight: 80" role="graphics-symbol" aria-roledescription="rect mark" d="M237,156.16666666666666h3v143.83333333333334h-3Z" fill="#4c78a8"/><path aria-label="Age (years): 80; Number of people: 838; BinRight: 81" role="graphics-symbol" aria-roledescription="rect mark" d="M240,160.33333333333334h3.0000000000000284v139.66666666666666h-3.0000000000000284Z" fill="#4c78a8"/><path aria-label="Age (years): 81; Number of people: 718; BinRight: 82" role="graphics-symbol" aria-roledescription="rect mark" d="M243.00000000000003,180.33333333333334h2.999999999999943v119.66666666666666h-2.999999999999943Z" fill="#4c78a8"/><path aria-label="Age (years): 82; Number of people: 665; BinRight: 83" role="graphics-symbol" aria-roledescription="rect mark" d="M245.99999999999997,189.16666666666666h3.0000000000000284v110.83333333333334h-3.0000000000000284Z" fill="#4c78a8"/><path aria-label="Age (years): 83; Number of people: 654; BinRight: 84" role="graphics-symbol" aria-roledescription="rect mark" d="M249,191h3v109h-3Z" fill="#4c78a8"/><path aria-label="Age (years): 84; Number of people: 527; BinRight: 85" role="graphics-symbol" aria-roledescription="rect mark" d="M252,212.16666666666666h3v87.83333333333334h-3Z" fill="#4c78a8"/><path aria-label="Age (years): 85; Number of people: 450; BinRight: 86" role="graphics-symbol" aria-roledescription="rect mark" d="M255,225h3v75h-3Z" fill="#4c78a8"/><path aria-label="Age (years): 86; Number of people: 399; BinRight: 87" role="graphics-symbol" aria-roledescription="rect mark" d="M258,233.5h3v66.5h-3Z" fill="#4c78a8"/><path aria-label="Age (years): 87; Number of people: 296; BinRight: 88" role="graphics-symbol" aria-roledescription="rect mark" d="M261,250.66666666666669h3v49.333333333333314h-3Z" fill="#4c78a8"/><path aria-label="Age (years): 88; Number of people: 261; BinRight: 89" role="graphics-symbol" aria-roledescription="rect mark" d="M264,256.5h3v43.5h-3Z" fill="#4c78a8"/><path aria-label="Age (years): 89; Number of people: 196; BinRight: 90" role="graphics-symbol" aria-roledescription="rect mark" d="M267,267.3333333333333h3v32.666666666666686h-3Z" fill="#4c78a8"/><path aria-label="Age (years): 90; Number of people: 152; BinRight: 91" role="graphics-symbol" aria-roledescription="rect mark" d="M270,274.6666666666667h3v25.333333333333314h-3Z" fill="#4c78a8"/><path aria-label="Age (years): 91; Number of people: 124; BinRight: 92" role="graphics-symbol" aria-roledescription="rect mark" d="M273,279.3333333333333h3v20.666666666666686h-3Z" fill="#4c78a8"/><path aria-label="Age (years): 92; Number of people: 96; BinRight: 93" role="graphics-symbol" aria-roledescription="rect mark" d="M276,284h3v16h-3Z" fill="#4c78a8"/><path aria-label="Age (years): 93; Number of people: 49; BinRight: 94" role="graphics-symbol" aria-roledescription="rect mark" d="M279,291.8333333333333h3v8.166666666666686h-3Z" fill="#4c78a8"/><path aria-label="Age (years): 94; Number of people: 37; BinRight: 95" role="graphics-symbol" aria-roledescription="rect mark" d="M282,293.8333333333333h3v6.166666666666686h-3Z" fill="#4c78a8"/><path aria-label="Age (years): 95; Number of people: 19; BinRight: 96" role="graphics-symbol" aria-roledescription="rect mark" d="M285,296.8333333333333h3v3.1666666666666856h-3Z" fill="#4c78a8"/><path aria-label="Age (years): 96; Number of people: 10; BinRight: 97" role="graphics-symbol" aria-roledescription="rect mark" d="M288,298.3333333333333h3v1.6666666666666856h-3Z" fill="#4c78a8"/><path aria-label="Age (years): 97; Number of people: 9; BinRight: 98" role="graphics-symbol" aria-roledescription="rect mark" d="M291,298.5h3v1.5h-3Z" fill="#4c78a8"/></g></g><path class="foreground" aria-hidden="true" d="" display="none"/></g></g></g></svg>