<svg xmlns="http://www.w3.org/2000/svg" xmlns:xlink="http://www.w3.org/1999/xlink" version="1.1" class="marks" width="367" height="347" viewBox="0 0 367 347"><rect width="367" height="347" fill="white"/><g fill="none" stroke-miterlimit="10" transform="translate(54,10)"><g class="mark-group role-frame root" role="graphics-object" aria-roledescription="group mark container"><g transform="translate(0,0)"><path class="background" aria-hidden="true" d="M0.5,0.5h300v300h-300Z" stroke="#ddd"/><g><g class="mark-group role-axis" aria-hidden="true"><g transform="translate(0.5,300.5)"><path class="background" aria-hidden="true" d="M0,0h0v0h0Z" pointer-events="none"/><g><g class="mark-rule role-axis-grid" pointer-events="none"><line transform="translate(28,-300)" x2="0" y2="300" stroke="#ddd" stroke-width="1" opacity="1"/><line transform="translate(61,-300)" x2="0" y2="300" stroke="#ddd" stroke-width="1" opacity="1"/><line transform="translate(95,-300)" x2="0" y2="300" stroke="#ddd" stroke-width="1" opacity="1"/><line transform="translate(129,-300)" x2="0" y2="300" stroke="#ddd" stroke-width="1" opacity="1"/><line transform="translate(163,-300)" x2="0" y2="300" stroke="#ddd" stroke-width="1" opacity="1"/><line transform="translate(197,-300)" x2="0" y2="300" stroke="#ddd" stroke-width="1" opacity="1"/><line transform="translate(230,-300)" x2="0" y2="300" stroke="#ddd" stroke-width="1" opacity="1"/><line transform="translate(264,-300)" x2="0" y2="300" stroke="#ddd" stroke-width="1" opacity="1"/><line transform="translate(298,-300)" x2="0" y2="300" stroke="#ddd" stroke-width="1" opacity="1"/></g></g><path class="foreground" aria-hidden="true" d="" pointer-events="none" display="none"/></g></g><g class="mark-group role-axis" aria-hidden="true"><g transform="translate(0.5,0.5)"><path class="background" aria-hidden="true" d="M0,0h0v0h0Z" pointer-events="none"/><g><g class="mark-rule role-axis-grid" pointer-events="none"><line transform="translate(0,300)" x2="300" y2="0" stroke="#ddd" stroke-width="1" opacity="1"/><line transform="translate(0,275)" x2="300" y2="0" stroke="#ddd" stroke-width="1" opacity="1"/><line transform="translate(0,250)" x2="300" y2="0" stroke="#ddd" stroke-width="1" opacity="1"/><line transform="translate(0,225)" x2="300" y2="0" stroke="#ddd" stroke-width="1" opacity="1"/><line transform="translate(0,200)" x2="300" y2="0" stroke="#ddd" stroke-width="1" opacity="1"/><line transform="translate(0,175)" x2="300" y2="0" stroke="#ddd" stroke-width="1" opacity="1"/><line transform="translate(0,150)" x2="300" y2="0" stroke="#ddd" stroke-width="1" opacity="1"/><line transform="translate(0,125)" x2="300" y2="0" stroke="#ddd" stroke-width="1" opacity="1"/><line transform="translate(0,100)" x2="300" y2="0" stroke="#ddd" stroke-width="1" opacity="1"/><line transform="translate(0,75)" x2="300" y2="0" stroke="#ddd" stroke-width="1" opacity="1"/><line transform="translate(0,50)" x2="300" y2="0" stroke="#ddd" stroke-width="1" opacity="1"/><line transform="translate(0,25)" x2="300" y2="0" stroke="#ddd" stroke-width="1" opacity="1"/><line transform="translate(0,0)" x2="300" y2="0" stroke="#ddd" stroke-width="1" opacity="1"/></g></g><path class="foreground" aria-hidden="true" d="" pointer-events="none" display="none"/></g></g><g class="mark-group role-axis" role="graphics-symbol" aria-roledescription="axis" aria-label="X-axis titled 'Date' for a time scale with values from Saturday, 08 March 2014, 12:20:41 AM to Tuesday, 24 January 2023, 3:39:18 AM"><g transform="translate(0.5,300.5)"><path class="background" aria-hidden="true" d="M0,0h0v0h0Z" pointer-events="none"/><g><g class="mark-rule role-axis-tick" pointer-events="none"><line transform="translate(28,0)" x2="0" y2="5" stroke="#888" stroke-width="1" opacity="1"/><line transform="translate(61,0)" x2="0" y2="5" stroke="#888" stroke-width="1" opacity="1"/><line transform="translate(95,0)" x2="0" y2="5" stroke="#888" stroke-width="1" opacity="1"/><line transform="translate(129,0)" x2="0" y2="5" stroke="#888" stroke-width="1" opacity="1"/><line transform="translate(163,0)" x2="0" y2="5" stroke="#888" stroke-width="1" opacity="1"/><line transform="translate(197,0)" x2="0" y2="5" stroke="#888" stroke-width="1" opacity="1"/><line transform="translate(230,0)" x2="0" y2="5" stroke="#888" stroke-width="1" opacity="1"/><line transform="translate(264,0)" x2="0" y2="5" stroke="#888" stroke-width="1" opacity="1"/><line transform="translate(298,0)" x2="0" y2="5" stroke="#888" stroke-width="1" opacity="1"/></g><g class="mark-text role-axis-label" pointer-events="none"><text text-anchor="middle" transform="translate(27.648543792886585,15)" font-family="sans-serif" font-size="10px" fill="#000" opacity="1">2015</text><text text-anchor="middle" transform="translate(61.40173256844247,15)" font-family="sans-serif" font-size="10px" fill="#000" opacity="1">2016</text><text text-anchor="middle" transform="translate(95.24739583379439,15)" font-family="sans-serif" font-size="10px" fill="#000" opacity="1">2017</text><text text-anchor="middle" transform="translate(129.00058460935028,15)" font-family="sans-serif" font-size="10px" fill="#000" opacity="1">2018</text><text text-anchor="middle" transform="translate(162.75377338490617,15)" font-family="sans-serif" font-size="10px" fill="#000" opacity="1">2019</text><text text-anchor="middle" transform="translate(196.50696216046205,15)" font-family="sans-serif" font-size="10px" fill="#000" opacity="1">2020</text><text text-anchor="middle" transform="translate(230.35262542581395,15)" font-family="sans-serif" font-size="10px" fill="#000" opacity="1">2021</text><text text-anchor="middle" transform="translate(264.10581420136987,15)" font-family="sans-serif" font-size="10px" fill="#000" opacity="1">2022</text><text text-anchor="middle" transform="translate(297.85900297692575,15)" font-family="sans-serif" font-size="10px" fill="#000" opacity="1">2023</text></g><g class="mark-rule role-axis-domain" pointer-events="none"><line transform="translate(0,0)" x2="300" y2="0" stroke="#888" stroke-width="1" opacity="1"/></g><g class="mark-text role-axis-title" pointer-events="none"><text text-anchor="middle" transform="translate(150,30)" font-family="sans-serif" font-size="11px" font-weight="bold" fill="#000" opacity="1">Date</text></g></g><path class="foreground" aria-hidden="true" d="" pointer-events="none" display="none"/></g></g><g class="mark-group role-axis" role="graphics-symbol" aria-roledescription="axis" aria-label="Y-axis titled 'Number of records' for a linear scale with values from 0 to 2,400"><g transform="translate(0.5,0.5)"><path class="background" aria-hidden="true" d="M0,0h0v0h0Z" pointer-events="none"/><g><g class="mark-rule role-axis-tick" pointer-events="none"><line transform="translate(0,300)" x2="-5" y2="0" stroke="#888" stroke-width="1" opacity="1"/><line transform="translate(0,275)" x2="-5" y2="0" stroke="#888" stroke-width="1" opacity="1"/><line transform="translate(0,250)" x2="-5" y2="0" stroke="#888" stroke-width="1" opacity="1"/><line transform="translate(0,225)" x2="-5" y2="0" stroke="#888" stroke-width="1" opacity="1"/><line transform="translate(0,200)" x2="-5" y2="0" stroke="#888" stroke-width="1" opacity="1"/><line transform="translate(0,175)" x2="-5" y2="0" stroke="#888" stroke-width="1" opacity="1"/><line transform="translate(0,150)" x2="-5" y2="0" stroke="#888" stroke-width="1" opacity="1"/><line transform="translate(0,125)" x2="-5" y2="0" stroke="#888" stroke-width="1" opacity="1"/><line transform="translate(0,100)" x2="-5" y2="0" stroke="#888" stroke-width="1" opacity="1"/><line transform="translate(0,75)" x2="-5" y2="0" stroke="#888" stroke-width="1" opacity="1"/><line transform="translate(0,50)" x2="-5" y2="0" stroke="#888" stroke-width="1" opacity="1"/><line transform="translate(0,25)" x2="-5" y2="0" stroke="#888" stroke-width="1" opacity="1"/><line transform="translate(0,0)" x2="-5" y2="0" stroke="#888" stroke-width="1" opacity="1"/></g><g class="mark-text role-axis-label" pointer-events="none"><text text-anchor="end" transform="translate(-7,303)" font-family="sans-serif" font-size="10px" fill="#000" opacity="1">0</text><text text-anchor="end" transform="translate(-7,278)" font-family="sans-serif" font-size="10px" fill="#000" opacity="1">200</text><text text-anchor="end" transform="translate(-7,253)" font-family="sans-serif" font-size="10px" fill="#000" opacity="1">400</text><text text-anchor="end" transform="translate(-7,228)" font-family="sans-serif" font-size="10px" fill="#000" opacity="1">600</text><text text-anchor="end" transform="translate(-7,203.00000000000003)" font-family="sans-serif" font-size="10px" fill="#000" opacity="1">800</text><text text-anchor="end" transform="translate(-7,177.99999999999997)" font-family="sans-serif" font-size="10px" fill="#000" opacity="1">1,000</text><text text-anchor="end" transform="translate(-7,153)" font-family="sans-serif" font-size="10px" fill="#000" opacity="1">1,200</text><text text-anchor="end" transform="translate(-7,127.99999999999999)" font-family="sans-serif" font-size="10px" fill="#000" opacity="1">1,400</text><text text-anchor="end" transform="translate(-7,103.00000000000001)" font-family="sans-serif" font-size="10px" fill="#000" opacity="1">1,600</text><text text-anchor="end" transform="translate(-7,78)" font-family="sans-serif" font-size="10px" fill="#000" opacity="1">1,800</text><text text-anchor="end" transform="translate(-7,52.999999999999986)" font-family="sans-serif" font-size="10px" fill="#000" opacity="1">2,000</text><text text-anchor="end" transform="translate(-7,28.00000000000001)" font-family="sans-serif" font-size="10px" fill="#000" opacity="1">2,200</text><text text-anchor="end" transform="translate(-7,3)" font-family="sans-serif" font-size="10px" fill="#000" opacity="1">2,400</text></g><g class="mark-rule role-axis-domain" pointer-events="none"><line transform="translate(0,300)" x2="0" y2="-300" stroke="#888" stroke-width="1" opacity="1"/></g><g class="mark-text role-axis-title" pointer-events="none"><text text-anchor="middle" transform="translate(-37.86666679382324,150) rotate(-90) translate(0,-2)" font-family="sans-serif" font-size="11px" font-weight="bold" fill="#000" opacity="1">Number of records</text></g></g><path class="foreground" aria-hidden="true" d="" pointer-events="none" display="none"/></g></g><g class="mark-rect role-mark marks" role="graphics-object" aria-roledescription="rect mark container"><path aria-label="Date: May 01, 2014; Number of records: 17" role="graphics-symbol" aria-roledescription="bar" d="M2.5000000003389307,297.875h5v2.125h-5Z" fill="#4c78a8"/><path aria-label="Date: Jun 01, 2014; Number of records: 52" role="graphics-symbol" aria-roledescription="bar" d="M5.366709184016279,293.5h5v6.5h-5Z" fill="#4c78a8"/><path aria-label="Date: Jul 01, 2014; Number of records: 29" role="graphics-symbol" aria-roledescription="bar" d="M8.140943877897586,296.375h5v3.625h-5Z" fill="#4c78a8"/><path aria-label="Date: Aug 01, 2014; Number of records: 54" role="graphics-symbol" aria-roledescription="bar" d="M11.007653061574935,293.25h5v6.75h-5Z" fill="#4c78a8"/><path aria-label="Date: Sep 01, 2014; Number of records: 78" role="graphics-symbol" aria-roledescription="bar" d="M13.874362245252282,290.25h5v9.75h-5Z" fill="#4c78a8"/><path aria-label="Date: Oct 01, 2014; Number of records: 100" role="graphics-symbol" aria-roledescription="bar" d="M16.648596939133586,287.5h5v12.5h-5Z" fill="#4c78a8"/><path aria-label="Date: Nov 01, 2014; Number of records: 127" role="graphics-symbol" aria-roledescription="bar" d="M19.515306122810937,284.125h5v15.875h-5Z" fill="#4c78a8"/><path aria-label="Date: Dec 01, 2014; Number of records: 137" role="graphics-symbol" aria-roledescription="bar" d="M22.28954081669224,282.875h5v17.125h-5Z" fill="#4c78a8"/><path aria-label="Date: Jan 01, 2015; Number of records: 170" role="graphics-symbol" aria-roledescription="bar" d="M25.15625000036959,278.75h5v21.25h-5Z" fill="#4c78a8"/><path aria-label="Date: Feb 01, 2015; Number of records: 137" role="graphics-symbol" aria-roledescription="bar" d="M28.02295918404694,282.875h5v17.125h-5Z" fill="#4c78a8"/><path aria-label="Date: Mar 01, 2015; Number of records: 203" role="graphics-symbol" aria-roledescription="bar" d="M30.612244898336158,274.625h5v25.375h-5Z" fill="#4c78a8"/><path aria-label="Date: Apr 01, 2015; Number of records: 237" role="graphics-symbol" aria-roledescription="bar" d="M33.47895408201351,270.375h5v29.625h-5Z" fill="#4c78a8"/><path aria-label="Date: May 01, 2015; Number of records: 231" role="graphics-symbol" aria-roledescription="bar" d="M36.25318877589481,271.125h5v28.875h-5Z" fill="#4c78a8"/><path aria-label="Date: Jun 01, 2015; Number of records: 203" role="graphics-symbol" aria-roledescription="bar" d="M39.119897959572164,274.625h5v25.375h-5Z" fill="#4c78a8"/><path aria-label="Date: Jul 01, 2015; Number of records: 191" role="graphics-symbol" aria-roledescription="bar" d="M41.89413265345346,276.125h5v23.875h-5Z" fill="#4c78a8"/><path aria-label="Date: Aug 01, 2015; Number of records: 204" role="graphics-symbol" aria-roledescription="bar" d="M44.76084183713081,274.5h5v25.5h-5Z" fill="#4c78a8"/><path aria-label="Date: Sep 01, 2015; Number of records: 225" role="graphics-symbol" aria-roledescription="bar" d="M47.62755102080816,271.875h5v28.125h-5Z" fill="#4c78a8"/><path aria-label="Date: Oct 01, 2015; Number of records: 296" role="graphics-symbol" aria-roledescription="bar" d="M50.40178571468947,263h5v37h-5Z" fill="#4c78a8"/><path aria-label="Date: Nov 01, 2015; Number of records: 315" role="graphics-symbol" aria-roledescription="bar" d="M53.26849489836682,260.625h5v39.375h-5Z" fill="#4c78a8"/><path aria-label="Date: Dec 01, 2015; Number of records: 257" role="graphics-symbol" aria-roledescription="bar" d="M56.04272959224812,267.875h5v32.125h-5Z" fill="#4c78a8"/><path aria-label="Date: Jan 01, 2016; Number of records: 261" role="graphics-symbol" aria-roledescription="bar" d="M58.909438775925466,267.375h5v32.625h-5Z" fill="#4c78a8"/><path aria-label="Date: Feb 01, 2016; Number of records: 335" role="graphics-symbol" aria-roledescription="bar" d="M61.776147959602824,258.125h5v41.875h-5Z" fill="#4c78a8"/><path aria-label="Date: Mar 01, 2016; Number of records: 291" role="graphics-symbol" aria-roledescription="bar" d="M64.45790816368809,263.625h5v36.375h-5Z" fill="#4c78a8"/><path aria-label="Date: Apr 01, 2016; Number of records: 381" role="graphics-symbol" aria-roledescription="bar" d="M67.32461734736543,252.37500000000003h5v47.62499999999997h-5Z" fill="#4c78a8"/><path aria-label="Date: May 01, 2016; Number of records: 435" role="graphics-symbol" aria-roledescription="bar" d="M70.09885204124673,245.625h5v54.375h-5Z" fill="#4c78a8"/><path aria-label="Date: Jun 01, 2016; Number of records: 532" role="graphics-symbol" aria-roledescription="bar" d="M72.96556122492409,233.5h5v66.5h-5Z" fill="#4c78a8"/><path aria-label="Date: Jul 01, 2016; Number of records: 322" role="graphics-symbol" aria-roledescription="bar" d="M75.73979591880538,259.75h5v40.25h-5Z" fill="#4c78a8"/><path aria-label="Date: Aug 01, 2016; Number of records: 618" role="graphics-symbol" aria-roledescription="bar" d="M78.60650510248274,222.74999999999997h5v77.25000000000003h-5Z" fill="#4c78a8"/><path aria-label="Date: Sep 01, 2016; Number of records: 796" role="graphics-symbol" aria-roledescription="bar" d="M81.47321428616009,200.5h5v99.5h-5Z" fill="#4c78a8"/><path aria-label="Date: Oct 01, 2016; Number of records: 708" role="graphics-symbol" aria-roledescription="bar" d="M84.2474489800414,211.50000000000003h5v88.49999999999997h-5Z" fill="#4c78a8"/><path aria-label="Date: Nov 01, 2016; Number of records: 913" role="graphics-symbol" aria-roledescription="bar" d="M87.11415816371874,185.875h5v114.125h-5Z" fill="#4c78a8"/><path aria-label="Date: Dec 01, 2016; Number of records: 717" role="graphics-symbol" aria-roledescription="bar" d="M89.88839285760005,210.37499999999997h5v89.62500000000003h-5Z" fill="#4c78a8"/><path aria-label="Date: Jan 01, 2017; Number of records: 751" role="graphics-symbol" aria-roledescription="bar" d="M92.7551020412774,206.12499999999997h5v93.87500000000003h-5Z" fill="#4c78a8"/><path aria-label="Date: Feb 01, 2017; Number of records: 795" role="graphics-symbol" aria-roledescription="bar" d="M95.62181122495475,200.625h5v99.375h-5Z" fill="#4c78a8"/><path aria-label="Date: Mar 01, 2017; Number of records: 913" role="graphics-symbol" aria-roledescription="bar" d="M98.21109693924396,185.875h5v114.125h-5Z" fill="#4c78a8"/><path aria-label="Date: Apr 01, 2017; Number of records: 735" role="graphics-symbol" aria-roledescription="bar" d="M101.07780612292132,208.125h5v91.875h-5Z" fill="#4c78a8"/><path aria-label="Date: May 01, 2017; Number of records: 941" role="graphics-symbol" aria-roledescription="bar" d="M103.85204081680261,182.375h5v117.625h-5Z" fill="#4c78a8"/><path aria-label="Date: Jun 01, 2017; Number of records: 878" role="graphics-symbol" aria-roledescription="bar" d="M106.71875000047997,190.25h5v109.75h-5Z" fill="#4c78a8"/><path aria-label="Date: Jul 01, 2017; Number of records: 570" role="graphics-symbol" aria-roledescription="bar" d="M109.49298469436127,228.75h5v71.25h-5Z" fill="#4c78a8"/><path aria-label="Date: Aug 01, 2017; Number of records: 1050" role="graphics-symbol" aria-roledescription="bar" d="M112.35969387803863,168.75h5v131.25h-5Z" fill="#4c78a8"/><path aria-label="Date: Sep 01, 2017; Number of records: 915" role="graphics-symbol" aria-roledescription="bar" d="M115.22640306171597,185.625h5v114.375h-5Z" fill="#4c78a8"/><path aria-label="Date: Oct 01, 2017; Number of records: 1110" role="graphics-symbol" aria-roledescription="bar" d="M118.00063775559727,161.25h5v138.75h-5Z" fill="#4c78a8"/><path aria-label="Date: Nov 01, 2017; Number of records: 1186" role="graphics-symbol" aria-roledescription="bar" d="M120.86734693927463,151.75h5v148.25h-5Z" fill="#4c78a8"/><path aria-label="Date: Dec 01, 2017; Number of records: 856" role="graphics-symbol" aria-roledescription="bar" d="M123.64158163315592,193h5v107h-5Z" fill="#4c78a8"/><path aria-label="Date: Jan 01, 2018; Number of records: 1171" role="graphics-symbol" aria-roledescription="bar" d="M126.5082908168333,153.625h5v146.375h-5Z" fill="#4c78a8"/><path aria-label="Date: Feb 01, 2018; Number of records: 1061" role="graphics-symbol" aria-roledescription="bar" d="M129.37500000051062,167.37499999999997h5v132.62500000000003h-5Z" fill="#4c78a8"/><path aria-label="Date: Mar 01, 2018; Number of records: 1040" role="graphics-symbol" aria-roledescription="bar" d="M131.96428571479984,170h5v130h-5Z" fill="#4c78a8"/><path aria-label="Date: Apr 01, 2018; Number of records: 1031" role="graphics-symbol" aria-roledescription="bar" d="M134.8309948984772,171.125h5v128.875h-5Z" fill="#4c78a8"/><path aria-label="Date: May 01, 2018; Number of records: 1125" role="graphics-symbol" aria-roledescription="bar" d="M137.6052295923585,159.375h5v140.625h-5Z" fill="#4c78a8"/><path aria-label="Date: Jun 01, 2018; Number of records: 863" role="graphics-symbol" aria-roledescription="bar" d="M140.47193877603584,192.125h5v107.875h-5Z" fill="#4c78a8"/><path aria-label="Date: Jul 01, 2018; Number of records: 715" role="graphics-symbol" aria-roledescription="bar" d="M143.24617346991715,210.62500000000003h5v89.37499999999997h-5Z" fill="#4c78a8"/><path aria-label="Date: Aug 01, 2018; Number of records: 1080" role="graphics-symbol" aria-roledescription="bar" d="M146.1128826535945,165h5v135h-5Z" fill="#4c78a8"/><path aria-label="Date: Sep 01, 2018; Number of records: 1016" role="graphics-symbol" aria-roledescription="bar" d="M148.97959183727184,173h5v127h-5Z" fill="#4c78a8"/><path aria-label="Date: Oct 01, 2018; Number of records: 1119" role="graphics-symbol" aria-roledescription="bar" d="M151.75382653115318,160.12499999999997h5v139.87500000000003h-5Z" fill="#4c78a8"/><path aria-label="Date: Nov 01, 2018; Number of records: 1068" role="graphics-symbol" aria-roledescription="bar" d="M154.6205357148305,166.49999999999997h5v133.50000000000003h-5Z" fill="#4c78a8"/><path aria-label="Date: Dec 01, 2018; Number of records: 826" role="graphics-symbol" aria-roledescription="bar" d="M157.3947704087118,196.74999999999997h5v103.25000000000003h-5Z" fill="#4c78a8"/><path aria-label="Date: Jan 01, 2019; Number of records: 1319" role="graphics-symbol" aria-roledescription="bar" d="M160.26147959238918,135.125h5v164.875h-5Z" fill="#4c78a8"/><path aria-label="Date: Feb 01, 2019; Number of records: 909" role="graphics-symbol" aria-roledescription="bar" d="M163.1281887760665,186.37500000000003h5v113.62499999999997h-5Z" fill="#4c78a8"/><path aria-label="Date: Mar 01, 2019; Number of records: 956" role="graphics-symbol" aria-roledescription="bar" d="M165.7174744903557,180.5h5v119.5h-5Z" fill="#4c78a8"/><path aria-label="Date: Apr 01, 2019; Number of records: 874" role="graphics-symbol" aria-roledescription="bar" d="M168.58418367403308,190.74999999999997h5v109.25000000000003h-5Z" fill="#4c78a8"/><path aria-label="Date: May 01, 2019; Number of records: 922" role="graphics-symbol" aria-roledescription="bar" d="M171.35841836791437,184.75h5v115.25h-5Z" fill="#4c78a8"/><path aria-label="Date: Jun 01, 2019; Number of records: 830" role="graphics-symbol" aria-roledescription="bar" d="M174.22512755159175,196.25h5v103.75h-5Z" fill="#4c78a8"/><path aria-label="Date: Jul 01, 2019; Number of records: 676" role="graphics-symbol" aria-roledescription="bar" d="M176.99936224547304,215.49999999999997h5v84.50000000000003h-5Z" fill="#4c78a8"/><path aria-label="Date: Aug 01, 2019; Number of records: 829" role="graphics-symbol" aria-roledescription="bar" d="M179.86607142915037,196.375h5v103.625h-5Z" fill="#4c78a8"/><path aria-label="Date: Sep 01, 2019; Number of records: 853" role="graphics-symbol" aria-roledescription="bar" d="M182.73278061282775,193.375h5v106.625h-5Z" fill="#4c78a8"/><path aria-label="Date: Oct 01, 2019; Number of records: 986" role="graphics-symbol" aria-roledescription="bar" d="M185.50701530670904,176.74999999999997h5v123.25000000000003h-5Z" fill="#4c78a8"/><path aria-label="Date: Nov 01, 2019; Number of records: 1049" role="graphics-symbol" aria-roledescription="bar" d="M188.3737244903864,168.87500000000003h5v131.12499999999997h-5Z" fill="#4c78a8"/><path aria-label="Date: Dec 01, 2019; Number of records: 743" role="graphics-symbol" aria-roledescription="bar" d="M191.14795918426768,207.125h5v92.875h-5Z" fill="#4c78a8"/><path aria-label="Date: Jan 01, 2020; Number of records: 960" role="graphics-symbol" aria-roledescription="bar" d="M194.01466836794503,180h5v120h-5Z" fill="#4c78a8"/><path aria-label="Date: Feb 01, 2020; Number of records: 1046" role="graphics-symbol" aria-roledescription="bar" d="M196.8813775516224,169.25h5v130.75h-5Z" fill="#4c78a8"/><path aria-label="Date: Mar 01, 2020; Number of records: 1061" role="graphics-symbol" aria-roledescription="bar" d="M199.56313775570766,167.37499999999997h5v132.62500000000003h-5Z" fill="#4c78a8"/><path aria-label="Date: Apr 01, 2020; Number of records: 939" role="graphics-symbol" aria-roledescription="bar" d="M202.429846939385,182.625h5v117.375h-5Z" fill="#4c78a8"/><path aria-label="Date: May 01, 2020; Number of records: 1096" role="graphics-symbol" aria-roledescription="bar" d="M205.20408163326633,163h5v137h-5Z" fill="#4c78a8"/><path aria-label="Date: Jun 01, 2020; Number of records: 1063" role="graphics-symbol" aria-roledescription="bar" d="M208.07079081694366,167.125h5v132.875h-5Z" fill="#4c78a8"/><path aria-label="Date: Jul 01, 2020; Number of records: 862" role="graphics-symbol" aria-roledescription="bar" d="M210.84502551082497,192.25h5v107.75h-5Z" fill="#4c78a8"/><path aria-label="Date: Aug 01, 2020; Number of records: 1117" role="graphics-symbol" aria-roledescription="bar" d="M213.7117346945023,160.37500000000003h5v139.62499999999997h-5Z" fill="#4c78a8"/><path aria-label="Date: Sep 01, 2020; Number of records: 1239" role="graphics-symbol" aria-roledescription="bar" d="M216.57844387817966,145.125h5v154.875h-5Z" fill="#4c78a8"/><path aria-label="Date: Oct 01, 2020; Number of records: 1403" role="graphics-symbol" aria-roledescription="bar" d="M219.35267857206097,124.625h5v175.375h-5Z" fill="#4c78a8"/><path aria-label="Date: Nov 01, 2020; Number of records: 1422" role="graphics-symbol" aria-roledescription="bar" d="M222.2193877557383,122.24999999999999h5v177.75h-5Z" fill="#4c78a8"/><path aria-label="Date: Dec 01, 2020; Number of records: 1305" role="graphics-symbol" aria-roledescription="bar" d="M224.99362244961964,136.875h5v163.125h-5Z" fill="#4c78a8"/><path aria-label="Date: Jan 01, 2021; Number of records: 1412" role="graphics-symbol" aria-roledescription="bar" d="M227.86033163329697,123.49999999999999h5v176.5h-5Z" fill="#4c78a8"/><path aria-label="Date: Feb 01, 2021; Number of records: 1461" role="graphics-symbol" aria-roledescription="bar" d="M230.7270408169743,117.375h5v182.625h-5Z" fill="#4c78a8"/><path aria-label="Date: Mar 01, 2021; Number of records: 1559" role="graphics-symbol" aria-roledescription="bar" d="M233.31632653126354,105.12500000000001h5v194.875h-5Z" fill="#4c78a8"/><path aria-label="Date: Apr 01, 2021; Number of records: 1512" role="graphics-symbol" aria-roledescription="bar" d="M236.18303571494087,111h5v189h-5Z" fill="#4c78a8"/><path aria-label="Date: May 01, 2021; Number of records: 1590" role="graphics-symbol" aria-roledescription="bar" d="M238.9572704088222,101.25h5v198.75h-5Z" fill="#4c78a8"/><path aria-label="Date: Jun 01, 2021; Number of records: 1557" role="graphics-symbol" aria-roledescription="bar" d="M241.82397959249954,105.37499999999999h5v194.625h-5Z" fill="#4c78a8"/><path aria-label="Date: Jul 01, 2021; Number of records: 1215" role="graphics-symbol" aria-roledescription="bar" d="M244.59821428638082,148.125h5v151.875h-5Z" fill="#4c78a8"/><path aria-label="Date: Aug 01, 2021; Number of records: 1742" role="graphics-symbol" aria-roledescription="bar" d="M247.4649234700582,82.25h5v217.75h-5Z" fill="#4c78a8"/><path aria-label="Date: Sep 01, 2021; Number of records: 1787" role="graphics-symbol" aria-roledescription="bar" d="M250.33163265373554,76.62499999999999h5v223.375h-5Z" fill="#4c78a8"/><path aria-label="Date: Oct 01, 2021; Number of records: 1863" role="graphics-symbol" aria-roledescription="bar" d="M253.10586734761685,67.125h5v232.875h-5Z" fill="#4c78a8"/><path aria-label="Date: Nov 01, 2021; Number of records: 2011" role="graphics-symbol" aria-roledescription="bar" d="M255.97257653129418,48.62500000000001h5v251.375h-5Z" fill="#4c78a8"/><path aria-label="Date: Dec 01, 2021; Number of records: 1659" role="graphics-symbol" aria-roledescription="bar" d="M258.74681122517546,92.62499999999999h5v207.375h-5Z" fill="#4c78a8"/><path aria-label="Date: Jan 01, 2022; Number of records: 1859" role="graphics-symbol" aria-roledescription="bar" d="M261.6135204088529,67.62500000000001h5v232.375h-5Z" fill="#4c78a8"/><path aria-label="Date: Feb 01, 2022; Number of records: 1862" role="graphics-symbol" aria-roledescription="bar" d="M264.4802295925302,67.24999999999999h5v232.75h-5Z" fill="#4c78a8"/><path aria-label="Date: Mar 01, 2022; Number of records: 2201" role="graphics-symbol" aria-roledescription="bar" d="M267.06951530681937,24.874999999999993h5v275.125h-5Z" fill="#4c78a8"/><path aria-label="Date: Apr 01, 2022; Number of records: 1498" role="graphics-symbol" aria-roledescription="bar" d="M269.9362244904968,112.75h5v187.25h-5Z" fill="#4c78a8"/><path aria-label="Date: May 01, 2022; Number of records: 1964" role="graphics-symbol" aria-roledescription="bar" d="M272.71045918437807,54.49999999999999h5v245.5h-5Z" fill="#4c78a8"/><path aria-label="Date: Jun 01, 2022; Number of records: 1578" role="graphics-symbol" aria-roledescription="bar" d="M275.5771683680554,102.75000000000001h5v197.25h-5Z" fill="#4c78a8"/><path aria-label="Date: Jul 01, 2022; Number of records: 1139" role="graphics-symbol" aria-roledescription="bar" d="M278.3514030619367,157.625h5v142.375h-5Z" fill="#4c78a8"/><path aria-label="Date: Aug 01, 2022; Number of records: 1707" role="graphics-symbol" aria-roledescription="bar" d="M281.21811224561407,86.62499999999999h5v213.375h-5Z" fill="#4c78a8"/><path aria-label="Date: Sep 01, 2022; Number of records: 1808" role="graphics-symbol" aria-roledescription="bar" d="M284.0848214292914,74.00000000000001h5v226h-5Z" fill="#4c78a8"/><path aria-label="Date: Oct 01, 2022; Number of records: 1625" role="graphics-symbol" aria-roledescription="bar" d="M286.8590561231727,96.87499999999999h5v203.125h-5Z" fill="#4c78a8"/><path aria-label="Date: Nov 01, 2022; Number of records: 1867" role="graphics-symbol" aria-roledescription="bar" d="M289.72576530685006,66.62499999999999h5v233.375h-5Z" fill="#4c78a8"/><path aria-label="Date: Dec 01, 2022; Number of records: 1498" role="graphics-symbol" aria-roledescription="bar" d="M292.50000000073135,112.75h5v187.25h-5Z" fill="#4c78a8"/></g></g><path class="foreground" aria-hidden="true" d="" display="none"/></g></g></g></svg>