<svg xmlns="http://www.w3.org/2000/svg" xmlns:xlink="http://www.w3.org/1999/xlink" version="1.1" class="marks" width="360" height="347" viewBox="0 0 360 347"><rect width="360" height="347" fill="white"/><g fill="none" stroke-miterlimit="10" transform="translate(54,10)"><g class="mark-group role-frame root" role="graphics-object" aria-roledescription="group mark container"><g transform="translate(0,0)"><path class="background" aria-hidden="true" d="M0.5,0.5h300v300h-300Z" stroke="#ddd"/><g><g class="mark-group role-axis" aria-hidden="true"><g transform="translate(0.5,300.5)"><path class="background" aria-hidden="true" d="M0,0h0v0h0Z" pointer-events="none"/><g><g class="mark-rule role-axis-grid" pointer-events="none"><line transform="translate(0,-300)" x2="0" y2="300" stroke="#ddd" stroke-width="1" opacity="1"/><line transform="translate(30,-300)" x2="0" y2="300" stroke="#ddd" stroke-width="1" opacity="1"/><line transform="translate(60,-300)" x2="0" y2="300" stroke="#ddd" stroke-width="1" opacity="1"/><line transform="translate(90,-300)" x2="0" y2="300" stroke="#ddd" stroke-width="1" opacity="1"/><line transform="translate(120,-300)" x2="0" y2="300" stroke="#ddd" stroke-width="1" opacity="1"/><line transform="translate(150,-300)" x2="0" y2="300" stroke="#ddd" stroke-width="1" opacity="1"/><line transform="translate(180,-300)" x2="0" y2="300" stroke="#ddd" stroke-width="1" opacity="1"/><line transform="translate(210,-300)" x2="0" y2="300" stroke="#ddd" stroke-width="1" opacity="1"/><line transform="translate(240,-300)" x2="0" y2="300" stroke="#ddd" stroke-width="1" opacity="1"/><line transform="translate(270,-300)" x2="0" y2="300" stroke="#ddd" stroke-width="1" opacity="1"/><line transform="translate(300,-300)" x2="0" y2="300" stroke="#ddd" stroke-width="1" opacity="1"/></g></g><path class="foreground" aria-hidden="true" d="" pointer-events="none" display="none"/></g></g><g class="mark-group role-axis" aria-hidden="true"><g transform="translate(0.5,0.5)"><path class="background" aria-hidden="true" d="M0,0h0v0h0Z" pointer-events="none"/><g><g class="mark-rule role-axis-grid" pointer-events="none"><line transform="translate(0,300)" x2="300" y2="0" stroke="#ddd" stroke-width="1" opacity="1"/><line transform="translate(0,267)" x2="300" y2="0" stroke="#ddd" stroke-width="1" opacity="1"/><line transform="translate(0,233)" x2="300" y2="0" stroke="#ddd" stroke-width="1" opacity="1"/><line transform="translate(0,200)" x2="300" y2="0" stroke="#ddd" stroke-width="1" opacity="1"/><line transform="translate(0,167)" x2="300" y2="0" stroke="#ddd" stroke-width="1" opacity="1"/><line transform="translate(0,133)" x2="300" y2="0" stroke="#ddd" stroke-width="1" opacity="1"/><line transform="translate(0,100)" x2="300" y2="0" stroke="#ddd" stroke-width="1" opacity="1"/><line transform="translate(0,67)" x2="300" y2="0" stroke="#ddd" stroke-width="1" opacity="1"/><line transform="translate(0,33)" x2="300" y2="0" stroke="#ddd" stroke-width="1" opacity="1"/><line transform="translate(0,0)" x2="300" y2="0" stroke="#ddd" stroke-width="1" opacity="1"/></g></g><path class="foreground" aria-hidden="true" d="" pointer-events="none" display="none"/></g></g><g class="mark-group role-axis" role="graphics-symbol" aria-roledescription="axis" aria-label="X-axis titled 'Age (years)' for a linear scale with values from 0 to 100"><g transform="translate(0.5,300.5)"><path class="background" aria-hidden="true" d="M0,0h0v0h0Z" pointer-events="none"/><g><g class="mark-rule role-axis-tick" pointer-events="none"><line transform="translate(0,0)" x2="0" y2="5" stroke="#888" stroke-width="1" opacity="1"/><line transform="translate(30,0)" x2="0" y2="5" stroke="#888" stroke-width="1" opacity="1"/><line transform="translate(60,0)" x2="0" y2="5" stroke="#888" stroke-width="1" opacity="1"/><line transform="translate(90,0)" x2="0" y2="5" stroke="#888" stroke-width="1" opacity="1"/><line transform="translate(120,0)" x2="0" y2="5" stroke="#888" stroke-width="1" opacity="1"/><line transform="translate(150,0)" x2="0" y2="5" stroke="#888" stroke-width="1" opacity="1"/><line transform="translate(180,0)" x2="0" y2="5" stroke="#888" stroke-width="1" opacity="1"/><line transform="translate(210,0)" x2="0" y2="5" stroke="#888" stroke-width="1" opacity="1"/><line transform="translate(240,0)" x2="0" y2="5" stroke="#888" stroke-width="1" opacity="1"/><line transform="translate(270,0)" x2="0" y2="5" stroke="#888" stroke-width="1" opacity="1"/><line transform="translate(300,0)" x2="0" y2="5" stroke="#888" stroke-width="1" opacity="1"/></g><g class="mark-text role-axis-label" pointer-events="none"><text text-anchor="start" transform="translate(0,15)" font-family="sans-serif" font-size="10px" fill="#000" opacity="1">0</text><text text-anchor="middle" transform="translate(30,15)" font-family="sans-serif" font-size="10px" fill="#000" opacity="1">10</text><text text-anchor="middle" transform="translate(60,15)" font-family="sans-serif" font-size="10px" fill="#000" opacity="1">20</text><text text-anchor="middle" transform="translate(90,15)" font-family="sans-serif" font-size="10px" fill="#000" opacity="1">30</text><text text-anchor="middle" transform="translate(120,15)" font-family="sans-serif" font-size="10px" fill="#000" opacity="1">40</text><text text-anchor="middle" transform="translate(150,15)" font-family="sans-serif" font-size="10px" fill="#000" opacity="1">50</text><text text-anchor="middle" transform="translate(180,15)" font-family="sans-serif" font-size="10px" fill="#000" opacity="1">60</text><text text-anchor="middle" transform="translate(210,15)" font-family="sans-serif" font-size="10px" fill="#000" opacity="1">70</text><text text-anchor="middle" transform="translate(240,15)" font-family="sans-serif" font-size="10px" fill="#000" opacity="1">80</text><text text-anchor="middle" transform="translate(270,15)" font-family="sans-serif" font-size="10px" fill="#000" opacity="1">90</text><text text-anchor="end" transform="translate(300,15)" font-family="sans-serif" font-size="10px" fill="#000" opacity="1">100</text></g><g class="mark-rule role-axis-domain" pointer-events="none"><line transform="translate(0,0)" x2="300" y2="0" stroke="#888" stroke-width="1" opacity="1"/></g><g class="mark-text role-axis-title" pointer-events="none"><text text-anchor="middle" transform="translate(150,30)" font-family="sans-serif" font-size="11px" font-weight="bold" fill="#000" opacity="1">Age (years)</text></g></g><path class="foreground" aria-hidden="true" d="" pointer-events="none" display="none"/></g></g><g class="mark-group role-axis" role="graphics-symbol" aria-roledescription="axis" aria-label="Y-axis titled 'Number of people' for a linear scale with values from 0 to 1,800"><g transform="translate(0.5,0.5)"><path class="background" aria-hidden="true" d="M0,0h0v0h0Z" pointer-events="none"/><g><g class="mark-rule role-axis-tick" pointer-events="none"><line transform="translate(0,300)" x2="-5" y2="0" stroke="#888" stroke-width="1" opacity="1"/><line transform="translate(0,267)" x2="-5" y2="0" stroke="#888" stroke-width="1" opacity="1"/><line transform="translate(0,233)" x2="-5" y2="0" stroke="#888" stroke-width="1" opacity="1"/><line transform="translate(0,200)" x2="-5" y2="0" stroke="#888" stroke-width="1" opacity="1"/><line transform="translate(0,167)" x2="-5" y2="0" stroke="#888" stroke-width="1" opacity="1"/><line transform="translate(0,133)" x2="-5" y2="0" stroke="#888" stroke-width="1" opacity="1"/><line transform="translate(0,100)" x2="-5" y2="0" stroke="#888" stroke-width="1" opacity="1"/><line transform="translate(0,67)" x2="-5" y2="0" stroke="#888" stroke-width="1" opacity="1"/><line transform="translate(0,33)" x2="-5" y2="0" stroke="#888" stroke-width="1" opacity="1"/><line transform="translate(0,0)" x2="-5" y2="0" stroke="#888" stroke-width="1" opacity="1"/></g><g class="mark-text role-axis-label" pointer-events="none"><text text-anchor="end" transform="translate(-7,303)" font-family="sans-serif" font-size="10px" fill="#000" opacity="1">0</text><text text-anchor="end" transform="translate(-7,269.66666666666663)" font-family="sans-serif" font-size="10px" fill="#000" opacity="1">200</text><text text-anchor="end" transform="translate(-7,236.33333333333334)" font-family="sans-serif" font-size="10px" fill="#000" opacity="1">400</text><text text-anchor="end" transform="translate(-7,203.00000000000003)" font-family="sans-serif" font-size="10px" fill="#000" opacity="1">600</text><text text-anchor="end" transform="translate(-7,169.66666666666669)" font-family="sans-serif" font-size="10px" fill="#000" opacity="1">800</text><text text-anchor="end" transform="translate(-7,136.33333333333331)" font-family="sans-serif" font-size="10px" fill="#000" opacity="1">1,000</text><text text-anchor="end" transform="translate(-7,103.00000000000001)" font-family="sans-serif" font-size="10px" fill="#000" opacity="1">1,200</text><text text-anchor="end" transform="translate(-7,69.66666666666666)" font-family="sans-serif" font-size="10px" fill="#000" opacity="1">1,400</text><text text-anchor="end" transform="translate(-7,36.33333333333335)" font-family="sans-serif" font-size="10px" fill="#000" opacity="1">1,600</text><text text-anchor="end" transform="translate(-7,3)" font-family="sans-serif" font-size="10px" fill="#000" opacity="1">1,800</text></g><g class="mark-rule role-axis-domain" pointer-events="none"><line transform="translate(0,300)" x2="0" y2="-300" stroke="#888" stroke-width="1" opacity="1"/></g><g class="mark-text role-axis-title" pointer-events="none"><text text-anchor="middle" transform="translate(-37.86666679382324,150) rotate(-90) translate(0,-2)" font-family="sans-serif" font-size="11px" font-weight="bold" fill="#000" opacity="1">Number of people</text></g></g><path class="foreground" aria-hidden="true" d="" pointer-events="none" display="none"/></g></g><g class="mark-rect role-mark marks" role="graphics-object" aria-roledescription="rect mark container"><path aria-label="Age (years): 0; Number of people: 5; BinRight: 1" role="graphics-symbol" aria-roledescription="rect mark" d="M0,299.1666666666667h3v0.8333333333333144h-3Z" fill="#4c78a8"/><path aria-label="Age (years): 1; Number of people: 57; BinRight: 2" role="graphics-symbol" aria-roledescription="rect mark" d="M3,290.5h3v9.5h-3Z" fill="#4c78a8"/><path aria-label="Age (years): 2; Number of people: 142; BinRight: 3" role="graphics-symbol" aria-roledescription="rect mark" d="M6,276.3333333333333h3v23.666666666666686h-3Z" fill="#4c78a8"/><path aria-label="Age (years): 3; Number of people: 146; BinRight: 4" role="graphics-symbol" aria-roledescription="rect mark" d="M9,275.6666666666667h3v24.333333333333314h-3Z" fill="#4c78a8"/><path aria-label="Age (years): 4; Number of people: 152; BinRight: 5" role="graphics-symbol" aria-roledescription="rect mark" d="M12,274.6666666666667h3v25.333333333333314h-3Z" fill="#4c78a8"/><path aria-label="Age (years): 5; Number of people: 154; BinRight: 6" role="graphics-symbol" aria-roledescription="rect mark" d="M15,274.3333333333333h3v25.666666666666686h-3Z" fill="#4c78a8"/><path aria-label="Age (years): 6; Number of people: 152; BinRight: 7" role="graphics-symbol" aria-roledescription="rect mark" d="M18,274.6666666666667h3.0000000000000036v25.333333333333314h-3.0000000000000036Z" fill="#4c78a8"/><path aria-label="Age (years): 7; Number of people: 139; BinRight: 8" role="graphics-symbol" aria-roledescription="rect mark" d="M21.000000000000004,276.8333333333333h2.9999999999999964v23.166666666666686h-2.9999999999999964Z" fill="#4c78a8"/><path aria-label="Age (years): 8; Number of people: 188; BinRight: 9" role="graphics-symbol" aria-roledescription="rect mark" d="M24,268.6666666666667h3v31.333333333333314h-3Z" fill="#4c78a8"/><path aria-label="Age (years): 9; Number of people: 201; BinRight: 10" role="graphics-symbol" aria-roledescription="rect mark" d="M27,266.5h3v33.5h-3Z" fill="#4c78a8"/><path aria-label="Age (years): 10; Number of people: 215; BinRight: 11" role="graphics-symbol" aria-roledescription="rect mark" d="M30,264.1666666666667h3v35.833333333333314h-3Z" fill="#4c78a8"/><path aria-label="Age (years): 11; Number of people: 261; BinRight: 12" role="graphics-symbol" aria-roledescription="rect mark" d="M33,256.5h3v43.5h-3Z" fill="#4c78a8"/><path aria-label="Age (years): 12; Number of people: 264; BinRight: 13" role="graphics-symbol" aria-roledescription="rect mark" d="M36,255.99999999999997h3v44.00000000000003h-3Z" fill="#4c78a8"/><path aria-label="Age (years): 13; Number of people: 295; BinRight: 14" role="graphics-symbol" aria-roledescription="rect mark" d="M39,250.83333333333334h3.000000000000007v49.16666666666666h-3.000000000000007Z" fill="#4c78a8"/><path aria-label="Age (years): 14; Number of people: 360; BinRight: 15" role="graphics-symbol" aria-roledescription="rect mark" d="M42.00000000000001,240h2.999999999999993v60h-2.999999999999993Z" fill="#4c78a8"/><path aria-label="Age (years): 15; Number of people: 351; BinRight: 16" role="graphics-symbol" aria-roledescription="rect mark" d="M45,241.49999999999997h3v58.50000000000003h-3Z" fill="#4c78a8"/><path aria-label="Age (years): 16; Number of people: 421; BinRight: 17" role="graphics-symbol" aria-roledescription="rect mark" d="M48,229.83333333333331h3.000000000000007v70.16666666666669h-3.000000000000007Z" fill="#4c78a8"/><path aria-label="Age (years): 17; Number of people: 363; BinRight: 18" role="graphics-symbol" aria-roledescription="rect mark" d="M51.00000000000001,239.5h2.999999999999993v60.5h-2.999999999999993Z" fill="#4c78a8"/><path aria-label="Age (years): 18; Number of people: 311; BinRight: 19" role="graphics-symbol" aria-roledescription="rect mark" d="M54,248.16666666666666h3v51.83333333333334h-3Z" fill="#4c78a8"/><path aria-label="Age (years): 19; Number of people: 361; BinRight: 20" role="graphics-symbol" aria-roledescription="rect mark" d="M57,239.83333333333331h3v60.166666666666686h-3Z" fill="#4c78a8"/><path aria-label="Age (years): 20; Number of people: 397; BinRight: 21" role="graphics-symbol" aria-roledescription="rect mark" d="M60,233.83333333333331h3v66.16666666666669h-3Z" fill="#4c78a8"/><path aria-label="Age (years): 21; Number of people: 456; BinRight: 22" role="graphics-symbol" aria-roledescription="rect mark" d="M63,223.99999999999997h3v76.00000000000003h-3Z" fill="#4c78a8"/><path aria-label="Age (years): 22; Number of people: 541; BinRight: 23" role="graphics-symbol" aria-roledescription="rect mark" d="M66,209.83333333333331h3v90.16666666666669h-3Z" fill="#4c78a8"/><path aria-label="Age (years): 23; Number of people: 523; BinRight: 24" role="graphics-symbol" aria-roledescription="rect mark" d="M69,212.83333333333334h3v87.16666666666666h-3Z" fill="#4c78a8"/><path aria-label="Age (years): 24; Number of people: 580; BinRight: 25" role="graphics-symbol" aria-roledescription="rect mark" d="M72,203.33333333333334h3v96.66666666666666h-3Z" fill="#4c78a8"/><path aria-label="Age (years): 25; Number of people: 605; BinRight: 26" role="graphics-symbol" aria-roledescription="rect mark" d="M75,199.16666666666666h3v100.83333333333334h-3Z" fill="#4c78a8"/><path aria-label="Age (years): 26; Number of people: 639; BinRight: 27" role="graphics-symbol" aria-roledescription="rect mark" d="M78,193.5h3v106.5h-3Z" fill="#4c78a8"/><path aria-label="Age (years): 27; Number of people: 708; BinRight: 28" role="graphics-symbol" aria-roledescription="rect mark" d="M81,182h3.000000000000014v118h-3.000000000000014Z" fill="#4c78a8"/><path aria-label="Age (years): 28; Number of people: 683; BinRight: 29" role="graphics-symbol" aria-roledescription="rect mark" d="M84.00000000000001,186.16666666666666h2.999999999999986v113.83333333333334h-2.999999999999986Z" fill="#4c78a8"/><path aria-label="Age (years): 29; Number of people: 693; BinRight: 30" role="graphics-symbol" aria-roledescription="rect mark" d="M87,184.5h3v115.5h-3Z" fill="#4c78a8"/><path aria-label="Age (years): 30; Number of people: 683; BinRight: 31" role="graphics-symbol" aria-roledescription="rect mark" d="M90,186.16666666666666h3v113.83333333333334h-3Z" fill="#4c78a8"/><path aria-label="Age (years): 31; Number of people: 749; BinRight: 32" role="graphics-symbol" aria-roledescription="rect mark" d="M93,175.16666666666666h3v124.83333333333334h-3Z" fill="#4c78a8"/><path aria-label="Age (years): 32; Number of people: 781; BinRight: 33" role="graphics-symbol" aria-roledescription="rect mark" d="M96,169.83333333333334h3v130.16666666666666h-3Z" fill="#4c78a8"/><path aria-label="Age (years): 33; Number of people: 814; BinRight: 34" role="graphics-symbol" aria-roledescription="rect mark" d="M99,164.33333333333331h3.000000000000014v135.66666666666669h-3.000000000000014Z" fill="#4c78a8"/><path aria-label="Age (years): 34; Number of people: 818; BinRight: 35" role="graphics-symbol" aria-roledescription="rect mark" d="M102.00000000000001,163.66666666666669h2.999999999999986v136.33333333333331h-2.999999999999986Z" fill="#4c78a8"/><path aria-label="Age (years): 35; Number of people: 857; BinRight: 36" role="graphics-symbol" aria-roledescription="rect mark" d="M105,157.16666666666666h3v142.83333333333334h-3Z" fill="#4c78a8"/><path aria-label="Age (years): 36; Number of people: 933; BinRight: 37" role="graphics-symbol" aria-roledescription="rect mark" d="M108,144.5h3v155.5h-3Z" fill="#4c78a8"/><path aria-label="Age (years): 37; Number of people: 923; BinRight: 38" role="graphics-symbol" aria-roledescription="rect mark" d="M111,146.16666666666666h3v153.83333333333334h-3Z" fill="#4c78a8"/><path aria-label="Age (years): 38; Number of people: 983; BinRight: 39" role="graphics-symbol" aria-roledescription="rect mark" d="M114,136.16666666666666h3v163.83333333333334h-3Z" fill="#4c78a8"/><path aria-label="Age (years): 39; Number of people: 1025; BinRight: 40" role="graphics-symbol" aria-roledescription="rect mark" d="M117,129.16666666666669h3v170.83333333333331h-3Z" fill="#4c78a8"/><path aria-label="Age (years): 40; Number of people: 1004; BinRight: 41" role="graphics-symbol" aria-roledescription="rect mark" d="M120,132.66666666666666h2.999999999999986v167.33333333333334h-2.999999999999986Z" fill="#4c78a8"/><path aria-label="Age (years): 41; Number of people: 1050; BinRight: 42" role="graphics-symbol" aria-roledescription="rect mark" d="M122.99999999999999,124.99999999999999h3.000000000000014v175h-3.000000000000014Z" fill="#4c78a8"/><path aria-label="Age (years): 42; Number of people: 1006; BinRight: 43" role="graphics-symbol" aria-roledescription="rect mark" d="M126,132.33333333333334h3v167.66666666666666h-3Z" fill="#4c78a8"/><path aria-label="Age (years): 43; Number of people: 1089; BinRight: 44" role="graphics-symbol" aria-roledescription="rect mark" d="M129,118.5h3v181.5h-3Z" fill="#4c78a8"/><path aria-label="Age (years): 44; Number of people: 1132; BinRight: 45" role="graphics-symbol" aria-roledescription="rect mark" d="M132,111.33333333333331h3v188.66666666666669h-3Z" fill="#4c78a8"/><path aria-label="Age (years): 45; Number of people: 1174; BinRight: 46" role="graphics-symbol" aria-roledescription="rect mark" d="M135,104.33333333333333h3v195.66666666666669h-3Z" fill="#4c78a8"/><path aria-label="Age (years): 46; Number of people: 1063; BinRight: 47" role="graphics-symbol" aria-roledescription="rect mark" d="M138,122.83333333333334h3v177.16666666666666h-3Z" fill="#4c78a8"/><path aria-label="Age (years): 47; Number of people: 1186; BinRight: 48" role="graphics-symbol" aria-roledescription="rect mark" d="M141,102.33333333333334h3v197.66666666666666h-3Z" fill="#4c78a8"/><path aria-label="Age (years): 48; Number of people: 1109; BinRight: 49" role="graphics-symbol" aria-roledescription="rect mark" d="M144,115.16666666666666h3v184.83333333333334h-3Z" fill="#4c78a8"/><path aria-label="Age (years): 49; Number of people: 1222; BinRight: 50" role="graphics-symbol" aria-roledescription="rect mark" d="M147,96.33333333333334h3v203.66666666666666h-3Z" fill="#4c78a8"/><path aria-label="Age (years): 50; Number of people: 1295; BinRight: 51" role="graphics-symbol" aria-roledescription="rect mark" d="M150,84.16666666666667h3v215.83333333333331h-3Z" fill="#4c78a8"/><path aria-label="Age (years): 51; Number of people: 1349; BinRight: 52" role="graphics-symbol" aria-roledescription="rect mark" d="M153,75.16666666666666h3v224.83333333333334h-3Z" fill="#4c78a8"/><path aria-label="Age (years): 52; Number of people: 1524; BinRight: 53" role="graphics-symbol" aria-roledescription="rect mark" d="M156,46h3v254h-3Z" fill="#4c78a8"/><path aria-label="Age (years): 53; Number of people: 1511; BinRight: 54" role="graphics-symbol" aria-roledescription="rect mark" d="M159,48.16666666666667h3v251.83333333333331h-3Z" fill="#4c78a8"/><path aria-label="Age (years): 54; Number of people: 1576; BinRight: 55" role="graphics-symbol" aria-roledescription="rect mark" d="M162,37.33333333333334h3v262.66666666666663h-3Z" fill="#4c78a8"/><path aria-label="Age (years): 55; Number of people: 1661; BinRight: 56" role="graphics-symbol" aria-roledescription="rect mark" d="M165,23.166666666666657h3.0000000000000284v276.83333333333337h-3.0000000000000284Z" fill="#4c78a8"/><path aria-label="Age (years): 56; Number of people: 1628; BinRight: 57" role="graphics-symbol" aria-roledescription="rect mark" d="M168.00000000000003,28.66666666666665h2.999999999999943v271.33333333333337h-2.999999999999943Z" fill="#4c78a8"/><path aria-label="Age (years): 57; Number of people: 1601; BinRight: 58" role="graphics-symbol" aria-roledescription="rect mark" d="M170.99999999999997,33.16666666666666h3.0000000000000284v266.83333333333337h-3.0000000000000284Z" fill="#4c78a8"/><path aria-label="Age (years): 58; Number of people: 1599; BinRight: 59" role="graphics-symbol" aria-roledescription="rect mark" d="M174,33.50000000000001h3v266.5h-3Z" fill="#4c78a8"/><path aria-label="Age (years): 59; Number of people: 1584; BinRight: 60" role="graphics-symbol" aria-roledescription="rect mark" d="M177,36h3v264h-3Z" fill="#4c78a8"/><path aria-label="Age (years): 60; Number of people: 1593; BinRight: 61" role="graphics-symbol" aria-roledescription="rect mark" d="M180,34.5h3v265.5h-3Z" fill="#4c78a8"/><path aria-label="Age (years): 61; Number of people: 1531; BinRight: 62" role="graphics-symbol" aria-roledescription="rect mark" d="M183,44.83333333333335h3v255.16666666666666h-3Z" fill="#4c78a8"/><path aria-label="Age (years): 62; Number of people: 1480; BinRight: 63" role="graphics-symbol" aria-roledescription="rect mark" d="M186,53.33333333333334h3v246.66666666666666h-3Z" fill="#4c78a8"/><path aria-label="Age (years): 63; Number of people: 1386; BinRight: 64" role="graphics-symbol" aria-roledescription="rect mark" d="M189,69h3v231h-3Z" fill="#4c78a8"/><path aria-label="Age (years): 64; Number of people: 1273; BinRight: 65" role="graphics-symbol" aria-roledescription="rect mark" d="M192,87.83333333333334h3v212.16666666666666h-3Z" fill="#4c78a8"/><path aria-label="Age (years): 65; Number of people: 1304; BinRight: 66" role="graphics-symbol" aria-roledescription="rect mark" d="M195,82.66666666666667h3v217.33333333333331h-3Z" fill="#4c78a8"/><path aria-label="Age (years): 66; Number of people: 1337; BinRight: 67" role="graphics-symbol" aria-roledescription="rect mark" d="M198,77.16666666666667h3v222.83333333333331h-3Z" fill="#4c78a8"/><path aria-label="Age (years): 67; Number of people: 1401; BinRight: 68" role="graphics-symbol" aria-roledescription="rect mark" d="M201,66.5h3.0000000000000284v233.5h-3.0000000000000284Z" fill="#4c78a8"/><path aria-label="Age (years): 68; Number of people: 1383; BinRight: 69" role="graphics-symbol" aria-roledescription="rect mark" d="M204.00000000000003,69.5h2.999999999999943v230.5h-2.999999999999943Z" fill="#4c78a8"/><path aria-label="Age (years): 69; Number of people: 1464; BinRight: 70" role="graphics-symbol" aria-roledescription="rect mark" d="M206.99999999999997,55.99999999999999h3.0000000000000284v244h-3.0000000000000284Z" fill="#4c78a8"/><path aria-label="Age (years): 70; Number of people: 1515; BinRight: 71" role="graphics-symbol" aria-roledescription="rect mark" d="M210,47.5h3v252.5h-3Z" fill="#4c78a8"/><path aria-label="Age (years): 71; Number of people: 1409; BinRight: 72" role="graphics-symbol" aria-roledescription="rect mark" d="M213,65.16666666666666h3v234.83333333333334h-3Z" fill="#4c78a8"/><path aria-label="Age (years): 72; Number of people: 1395; BinRight: 73" role="graphics-symbol" aria-roledescription="rect mark" d="M216,67.5h3v232.5h-3Z" fill="#4c78a8"/><path aria-label="Age (years): 73; Number of people: 1360; BinRight: 74" role="graphics-symbol" aria-roledescription="rect mark" d="M219,73.33333333333334h3v226.66666666666666h-3Z" fill="#4c78a8"/><path aria-label="Age (years): 74; Number of people: 1349; BinRight: 75" role="graphics-symbol" aria-roledescription="rect mark" d="M222,75.16666666666666h3v224.83333333333334h-3Z" fill="#4c78a8"/><path aria-label="Age (years): 75; Number of people: 1263; BinRight: 76" role="graphics-symbol" aria-roledescription="rect mark" d="M225,89.5h3v210.5h-3Z" fill="#4c78a8"/><path aria-label="Age (years): 76; Number of people: 1245; BinRight: 77" role="graphics-symbol" aria-roledescription="rect mark" d="M228,92.5h3v207.5h-3Z" fill="#4c78a8"/><path aria-label="Age (years): 77; Number of people: 1056; BinRight: 78" role="graphics-symbol" aria-roledescription="rect mark" d="M231,124h3v176h-3Z" fill="#4c78a8"/><path aria-label="Age (years): 78; Number of people: 989; BinRight: 79" role="graphics-symbol" aria-roledescription="rect mark" d="M234,135.16666666666669h3v164.83333333333331h-3Z" fill="#4c78a8"/><path aria-label="Age (years): 79; Number of people: 878; BinRight: 80" role="graphics-symbol" aria-roledescription="rect mark" d="M237,153.66666666666669h3v146.33333333333331h-3Z" fill="#4c78a8"/><path aria-label="Age (years): 80; Number of people: 852; BinRight: 81" role="graphics-symbol" aria-roledescription="rect mark" d="M240,157.99999999999997h3.0000000000000284v142.00000000000003h-3.0000000000000284Z" fill="#4c78a8"/><path aria-label="Age (years): 81; Number of people: 738; BinRight: 82" role="graphics-symbol" aria-roledescription="rect mark" d="M243.00000000000003,177.00000000000003h2.999999999999943v122.99999999999997h-2.999999999999943Z" fill="#4c78a8"/><path aria-label="Age (years): 82; Number of people: 673; BinRight: 83" role="graphics-symbol" aria-roledescription="rect mark" d="M245.99999999999997,187.83333333333331h3.0000000000000284v112.16666666666669h-3.0000000000000284Z" fill="#4c78a8"/><path aria-label="Age (years): 83; Number of people: 682; BinRight: 84" role="graphics-symbol" aria-roledescription="rect mark" d="M249,186.33333333333334h3v113.66666666666666h-3Z" fill="#4c78a8"/><path aria-label="Age (years): 84; Number of people: 553; BinRight: 85" role="graphics-symbol" aria-roledescription="rect mark" d="M252,207.83333333333331h3v92.16666666666669h-3Z" fill="#4c78a8"/><path aria-label="Age (years): 85; Number of people: 443; BinRight: 86" role="graphics-symbol" aria-roledescription="rect mark" d="M255,226.16666666666666h3v73.83333333333334h-3Z" fill="#4c78a8"/><path aria-label="Age (years): 86; Number of people: 427; BinRight: 87" role="graphics-symbol" aria-roledescription="rect mark" d="M258,228.83333333333334h3v71.16666666666666h-3Z" fill="#4c78a8"/><path aria-label="Age (years): 87; Number of people: 307; BinRight: 88" role="graphics-symbol" aria-roledescription="rect mark" d="M261,248.83333333333331h3v51.166666666666686h-3Z" fill="#4c78a8"/><path aria-label="Age (years): 88; Number of people: 269; BinRight: 89" role="graphics-symbol" aria-roledescription="rect mark" d="M264,255.16666666666666h3v44.83333333333334h-3Z" fill="#4c78a8"/><path aria-label="Age (years): 89; Number of people: 203; BinRight: 90" role="graphics-symbol" aria-roledescription="rect mark" d="M267,266.1666666666667h3v33.833333333333314h-3Z" fill="#4c78a8"/><path aria-label="Age (years): 90; Number of people: 158; BinRight: 91" role="graphics-symbol" aria-roledescription="rect mark" d="M270,273.6666666666667h3v26.333333333333314h-3Z" fill="#4c78a8"/><path aria-label="Age (years): 91; Number of people: 126; BinRight: 92" role="graphics-symbol" aria-roledescription="rect mark" d="M273,279h3v21h-3Z" fill="#4c78a8"/><path aria-label="Age (years): 92; Number of people: 98; BinRight: 93" role="graphics-symbol" aria-roledescription="rect mark" d="M276,283.6666666666667h3v16.333333333333314h-3Z" fill="#4c78a8"/><path aria-label="Age (years): 93; Number of people: 51; BinRight: 94" role="graphics-symbol" aria-roledescription="rect mark" d="M279,291.5h3v8.5h-3Z" fill="#4c78a8"/><path aria-label="Age (years): 94; Number of people: 36; BinRight: 95" role="graphics-symbol" aria-roledescription="rect mark" d="M282,294h3v6h-3Z" fill="#4c78a8"/><path aria-label="Age (years): 95; Number of people: 20; BinRight: 96" role="graphics-symbol" aria-roledescription="rect mark" d="M285,296.6666666666667h3v3.3333333333333144h-3Z" fill="#4c78a8"/><path aria-label="Age (years): 96; Number of people: 10; BinRight: 97" role="graphics-symbol" aria-roledescription="rect mark" d="M288,298.3333333333333h3v1.6666666666666856h-3Z" fill="#4c78a8"/><path aria-label="Age (years): 97; Number of people: 9; BinRight: 98" role="graphics-symbol" aria-roledescription="rect mark" d="M291,298.5h3v1.5h-3Z" fill="#4c78a8"/></g></g><path class="foreground" aria-hidden="true" d="" display="none"/></g></g></g></svg>